<?xml version="1.0" encoding="utf-8"?>
<!DOCTYPE svg PUBLIC "-//W3C//DTD SVG 20010904//EN" "http://www.w3.org/TR/2001/REC-SVG-20010904/DTD/svg10.dtd">
<svg version="1.0" xmlns="http://www.w3.org/2000/svg" width="498pt" height="602pt" viewBox="0 0 498 602" style="" preserveAspectRatio="xMidYMid meet">
<g fill="#C8003EFE" stroke="#C8003EFE">
<path d="M 242.761 15.470 C 242.501 16.828 242.674 17.702 243.144 17.411 C 244.187 16.766 244.254 19.096 243.235 20.543 C 242.831 21.116 239.350 21.691 235.500 21.821 C 225.643 22.152 206.896 24.758 197.820 27.060 C 104.190 50.799 43.007 144.873 43.001 265.105 C 42.998 313.410 51.856 360.389 68.718 401.500 C 76.143 419.602 86.648 439.336 88.312 438.307 C 88.871 437.961 88.998 438.195 88.600 438.839 C 87.935 439.914 100.472 459.487 103.360 461.884 C 104.073 462.476 105.747 463.161 107.078 463.406 C 108.410 463.651 109.062 463.885 108.527 463.926 C 107.993 463.967 108.630 464.753 109.943 465.673 C 111.257 466.593 112.037 466.869 111.677 466.287 C 111.317 465.704 111.873 465.005 112.912 464.733 C 115.373 464.090 117.732 460.000 115.642 460.000 C 114.857 460.000 113.958 459.332 113.644 458.515 C 112.818 456.361 116.298 454.783 119.332 455.936 C 122.138 457.003 123.466 456.267 121.975 454.470 C 121.233 453.575 121.826 453.067 124.234 452.535 C 126.030 452.138 126.938 451.593 126.250 451.323 C 124.540 450.653 124.670 449.000 126.433 449.000 C 127.221 449.000 128.144 448.123 128.484 447.051 C 128.858 445.872 129.675 445.322 130.551 445.658 C 131.596 446.059 132.000 445.461 132.000 443.513 C 132.000 441.654 132.623 440.650 134.000 440.290 C 136.349 439.675 136.652 437.464 134.500 436.638 C 133.675 436.322 133.000 435.583 133.000 434.996 C 133.000 434.323 133.645 434.243 134.750 434.781 C 135.713 435.249 136.968 435.603 137.539 435.566 C 138.907 435.479 145.000 429.223 145.000 427.907 C 145.000 427.343 145.427 427.146 145.950 427.469 C 147.127 428.196 149.309 424.329 148.644 422.695 C 148.282 421.806 148.138 421.820 148.079 422.750 C 147.986 424.223 145.000 424.466 145.000 423.000 C 145.000 422.450 145.477 422.000 146.059 422.000 C 146.641 422.000 146.848 421.563 146.518 421.029 C 146.188 420.495 147.058 419.773 148.451 419.423 C 150.576 418.890 150.882 418.378 150.348 416.249 C 149.760 413.909 149.917 413.762 152.355 414.374 C 154.455 414.901 155.016 414.673 155.079 413.269 C 155.125 412.230 155.365 412.014 155.661 412.745 C 155.937 413.430 154.699 415.455 152.908 417.245 C 150.291 419.862 149.981 420.563 151.327 420.823 C 152.488 421.048 153.024 420.436 153.079 418.823 C 153.122 417.545 153.384 417.058 153.659 417.741 C 154.319 419.373 157.000 416.829 157.000 414.571 C 157.000 413.707 157.563 413.113 158.250 413.250 C 158.953 413.391 159.638 412.297 159.816 410.750 C 160.019 408.993 159.657 407.989 158.816 407.968 C 157.855 407.945 157.921 407.608 159.062 406.718 C 159.921 406.048 160.934 404.675 161.312 403.667 C 162.063 401.668 164.112 401.835 164.817 403.952 C 165.101 404.802 164.813 405.003 164.018 404.511 C 163.310 404.074 162.401 404.336 161.904 405.122 C 159.365 409.129 163.186 409.019 166.158 405.000 C 168.720 401.535 169.569 401.361 172.421 403.717 C 173.565 404.662 172.061 402.882 169.080 399.763 C 166.099 396.644 163.217 394.366 162.675 394.701 C 162.124 395.041 162.007 394.798 162.409 394.147 C 162.811 393.497 162.438 392.722 161.563 392.386 C 160.704 392.056 160.000 391.406 160.000 390.941 C 160.000 390.476 157.952 387.167 155.450 383.587 C 140.843 362.692 129.522 325.158 128.308 293.600 C 127.095 262.077 134.882 223.288 147.351 198.749 C 168.697 156.737 207.201 130.284 240.270 134.911 C 264.881 138.354 281.868 152.355 298.222 182.673 C 300.398 186.707 302.272 190.569 302.387 191.254 C 302.502 191.939 303.186 193.575 303.907 194.889 C 305.976 198.656 313.043 219.000 312.284 219.000 C 311.908 219.000 312.140 219.540 312.800 220.200 C 313.460 220.860 314.000 222.196 314.000 223.169 C 314.000 224.401 314.531 224.766 315.750 224.374 C 316.803 224.035 317.073 224.147 316.427 224.656 C 315.837 225.120 315.052 226.317 314.683 227.315 C 314.154 228.747 314.399 229.008 315.840 228.551 C 317.005 228.181 317.667 228.470 317.667 229.348 C 317.667 230.231 316.952 230.539 315.677 230.205 C 314.208 229.821 313.902 230.032 314.508 231.012 C 315.087 231.950 314.885 232.170 313.819 231.761 C 312.610 231.297 312.275 232.183 312.132 236.224 C 312.034 238.997 311.713 241.656 311.418 242.133 C 311.123 242.610 311.327 243.000 311.871 243.000 C 312.416 243.000 313.056 241.988 313.294 240.750 C 313.629 239.013 314.000 245.851 314.000 253.750 C 314.000 254.163 313.512 254.500 312.917 254.500 C 312.321 254.500 312.140 254.806 312.514 255.181 C 312.889 255.556 313.900 255.592 314.762 255.261 C 315.925 254.815 316.100 255.026 315.442 256.080 C 314.189 258.089 314.016 260.000 315.088 260.000 C 315.590 260.000 316.000 260.477 316.000 261.059 C 316.000 261.641 315.588 261.864 315.085 261.553 C 313.733 260.717 313.165 263.170 314.116 265.741 C 314.571 266.974 314.655 268.735 314.302 269.655 C 313.820 270.912 314.014 271.115 315.080 270.472 C 316.289 269.743 316.297 269.866 315.137 271.296 C 313.976 272.728 314.002 273.064 315.315 273.567 C 316.330 273.957 316.658 274.898 316.278 276.329 C 315.961 277.523 315.656 283.567 315.601 289.760 C 315.524 298.388 315.792 300.908 316.750 300.541 C 317.438 300.278 318.000 300.499 318.000 301.031 C 318.000 301.564 317.423 302.000 316.718 302.000 C 314.731 302.000 314.755 307.089 316.750 308.642 C 318.416 309.940 318.416 309.976 316.750 309.395 C 314.705 308.683 314.731 308.575 315.936 312.776 C 316.483 314.684 316.495 315.806 315.965 315.478 C 315.154 314.977 314.755 316.090 313.529 322.268 C 313.336 323.240 313.886 324.743 314.751 325.608 C 316.089 326.946 316.113 327.315 314.912 328.075 C 314.135 328.567 313.907 328.976 314.405 328.985 C 314.903 328.993 314.453 329.977 313.405 331.172 C 312.357 332.366 312.031 333.034 312.681 332.656 C 313.330 332.277 314.144 332.425 314.490 332.984 C 314.835 333.543 314.615 334.000 314.000 334.000 C 313.385 334.000 313.141 334.419 313.457 334.931 C 313.774 335.443 313.688 336.075 313.266 336.335 C 312.845 336.596 312.649 336.739 312.831 336.655 C 313.013 336.570 313.832 337.625 314.650 339.000 C 315.469 340.375 315.913 340.757 315.638 339.849 C 315.316 338.784 315.845 338.012 317.126 337.677 C 318.745 337.254 318.897 337.419 317.945 338.566 C 317.302 339.341 317.026 340.624 317.330 341.419 C 317.720 342.434 317.306 342.752 315.936 342.488 C 314.223 342.158 314.008 342.647 314.156 346.556 C 314.313 350.696 315.982 353.114 316.015 349.250 C 316.029 347.738 316.177 347.704 317.102 349.000 C 317.967 350.211 318.081 350.076 317.693 348.298 C 317.429 347.087 317.575 345.962 318.018 345.798 C 318.460 345.634 319.856 339.650 321.119 332.500 C 323.076 321.416 323.421 315.962 323.457 295.500 C 323.507 267.675 321.765 249.010 319.116 248.985 C 317.877 248.973 317.805 248.776 318.805 248.142 C 320.121 247.307 319.642 239.086 318.013 234.560 C 317.489 233.103 318.271 231.711 321.152 228.971 C 323.262 226.963 324.766 225.100 324.495 224.829 C 324.225 224.558 325.015 223.783 326.252 223.107 C 327.488 222.430 329.302 220.788 330.283 219.457 L 332.066 217.037 328.783 217.662 C 324.757 218.429 324.179 218.875 325.863 219.915 C 326.870 220.538 326.766 220.876 325.406 221.398 C 324.362 221.798 323.020 221.448 322.108 220.537 C 321.080 219.508 320.973 219.000 321.786 219.000 C 322.454 219.000 323.029 219.563 323.063 220.250 C 323.098 220.938 323.534 220.488 324.031 219.250 C 324.553 217.951 325.795 217.000 326.968 217.000 C 328.786 217.000 329.469 215.969 329.118 213.750 C 329.053 213.338 329.948 213.000 331.107 213.000 C 332.701 213.000 333.052 212.574 332.548 211.250 C 332.026 209.879 332.145 209.762 333.098 210.708 C 334.054 211.656 334.036 212.251 333.015 213.482 C 332.300 214.343 331.997 215.331 332.342 215.675 C 332.687 216.020 333.634 214.772 334.446 212.901 C 335.257 211.031 335.939 210.132 335.961 210.905 C 335.991 211.984 336.465 211.890 338.000 210.500 C 339.100 209.505 340.056 208.985 340.125 209.345 C 340.194 209.705 340.363 209.550 340.500 209.000 C 340.638 208.450 340.858 207.888 340.989 207.750 C 341.882 206.816 341.673 202.000 340.740 202.000 C 339.941 202.000 339.972 201.628 340.842 200.758 C 341.830 199.770 342.269 199.817 342.994 200.991 C 343.751 202.215 344.417 201.975 346.917 199.579 C 348.574 197.992 349.691 196.310 349.401 195.840 C 349.111 195.370 349.689 194.683 350.687 194.312 C 353.151 193.396 362.000 184.087 362.000 182.410 C 362.000 181.669 362.600 181.293 363.333 181.574 C 364.089 181.865 364.667 181.418 364.667 180.543 C 364.667 178.116 363.138 178.711 359.521 182.547 C 357.681 184.497 355.910 185.663 355.584 185.136 C 354.815 183.892 361.505 177.000 363.482 177.000 C 365.304 177.000 365.527 173.379 363.750 172.662 C 363.003 172.361 363.205 172.126 364.250 172.079 C 365.213 172.036 366.000 172.675 366.000 173.500 C 366.000 174.325 366.563 175.007 367.250 175.015 C 368.083 175.026 368.000 175.354 367.000 176.000 C 366.175 176.533 365.993 176.976 366.595 176.985 C 367.197 176.993 368.497 176.108 369.483 175.019 C 370.931 173.419 371.039 172.752 370.043 171.552 C 369.366 170.736 369.043 169.490 369.327 168.784 C 369.685 167.890 369.866 167.971 369.921 169.050 C 369.964 169.903 370.540 171.140 371.200 171.800 C 372.132 172.732 372.633 172.277 373.450 169.750 C 374.027 167.962 375.175 166.461 376.000 166.414 C 377.184 166.345 377.141 166.169 375.798 165.575 C 374.862 165.161 373.624 165.114 373.048 165.470 C 371.240 166.587 371.908 164.394 373.933 162.561 C 375.727 160.937 375.776 157.402 373.988 158.507 C 373.547 158.780 373.440 158.032 373.751 156.845 C 374.171 155.238 373.980 154.894 373.003 155.498 C 372.129 156.038 371.932 155.920 372.413 155.142 C 373.395 153.552 365.342 137.262 358.201 126.392 C 350.710 114.990 339.506 101.637 328.923 91.500 C 324.329 87.100 320.498 83.163 320.410 82.750 C 320.322 82.338 320.194 82.310 320.125 82.690 C 320.056 83.069 318.597 81.944 316.881 80.190 C 315.166 78.435 313.254 76.993 312.631 76.985 C 312.009 76.976 312.163 76.550 312.974 76.037 C 313.945 75.423 314.706 75.513 315.208 76.303 C 315.794 77.224 315.973 77.225 315.985 76.309 C 315.993 75.654 315.543 74.835 314.984 74.490 C 314.425 74.144 314.226 73.443 314.543 72.931 C 314.859 72.419 314.653 72.000 314.084 72.000 C 312.774 72.000 314.596 66.892 316.313 65.751 C 317.174 65.178 316.998 64.578 315.671 63.563 C 314.247 62.474 314.070 61.738 314.870 60.244 C 315.435 59.187 315.656 57.238 315.362 55.912 C 314.978 54.183 315.100 53.886 315.792 54.863 C 316.551 55.935 317.779 55.221 321.520 51.533 C 324.138 48.951 326.385 45.863 326.513 44.670 C 326.640 43.476 326.809 42.950 326.888 43.500 C 326.966 44.050 327.474 43.825 328.015 43.000 C 328.891 41.667 329.109 41.667 329.985 43.000 C 330.526 43.825 330.976 44.149 330.985 43.720 C 330.993 43.290 334.366 45.210 338.480 47.986 C 348.431 54.701 363.067 68.829 372.137 80.474 C 376.187 85.674 379.474 89.607 379.442 89.214 C 378.820 81.527 378.772 77.105 379.317 77.650 C 379.693 78.026 380.000 77.808 380.000 77.167 C 380.000 76.525 379.550 76.000 379.000 76.000 C 378.450 76.000 378.000 75.365 378.000 74.590 C 378.000 72.548 370.673 63.563 362.541 55.634 C 348.653 42.092 329.790 29.972 312.436 23.440 C 297.162 17.691 269.726 13.000 251.373 13.000 C 243.511 13.000 243.217 13.084 242.761 15.470 M 110.590 462.075 C 111.627 462.935 111.766 463.634 111.042 464.358 C 110.319 465.081 110.000 464.879 110.000 463.700 C 110.000 462.564 109.190 462.000 107.559 462.000 C 106.216 462.000 104.879 461.613 104.587 461.141 C 103.792 459.854 108.866 460.644 110.590 462.075 M 141.823 427.968 C 139.534 427.937 139.529 427.914 141.500 426.418 C 143.292 425.057 143.534 425.061 143.823 426.450 C 144.043 427.504 143.404 427.990 141.823 427.968 M 349.985 193.250 C 349.993 193.663 349.325 194.000 348.500 194.000 C 346.807 194.000 346.746 193.825 347.639 191.498 C 348.149 190.169 348.449 190.102 349.124 191.166 C 349.589 191.900 349.976 192.838 349.985 193.250 "/></g>
<g fill="#820000FE" stroke="#820000FE">
<path d="M 328.000 43.059 C 328.000 43.641 327.474 43.793 326.830 43.395 C 326.044 42.909 325.869 43.216 326.296 44.330 C 327.227 46.756 317.199 56.858 315.811 54.894 C 315.090 53.873 314.970 54.145 315.362 55.912 C 315.656 57.238 315.435 59.187 314.870 60.244 C 314.070 61.738 314.247 62.474 315.671 63.563 C 316.998 64.578 317.174 65.178 316.313 65.751 C 314.596 66.892 312.774 72.000 314.084 72.000 C 314.653 72.000 314.859 72.419 314.543 72.931 C 314.226 73.443 314.425 74.144 314.984 74.490 C 315.543 74.835 315.993 75.654 315.985 76.309 C 315.973 77.225 315.794 77.224 315.208 76.303 C 314.706 75.513 313.945 75.423 312.974 76.037 C 312.163 76.550 312.009 76.976 312.631 76.985 C 313.254 76.993 315.166 78.435 316.881 80.190 C 318.597 81.944 320.056 83.069 320.125 82.690 C 320.194 82.310 320.322 82.338 320.410 82.750 C 320.498 83.163 324.329 87.100 328.923 91.500 C 365.019 126.074 384.432 167.489 387.445 216.347 C 387.725 220.895 387.421 222.579 386.076 223.924 C 385.125 224.875 384.047 226.434 383.681 227.390 C 383.314 228.345 382.554 228.842 381.991 228.494 C 381.428 228.146 381.253 227.400 381.602 226.835 C 381.972 226.236 381.462 225.957 380.380 226.165 C 377.967 226.630 377.237 230.000 379.549 230.000 C 380.949 230.000 381.026 230.264 379.991 231.511 C 378.880 232.849 378.580 232.821 377.368 231.261 C 376.071 229.591 375.920 229.603 374.450 231.500 C 373.050 233.307 373.050 233.531 374.450 233.823 C 375.302 234.001 376.000 234.590 376.000 235.132 C 376.000 235.674 375.550 235.840 375.000 235.500 C 374.443 235.156 374.000 235.911 374.000 237.204 C 374.000 238.653 373.154 239.897 371.750 240.513 C 370.513 241.056 369.500 242.175 369.500 243.000 C 369.500 243.825 367.832 245.363 365.794 246.417 C 363.756 247.472 362.295 248.669 362.548 249.077 C 363.221 250.167 361.923 253.071 361.014 252.509 C 360.587 252.245 358.798 253.794 357.039 255.952 C 354.382 259.212 353.473 259.734 351.670 259.034 C 350.477 258.571 349.613 257.699 349.750 257.096 C 349.888 256.493 349.550 256.000 349.000 256.000 C 347.698 256.000 347.709 257.702 349.016 258.510 C 349.575 258.856 349.791 259.529 349.495 260.008 C 349.200 260.486 349.755 261.327 350.729 261.876 C 352.055 262.624 352.214 263.165 351.363 264.025 C 350.553 264.843 350.032 264.861 349.554 264.087 C 349.184 263.489 348.051 263.000 347.035 263.000 C 345.683 263.000 345.327 263.534 345.707 264.989 C 345.993 266.083 346.626 266.731 347.114 266.430 C 347.601 266.128 348.000 266.535 348.000 267.334 C 348.000 268.133 347.325 269.045 346.500 269.362 C 345.675 269.678 345.000 270.626 345.000 271.469 C 345.000 272.311 344.421 273.000 343.714 273.000 C 343.007 273.000 340.982 274.882 339.214 277.182 C 337.446 279.482 336.000 280.757 336.000 280.015 C 336.000 279.273 335.663 279.004 335.250 279.417 C 334.838 279.829 334.500 280.501 334.500 280.909 C 334.500 281.569 332.548 284.155 326.723 291.215 C 324.321 294.125 323.959 296.182 324.251 305.251 C 324.388 309.515 324.121 313.002 323.657 313.001 C 323.194 313.001 322.969 315.476 323.157 318.501 C 323.346 321.527 323.163 324.002 322.750 324.001 C 322.338 324.001 322.000 325.102 322.000 326.449 C 322.000 331.438 317.850 350.174 314.529 360.177 C 307.700 380.749 299.091 395.241 286.119 408.000 C 276.695 417.270 268.081 422.855 258.000 426.228 C 252.517 428.063 248.957 428.432 235.250 428.586 C 226.313 428.686 219.000 428.370 219.000 427.884 C 219.000 427.398 217.845 427.000 216.434 427.000 C 215.023 427.000 212.961 426.514 211.851 425.920 C 210.320 425.101 209.432 425.185 208.167 426.268 C 207.250 427.054 205.745 427.963 204.822 428.289 C 203.899 428.615 202.999 430.111 202.822 431.614 C 202.479 434.523 200.000 436.253 200.000 433.583 C 200.000 431.764 199.135 431.606 197.000 433.034 C 195.705 433.901 195.773 434.251 197.500 435.595 C 199.409 437.080 199.341 437.137 196.030 436.826 C 193.365 436.576 192.477 436.906 192.206 438.250 C 191.990 439.325 192.460 440.000 193.427 440.000 C 195.656 440.000 195.473 440.400 191.071 445.168 C 188.911 447.508 187.362 449.777 187.630 450.211 C 188.403 451.461 186.537 451.127 185.053 449.750 C 183.952 448.728 183.821 448.827 184.336 450.288 C 184.781 451.551 184.311 452.341 182.733 452.975 C 180.653 453.812 180.637 453.883 182.500 454.016 C 183.897 454.115 184.067 454.329 183.065 454.724 C 182.275 455.035 179.350 457.604 176.565 460.432 C 173.384 463.662 170.839 465.438 169.724 465.209 C 167.870 464.827 167.693 466.922 169.471 468.196 C 171.291 469.500 168.917 470.429 166.932 469.189 C 165.286 468.161 164.850 468.227 164.332 469.578 C 163.988 470.473 164.335 471.640 165.104 472.177 C 166.179 472.928 166.213 473.269 165.250 473.659 C 164.563 473.938 164.000 474.788 164.000 475.548 C 164.000 476.308 163.174 477.371 162.165 477.911 C 161.156 478.451 159.247 480.475 157.923 482.407 C 156.599 484.340 154.499 486.465 153.258 487.130 C 152.016 487.794 151.000 488.937 151.000 489.669 C 151.000 490.401 150.550 491.000 150.000 491.000 C 149.450 491.000 149.000 491.723 149.000 492.607 C 149.000 493.663 148.456 494.005 147.415 493.606 C 146.543 493.271 143.370 492.708 140.363 492.355 C 136.453 491.895 135.039 491.341 135.397 490.407 C 135.758 489.467 135.335 489.310 133.887 489.846 C 132.159 490.485 132.975 491.380 139.688 496.213 C 171.992 519.466 206.347 530.054 245.000 528.669 C 272.152 527.696 293.911 521.232 315.500 507.722 C 341.569 491.410 367.238 461.654 384.702 427.500 C 387.796 421.450 391.041 415.904 391.913 415.176 C 392.786 414.448 392.938 414.137 392.250 414.485 C 390.605 415.318 390.648 415.050 393.028 409.669 C 394.464 406.424 395.494 405.252 396.554 405.659 C 397.473 406.012 397.724 406.671 397.202 407.367 C 396.022 408.943 395.934 412.841 397.064 413.539 C 397.579 413.858 398.007 413.529 398.015 412.809 C 398.027 411.774 398.212 411.787 398.897 412.868 C 399.471 413.774 399.083 414.917 397.747 416.253 C 395.998 418.002 395.933 418.383 397.259 419.125 C 398.408 419.768 398.943 419.363 399.412 417.495 C 399.755 416.128 399.989 414.720 399.933 414.366 C 399.876 414.013 400.254 413.448 400.774 413.112 C 401.293 412.775 403.389 408.260 405.430 403.078 C 415.781 376.799 423.808 345.351 428.676 312.000 C 431.292 294.072 431.282 234.113 428.658 213.000 C 425.265 185.693 420.606 163.901 413.370 141.500 C 408.981 127.912 402.053 111.000 400.876 111.000 C 400.394 111.000 400.053 110.663 400.118 110.250 C 400.493 107.879 399.850 106.844 398.359 107.416 C 396.986 107.943 396.924 107.796 397.981 106.523 C 398.914 105.398 398.936 105.000 398.063 105.000 C 397.414 105.000 397.160 104.550 397.500 104.000 C 397.860 103.418 396.943 103.033 395.309 103.079 C 393.694 103.124 393.137 103.401 394.000 103.729 C 396.159 104.551 396.869 105.991 396.398 108.592 C 396.170 109.846 396.462 111.168 397.046 111.529 C 397.757 111.968 397.582 112.989 396.519 114.612 C 395.010 116.914 395.046 117.085 397.214 117.956 C 398.472 118.460 398.952 118.902 398.281 118.937 C 397.542 118.975 397.323 119.688 397.725 120.750 C 399.528 125.512 394.812 118.590 390.682 110.414 C 380.652 90.556 369.476 75.348 354.490 61.162 C 345.573 52.721 331.729 42.604 330.618 43.716 C 330.278 44.055 330.000 43.808 330.000 43.167 C 330.000 42.525 329.550 42.000 329.000 42.000 C 328.450 42.000 328.000 42.477 328.000 43.059 M 387.220 227.403 C 386.372 225.825 386.391 225.009 387.297 224.105 C 388.234 223.169 388.483 223.632 388.423 226.202 C 388.352 229.235 388.255 229.332 387.220 227.403 "/></g>
<g fill="#B4B4B4FE" stroke="#B4B4B4FE">
<path d="M 394.526 77.500 C 426.427 109.210 447.491 155.775 457.402 216.500 C 460.144 233.299 460.459 236.082 462.096 258.000 C 463.517 277.016 462.692 315.005 460.512 331.000 C 450.626 403.511 424.752 465.904 387.723 506.519 C 362.486 534.200 336.019 549.773 301.565 557.210 C 286.755 560.407 256.487 560.397 239.598 557.189 C 224.197 554.264 205.996 548.307 192.909 541.908 C 180.917 536.045 157.755 521.206 158.560 519.903 C 158.859 519.419 158.332 519.319 157.388 519.681 C 156.132 520.164 155.891 519.985 156.490 519.015 C 157.035 518.134 156.923 517.930 156.155 518.405 C 155.520 518.797 155.000 518.641 155.000 518.059 C 155.000 517.477 154.663 517.104 154.250 517.231 C 153.838 517.358 152.247 516.796 150.716 515.981 C 145.595 513.257 166.289 528.466 185.026 541.199 C 195.216 548.122 207.816 556.043 213.026 558.801 C 230.034 567.802 249.870 574.056 272.500 577.551 C 286.138 579.658 315.213 579.087 327.000 576.481 C 367.968 567.423 401.501 544.244 428.704 506.181 C 460.413 461.812 481.707 399.206 487.095 334.500 C 488.548 317.057 487.707 274.696 485.537 256.000 C 480.462 212.280 470.864 177.304 455.600 146.910 C 441.129 118.093 423.231 96.400 400.858 80.559 C 396.261 77.305 391.371 73.710 389.992 72.571 C 388.612 71.432 390.652 73.650 394.526 77.500 "/></g>
<g fill="#580A00FE" stroke="#580A00FE">
<path d="M 364.075 56.573 C 399.783 93.940 419.927 142.730 428.658 213.000 C 431.282 234.113 431.292 294.072 428.676 312.000 C 425.153 336.131 419.382 361.704 412.596 383.250 C 411.253 387.513 410.457 391.007 410.827 391.015 C 411.197 391.024 410.825 391.460 410.000 391.985 C 408.826 392.733 409.225 393.086 411.836 393.612 C 413.671 393.982 415.405 394.893 415.691 395.636 C 415.976 396.380 416.683 396.696 417.262 396.338 C 418.842 395.362 425.207 395.807 426.376 396.976 C 426.939 397.539 429.335 398.000 431.700 398.000 C 434.375 398.000 435.906 398.427 435.750 399.129 C 435.612 399.750 436.513 400.350 437.750 400.462 C 439.211 400.594 440.011 400.111 440.030 399.083 C 440.056 397.743 440.217 397.768 441.080 399.250 C 441.641 400.213 442.554 401.000 443.109 401.000 C 443.664 401.000 443.793 400.474 443.395 399.830 C 442.892 399.016 443.245 398.880 444.555 399.383 C 445.591 399.780 446.119 399.786 445.728 399.395 C 445.337 399.004 445.413 398.193 445.897 397.592 C 447.140 396.050 454.488 366.640 456.914 353.500 C 460.737 332.785 462.080 319.480 462.667 296.500 C 463.636 258.547 460.072 222.799 451.950 189.000 C 444.111 156.379 432.242 127.795 417.066 104.982 C 403.483 84.565 390.623 71.976 366.500 55.482 L 356.500 48.645 364.075 56.573 "/></g>
<g fill="#580A00FE" stroke="#580A00FE">
<path d="M 219.000 145.593 C 192.394 152.660 165.040 179.771 151.492 212.500 C 141.785 235.949 135.848 274.543 138.026 300.034 C 139.025 311.727 143.423 334.892 144.854 336.000 C 145.209 336.275 145.545 337.063 145.600 337.750 C 145.984 342.546 145.990 342.562 147.000 341.000 C 147.808 339.750 147.972 339.825 147.985 341.450 C 147.996 342.954 148.271 343.129 149.186 342.214 C 150.101 341.299 150.793 341.407 152.210 342.690 C 153.618 343.965 154.322 344.078 155.224 343.176 C 155.871 342.529 157.323 342.052 158.450 342.116 C 160.137 342.211 160.190 342.313 158.750 342.689 C 155.325 343.584 157.075 344.886 161.750 344.921 C 167.892 344.967 169.442 345.292 171.448 346.957 C 172.931 348.188 173.041 348.032 172.528 345.413 C 166.181 312.965 168.753 275.520 179.615 242.244 C 188.755 214.244 210.896 186.364 234.136 173.589 C 245.756 167.202 251.193 165.739 264.351 165.459 L 276.201 165.207 270.071 159.227 C 259.386 148.804 247.356 143.945 232.540 144.066 C 228.118 144.102 222.025 144.789 219.000 145.593 "/></g>
<g fill="#000000FE" stroke="#000000FE">
<path d="M 389.000 444.059 C 389.000 444.641 388.601 444.871 388.113 444.570 C 387.626 444.269 386.642 444.726 385.928 445.587 C 384.855 446.879 384.879 447.311 386.064 448.061 C 387.206 448.784 387.091 448.978 385.500 449.013 C 384.161 449.042 382.362 450.936 380.056 454.743 C 369.664 471.901 347.599 496.522 332.661 507.626 C 317.341 519.014 298.307 528.663 281.811 533.403 C 245.006 543.979 201.108 539.456 160.265 520.881 C 151.051 516.690 181.695 536.433 192.909 541.912 C 206.003 548.310 224.206 554.266 239.598 557.189 C 249.530 559.076 254.811 559.444 271.500 559.417 C 293.104 559.380 302.489 558.020 319.565 552.448 C 353.142 541.493 384.178 516.019 408.893 479.128 C 415.652 469.039 423.442 455.007 422.296 454.985 C 421.858 454.976 422.175 454.533 423.000 454.000 C 424.282 453.172 424.246 453.028 422.750 453.015 C 421.788 453.007 421.000 452.277 421.000 451.393 C 421.000 450.352 420.454 449.996 419.448 450.382 C 418.584 450.713 418.159 450.552 418.489 450.018 C 418.815 449.490 417.826 448.793 416.291 448.469 C 414.756 448.145 412.719 447.456 411.764 446.940 C 410.809 446.423 407.659 445.993 404.764 445.985 C 401.869 445.977 397.700 445.321 395.500 444.529 C 390.648 442.781 389.000 442.662 389.000 444.059 "/></g>
<g fill="#B4B4B4FE" stroke="#B4B4B4FE">
<path d="M 255.000 165.691 C 245.905 167.213 231.805 173.956 222.103 181.421 C 208.907 191.575 194.690 209.303 186.459 225.866 C 175.931 247.054 168.995 279.947 169.006 308.628 C 169.015 332.558 172.804 351.711 182.185 375.248 C 191.524 398.680 200.675 411.128 211.382 414.963 C 214.616 416.122 217.383 416.942 217.530 416.785 C 217.677 416.628 215.385 411.550 212.438 405.500 C 201.468 382.981 195.370 358.939 194.304 334.000 C 193.112 306.108 200.837 266.213 211.568 244.846 C 227.692 212.739 254.679 189.597 281.429 184.939 L 288.063 183.784 285.358 179.142 C 280.309 170.480 276.613 166.213 273.625 165.595 C 270.519 164.952 259.059 165.011 255.000 165.691 "/></g>
<g fill="#FE448EFE" stroke="#FE448EFE">
<path d="M 138.490 42.808 C 130.575 47.791 118.326 57.612 109.598 65.973 C 67.047 106.730 40.968 166.093 34.901 236.000 C 33.405 253.250 34.304 297.270 36.474 313.000 C 46.677 386.936 72.073 445.025 111.478 484.558 C 121.043 494.154 141.654 511.000 143.830 511.000 C 144.240 511.000 144.680 509.617 144.809 507.928 C 144.946 506.130 144.637 505.106 144.065 505.460 C 143.527 505.792 143.335 506.837 143.638 507.782 C 144.106 509.241 144.026 509.274 143.110 508.000 C 142.151 506.667 142.027 506.667 142.000 508.000 C 141.973 509.333 141.864 509.333 141.021 508.000 C 140.420 507.049 140.426 506.454 141.036 506.375 C 141.566 506.306 142.237 506.194 142.526 506.125 C 142.815 506.056 142.295 504.538 141.371 502.750 C 139.825 499.759 139.823 499.610 141.345 500.872 C 142.748 502.036 142.996 502.036 142.971 500.872 C 142.955 500.118 140.241 497.539 136.939 495.142 C 122.204 484.444 104.949 465.596 92.408 446.500 C 65.175 405.031 48.866 353.585 43.905 293.500 C 42.465 276.059 43.257 239.957 45.452 223.000 C 51.815 173.838 67.830 132.388 94.221 96.780 C 102.341 85.823 119.433 68.353 130.000 60.208 C 134.675 56.605 139.022 53.029 139.659 52.262 C 140.296 51.495 141.196 50.897 141.659 50.933 C 143.019 51.041 142.781 48.691 141.158 46.000 C 139.798 43.744 139.803 43.624 141.210 44.776 C 142.560 45.882 142.749 45.667 142.624 43.174 L 142.479 40.296 138.490 42.808 "/></g>
<g fill="#AA001AFE" stroke="#AA001AFE">
<path d="M 373.676 162.805 C 371.808 164.870 371.431 166.470 373.048 165.470 C 373.624 165.114 374.862 165.161 375.798 165.575 C 377.141 166.169 377.184 166.345 376.000 166.414 C 375.175 166.461 374.018 167.993 373.428 169.817 C 372.345 173.166 371.159 172.905 369.713 169.000 C 369.232 167.699 369.147 167.705 369.079 169.050 C 369.036 169.903 369.529 171.129 370.176 171.776 C 371.078 172.678 370.925 173.425 369.521 174.976 C 368.514 176.089 367.197 176.993 366.595 176.985 C 365.993 176.976 366.175 176.533 367.000 176.000 C 368.000 175.354 368.083 175.026 367.250 175.015 C 366.563 175.007 366.000 174.325 366.000 173.500 C 366.000 172.675 365.213 172.036 364.250 172.079 C 363.205 172.126 363.003 172.361 363.750 172.662 C 365.527 173.379 365.304 177.000 363.482 177.000 C 361.505 177.000 354.815 183.892 355.584 185.136 C 355.910 185.663 357.681 184.497 359.521 182.547 C 363.138 178.711 364.667 178.116 364.667 180.543 C 364.667 181.418 364.089 181.865 363.333 181.574 C 362.600 181.293 362.000 181.669 362.000 182.410 C 362.000 184.087 353.151 193.396 350.687 194.312 C 349.689 194.683 349.111 195.370 349.401 195.840 C 349.691 196.310 348.574 197.992 346.917 199.579 C 344.417 201.975 343.751 202.215 342.994 200.991 C 342.269 199.817 341.830 199.770 340.842 200.758 C 339.972 201.628 339.941 202.000 340.740 202.000 C 341.673 202.000 341.882 206.816 340.989 207.750 C 340.858 207.888 340.638 208.450 340.500 209.000 C 340.363 209.550 340.194 209.705 340.125 209.345 C 340.056 208.985 339.100 209.505 338.000 210.500 C 336.465 211.890 335.991 211.984 335.961 210.905 C 335.939 210.132 335.257 211.031 334.446 212.901 C 333.634 214.772 332.687 216.020 332.342 215.675 C 331.997 215.331 332.300 214.343 333.015 213.482 C 334.036 212.251 334.054 211.656 333.098 210.708 C 332.145 209.762 332.026 209.879 332.548 211.250 C 333.052 212.574 332.701 213.000 331.107 213.000 C 329.948 213.000 329.053 213.338 329.118 213.750 C 329.469 215.969 328.786 217.000 326.968 217.000 C 325.795 217.000 324.553 217.951 324.031 219.250 C 323.534 220.488 323.098 220.938 323.063 220.250 C 323.029 219.563 322.454 219.000 321.786 219.000 C 320.973 219.000 321.080 219.508 322.108 220.537 C 323.020 221.448 324.362 221.798 325.406 221.398 C 326.766 220.876 326.870 220.538 325.863 219.915 C 324.179 218.875 324.757 218.429 328.783 217.662 L 332.066 217.037 330.283 219.457 C 329.302 220.788 327.488 222.430 326.252 223.107 C 325.015 223.783 324.225 224.558 324.495 224.829 C 324.766 225.100 323.220 227.003 321.059 229.059 C 318.898 231.115 317.346 233.013 317.611 233.278 C 319.084 234.750 324.024 274.881 324.471 289.000 C 324.584 292.575 324.749 295.006 324.838 294.403 C 324.927 293.800 325.788 292.351 326.750 291.184 C 332.582 284.110 334.500 281.567 334.500 280.909 C 334.500 280.501 334.838 279.829 335.250 279.417 C 335.663 279.004 336.000 279.273 336.000 280.015 C 336.000 280.757 337.446 279.482 339.214 277.182 C 340.982 274.882 343.007 273.000 343.714 273.000 C 344.421 273.000 345.000 272.311 345.000 271.469 C 345.000 270.626 345.675 269.678 346.500 269.362 C 347.325 269.045 348.000 268.133 348.000 267.334 C 348.000 266.535 347.601 266.128 347.114 266.430 C 346.626 266.731 345.993 266.083 345.707 264.989 C 345.127 262.771 347.772 262.172 349.687 264.087 C 350.470 264.870 350.985 264.833 351.528 263.955 C 351.969 263.242 351.592 262.351 350.619 261.807 C 349.706 261.295 349.200 260.486 349.495 260.008 C 349.791 259.529 349.575 258.856 349.016 258.510 C 347.709 257.702 347.698 256.000 349.000 256.000 C 349.550 256.000 349.888 256.493 349.750 257.096 C 349.613 257.699 350.477 258.571 351.670 259.034 C 353.473 259.734 354.382 259.212 357.039 255.952 C 358.798 253.794 360.587 252.245 361.014 252.509 C 361.923 253.071 363.221 250.167 362.548 249.077 C 362.295 248.669 363.756 247.472 365.794 246.417 C 367.832 245.363 369.500 243.825 369.500 243.000 C 369.500 242.175 370.513 241.056 371.750 240.513 C 373.154 239.897 374.000 238.653 374.000 237.204 C 374.000 235.911 374.443 235.156 375.000 235.500 C 375.550 235.840 376.000 235.674 376.000 235.132 C 376.000 234.590 375.302 234.001 374.450 233.823 C 373.050 233.531 373.050 233.307 374.450 231.500 C 375.920 229.603 376.071 229.591 377.368 231.261 C 378.580 232.821 378.880 232.849 379.991 231.511 C 381.026 230.264 380.949 230.000 379.549 230.000 C 377.237 230.000 377.967 226.630 380.380 226.165 C 381.462 225.957 381.972 226.236 381.602 226.835 C 381.253 227.400 381.428 228.146 381.991 228.494 C 382.554 228.842 383.314 228.345 383.681 227.390 C 384.047 226.434 385.125 224.875 386.076 223.924 C 387.869 222.131 387.934 219.018 386.485 204.500 C 385.309 192.717 378.356 164.110 376.089 161.726 C 375.684 161.301 374.598 161.786 373.676 162.805 M 329.540 279.500 L 326.170 282.500 329.335 278.764 C 331.076 276.710 332.592 275.360 332.705 275.764 C 332.817 276.169 331.393 277.850 329.540 279.500 "/></g>
<g fill="#AA001AFE" stroke="#AA001AFE">
<path d="M 161.312 403.667 C 160.934 404.675 159.921 406.048 159.062 406.718 C 157.921 407.608 157.855 407.945 158.816 407.968 C 159.657 407.989 160.019 408.993 159.816 410.750 C 159.638 412.297 158.953 413.391 158.250 413.250 C 157.563 413.113 157.000 413.707 157.000 414.571 C 157.000 416.829 154.319 419.373 153.659 417.741 C 153.384 417.058 153.122 417.545 153.079 418.823 C 153.024 420.436 152.488 421.048 151.327 420.823 C 149.981 420.563 150.291 419.862 152.908 417.245 C 154.699 415.455 155.937 413.430 155.661 412.745 C 155.365 412.014 155.125 412.230 155.079 413.269 C 155.016 414.673 154.455 414.901 152.355 414.374 C 149.917 413.762 149.760 413.909 150.348 416.249 C 150.882 418.378 150.576 418.890 148.451 419.423 C 147.058 419.773 146.188 420.495 146.518 421.029 C 146.848 421.563 146.641 422.000 146.059 422.000 C 145.477 422.000 145.000 422.450 145.000 423.000 C 145.000 424.439 147.739 424.234 148.338 422.750 C 148.724 421.793 148.861 421.808 148.921 422.816 C 149.046 424.902 146.995 428.115 145.950 427.469 C 145.427 427.146 145.000 427.343 145.000 427.907 C 145.000 429.223 138.907 435.479 137.539 435.566 C 136.968 435.603 135.713 435.249 134.750 434.781 C 133.645 434.243 133.000 434.323 133.000 434.996 C 133.000 435.583 133.675 436.322 134.500 436.638 C 136.652 437.464 136.349 439.675 134.000 440.290 C 132.623 440.650 132.000 441.654 132.000 443.513 C 132.000 445.461 131.596 446.059 130.551 445.658 C 129.675 445.322 128.858 445.872 128.484 447.051 C 128.144 448.123 127.221 449.000 126.433 449.000 C 124.670 449.000 124.540 450.653 126.250 451.323 C 126.938 451.593 126.030 452.138 124.234 452.535 C 121.826 453.067 121.233 453.575 121.975 454.470 C 123.466 456.267 122.138 457.003 119.332 455.936 C 116.298 454.783 112.818 456.361 113.644 458.515 C 113.958 459.332 114.857 460.000 115.642 460.000 C 117.732 460.000 115.373 464.090 112.912 464.733 C 111.873 465.005 111.317 465.704 111.677 466.287 C 112.037 466.869 111.257 466.593 109.943 465.673 C 108.630 464.753 107.993 463.967 108.527 463.926 C 109.062 463.885 108.375 463.647 107.000 463.398 L 104.500 462.945 106.568 465.222 C 107.705 466.475 113.693 472.610 119.874 478.856 C 129.214 488.293 131.520 490.134 133.525 489.750 C 135.398 489.392 135.758 489.610 135.134 490.725 C 134.486 491.883 135.411 492.224 139.915 492.488 C 142.987 492.668 146.288 493.130 147.250 493.514 C 148.481 494.006 149.000 493.737 149.000 492.607 C 149.000 491.723 149.450 491.000 150.000 491.000 C 150.550 491.000 151.000 490.401 151.000 489.669 C 151.000 488.937 152.016 487.794 153.258 487.130 C 154.499 486.465 156.599 484.340 157.923 482.407 C 159.247 480.475 161.156 478.451 162.165 477.911 C 163.174 477.371 164.000 476.308 164.000 475.548 C 164.000 474.788 164.563 473.938 165.250 473.659 C 166.213 473.269 166.179 472.928 165.104 472.177 C 164.335 471.640 163.988 470.473 164.332 469.578 C 164.850 468.227 165.286 468.161 166.932 469.189 C 168.917 470.429 171.291 469.500 169.471 468.196 C 167.693 466.922 167.870 464.827 169.724 465.209 C 170.839 465.438 173.384 463.662 176.565 460.432 C 179.350 457.604 182.275 455.035 183.065 454.724 C 184.067 454.329 183.897 454.115 182.500 454.016 C 180.637 453.883 180.653 453.812 182.733 452.975 C 184.311 452.341 184.781 451.551 184.336 450.288 C 183.821 448.827 183.952 448.728 185.053 449.750 C 186.537 451.127 188.403 451.461 187.630 450.211 C 187.362 449.777 188.911 447.508 191.071 445.168 C 195.473 440.400 195.656 440.000 193.427 440.000 C 192.460 440.000 191.990 439.325 192.206 438.250 C 192.477 436.906 193.365 436.576 196.030 436.826 C 199.341 437.137 199.409 437.080 197.500 435.595 C 195.773 434.251 195.705 433.901 197.000 433.034 C 199.135 431.606 200.000 431.764 200.000 433.583 C 200.000 436.157 202.456 434.571 203.000 431.647 C 203.299 430.039 204.602 428.390 206.242 427.543 C 208.670 426.289 209.175 426.318 210.653 427.796 C 211.758 428.901 212.168 429.005 211.868 428.104 C 211.356 426.567 208.211 424.761 196.000 418.994 C 191.325 416.785 183.557 412.058 178.738 408.489 C 173.918 404.920 169.615 402.000 169.176 402.000 C 168.736 402.000 167.378 403.350 166.158 405.000 C 163.186 409.019 159.365 409.129 161.904 405.122 C 162.401 404.336 163.310 404.074 164.018 404.511 C 164.813 405.003 165.101 404.802 164.817 403.952 C 164.112 401.835 162.063 401.668 161.312 403.667 M 185.856 443.124 C 184.584 444.228 183.394 444.682 183.211 444.133 C 183.028 443.584 183.806 442.639 184.939 442.033 C 186.073 441.426 187.052 440.158 187.116 439.215 C 187.219 437.694 187.285 437.705 187.701 439.309 C 187.981 440.390 187.238 441.927 185.856 443.124 M 145.071 488.554 C 143.134 489.470 143.124 489.422 144.770 487.000 C 146.052 485.114 146.543 484.882 146.770 486.054 C 146.936 486.908 146.171 488.033 145.071 488.554 "/></g>
<g fill="#FE448EFE" stroke="#FE448EFE">
<path d="M 196.281 145.236 C 179.219 154.392 157.923 177.515 147.289 198.432 C 133.937 224.695 125.767 271.375 128.901 303.500 C 132.457 339.962 146.382 375.438 164.913 395.248 C 176.174 407.286 196.496 420.930 201.025 419.492 C 202.684 418.966 202.868 418.546 201.935 417.421 C 201.291 416.645 201.004 415.094 201.297 413.973 C 201.664 412.570 201.113 411.465 199.531 410.429 C 198.267 409.600 196.843 408.993 196.366 409.080 C 195.890 409.166 195.725 409.182 196.000 409.116 C 196.275 409.049 193.125 406.749 189.000 404.004 C 174.780 394.540 164.521 382.999 157.028 368.036 C 140.902 335.833 134.446 301.176 138.409 268.086 C 142.601 233.093 150.266 208.896 163.303 189.500 C 172.671 175.562 185.348 162.498 196.300 155.495 C 198.059 154.370 198.887 153.148 198.527 152.211 C 198.046 150.955 198.206 150.926 199.535 152.029 C 200.947 153.201 201.083 152.788 200.808 148.157 L 200.500 142.972 196.281 145.236 "/></g>
<g fill="#320600FE" stroke="#320600FE">
<path d="M 409.342 394.449 C 409.669 395.302 409.453 396.000 408.862 396.000 C 408.270 396.000 408.045 396.675 408.362 397.500 C 408.678 398.325 408.572 399.000 408.127 399.000 C 407.681 399.000 406.047 402.263 404.497 406.250 C 402.946 410.238 398.803 419.575 395.290 427.000 C 391.776 434.425 388.924 440.613 388.951 440.750 C 388.978 440.888 388.984 440.663 388.965 440.250 C 388.945 439.838 388.307 440.625 387.546 442.000 C 386.555 443.791 386.494 444.509 387.331 444.533 C 387.974 444.552 388.793 444.148 389.150 443.636 C 389.536 443.084 391.854 443.376 394.838 444.352 C 397.609 445.259 402.160 446.000 404.951 446.000 C 407.743 446.000 410.809 446.423 411.764 446.940 C 412.719 447.456 414.756 448.145 416.291 448.469 C 417.826 448.793 418.815 449.490 418.489 450.018 C 418.159 450.552 418.584 450.713 419.448 450.382 C 420.454 449.996 421.000 450.352 421.000 451.393 C 421.000 453.299 423.350 453.525 424.719 451.750 C 426.424 449.540 435.642 427.816 439.253 417.500 C 445.874 398.580 446.019 398.056 444.436 398.663 C 443.653 398.964 443.260 399.612 443.565 400.105 C 443.869 400.597 443.664 401.000 443.109 401.000 C 442.554 401.000 441.641 400.213 441.080 399.250 C 440.217 397.768 440.056 397.743 440.030 399.083 C 440.011 400.111 439.211 400.594 437.750 400.462 C 436.513 400.350 435.613 399.750 435.750 399.129 C 435.906 398.427 434.375 398.000 431.700 398.000 C 429.335 398.000 426.939 397.539 426.376 396.976 C 425.224 395.824 418.341 395.326 417.344 396.322 C 416.989 396.678 416.203 396.355 415.599 395.604 C 414.994 394.854 413.206 393.938 411.624 393.569 C 409.281 393.023 408.857 393.186 409.342 394.449 "/></g>
<g fill="#C8003EFE" stroke="#C8003EFE">
<path d="M 377.911 440.500 C 377.038 444.550 376.775 445.195 376.590 443.750 C 376.501 443.063 375.817 443.625 375.068 445.000 C 370.893 452.669 356.123 471.784 347.022 481.296 C 316.927 512.751 286.189 526.971 244.000 528.953 C 234.099 529.418 231.338 529.739 236.355 529.841 L 244.210 530.000 243.833 533.951 L 243.457 537.902 252.978 537.582 C 291.287 536.293 332.058 514.227 361.610 478.787 C 369.345 469.510 377.110 458.588 376.894 457.287 C 376.822 456.854 376.873 456.163 377.007 455.750 C 377.140 455.338 377.322 455.563 377.410 456.250 C 377.594 457.677 379.676 454.029 379.551 452.500 C 379.506 451.950 379.133 450.971 378.722 450.325 C 378.311 449.679 378.455 448.096 379.041 446.808 C 379.762 445.226 379.787 443.662 379.118 441.983 C 378.573 440.618 378.030 439.950 377.911 440.500 "/></g>
<g fill="#E60066FE" stroke="#E60066FE">
<path d="M 223.536 135.066 C 220.255 135.570 215.305 136.730 212.536 137.644 C 207.445 139.325 197.442 143.711 199.750 143.250 C 200.604 143.079 201.000 144.445 201.000 147.559 C 201.000 150.066 201.370 151.889 201.822 151.610 C 202.275 151.330 202.498 149.251 202.319 146.990 C 202.099 144.210 202.347 143.097 203.084 143.552 C 203.684 143.923 203.941 145.118 203.656 146.209 C 202.938 148.951 203.885 150.981 205.577 150.332 C 206.353 150.034 206.697 149.318 206.340 148.741 C 205.983 148.163 206.131 147.963 206.669 148.295 C 207.207 148.628 211.214 147.747 215.573 146.338 C 225.982 142.974 239.335 142.793 249.072 145.884 C 268.070 151.915 284.273 170.738 296.898 201.443 C 301.674 213.058 309.000 237.065 309.000 241.099 C 309.000 242.066 309.707 243.564 310.571 244.429 C 311.436 245.293 311.689 246.000 311.134 246.000 C 309.844 246.000 310.927 253.250 312.357 254.184 C 314.271 255.434 314.505 254.259 313.916 246.348 C 313.594 242.031 313.257 239.513 313.166 240.750 C 313.075 241.988 312.523 243.000 311.941 243.000 C 311.359 243.000 311.123 242.610 311.418 242.133 C 311.713 241.656 312.034 238.997 312.132 236.224 C 312.275 232.183 312.610 231.297 313.819 231.761 C 314.803 232.138 315.076 231.932 314.605 231.170 C 314.194 230.506 314.448 229.993 315.191 229.985 C 315.990 229.975 316.111 229.683 315.500 229.235 C 314.950 228.831 314.375 226.956 314.222 225.068 C 314.068 223.181 313.451 221.043 312.849 220.318 C 312.247 219.593 312.028 219.000 312.361 219.000 C 313.065 219.000 305.855 198.436 303.907 194.889 C 303.186 193.575 302.502 191.939 302.387 191.254 C 302.272 190.569 300.398 186.707 298.222 182.673 C 281.233 151.177 262.505 136.498 236.995 134.684 C 232.873 134.390 226.816 134.563 223.536 135.066 "/></g>
<g fill="#E60066FE" stroke="#E60066FE">
<path d="M 313.034 323.250 C 312.918 325.313 312.750 328.350 312.661 330.000 C 312.573 331.650 312.163 333.000 311.750 333.000 C 311.338 333.000 311.000 333.938 311.000 335.083 C 311.000 336.229 310.075 340.790 308.944 345.217 C 307.814 349.645 307.163 353.982 307.497 354.854 C 307.832 355.726 307.794 356.127 307.413 355.747 C 307.033 355.366 304.839 359.736 302.539 365.458 C 284.522 410.287 250.760 429.163 212.280 415.924 C 209.247 414.881 206.368 414.272 205.883 414.573 C 205.397 414.873 205.000 414.469 205.000 413.676 C 205.000 412.882 204.193 412.022 203.206 411.764 C 201.866 411.414 201.359 411.928 201.205 413.794 C 201.091 415.168 201.460 416.849 202.025 417.530 C 202.763 418.419 202.552 418.959 201.276 419.450 C 199.589 420.100 199.588 420.184 201.250 421.117 C 202.504 421.821 203.000 421.748 203.000 420.859 C 203.000 420.068 203.454 420.203 204.250 421.229 C 207.288 425.145 230.709 429.661 242.000 428.508 C 252.125 427.473 256.776 426.129 266.820 421.336 C 278.635 415.697 289.399 405.747 298.527 392.028 C 303.937 383.895 311.711 369.000 310.545 369.000 C 310.341 369.000 310.994 367.314 311.996 365.253 C 313.070 363.045 313.426 361.263 312.862 360.915 C 312.319 360.579 312.570 359.772 313.442 359.048 C 314.287 358.347 314.751 357.405 314.473 356.956 C 314.195 356.506 314.432 355.851 315.000 355.500 C 315.568 355.149 315.793 354.474 315.500 354.000 C 315.207 353.526 315.425 352.856 315.984 352.510 C 316.543 352.165 316.948 350.896 316.884 349.691 C 316.794 347.999 316.664 347.899 316.311 349.250 C 315.468 352.473 314.326 351.045 314.156 346.556 C 314.008 342.647 314.223 342.158 315.936 342.488 C 317.306 342.752 317.720 342.434 317.330 341.419 C 317.026 340.624 317.302 339.341 317.945 338.566 C 318.897 337.419 318.745 337.254 317.126 337.677 C 315.845 338.012 315.316 338.784 315.638 339.849 C 315.913 340.757 315.545 340.517 314.819 339.316 C 314.094 338.114 313.050 337.198 312.500 337.279 C 311.950 337.361 312.070 337.075 312.766 336.644 C 313.463 336.214 313.774 335.443 313.457 334.931 C 313.141 334.419 313.414 334.000 314.063 334.000 C 314.930 334.000 314.952 333.648 314.146 332.676 C 313.344 331.710 313.365 331.035 314.224 330.176 C 314.871 329.529 314.973 328.993 314.450 328.985 C 313.928 328.976 314.175 328.526 315.000 327.985 C 316.258 327.159 316.278 326.857 315.122 326.112 C 314.364 325.623 313.970 324.836 314.247 324.362 C 314.523 323.888 314.411 322.600 313.998 321.500 C 313.415 319.949 313.199 320.342 313.034 323.250 "/></g>
<g fill="#320600FE" stroke="#320600FE">
<path d="M 147.267 342.000 C 147.431 343.762 148.016 344.413 149.250 344.206 C 150.515 343.994 150.915 344.477 150.690 345.946 C 150.455 347.487 150.099 347.699 149.222 346.822 C 147.569 345.169 151.361 354.935 156.536 365.660 C 161.524 375.994 171.368 389.662 176.779 393.764 C 178.764 395.269 181.755 397.740 183.424 399.257 C 185.094 400.773 186.915 401.862 187.471 401.676 C 188.027 401.491 189.081 401.938 189.813 402.670 C 190.544 403.401 190.773 404.008 190.321 404.017 C 188.831 404.047 195.574 407.947 197.671 408.267 C 198.800 408.440 200.573 409.430 201.612 410.469 C 204.772 413.629 203.002 410.793 198.625 405.684 C 196.356 403.035 193.731 399.435 192.792 397.684 C 191.852 395.933 191.031 394.950 190.965 395.500 C 190.900 396.050 190.697 395.825 190.514 395.000 C 190.330 394.175 188.152 389.199 185.673 383.943 C 181.475 375.043 173.803 354.078 173.708 351.250 C 173.685 350.563 173.265 350.000 172.774 350.000 C 172.284 350.000 172.129 349.601 172.430 349.113 C 173.083 348.057 170.475 345.717 168.149 345.272 C 167.242 345.098 164.363 344.940 161.750 344.921 C 157.075 344.886 155.325 343.584 158.750 342.689 C 160.190 342.313 160.137 342.211 158.450 342.116 C 157.323 342.052 155.871 342.529 155.224 343.176 C 154.322 344.078 153.598 343.946 152.123 342.611 C 150.649 341.277 150.018 341.162 149.427 342.118 C 148.864 343.030 148.436 342.845 147.845 341.434 C 147.157 339.791 147.070 339.877 147.267 342.000 "/></g>
<g fill="#E60066FE" stroke="#E60066FE">
<path d="M 141.371 502.750 C 142.295 504.538 142.815 506.056 142.526 506.125 C 142.237 506.194 141.566 506.306 141.036 506.375 C 140.426 506.454 140.420 507.049 141.021 508.000 C 141.844 509.302 141.971 509.305 141.985 508.027 C 141.994 507.112 142.645 507.491 143.704 509.027 C 146.075 512.467 147.338 513.355 157.000 518.369 C 180.257 530.438 212.463 538.509 234.504 537.793 L 243.500 537.500 243.801 533.905 L 244.102 530.311 232.801 529.657 C 206.445 528.133 177.126 519.773 156.742 507.970 C 152.759 505.664 148.825 503.637 148.000 503.465 C 147.175 503.293 146.938 503.119 147.473 503.077 C 148.007 503.034 147.361 502.240 146.035 501.312 C 144.263 500.071 143.517 499.949 143.215 500.854 C 142.896 501.813 142.463 501.799 141.248 500.792 C 139.919 499.689 139.937 499.977 141.371 502.750 "/></g>
<g fill="#E60066FE" stroke="#E60066FE">
<path d="M 218.500 14.165 C 207.633 15.393 189.483 19.540 179.079 23.172 C 169.566 26.493 148.000 36.911 148.000 38.186 C 148.000 38.634 147.325 39.000 146.500 39.000 C 145.494 39.000 145.000 40.007 145.000 42.059 C 145.000 43.741 144.592 44.866 144.094 44.558 C 143.596 44.250 143.410 42.986 143.681 41.749 C 144.075 39.947 143.962 39.798 143.110 41.000 C 142.524 41.825 142.325 43.396 142.667 44.492 C 143.235 46.312 143.131 46.355 141.470 44.992 C 139.714 43.552 139.713 43.595 141.440 46.250 C 142.425 47.763 142.863 49.000 142.415 49.000 C 141.967 49.000 142.140 49.540 142.800 50.200 C 143.733 51.133 144.000 51.009 144.000 49.641 C 144.000 48.674 144.435 48.151 144.967 48.479 C 145.499 48.808 149.436 47.095 153.717 44.673 C 177.973 30.949 207.242 22.770 235.500 21.821 C 239.350 21.691 242.831 21.116 243.235 20.543 C 244.254 19.096 244.187 16.766 243.144 17.411 C 242.674 17.702 242.501 16.828 242.761 15.470 L 243.233 13.000 234.867 13.131 C 230.265 13.203 222.900 13.668 218.500 14.165 "/></g>
<g fill="#AA001AFE" stroke="#AA001AFE">
<path d="M 393.028 409.669 C 390.648 415.050 390.605 415.318 392.250 414.485 C 392.938 414.137 392.769 414.456 391.875 415.195 C 390.138 416.631 379.476 436.994 379.804 438.250 C 379.912 438.663 379.573 439.000 379.052 439.000 C 378.471 439.000 378.500 440.135 379.125 441.929 C 379.848 444.002 379.812 445.482 379.004 446.993 C 378.247 448.407 378.194 449.528 378.846 450.314 C 379.387 450.966 379.934 451.725 380.060 452.000 C 380.860 453.736 395.353 426.363 394.631 424.481 C 394.292 423.596 394.642 423.000 395.500 423.000 C 396.430 423.000 396.712 422.412 396.299 421.336 C 395.869 420.217 396.043 419.909 396.830 420.395 C 397.474 420.793 398.000 420.679 398.000 420.142 C 398.000 419.606 397.444 418.981 396.764 418.755 C 395.985 418.495 396.633 417.293 398.514 415.508 C 400.156 413.949 400.938 412.998 400.250 413.395 C 399.520 413.817 398.994 413.573 398.985 412.809 C 398.974 411.858 398.704 411.910 398.000 413.000 C 396.925 414.663 396.858 414.574 396.482 411.000 C 396.338 409.625 396.632 407.990 397.135 407.367 C 397.728 406.634 397.522 406.031 396.554 405.659 C 395.494 405.252 394.464 406.424 393.028 409.669 "/></g>
<g fill="#AA001AFE" stroke="#AA001AFE">
<path d="M 378.000 74.941 C 378.000 75.523 378.450 76.000 379.000 76.000 C 379.550 76.000 380.000 76.525 380.000 77.167 C 380.000 77.808 379.693 78.026 379.317 77.650 C 378.941 77.275 378.803 79.562 379.009 82.734 C 379.215 85.905 379.407 88.950 379.435 89.500 C 379.463 90.050 381.170 93.311 383.230 96.747 C 385.289 100.182 388.823 106.669 391.082 111.163 C 394.895 118.747 399.463 125.339 397.725 120.750 C 397.323 119.688 397.542 118.975 398.281 118.937 C 398.952 118.902 398.459 118.456 397.187 117.946 C 395.029 117.080 394.977 116.871 396.409 114.827 C 397.552 113.194 397.661 112.296 396.834 111.299 C 395.997 110.291 396.188 109.433 397.612 107.809 C 398.650 106.625 398.965 105.968 398.311 106.349 C 397.658 106.730 396.758 106.424 396.311 105.668 C 395.865 104.912 394.825 104.038 394.000 103.726 C 393.013 103.352 393.282 103.131 394.789 103.079 C 396.508 103.020 396.818 102.688 396.034 101.750 C 395.459 101.063 393.649 97.881 392.011 94.681 C 388.861 88.523 380.258 75.278 378.840 74.401 C 378.378 74.116 378.000 74.359 378.000 74.941 "/></g>
<g fill="#E60066FE" stroke="#E60066FE">
<path d="M 312.505 258.849 C 312.935 262.207 314.000 264.528 314.000 262.108 C 314.000 261.434 314.450 261.160 315.000 261.500 C 315.550 261.840 316.000 261.641 316.000 261.059 C 316.000 260.477 315.590 260.000 315.088 260.000 C 314.065 260.000 314.173 258.112 315.300 256.311 C 315.789 255.528 315.362 255.172 314.055 255.271 C 312.391 255.396 312.138 255.981 312.505 258.849 "/></g>
<g fill="#E60066FE" stroke="#E60066FE">
<path d="M 314.079 312.750 C 314.122 315.363 314.386 316.935 314.664 316.244 C 314.943 315.553 315.553 315.224 316.021 315.513 C 316.489 315.802 316.450 314.570 315.936 312.776 C 314.739 308.602 314.725 308.680 316.552 309.382 C 317.442 309.723 317.843 309.555 317.493 308.989 C 317.157 308.445 316.234 308.000 315.441 308.000 C 314.378 308.000 314.021 309.244 314.079 312.750 "/></g>
<g fill="#E60066FE" stroke="#E60066FE">
<path d="M 314.159 277.712 C 314.078 281.759 314.980 282.985 315.637 279.721 C 315.772 279.049 316.102 277.523 316.369 276.329 C 316.649 275.079 316.303 273.946 315.553 273.659 C 314.608 273.296 314.225 274.409 314.159 277.712 "/></g>
<g fill="#C8003EFE" stroke="#C8003EFE">
<path d="M 118.500 478.500 L 126.000 486.000 118.500 478.500 L 111.000 471.000 118.500 478.500 "/></g>
<g fill="#580A00FE" stroke="#580A00FE">
<path d="M 350.000 491.966 L 343.500 498.547 350.000 491.966 L 356.500 485.385 350.000 491.966 "/></g>
<g fill="#C8003EFE" stroke="#C8003EFE">
<path d="M 287.000 406.961 L 281.500 412.551 287.000 406.961 L 292.500 401.370 287.000 406.961 "/></g>
<g fill="#FE448EFE" stroke="#FE448EFE">
<path d="M 202.429 147.716 C 202.820 153.123 203.054 153.135 203.543 147.773 C 203.730 145.723 203.478 143.796 202.983 143.489 C 202.480 143.178 202.235 145.043 202.429 147.716 "/></g>
<g fill="#FE448EFE" stroke="#FE448EFE">
<path d="M 145.866 38.215 C 143.941 39.750 142.818 43.770 144.094 44.558 C 144.592 44.866 145.000 43.741 145.000 42.059 C 145.000 39.935 145.484 39.000 146.583 39.000 C 147.454 39.000 148.011 38.534 147.822 37.965 C 147.602 37.307 146.891 37.398 145.866 38.215 "/></g>
<g fill="#820000FE" stroke="#820000FE">
<path d="M 187.116 439.215 C 187.052 440.158 186.073 441.426 184.939 442.033 C 183.806 442.639 183.028 443.584 183.211 444.133 C 183.809 445.927 188.195 441.215 187.701 439.309 C 187.285 437.705 187.219 437.694 187.116 439.215 "/></g>
<g fill="#AA001AFE" stroke="#AA001AFE">
<path d="M 104.587 461.141 C 104.879 461.613 106.216 462.000 107.559 462.000 C 109.190 462.000 110.000 462.564 110.000 463.700 C 110.000 464.879 110.319 465.081 111.042 464.358 C 111.766 463.634 111.627 462.935 110.590 462.075 C 108.866 460.644 103.792 459.854 104.587 461.141 "/></g>
<g fill="#FE448EFE" stroke="#FE448EFE">
<path d="M 280.000 400.953 L 275.500 405.556 280.000 400.953 L 284.500 396.350 280.000 400.953 "/></g>
<g fill="#000000FE" stroke="#000000FE">
<path d="M 196.075 404.808 C 194.595 405.302 194.712 407.060 196.205 406.750 C 196.867 406.613 197.430 407.100 197.455 407.833 C 197.480 408.567 197.838 408.829 198.250 408.417 C 198.663 408.004 199.000 408.192 199.000 408.833 C 199.000 409.475 199.528 410.000 200.174 410.000 C 200.820 410.000 200.370 408.875 199.174 407.500 C 197.978 406.125 197.034 404.876 197.075 404.725 C 197.116 404.574 196.666 404.611 196.075 404.808 "/></g>
<g fill="#820000FE" stroke="#820000FE">
<path d="M 329.335 278.764 L 326.170 282.500 329.540 279.500 C 331.393 277.850 332.817 276.169 332.705 275.764 C 332.592 275.360 331.076 276.710 329.335 278.764 "/></g>
<g fill="#580A00FE" stroke="#580A00FE">
<path d="M 148.173 345.709 C 148.763 346.419 148.965 347.056 148.622 347.125 C 148.280 347.194 148.552 347.306 149.227 347.375 C 149.901 347.444 150.569 346.741 150.711 345.813 C 150.883 344.687 150.326 344.175 149.035 344.272 C 147.575 344.382 147.364 344.734 148.173 345.709 "/></g>
<g fill="#FEAACCFE" stroke="#FEAACCFE">
<path d="M 107.500 67.449 L 103.500 71.559 107.500 67.449 L 111.500 63.338 107.500 67.449 "/></g>
<g fill="#C8003EFE" stroke="#C8003EFE">
<path d="M 208.500 424.536 C 210.150 425.292 212.175 425.896 213.000 425.879 C 213.825 425.862 212.925 425.241 211.000 424.500 C 206.434 422.742 204.638 422.768 208.500 424.536 "/></g>
<g fill="#820000FE" stroke="#820000FE">
<path d="M 144.770 487.000 C 143.124 489.422 143.134 489.470 145.071 488.554 C 146.171 488.033 146.936 486.908 146.770 486.054 C 146.543 484.882 146.052 485.114 144.770 487.000 "/></g>
<g fill="#820000FE" stroke="#820000FE">
<path d="M 394.150 99.000 C 394.725 100.650 395.613 102.000 396.124 102.000 C 396.634 102.000 396.353 100.650 395.500 99.000 C 394.647 97.350 393.759 96.000 393.526 96.000 C 393.294 96.000 393.575 97.350 394.150 99.000 "/></g>
<g fill="#AA001AFE" stroke="#AA001AFE">
<path d="M 141.500 426.418 C 139.529 427.914 139.534 427.937 141.823 427.968 C 143.404 427.990 144.043 427.504 143.823 426.450 C 143.534 425.061 143.292 425.057 141.500 426.418 "/></g>
<g fill="#AA001AFE" stroke="#AA001AFE">
<path d="M 387.297 224.105 C 386.391 225.009 386.372 225.825 387.220 227.403 C 388.255 229.332 388.352 229.235 388.423 226.202 C 388.483 223.632 388.234 223.169 387.297 224.105 "/></g>
<g fill="#AA001AFE" stroke="#AA001AFE">
<path d="M 347.639 191.498 C 346.746 193.825 346.807 194.000 348.500 194.000 C 350.183 194.000 350.373 193.137 349.124 191.166 C 348.449 190.102 348.149 190.169 347.639 191.498 "/></g>
</svg>
