<?xml version="1.0" encoding="utf-8"?>
<!DOCTYPE svg PUBLIC "-//W3C//DTD SVG 20010904//EN" "http://www.w3.org/TR/2001/REC-SVG-20010904/DTD/svg10.dtd">
<svg version="1.0" xmlns="http://www.w3.org/2000/svg" width="343pt" height="602pt" viewBox="0 0 343 602" style="" preserveAspectRatio="xMidYMid meet">
<g fill="#62B800FE" stroke="#62B800FE">
<path d="M 245.018 41.478 C 243.965 42.747 244.066 43.012 245.628 43.070 C 247.365 43.135 247.355 43.199 245.500 43.947 C 244.302 44.430 242.922 44.301 242.058 43.626 C 240.954 42.764 240.792 42.793 241.367 43.750 C 241.780 44.438 241.668 45.000 241.118 45.000 C 240.568 45.000 239.860 44.583 239.546 44.074 C 239.207 43.527 237.750 43.498 235.987 44.004 C 234.344 44.475 233.000 44.635 233.000 44.359 C 233.000 44.083 232.293 44.564 231.429 45.429 C 230.564 46.293 228.787 47.000 227.478 47.000 C 226.170 47.000 224.737 47.647 224.294 48.439 C 223.767 49.381 221.506 49.958 217.745 50.110 C 213.508 50.281 212.000 50.722 212.000 51.788 C 212.000 52.741 211.319 53.055 210.000 52.710 C 208.859 52.412 207.987 52.684 207.970 53.344 C 207.953 53.980 207.475 53.703 206.908 52.729 C 206.341 51.755 205.467 51.211 204.966 51.521 C 204.042 52.092 198.769 52.982 193.750 53.413 C 192.238 53.544 190.100 53.729 189.000 53.825 C 187.900 53.921 187.000 54.563 187.000 55.250 C 187.000 55.980 185.717 56.500 183.917 56.500 C 182.023 56.500 181.155 56.127 181.667 55.533 C 182.125 55.001 181.724 55.159 180.776 55.884 C 179.212 57.080 179.683 57.817 185.866 63.851 C 200.877 78.500 209.998 103.133 210.359 130.000 C 210.500 140.485 210.496 140.500 208.000 140.846 C 206.625 141.036 205.050 141.547 204.500 141.980 C 203.950 142.414 202.038 143.082 200.251 143.464 C 198.464 143.846 196.315 145.135 195.475 146.329 L 193.947 148.500 194.288 146.231 C 194.475 144.983 194.937 144.271 195.314 144.648 C 195.691 145.025 196.000 144.808 196.000 144.167 C 196.000 142.428 194.311 142.754 192.289 144.884 C 190.953 146.290 189.930 146.552 188.250 145.916 C 187.013 145.448 185.986 144.487 185.970 143.782 C 185.952 143.026 185.521 143.218 184.920 144.250 C 184.132 145.602 184.253 146.000 185.450 146.000 C 186.303 146.000 187.000 146.439 187.000 146.975 C 187.000 147.601 186.108 147.611 184.509 147.003 C 181.603 145.899 179.396 146.524 178.566 148.689 C 178.099 149.905 176.995 150.088 173.238 149.571 C 169.859 149.105 168.930 149.212 170.000 149.943 C 171.225 150.782 171.075 150.972 169.179 150.985 C 167.902 150.993 166.199 151.658 165.395 152.462 C 164.317 153.540 163.284 153.678 161.466 152.987 C 159.535 152.253 159.000 152.370 159.000 153.525 C 159.000 154.336 158.235 155.000 157.300 155.000 C 155.986 155.000 155.870 154.730 156.790 153.810 C 157.710 152.890 157.503 152.547 155.879 152.299 C 154.348 152.066 153.935 152.389 154.358 153.489 C 154.754 154.522 154.314 155.000 152.969 155.000 C 151.505 155.000 150.982 155.705 150.930 157.750 C 150.867 160.187 150.762 160.272 150.000 158.500 C 149.216 156.676 149.134 156.662 149.070 158.341 C 149.032 159.354 147.887 169.929 146.527 181.841 C 145.167 193.754 143.153 212.050 142.051 222.500 C 140.949 232.950 138.672 254.550 136.993 270.500 C 133.246 306.080 131.189 322.533 125.433 363.000 C 120.586 397.076 114.494 444.917 112.508 464.500 C 111.111 478.282 110.730 480.625 109.673 481.932 C 108.760 483.062 108.777 483.217 109.750 482.633 C 110.641 482.097 111.000 482.760 111.000 484.941 C 111.000 487.096 110.521 488.000 109.378 488.000 C 108.049 488.000 107.980 488.271 109.000 489.500 C 110.043 490.757 109.884 491.000 108.015 491.000 C 106.445 491.000 105.956 491.443 106.362 492.500 C 106.746 493.502 106.284 494.041 104.969 494.125 C 103.886 494.194 102.581 494.306 102.069 494.375 C 100.804 494.545 101.744 508.982 103.523 516.711 C 105.532 525.437 108.540 531.335 114.059 537.375 C 126.066 550.512 144.484 554.400 184.000 552.140 C 211.835 550.548 222.224 547.032 233.883 535.258 C 249.062 519.928 254.905 499.869 255.441 461.247 C 255.733 440.140 255.387 434.783 253.881 437.158 C 253.267 438.127 253.026 437.874 253.015 436.250 C 253.007 435.013 252.550 434.000 252.000 434.000 C 251.450 434.000 251.000 434.623 251.000 435.383 C 251.000 436.144 249.807 436.995 248.348 437.274 L 245.696 437.781 246.357 381.140 C 246.721 349.988 247.201 321.800 247.424 318.500 C 247.648 315.200 248.111 305.750 248.455 297.500 C 250.118 257.602 253.322 207.498 256.001 179.500 C 262.054 116.246 262.150 89.938 256.424 63.653 C 254.971 56.985 250.603 46.127 247.714 42.003 C 246.449 40.196 246.133 40.135 245.018 41.478 M 195.500 55.000 C 197.166 55.716 196.948 55.871 194.191 55.930 C 192.225 55.971 191.133 55.594 191.500 55.000 C 192.220 53.834 192.787 53.834 195.500 55.000 M 248.305 445.057 C 248.746 446.745 248.588 446.903 247.421 445.935 C 245.830 444.614 245.535 443.000 246.883 443.000 C 247.369 443.000 248.009 443.926 248.305 445.057 "/></g>
<g fill="#324C22FE" stroke="#324C22FE">
<path d="M 253.000 28.965 C 253.000 29.496 254.335 32.035 255.966 34.607 C 260.904 42.394 265.176 53.923 267.228 65.000 C 268.712 73.017 269.298 81.833 269.702 102.282 C 270.257 130.293 269.786 139.307 265.446 183.688 C 262.374 215.099 259.413 266.161 256.033 346.000 C 255.579 356.725 255.265 392.050 255.335 424.500 C 255.448 476.326 255.255 484.611 253.752 492.636 C 249.962 512.860 244.357 525.069 234.000 535.663 C 230.975 538.757 229.384 540.814 230.466 540.234 C 231.954 539.435 233.290 539.605 235.966 540.930 C 237.909 541.893 242.763 543.709 246.750 544.966 C 250.738 546.222 254.000 547.671 254.000 548.184 C 254.000 548.698 254.420 548.858 254.934 548.541 C 255.821 547.992 263.942 550.727 265.000 551.931 C 265.275 552.244 265.950 552.579 266.500 552.676 C 267.050 552.773 268.225 553.134 269.111 553.480 C 272.628 554.850 281.273 536.844 285.136 520.107 C 287.505 509.839 287.792 500.182 288.447 408.500 C 288.699 373.300 289.142 340.675 289.433 336.000 C 289.723 331.325 290.434 317.600 291.012 305.500 C 291.590 293.400 292.501 276.525 293.037 268.000 C 293.573 259.475 294.255 248.450 294.553 243.500 C 294.851 238.550 296.190 223.025 297.529 209.000 C 301.394 168.530 302.027 159.690 302.506 139.500 C 302.948 120.825 301.441 97.884 298.925 85.000 C 296.670 73.451 290.230 59.601 282.599 49.890 C 277.835 43.828 264.804 34.385 262.859 35.587 C 262.176 36.009 261.958 35.877 262.334 35.268 C 262.688 34.695 262.308 33.671 261.489 32.991 C 260.670 32.311 260.000 32.067 260.000 32.449 C 260.000 32.831 259.341 32.548 258.535 31.821 C 254.032 27.761 253.000 27.228 253.000 28.965 "/></g>
<g fill="#B4B4B4FE" stroke="#B4B4B4FE">
<path d="M 285.358 53.750 C 290.687 61.293 297.845 76.578 298.590 82.000 C 301.905 106.145 302.364 112.354 302.360 133.000 C 302.355 155.874 301.771 165.063 297.497 209.500 C 296.175 223.250 294.849 238.550 294.552 243.500 C 294.255 248.450 293.573 259.475 293.037 268.000 C 292.501 276.525 291.590 293.400 291.012 305.500 C 290.434 317.600 289.723 331.325 289.433 336.000 C 289.142 340.675 288.699 373.300 288.447 408.500 C 287.792 500.182 287.505 509.839 285.136 520.107 C 281.273 536.844 272.628 554.850 269.111 553.480 C 268.225 553.134 267.050 552.773 266.500 552.676 C 265.950 552.579 265.275 552.244 265.000 551.931 C 263.942 550.727 255.821 547.992 254.934 548.541 C 254.420 548.858 254.000 548.698 254.000 548.184 C 254.000 547.671 250.738 546.222 246.750 544.966 C 242.763 543.709 237.914 541.895 235.975 540.935 C 232.948 539.436 232.100 539.377 229.975 540.519 L 227.500 541.849 230.500 542.997 C 232.150 543.629 234.850 544.409 236.500 544.730 C 238.150 545.051 239.725 545.607 240.000 545.964 C 240.570 546.705 253.234 550.949 256.979 551.655 C 258.342 551.912 259.732 552.567 260.069 553.111 C 260.405 553.655 261.652 554.173 262.840 554.263 C 264.028 554.352 265.000 554.766 265.000 555.181 C 265.000 555.597 265.675 555.678 266.500 555.362 C 269.022 554.394 268.177 556.445 264.750 559.608 C 251.513 571.831 238.289 574.916 199.000 574.949 C 171.446 574.972 164.149 573.159 148.000 562.276 C 143.875 559.496 140.876 557.861 141.337 558.643 C 142.442 560.522 149.245 565.475 167.895 577.980 C 191.632 593.894 198.689 595.652 234.500 594.571 C 259.511 593.816 268.236 592.414 278.534 587.493 C 295.269 579.498 305.812 564.172 311.153 540.076 C 313.180 530.929 313.309 526.850 314.040 449.000 C 314.735 374.994 315.235 358.285 318.556 298.000 C 319.851 274.485 322.159 244.082 324.478 220.000 C 329.110 171.887 329.914 150.115 327.937 126.304 C 326.376 107.498 323.909 96.639 318.739 85.810 C 311.850 71.381 307.066 65.703 294.256 56.750 C 288.157 52.488 282.905 49.000 282.585 49.000 C 282.265 49.000 283.513 51.138 285.358 53.750 "/></g>
<g fill="#8ABE02FE" stroke="#8ABE02FE">
<path d="M 199.503 21.562 C 192.517 23.314 184.559 27.854 169.400 38.735 C 158.118 46.834 152.570 51.274 128.635 71.363 C 105.390 90.872 69.215 120.984 58.000 130.158 C 30.089 152.991 21.636 166.558 24.252 184.324 C 24.561 186.427 25.148 188.452 25.555 188.824 C 25.962 189.196 26.055 188.521 25.761 187.325 C 25.369 185.731 25.605 185.295 26.643 185.693 C 27.572 186.050 27.833 186.971 27.402 188.368 C 26.840 190.190 27.134 190.084 29.427 187.639 C 30.903 186.065 32.382 185.049 32.713 185.380 C 33.045 185.711 33.936 185.468 34.693 184.840 C 35.765 183.950 36.560 184.221 38.285 186.066 L 40.500 188.434 40.178 185.717 C 39.867 183.089 40.016 183.000 44.728 183.000 C 47.408 183.000 50.067 182.533 50.637 181.963 C 51.344 181.256 52.521 181.248 54.337 181.938 C 56.664 182.823 57.000 182.701 57.000 180.975 C 57.000 179.333 57.684 179.000 61.059 179.000 C 63.756 179.000 64.890 178.631 64.438 177.900 C 63.988 177.172 64.516 177.206 66.000 178.000 C 67.233 178.660 67.965 178.752 67.626 178.205 C 67.288 177.657 67.669 176.957 68.474 176.648 C 69.278 176.340 70.281 176.630 70.703 177.294 C 71.254 178.162 71.474 178.079 71.485 177.000 C 71.494 176.079 72.658 175.371 74.500 175.166 C 76.150 174.983 78.288 174.126 79.250 173.261 C 80.860 171.816 81.000 171.858 81.000 173.786 C 81.000 174.939 81.408 176.134 81.907 176.442 C 82.405 176.751 82.560 176.032 82.249 174.845 C 81.891 173.475 82.069 172.925 82.738 173.338 C 83.317 173.696 84.161 173.204 84.613 172.244 C 85.387 170.603 85.420 170.603 85.177 172.234 C 85.000 173.430 85.396 173.785 86.454 173.379 C 87.298 173.055 87.740 172.388 87.435 171.895 C 87.131 171.403 88.273 171.000 89.972 171.000 C 91.975 171.000 93.316 171.616 93.781 172.750 C 94.433 174.337 94.500 174.322 94.505 172.590 C 94.508 171.110 95.860 170.301 100.505 168.998 C 110.978 166.062 114.786 165.741 115.311 167.750 C 115.638 169.001 115.835 168.787 116.002 167.000 C 116.131 165.625 116.210 164.241 116.176 163.924 C 116.143 163.607 118.102 163.431 120.529 163.532 C 123.336 163.649 124.711 163.341 124.307 162.688 C 123.926 162.072 124.309 161.905 125.263 162.271 C 126.148 162.610 127.441 162.174 128.177 161.287 C 128.905 160.410 129.382 160.099 129.237 160.596 C 129.093 161.093 129.884 161.551 130.997 161.614 C 132.596 161.704 132.782 161.442 131.887 160.364 C 130.993 159.286 131.193 159.000 132.842 159.000 C 134.803 159.000 136.988 161.484 136.651 163.331 C 136.568 163.787 137.591 163.000 138.924 161.581 C 141.093 159.272 141.044 158.519 138.750 158.882 C 138.338 158.947 138.000 158.309 138.000 157.465 C 138.000 156.281 138.424 156.156 139.848 156.919 C 141.332 157.713 142.318 157.267 144.848 154.656 C 146.582 152.868 148.000 150.837 148.000 150.143 C 148.000 149.450 148.435 149.151 148.967 149.480 C 149.499 149.809 149.694 151.298 149.399 152.789 C 149.105 154.280 149.316 156.625 149.869 158.000 L 150.873 160.500 150.937 157.750 C 150.984 155.703 151.503 155.000 152.969 155.000 C 154.314 155.000 154.754 154.522 154.358 153.489 C 153.935 152.389 154.348 152.066 155.879 152.299 C 157.503 152.547 157.710 152.890 156.790 153.810 C 155.870 154.730 155.986 155.000 157.300 155.000 C 158.235 155.000 159.000 154.336 159.000 153.525 C 159.000 152.370 159.535 152.253 161.466 152.987 C 163.284 153.678 164.317 153.540 165.395 152.462 C 166.199 151.658 167.902 150.993 169.179 150.985 C 171.075 150.972 171.225 150.782 170.000 149.943 C 168.930 149.212 169.859 149.105 173.238 149.571 C 176.995 150.088 178.099 149.905 178.566 148.689 C 179.396 146.524 181.603 145.899 184.509 147.003 C 186.108 147.611 187.000 147.601 187.000 146.975 C 187.000 146.439 186.303 146.000 185.450 146.000 C 184.253 146.000 184.132 145.602 184.920 144.250 C 185.521 143.218 185.952 143.026 185.970 143.782 C 185.986 144.487 187.013 145.448 188.250 145.916 C 189.930 146.552 190.953 146.290 192.289 144.884 C 194.311 142.754 196.000 142.428 196.000 144.167 C 196.000 144.808 195.691 145.025 195.314 144.648 C 194.937 144.271 194.475 144.983 194.288 146.231 L 193.947 148.500 195.475 146.329 C 196.315 145.135 198.464 143.846 200.251 143.464 C 202.038 143.082 203.950 142.414 204.500 141.980 C 205.050 141.547 206.625 141.036 208.000 140.846 C 210.496 140.500 210.500 140.485 210.359 130.000 C 209.998 103.133 200.877 78.500 185.866 63.851 C 179.683 57.817 179.212 57.080 180.776 55.884 C 181.724 55.159 182.125 55.001 181.667 55.533 C 181.155 56.127 182.023 56.500 183.917 56.500 C 185.717 56.500 187.000 55.980 187.000 55.250 C 187.000 54.563 187.900 53.921 189.000 53.825 C 190.100 53.729 192.238 53.544 193.750 53.413 C 198.769 52.982 204.042 52.092 204.966 51.521 C 205.467 51.211 206.341 51.755 206.908 52.729 C 207.475 53.703 207.953 53.980 207.970 53.344 C 207.987 52.684 208.859 52.412 210.000 52.710 C 211.319 53.055 212.000 52.741 212.000 51.788 C 212.000 50.722 213.508 50.281 217.745 50.110 C 221.506 49.958 223.767 49.381 224.294 48.439 C 224.737 47.647 226.170 47.000 227.478 47.000 C 228.787 47.000 230.564 46.293 231.429 45.429 C 232.293 44.564 233.000 44.083 233.000 44.359 C 233.000 44.635 234.344 44.475 235.987 44.004 C 237.750 43.498 239.207 43.527 239.546 44.074 C 239.860 44.583 240.568 45.000 241.118 45.000 C 241.668 45.000 241.780 44.438 241.367 43.750 C 240.792 42.793 240.954 42.764 242.058 43.626 C 242.922 44.301 244.302 44.430 245.500 43.947 C 247.355 43.199 247.365 43.135 245.628 43.070 C 244.083 43.012 243.972 42.739 244.994 41.508 C 245.982 40.317 246.490 40.266 247.505 41.258 C 248.205 41.941 247.437 40.365 245.798 37.755 C 242.064 31.810 234.872 25.350 229.000 22.668 C 223.107 19.976 208.075 19.412 199.503 21.562 M 138.684 160.847 C 137.532 161.803 137.114 161.739 136.653 160.537 C 136.233 159.444 136.636 159.110 138.103 159.334 C 139.832 159.597 139.918 159.823 138.684 160.847 "/></g>
<g fill="#BADE0CFE" stroke="#BADE0CFE">
<path d="M 206.250 10.656 C 205.013 10.922 204.000 11.648 204.000 12.270 C 204.000 13.107 203.706 13.106 202.865 12.265 C 202.018 11.418 200.304 11.658 196.115 13.213 C 193.027 14.359 190.239 15.696 189.920 16.183 C 189.601 16.669 188.589 16.779 187.670 16.427 C 186.569 16.004 186.000 16.295 186.000 17.282 C 186.000 18.191 184.666 19.028 182.597 19.416 C 180.725 19.767 178.928 20.746 178.604 21.591 C 178.279 22.435 177.561 22.847 177.007 22.504 C 176.453 22.162 176.000 22.262 176.000 22.725 C 176.000 23.189 174.642 24.371 172.982 25.351 C 171.323 26.332 170.221 27.549 170.534 28.056 C 170.848 28.562 170.440 28.722 169.629 28.411 C 168.170 27.851 158.000 34.675 158.000 36.213 C 158.000 36.646 157.425 37.000 156.723 37.000 C 156.020 37.000 153.968 38.350 152.161 40.000 C 150.355 41.650 148.611 43.000 148.287 43.000 C 147.401 43.000 130.307 56.949 114.400 70.651 C 100.393 82.717 88.746 92.418 59.002 116.797 C 26.957 143.063 16.126 156.930 14.345 173.975 C 12.551 191.137 25.897 217.610 43.306 231.422 C 56.485 241.878 71.625 241.872 87.679 231.406 C 95.796 226.115 116.775 204.758 127.510 190.859 L 136.500 179.219 136.269 183.359 C 136.038 187.511 131.458 232.527 128.438 260.336 C 126.856 274.904 127.092 282.048 129.053 278.948 C 129.652 278.001 129.975 277.922 129.985 278.719 C 129.993 279.406 130.675 279.678 131.548 279.343 C 132.430 279.005 133.767 279.557 134.654 280.625 C 135.931 282.163 135.918 282.006 134.582 279.750 C 133.350 277.669 133.264 276.954 134.227 276.812 C 134.927 276.709 134.150 276.570 132.500 276.502 C 129.651 276.385 130.015 275.991 134.220 274.639 C 136.504 273.905 136.447 274.269 140.012 237.500 C 143.136 205.280 148.591 156.427 149.532 152.250 C 149.810 151.013 149.692 150.027 149.269 150.061 C 148.247 150.142 133.102 167.985 123.432 180.500 C 95.691 216.402 79.416 230.000 64.186 230.000 C 49.959 230.000 33.105 212.155 25.463 189.000 C 19.307 170.347 27.925 154.761 58.000 130.158 C 72.222 118.523 111.861 85.477 126.000 73.467 C 140.622 61.047 154.242 50.010 163.596 43.000 C 167.633 39.975 170.955 37.050 170.979 36.500 C 171.003 35.950 171.580 35.486 172.261 35.470 C 173.943 35.428 180.000 31.761 180.000 30.784 C 180.000 30.353 180.451 30.000 181.003 30.000 C 182.129 30.000 191.782 24.114 191.000 23.904 C 190.725 23.830 190.950 23.686 191.500 23.585 C 196.843 22.600 200.000 21.650 200.000 21.027 C 200.000 20.615 201.238 20.442 202.750 20.643 C 204.301 20.850 204.846 20.705 204.000 20.311 C 201.165 18.992 220.503 20.100 225.664 21.552 C 235.075 24.201 243.857 32.743 250.285 45.500 C 255.107 55.070 256.603 59.943 258.449 72.089 C 262.100 96.123 261.530 125.905 256.434 177.294 C 255.082 190.930 253.760 206.230 253.497 211.294 C 253.234 216.357 252.737 222.863 252.394 225.750 C 251.776 230.943 252.238 231.769 254.835 230.123 C 256.530 229.048 256.530 227.979 254.835 226.775 C 253.876 226.094 254.120 225.962 255.702 226.307 C 256.913 226.571 258.147 226.273 258.443 225.644 C 258.739 225.015 258.747 225.459 258.461 226.632 C 258.134 227.971 258.494 228.976 259.430 229.335 C 260.637 229.798 260.862 229.063 260.613 225.453 C 260.444 223.004 260.687 221.000 261.153 221.000 C 261.619 221.000 262.003 218.638 262.007 215.750 C 262.011 212.863 263.115 200.600 264.460 188.500 C 269.015 147.539 269.459 140.635 269.479 110.500 C 269.496 85.772 269.169 78.479 267.615 69.000 C 263.411 43.355 251.008 23.052 234.615 14.982 C 231.015 13.210 227.379 12.024 226.535 12.348 C 225.691 12.672 225.000 12.576 225.000 12.135 C 225.000 11.168 224.423 11.073 215.500 10.569 C 211.650 10.351 207.488 10.391 206.250 10.656 M 198.571 14.724 C 197.510 14.994 195.935 15.871 195.071 16.671 C 193.669 17.970 193.600 17.904 194.428 16.063 C 195.043 14.696 196.223 14.039 197.928 14.116 C 199.917 14.206 200.063 14.344 198.571 14.724 "/></g>
<g fill="#62B800FE" stroke="#62B800FE">
<path d="M 138.000 157.531 C 138.000 158.339 137.564 159.000 137.031 159.000 C 136.499 159.000 136.308 159.788 136.607 160.750 C 137.125 162.417 137.097 162.417 136.026 160.750 C 135.407 159.788 133.968 159.000 132.828 159.000 C 131.191 159.000 130.993 159.287 131.887 160.364 C 132.782 161.442 132.596 161.704 130.997 161.614 C 129.884 161.551 128.942 161.275 128.902 161.000 C 128.862 160.725 128.385 161.036 127.842 161.691 C 127.298 162.345 126.138 162.606 125.263 162.271 C 124.309 161.905 123.926 162.072 124.307 162.688 C 124.711 163.341 123.336 163.649 120.529 163.532 C 118.102 163.431 116.143 163.607 116.176 163.924 C 116.210 164.241 116.131 165.625 116.002 167.000 C 115.835 168.787 115.638 169.001 115.311 167.750 C 114.786 165.741 110.978 166.062 100.505 168.998 C 95.860 170.301 94.508 171.110 94.505 172.590 C 94.500 174.322 94.433 174.337 93.781 172.750 C 93.316 171.616 91.975 171.000 89.972 171.000 C 88.273 171.000 87.131 171.403 87.435 171.895 C 87.740 172.388 87.298 173.055 86.454 173.379 C 85.396 173.785 85.000 173.430 85.177 172.234 C 85.420 170.603 85.387 170.603 84.613 172.244 C 84.161 173.204 83.317 173.696 82.738 173.338 C 82.069 172.925 81.891 173.475 82.249 174.845 C 82.560 176.032 82.405 176.751 81.907 176.442 C 81.408 176.134 81.000 174.939 81.000 173.786 C 81.000 171.858 80.860 171.816 79.250 173.261 C 78.288 174.126 76.150 174.983 74.500 175.166 C 72.658 175.371 71.494 176.079 71.485 177.000 C 71.474 178.079 71.254 178.162 70.703 177.294 C 70.281 176.630 69.278 176.340 68.474 176.648 C 67.669 176.957 67.288 177.657 67.626 178.205 C 67.965 178.752 67.233 178.660 66.000 178.000 C 64.516 177.206 63.988 177.172 64.438 177.900 C 64.890 178.631 63.756 179.000 61.059 179.000 C 57.684 179.000 57.000 179.333 57.000 180.975 C 57.000 182.701 56.664 182.823 54.337 181.938 C 52.521 181.248 51.344 181.256 50.637 181.963 C 50.067 182.533 47.408 183.000 44.728 183.000 C 40.016 183.000 39.867 183.089 40.178 185.717 L 40.500 188.434 38.285 186.066 C 36.560 184.221 35.765 183.950 34.693 184.840 C 33.936 185.468 33.045 185.711 32.713 185.380 C 32.382 185.049 30.903 186.065 29.427 187.639 C 27.134 190.084 26.840 190.190 27.402 188.368 C 27.833 186.971 27.572 186.050 26.643 185.693 C 25.710 185.335 25.338 185.721 25.553 186.825 C 26.786 193.149 27.142 194.030 28.199 193.377 C 28.928 192.926 29.132 193.214 28.764 194.174 C 28.002 196.157 32.320 204.432 38.387 212.614 C 43.958 220.128 53.228 227.431 59.341 229.122 C 70.430 232.190 87.142 222.580 104.380 203.225 C 114.991 191.312 132.973 167.765 132.296 166.670 C 131.963 166.132 132.133 165.964 132.673 166.298 C 133.500 166.809 141.000 159.034 141.000 157.667 C 141.000 157.418 140.325 156.955 139.500 156.638 C 138.586 156.288 138.000 156.637 138.000 157.531 "/></g>
<g fill="#000000FE" stroke="#000000FE">
<path d="M 221.500 545.200 C 212.893 549.659 203.231 551.856 189.500 552.478 C 182.900 552.777 174.095 553.266 169.934 553.564 C 161.001 554.203 143.764 552.605 136.000 550.418 C 132.975 549.566 129.928 548.785 129.228 548.684 C 127.074 548.372 156.245 567.779 161.276 570.004 C 169.605 573.688 179.798 575.002 199.838 574.974 C 236.509 574.924 248.665 572.237 262.809 561.057 C 267.754 557.148 269.710 554.130 266.500 555.362 C 265.675 555.678 265.000 555.597 265.000 555.181 C 265.000 554.766 264.028 554.352 262.840 554.263 C 261.652 554.173 260.405 553.655 260.069 553.111 C 259.732 552.567 258.342 551.912 256.979 551.655 C 253.506 551.001 240.605 546.735 240.000 546.040 C 239.725 545.725 237.475 544.942 235.000 544.301 C 232.525 543.660 229.825 542.901 229.000 542.614 C 228.175 542.327 224.800 543.491 221.500 545.200 "/></g>
<g fill="#324C22FE" stroke="#324C22FE">
<path d="M 126.305 192.838 C 103.189 222.157 86.772 235.697 70.186 239.122 C 65.003 240.193 63.003 240.165 57.853 238.950 L 51.706 237.500 66.921 247.850 C 88.154 262.293 94.084 264.071 107.351 259.973 C 115.311 257.515 128.809 248.781 129.444 245.678 C 130.071 242.612 135.410 188.177 135.459 184.338 C 135.497 181.423 134.781 182.088 126.305 192.838 "/></g>
<g fill="#8ABE02FE" stroke="#8ABE02FE">
<path d="M 127.002 279.000 C 126.916 279.825 126.652 282.525 126.415 285.000 C 126.178 287.475 125.553 292.200 125.028 295.500 C 124.502 298.800 123.132 308.925 121.982 318.000 C 120.833 327.075 117.652 350.700 114.912 370.500 C 107.393 424.849 101.909 473.575 102.013 485.110 C 102.035 487.524 101.867 491.001 101.641 492.835 C 101.346 495.232 101.535 495.865 102.315 495.085 C 102.912 494.488 104.196 494.000 105.169 494.000 C 106.330 494.000 106.740 493.485 106.362 492.500 C 105.956 491.443 106.445 491.000 108.015 491.000 C 109.884 491.000 110.043 490.757 109.000 489.500 C 107.980 488.271 108.049 488.000 109.378 488.000 C 110.521 488.000 111.000 487.096 111.000 484.941 C 111.000 482.760 110.641 482.097 109.750 482.633 C 108.777 483.217 108.760 483.062 109.673 481.932 C 110.730 480.625 111.111 478.282 112.508 464.500 C 114.525 444.616 120.600 397.035 125.915 359.500 C 132.672 311.773 135.311 289.330 134.601 285.621 C 134.172 283.382 134.281 282.924 134.986 284.000 C 135.860 285.333 135.968 285.333 135.953 284.000 C 135.926 281.542 133.234 278.696 131.548 279.343 C 130.675 279.678 129.993 279.406 129.985 278.719 C 129.974 277.868 129.708 277.912 129.106 278.863 C 128.377 280.014 128.158 280.014 127.700 278.863 C 127.271 277.785 127.125 277.814 127.002 279.000 "/></g>
<g fill="#8ABE02FE" stroke="#8ABE02FE">
<path d="M 260.613 225.453 C 260.862 229.063 260.637 229.798 259.430 229.335 C 258.494 228.976 258.134 227.971 258.461 226.632 C 258.747 225.459 258.739 225.015 258.443 225.644 C 258.147 226.273 256.913 226.571 255.702 226.307 C 254.446 226.033 253.929 226.186 254.500 226.663 C 256.233 228.113 256.031 229.855 254.058 230.482 C 252.621 230.938 252.249 231.813 252.534 234.066 C 252.741 235.705 253.179 237.481 253.507 238.012 C 253.835 238.543 253.484 238.739 252.725 238.448 C 251.589 238.012 251.042 244.364 249.604 274.710 C 248.645 294.944 247.672 314.425 247.441 318.000 C 247.211 321.575 246.724 349.988 246.359 381.140 L 245.696 437.781 248.348 437.274 C 249.807 436.995 251.000 436.144 251.000 435.383 C 251.000 434.623 251.450 434.000 252.000 434.000 C 252.550 434.000 253.000 434.975 253.000 436.167 C 253.000 440.642 254.392 436.729 254.668 431.477 C 254.869 427.663 254.584 425.995 253.728 425.985 C 252.794 425.973 252.784 425.789 253.686 425.215 C 254.560 424.660 254.939 414.568 255.122 386.980 C 255.373 349.398 256.465 318.950 259.454 266.208 C 260.335 250.647 261.056 236.472 261.056 234.708 C 261.055 232.943 261.311 229.138 261.624 226.250 C 261.952 223.224 261.793 221.000 261.250 221.000 C 260.731 221.000 260.444 223.004 260.613 225.453 "/></g>
<g fill="#B4B4B4FE" stroke="#B4B4B4FE">
<path d="M 64.413 247.444 C 68.864 251.482 102.965 274.971 108.759 277.991 C 113.843 280.641 123.767 282.633 125.124 281.276 C 126.121 280.279 129.383 251.980 128.796 249.426 C 128.605 248.599 125.903 249.888 121.222 253.038 C 113.470 258.256 103.297 262.000 96.870 262.000 C 90.609 262.000 83.126 258.790 71.417 251.082 C 64.153 246.301 61.809 245.083 64.413 247.444 "/></g>
<g fill="#B4B4B4FE" stroke="#B4B4B4FE">
<path d="M 248.000 23.902 C 248.000 24.432 248.891 25.148 249.980 25.494 C 251.069 25.839 251.856 26.657 251.730 27.311 C 251.603 27.965 252.087 28.379 252.804 28.232 C 253.521 28.085 254.742 28.535 255.519 29.232 C 258.839 32.214 260.000 33.039 260.000 32.417 C 260.000 32.053 260.670 32.311 261.489 32.991 C 262.308 33.671 262.688 34.695 262.334 35.268 C 261.958 35.878 262.176 36.009 262.862 35.585 C 263.506 35.187 263.769 34.436 263.447 33.915 C 262.416 32.246 248.000 22.902 248.000 23.902 "/></g>
<g fill="#DEF414FE" stroke="#DEF414FE">
<path d="M 190.750 14.203 C 189.238 14.733 188.000 15.579 188.000 16.083 C 188.000 17.248 189.723 17.287 190.167 16.132 C 190.615 14.965 195.002 13.647 194.992 14.683 C 194.987 15.132 194.650 16.057 194.242 16.738 C 193.834 17.418 194.255 17.306 195.179 16.488 C 196.102 15.669 197.639 15.000 198.595 15.000 C 201.071 15.000 200.016 14.377 196.500 13.763 C 194.850 13.475 192.263 13.672 190.750 14.203 "/></g>
<g fill="#8ABE02FE" stroke="#8ABE02FE">
<path d="M 135.752 273.250 C 135.373 274.213 134.175 275.000 133.090 275.000 C 132.006 275.000 130.829 275.468 130.475 276.040 C 130.054 276.722 130.808 276.847 132.666 276.402 C 136.636 275.451 137.157 275.041 136.776 273.157 C 136.474 271.662 136.374 271.671 135.752 273.250 "/></g>
<g fill="#BADE0CFE" stroke="#BADE0CFE">
<path d="M 254.000 232.167 C 254.000 232.808 253.701 233.035 253.336 232.670 C 252.972 232.305 252.528 233.332 252.350 234.953 C 252.173 236.573 252.466 238.170 253.002 238.502 C 253.542 238.835 253.725 238.447 253.413 237.633 C 253.102 236.824 253.609 235.000 254.539 233.581 C 255.557 232.027 255.786 231.000 255.115 231.000 C 254.502 231.000 254.000 231.525 254.000 232.167 "/></g>
<g fill="#8ABE02FE" stroke="#8ABE02FE">
<path d="M 104.500 217.449 L 100.500 221.559 104.500 217.449 L 108.500 213.338 104.500 217.449 "/></g>
<g fill="#DEF414FE" stroke="#DEF414FE">
<path d="M 171.208 25.426 C 168.597 27.272 168.245 27.880 169.510 28.365 C 170.387 28.702 170.856 28.576 170.553 28.086 C 170.250 27.596 171.464 26.259 173.251 25.114 C 175.038 23.970 176.050 23.048 175.500 23.066 C 174.950 23.084 173.019 24.146 171.208 25.426 "/></g>
<g fill="#8ABE02FE" stroke="#8ABE02FE">
<path d="M 191.500 55.000 C 191.133 55.594 192.225 55.971 194.191 55.930 C 196.948 55.871 197.166 55.716 195.500 55.000 C 192.787 53.834 192.220 53.834 191.500 55.000 "/></g>
<g fill="#8ABE02FE" stroke="#8ABE02FE">
<path d="M 134.443 279.223 L 136.000 281.445 136.000 279.223 C 136.000 277.878 135.385 277.000 134.443 277.000 C 133.034 277.000 133.034 277.211 134.443 279.223 "/></g>
<g fill="#8ABE02FE" stroke="#8ABE02FE">
<path d="M 246.000 443.878 C 246.000 444.360 246.640 445.286 247.421 445.935 C 248.588 446.903 248.746 446.745 248.305 445.057 C 247.779 443.047 246.000 442.137 246.000 443.878 "/></g>
<g fill="#8ABE02FE" stroke="#8ABE02FE">
<path d="M 92.000 215.924 L 89.500 218.566 92.000 215.924 L 94.500 213.282 92.000 215.924 "/></g>
<g fill="#8ABE02FE" stroke="#8ABE02FE">
<path d="M 104.000 203.924 L 101.500 206.566 104.000 203.924 L 106.500 201.282 104.000 203.924 "/></g>
<g fill="#8ABE02FE" stroke="#8ABE02FE">
<path d="M 135.875 179.500 C 135.531 180.050 135.634 181.400 136.102 182.500 C 136.799 184.136 136.913 183.954 136.727 181.500 C 136.602 179.850 136.219 178.950 135.875 179.500 "/></g>
<g fill="#DEF414FE" stroke="#DEF414FE">
<path d="M 183.000 18.302 L 180.500 19.362 183.307 19.102 C 184.851 18.959 185.976 18.482 185.807 18.043 C 185.638 17.603 184.375 17.720 183.000 18.302 "/></g>
<g fill="#DCDCDCFE" stroke="#DCDCDCFE">
<path d="M 280.000 46.000 L 283.000 49.000 280.000 46.000 L 277.000 43.000 280.000 46.000 "/></g>
</svg>
