<?xml version="1.0" encoding="utf-8"?>
<!DOCTYPE svg PUBLIC "-//W3C//DTD SVG 20010904//EN" "http://www.w3.org/TR/2001/REC-SVG-20010904/DTD/svg10.dtd">
<svg version="1.0" xmlns="http://www.w3.org/2000/svg" width="575pt" height="491pt" viewBox="0 0 575 491" style="" preserveAspectRatio="xMidYMid meet">
<g fill="#34689AFF" stroke="#34689AFF">
<path d="M 394.000 3.083 C 329.877 5.615 292.780 20.581 278.080 49.848 C 262.907 80.060 256.032 141.194 256.023 246.000 C 256.012 368.777 265.415 431.692 287.367 455.711 C 303.342 473.190 334.550 484.427 376.979 487.977 C 394.051 489.406 435.797 489.414 451.500 487.993 C 504.776 483.171 535.687 469.457 549.494 444.516 C 564.919 416.654 572.972 348.425 572.983 245.500 C 572.994 143.764 564.867 75.252 549.494 47.484 C 534.751 20.853 496.770 5.573 440.078 3.463 C 432.610 3.185 423.350 2.822 419.500 2.655 C 415.650 2.489 404.175 2.681 394.000 3.083 M 450.956 99.859 C 461.434 102.152 472.288 106.982 474.476 110.326 C 476.671 113.680 478.886 123.314 480.495 136.500 C 487.055 190.259 485.855 323.514 478.456 363.030 C 475.281 379.985 470.777 385.437 455.866 390.376 C 443.929 394.330 432.823 395.322 407.344 394.709 C 381.694 394.092 373.407 392.779 363.000 387.683 C 357.188 384.837 356.204 383.909 353.703 378.910 C 350.540 372.589 347.657 359.491 346.019 344.000 C 344.385 328.550 343.562 207.124 344.863 173.500 C 346.888 121.176 350.977 108.203 367.362 102.120 C 379.036 97.787 386.617 97.040 415.000 97.428 C 437.143 97.730 443.055 98.130 450.956 99.859 "/></g>
<g fill="#34689AFF" stroke="#34689AFF">
<path d="M 66.488 79.069 C 5.265 150.339 2.917 153.221 4.344 155.319 C 5.159 156.519 15.472 170.550 27.261 186.500 L 48.695 215.500 56.585 215.500 L 64.475 215.500 103.488 167.138 L 142.500 118.776 142.753 297.109 L 143.006 475.443 148.219 480.721 L 153.432 486.000 187.500 486.000 L 221.568 486.000 226.784 480.719 L 232.000 475.437 232.000 245.434 L 232.000 15.432 226.719 10.216 L 221.437 5.000 175.776 5.000 L 130.115 5.000 66.488 79.069 "/></g>
</svg>
