<?xml version="1.0" encoding="utf-8"?>
<!DOCTYPE svg PUBLIC "-//W3C//DTD SVG 20010904//EN" "http://www.w3.org/TR/2001/REC-SVG-20010904/DTD/svg10.dtd">
<svg version="1.0" xmlns="http://www.w3.org/2000/svg" width="425pt" height="602pt" viewBox="0 0 425 602" style="" preserveAspectRatio="xMidYMid meet">
<g fill="#46B27AFE" stroke="#46B27AFE">
<path d="M 200.500 21.459 C 177.356 25.106 151.332 36.273 127.500 52.783 C 85.169 82.108 52.510 128.311 44.528 170.165 C 40.761 189.918 40.156 222.725 43.342 234.500 C 46.429 245.910 51.437 251.787 60.027 254.085 C 66.451 255.803 78.047 253.303 88.797 247.883 C 104.425 240.004 114.410 227.645 133.941 192.000 C 146.377 169.305 153.198 158.604 161.176 149.275 C 170.793 138.029 184.831 128.907 198.077 125.296 C 206.930 122.883 225.306 122.928 233.500 125.384 C 256.557 132.293 275.407 151.239 280.025 172.145 C 282.011 181.138 280.838 196.895 277.504 206.000 C 270.560 224.966 255.835 243.265 231.500 263.168 C 219.850 272.697 184.716 299.249 171.517 308.500 C 168.378 310.700 163.406 314.300 160.469 316.500 C 146.301 327.112 138.590 332.478 137.832 332.250 C 137.374 332.112 137.000 332.402 137.000 332.893 C 137.000 333.384 132.388 337.321 126.750 341.643 C 121.113 345.964 116.500 349.315 116.500 349.089 C 116.500 348.864 114.025 350.997 111.000 353.831 C 107.975 356.665 105.218 358.987 104.874 358.992 C 104.529 358.996 102.356 360.781 100.045 362.958 C 97.734 365.134 94.978 367.189 93.922 367.525 C 92.865 367.860 92.000 368.581 92.000 369.126 C 92.000 369.672 91.550 369.840 91.000 369.500 C 90.450 369.160 89.971 369.471 89.937 370.191 C 89.902 370.911 89.466 370.488 88.969 369.250 C 88.161 367.240 88.360 367.000 90.841 367.000 C 92.368 367.000 94.491 366.339 95.559 365.532 C 97.451 364.100 97.444 364.063 95.250 364.032 C 94.013 364.014 92.944 363.550 92.875 363.000 C 92.485 359.877 92.290 359.584 91.614 361.101 C 91.222 361.981 91.035 363.331 91.200 364.101 C 91.388 364.979 90.569 365.556 89.000 365.651 C 85.952 365.836 84.554 366.205 86.250 366.377 C 86.938 366.446 85.700 367.601 83.500 368.944 C 81.300 370.286 80.063 371.466 80.750 371.567 C 81.438 371.668 82.311 371.806 82.691 371.875 C 84.283 372.163 79.303 374.939 77.143 374.968 C 75.430 374.991 74.949 375.424 75.382 376.552 C 75.709 377.406 75.564 377.849 75.059 377.536 C 72.342 375.857 42.466 408.881 30.304 427.008 C 6.724 462.149 4.166 495.421 23.408 516.713 C 37.211 531.987 57.533 540.513 92.500 545.699 C 107.634 547.944 163.009 548.234 184.000 546.178 C 270.026 537.754 292.507 534.412 315.729 526.591 C 346.977 516.068 357.567 504.902 360.446 479.443 C 361.671 468.606 357.630 443.824 352.872 433.000 C 348.364 422.746 343.939 417.388 336.789 413.526 C 328.780 409.200 325.779 408.233 316.730 407.060 C 307.579 405.874 293.302 407.243 274.798 411.081 C 266.384 412.826 258.600 414.395 257.500 414.567 C 256.400 414.740 245.600 417.346 233.500 420.359 C 187.603 431.788 175.050 434.728 175.541 433.933 C 175.820 433.482 191.900 419.725 211.274 403.362 C 256.554 365.120 269.245 353.843 287.034 336.043 C 332.201 290.846 357.909 249.816 367.456 207.688 C 370.254 195.342 368.979 197.248 365.574 210.500 C 361.362 226.898 351.794 251.173 348.780 253.112 C 348.257 253.448 347.899 253.898 347.985 254.112 C 348.071 254.325 347.673 255.729 347.102 257.231 C 346.417 259.034 345.560 259.769 344.582 259.393 C 343.474 258.968 343.207 259.413 343.523 261.162 C 343.912 263.321 343.609 263.500 339.564 263.500 L 335.184 263.500 338.372 258.000 C 349.951 238.027 358.365 213.021 361.545 189.136 C 366.763 149.939 356.171 109.392 332.253 77.000 C 324.399 66.364 307.935 50.414 297.954 43.774 C 280.839 32.386 261.350 24.525 242.752 21.509 C 231.753 19.725 211.653 19.701 200.500 21.459 M 360.723 174.014 C 361.253 189.397 356.274 213.073 348.479 232.236 C 340.196 252.600 326.332 275.332 308.675 297.500 C 297.421 311.630 261.017 347.504 238.000 367.145 C 227.275 376.297 204.775 395.556 188.000 409.943 L 157.500 436.100 151.261 435.754 C 142.324 435.257 139.593 433.013 139.206 425.852 C 138.953 421.157 139.467 419.310 142.933 412.453 C 151.073 396.353 166.430 379.357 197.106 352.500 C 238.819 315.980 256.854 298.069 272.000 278.120 C 273.375 276.309 275.063 274.223 275.750 273.485 C 276.438 272.747 277.000 271.901 277.000 271.606 C 277.000 270.616 282.489 262.402 283.454 261.948 C 283.979 261.702 284.465 260.719 284.536 259.765 C 284.606 258.810 285.414 257.200 286.332 256.186 C 287.249 255.172 288.000 253.850 288.000 253.248 C 288.000 252.646 289.165 250.769 290.589 249.077 C 292.013 247.385 292.861 246.000 292.474 246.000 C 292.087 246.000 292.507 244.875 293.408 243.500 C 294.309 242.125 294.785 241.000 294.467 241.000 C 294.148 241.000 294.537 239.763 295.331 238.250 C 296.125 236.738 297.292 234.204 297.925 232.621 C 298.557 231.037 299.342 230.009 299.669 230.336 C 299.996 230.662 301.133 230.464 302.196 229.895 C 303.835 229.018 303.929 228.613 302.815 227.238 C 301.850 226.048 301.833 225.816 302.750 226.367 C 303.656 226.911 304.033 226.070 304.118 223.309 C 304.264 218.634 304.291 218.928 303.480 216.500 C 303.024 215.136 303.106 214.910 303.739 215.789 C 304.753 217.198 309.235 216.046 310.462 214.062 C 310.823 213.478 313.341 213.000 316.059 213.000 C 318.777 213.000 321.000 212.580 321.000 212.067 C 321.000 211.554 321.877 210.856 322.950 210.516 C 324.495 210.026 324.961 208.820 325.200 204.699 C 325.486 199.741 325.639 199.485 328.500 199.173 C 330.150 198.993 331.928 198.431 332.450 197.923 C 332.973 197.415 334.345 197.000 335.500 197.000 C 338.781 197.000 340.000 195.012 340.000 189.660 C 340.000 184.267 341.661 182.089 345.816 182.032 C 347.089 182.014 349.097 181.483 350.277 180.852 C 351.457 180.220 354.015 179.608 355.961 179.492 C 357.908 179.375 358.686 179.217 357.691 179.140 C 356.696 179.063 356.084 178.663 356.331 178.250 C 356.578 177.838 356.453 175.376 356.053 172.779 C 355.313 167.971 355.880 166.922 359.000 167.332 C 360.132 167.480 360.555 169.120 360.723 174.014 M 349.097 456.799 C 349.814 460.485 350.413 468.000 350.427 473.500 C 350.469 490.321 346.369 499.558 335.631 506.829 C 320.255 517.241 292.428 524.649 250.500 529.491 C 196.434 535.736 163.997 538.215 136.500 538.205 C 102.974 538.193 80.035 534.997 82.679 530.706 C 83.088 530.043 82.138 530.340 80.567 531.368 C 77.922 533.097 77.642 533.112 76.775 531.562 C 76.130 530.411 75.469 530.196 74.653 530.873 C 73.872 531.521 71.767 531.476 68.484 530.739 L 63.500 529.620 68.000 528.705 C 70.475 528.202 75.062 526.947 78.194 525.916 C 81.326 524.885 85.723 523.748 87.966 523.389 C 90.209 523.031 92.286 522.346 92.581 521.869 C 92.876 521.391 93.991 521.000 95.059 521.000 C 96.127 521.000 97.000 520.550 97.000 520.000 C 97.000 519.450 98.378 519.000 100.062 519.000 C 101.746 519.000 105.459 518.308 108.312 517.462 C 111.165 516.616 115.975 515.187 119.000 514.285 C 122.025 513.384 124.927 512.276 125.450 511.823 C 125.972 511.370 127.322 510.993 128.450 510.985 C 130.703 510.968 139.109 508.163 137.500 507.964 C 136.950 507.896 138.922 507.683 141.881 507.489 C 144.841 507.295 147.744 506.656 148.331 506.069 C 148.919 505.481 150.210 505.000 151.200 505.000 C 152.190 505.000 153.000 504.550 153.000 504.000 C 153.000 503.450 154.378 503.000 156.062 503.000 C 157.746 503.000 161.234 502.371 163.812 501.601 C 166.390 500.832 171.313 499.411 174.750 498.443 C 178.188 497.475 181.000 496.305 181.000 495.842 C 181.000 495.379 182.380 495.000 184.066 495.000 C 185.752 495.000 188.114 494.460 189.316 493.800 C 190.517 493.140 193.750 492.286 196.500 491.903 C 202.065 491.127 209.315 488.649 208.475 487.809 C 208.177 487.510 210.648 486.959 213.966 486.583 C 217.285 486.208 220.000 485.473 220.000 484.950 C 220.000 484.428 221.480 484.000 223.288 484.000 C 227.874 484.000 237.973 480.392 235.418 479.667 C 234.363 479.367 235.975 479.150 239.000 479.185 C 242.025 479.220 244.050 479.164 243.500 479.061 C 241.432 478.673 247.721 476.689 253.337 475.958 C 257.413 475.427 259.589 474.604 260.552 473.229 C 261.515 471.854 263.479 471.112 267.072 470.767 C 269.900 470.495 272.562 469.709 272.988 469.020 C 273.478 468.227 275.283 467.912 277.903 468.162 C 280.585 468.418 281.899 468.178 281.632 467.483 C 281.402 466.883 282.605 466.309 284.360 466.183 C 286.087 466.059 287.950 465.366 288.500 464.642 C 289.050 463.918 292.103 463.022 295.284 462.650 C 298.465 462.279 301.840 461.563 302.784 461.059 C 303.728 460.556 307.286 459.606 310.691 458.948 C 314.095 458.290 317.093 457.201 317.351 456.528 C 317.612 455.848 320.640 455.009 324.160 454.642 C 327.647 454.278 330.650 453.535 330.833 452.990 C 331.017 452.446 333.181 452.000 335.642 452.000 C 338.371 452.000 339.877 451.610 339.500 451.000 C 339.160 450.450 339.772 450.000 340.859 450.000 C 343.929 450.000 346.046 448.907 345.420 447.645 C 345.107 447.015 345.513 447.310 346.322 448.299 C 347.130 449.288 348.379 453.113 349.097 456.799 M 311.557 450.660 C 312.504 451.024 310.178 451.416 306.389 451.533 C 300.944 451.700 300.338 451.592 303.500 451.014 C 309.324 449.951 309.669 449.936 311.557 450.660 M 345.000 440.167 C 345.000 440.808 344.663 441.032 344.250 440.663 C 343.838 440.294 343.950 441.057 344.500 442.357 C 345.422 444.536 345.353 444.619 343.625 443.409 C 342.530 442.643 341.997 441.451 342.343 440.548 C 343.036 438.742 345.000 438.460 345.000 440.167 M 291.510 454.408 C 292.800 454.084 294.575 454.222 295.455 454.715 C 296.581 455.345 295.807 455.579 292.844 455.504 C 290.393 455.443 288.532 454.887 288.391 454.174 C 288.259 453.501 288.378 453.410 288.658 453.973 C 288.937 454.536 290.221 454.732 291.510 454.408 M 200.289 482.623 C 200.632 482.965 199.042 483.385 196.756 483.555 C 193.944 483.765 193.069 483.569 194.050 482.948 C 195.715 481.894 199.370 481.704 200.289 482.623 M 256.289 466.623 C 256.632 466.965 255.042 467.385 252.756 467.555 C 249.944 467.765 249.069 467.569 250.050 466.948 C 251.715 465.894 255.370 465.704 256.289 466.623 M 336.500 443.000 C 335.400 443.473 333.150 443.832 331.500 443.798 C 328.571 443.738 328.582 443.719 332.000 443.000 C 336.909 441.967 338.905 441.967 336.500 443.000 M 280.000 459.000 C 279.175 459.533 277.150 459.917 275.500 459.853 C 272.534 459.738 272.540 459.728 276.000 459.000 C 281.112 457.924 281.665 457.924 280.000 459.000 M 319.151 447.381 C 317.309 447.833 315.420 447.819 314.954 447.351 C 314.487 446.883 315.994 446.513 318.302 446.530 L 322.500 446.559 319.151 447.381 M 56.114 526.201 C 57.175 526.957 57.070 527.049 55.668 526.594 C 54.661 526.267 53.578 526.000 53.263 526.000 C 52.948 526.000 53.547 525.120 54.595 524.043 C 55.695 522.913 56.126 522.747 55.614 523.650 C 55.026 524.690 55.193 525.545 56.114 526.201 M 223.668 475.272 C 221.297 476.214 219.000 476.204 219.000 475.250 C 219.000 474.838 220.463 474.510 222.250 474.522 C 224.631 474.538 225.010 474.738 223.668 475.272 M 237.500 471.000 C 236.400 471.473 234.825 471.884 234.000 471.914 C 232.667 471.963 232.667 471.862 234.000 471.000 C 234.825 470.467 236.400 470.055 237.500 470.086 L 239.500 470.141 237.500 471.000 "/></g>
<g fill="#229060FE" stroke="#229060FE">
<path d="M 356.413 167.596 C 355.698 167.900 355.575 169.675 356.053 172.779 C 356.453 175.376 356.578 177.838 356.331 178.250 C 356.084 178.663 356.696 179.063 357.691 179.140 C 358.686 179.217 357.908 179.375 355.961 179.492 C 354.015 179.608 351.457 180.220 350.277 180.852 C 349.097 181.483 347.089 182.014 345.816 182.032 C 341.661 182.089 340.000 184.267 340.000 189.660 C 340.000 195.012 338.781 197.000 335.500 197.000 C 334.345 197.000 332.973 197.415 332.450 197.923 C 331.928 198.431 330.150 198.993 328.500 199.173 C 325.639 199.485 325.486 199.741 325.200 204.699 C 324.961 208.820 324.495 210.026 322.950 210.516 C 321.877 210.856 321.000 211.554 321.000 212.067 C 321.000 212.580 318.777 213.000 316.059 213.000 C 313.341 213.000 310.823 213.478 310.462 214.062 C 309.235 216.046 304.753 217.198 303.739 215.789 C 303.106 214.910 303.024 215.136 303.480 216.500 C 304.291 218.928 304.264 218.634 304.118 223.309 C 304.033 226.070 303.656 226.911 302.750 226.367 C 301.833 225.816 301.850 226.048 302.815 227.238 C 303.929 228.613 303.835 229.018 302.196 229.895 C 301.133 230.464 299.996 230.662 299.669 230.336 C 299.342 230.009 298.557 231.037 297.925 232.621 C 297.292 234.204 296.125 236.738 295.331 238.250 C 294.537 239.763 294.148 241.000 294.467 241.000 C 294.785 241.000 294.309 242.125 293.408 243.500 C 292.507 244.875 292.087 246.000 292.474 246.000 C 292.861 246.000 292.013 247.385 290.589 249.077 C 289.165 250.769 288.000 252.646 288.000 253.248 C 288.000 253.850 287.249 255.172 286.332 256.186 C 285.414 257.200 284.606 258.810 284.536 259.765 C 284.465 260.719 283.979 261.702 283.454 261.948 C 282.489 262.402 277.000 270.616 277.000 271.606 C 277.000 271.901 276.438 272.747 275.750 273.485 C 275.063 274.223 273.375 276.309 272.000 278.120 C 256.854 298.069 238.819 315.980 197.106 352.500 C 166.430 379.357 151.073 396.353 142.933 412.453 C 139.467 419.310 138.953 421.157 139.206 425.852 C 139.593 433.013 142.324 435.257 151.261 435.754 L 157.500 436.100 188.000 409.943 C 204.775 395.556 227.275 376.297 238.000 367.145 C 261.017 347.504 297.421 311.630 308.675 297.500 C 333.050 266.897 348.913 237.395 355.929 209.617 C 360.835 190.192 362.462 167.786 359.000 167.332 C 358.175 167.223 357.011 167.343 356.413 167.596 M 307.820 235.172 C 307.348 238.373 305.000 238.716 305.000 235.583 C 305.000 233.903 305.549 233.000 306.570 233.000 C 307.612 233.000 308.032 233.729 307.820 235.172 "/></g>
<g fill="#229060FE" stroke="#229060FE">
<path d="M 345.420 447.645 C 346.046 448.907 343.929 450.000 340.859 450.000 C 339.772 450.000 339.160 450.450 339.500 451.000 C 339.877 451.610 338.371 452.000 335.642 452.000 C 333.181 452.000 331.017 452.446 330.833 452.990 C 330.650 453.535 327.647 454.278 324.160 454.642 C 320.640 455.009 317.612 455.848 317.351 456.528 C 317.093 457.201 314.095 458.290 310.691 458.948 C 307.286 459.606 303.728 460.556 302.784 461.059 C 301.840 461.563 298.465 462.279 295.284 462.650 C 292.103 463.022 289.050 463.918 288.500 464.642 C 287.950 465.366 286.087 466.059 284.360 466.183 C 282.605 466.309 281.402 466.883 281.632 467.483 C 281.899 468.178 280.585 468.418 277.903 468.162 C 275.283 467.912 273.478 468.227 272.988 469.020 C 272.562 469.709 269.900 470.495 267.072 470.767 C 263.479 471.112 261.515 471.854 260.552 473.229 C 259.589 474.604 257.413 475.427 253.337 475.958 C 247.721 476.689 241.432 478.673 243.500 479.061 C 244.050 479.164 242.025 479.220 239.000 479.185 C 235.975 479.150 234.363 479.367 235.418 479.667 C 237.973 480.392 227.874 484.000 223.288 484.000 C 221.480 484.000 220.000 484.428 220.000 484.950 C 220.000 485.473 217.285 486.208 213.966 486.583 C 210.648 486.959 208.177 487.510 208.475 487.809 C 209.315 488.649 202.065 491.127 196.500 491.903 C 193.750 492.286 190.517 493.140 189.316 493.800 C 188.114 494.460 185.752 495.000 184.066 495.000 C 182.380 495.000 181.000 495.379 181.000 495.842 C 181.000 496.305 178.188 497.475 174.750 498.443 C 171.313 499.411 166.390 500.832 163.812 501.601 C 161.234 502.371 157.746 503.000 156.062 503.000 C 154.378 503.000 153.000 503.450 153.000 504.000 C 153.000 504.550 152.190 505.000 151.200 505.000 C 150.210 505.000 148.919 505.481 148.331 506.069 C 147.744 506.656 144.841 507.295 141.881 507.489 C 138.922 507.683 136.950 507.896 137.500 507.964 C 139.109 508.163 130.703 510.968 128.450 510.985 C 127.322 510.993 125.972 511.370 125.450 511.823 C 124.927 512.276 122.025 513.384 119.000 514.285 C 115.975 515.187 111.165 516.616 108.312 517.462 C 105.459 518.308 101.746 519.000 100.062 519.000 C 98.378 519.000 97.000 519.450 97.000 520.000 C 97.000 520.550 96.127 521.000 95.059 521.000 C 93.991 521.000 92.876 521.391 92.581 521.869 C 92.286 522.346 90.209 523.031 87.966 523.389 C 85.723 523.748 81.326 524.885 78.194 525.916 C 75.062 526.947 70.475 528.202 68.000 528.705 L 63.500 529.620 68.484 530.739 C 71.767 531.476 73.872 531.521 74.653 530.873 C 75.469 530.196 76.130 530.411 76.775 531.562 C 77.642 533.112 77.922 533.097 80.567 531.368 C 82.138 530.340 83.088 530.043 82.679 530.706 C 80.035 534.997 102.974 538.193 136.500 538.205 C 163.997 538.215 196.434 535.736 250.500 529.491 C 292.428 524.649 320.255 517.241 335.631 506.829 C 346.369 499.558 350.469 490.321 350.427 473.500 C 350.398 462.345 348.556 451.032 346.322 448.299 C 345.513 447.310 345.107 447.015 345.420 447.645 "/></g>
<g fill="#64E4ACFE" stroke="#64E4ACFE">
<path d="M 196.627 13.010 C 122.721 26.460 49.085 97.649 35.622 168.664 C 33.346 180.671 31.659 206.964 32.392 219.000 C 33.528 237.629 36.696 246.882 44.801 255.235 C 51.018 261.642 56.503 263.427 67.900 262.749 C 84.210 261.778 98.323 254.932 111.500 241.596 C 121.303 231.675 127.228 222.811 142.858 194.675 C 157.902 167.597 162.969 160.225 173.463 150.151 C 192.935 131.457 217.976 127.224 241.757 138.608 C 259.389 147.048 271.959 165.960 271.989 184.090 C 272.020 202.736 262.420 221.653 243.182 240.856 C 230.193 253.822 216.819 264.329 163.500 303.458 C 124.692 331.938 109.502 344.051 111.157 345.199 C 112.099 345.852 111.862 345.953 110.365 345.535 C 108.783 345.093 107.562 345.732 105.653 348.001 C 104.235 349.685 102.799 351.010 102.460 350.944 C 101.355 350.730 78.768 371.111 67.000 382.940 C 57.505 392.484 57.121 392.969 64.799 385.721 C 69.914 380.893 74.521 377.204 75.038 377.523 C 75.554 377.843 75.709 377.406 75.382 376.552 C 74.949 375.424 75.430 374.991 77.143 374.968 C 80.397 374.924 83.262 372.662 81.850 371.250 C 81.077 370.477 81.725 369.650 84.135 368.338 C 85.986 367.331 88.400 366.240 89.500 365.915 C 90.600 365.589 91.365 364.733 91.200 364.012 C 91.035 363.291 91.222 361.981 91.614 361.101 C 92.290 359.584 92.485 359.877 92.875 363.000 C 92.944 363.550 94.013 364.014 95.250 364.032 C 97.444 364.063 97.451 364.100 95.559 365.532 C 94.491 366.339 92.368 367.000 90.841 367.000 C 88.360 367.000 88.161 367.240 88.969 369.250 C 89.466 370.488 89.902 370.911 89.937 370.191 C 89.971 369.471 90.450 369.160 91.000 369.500 C 91.550 369.840 92.000 369.672 92.000 369.126 C 92.000 368.581 92.865 367.860 93.922 367.525 C 94.978 367.189 97.734 365.134 100.045 362.958 C 102.356 360.781 104.529 358.996 104.874 358.992 C 105.218 358.987 107.975 356.665 111.000 353.831 C 114.025 350.997 116.725 348.691 117.000 348.706 C 118.019 348.761 137.000 333.753 137.000 332.893 C 137.000 332.402 137.374 332.112 137.832 332.250 C 138.590 332.478 146.301 327.112 160.469 316.500 C 163.406 314.300 168.378 310.700 171.517 308.500 C 184.716 299.249 219.850 272.697 231.500 263.168 C 255.835 243.265 270.560 224.966 277.504 206.000 C 280.838 196.895 282.011 181.138 280.025 172.145 C 275.407 151.239 256.557 132.293 233.500 125.384 C 225.306 122.928 206.930 122.883 198.077 125.296 C 184.831 128.907 170.793 138.029 161.176 149.275 C 153.198 158.604 146.377 169.305 133.941 192.000 C 114.410 227.645 104.425 240.004 88.797 247.883 C 78.047 253.303 66.451 255.803 60.027 254.085 C 51.437 251.787 46.429 245.910 43.342 234.500 C 40.156 222.725 40.761 189.918 44.528 170.165 C 52.510 128.311 85.169 82.108 127.500 52.783 C 185.954 12.288 245.875 9.121 297.954 43.774 C 307.935 50.414 324.399 66.364 332.253 77.000 C 356.171 109.392 366.763 149.939 361.545 189.136 C 358.365 213.021 349.951 238.027 338.372 258.000 L 335.184 263.500 339.564 263.500 C 343.609 263.500 343.912 263.321 343.523 261.162 C 343.207 259.413 343.474 258.968 344.582 259.393 C 345.925 259.908 347.692 257.279 347.795 254.612 C 347.814 254.123 348.257 253.448 348.780 253.112 C 351.923 251.090 362.134 224.763 365.957 208.826 C 379.620 151.866 364.790 96.902 324.115 53.750 C 321.135 50.588 319.102 47.966 319.598 47.923 C 320.094 47.881 319.601 47.680 318.501 47.475 C 317.402 47.271 315.824 46.266 314.994 45.241 C 312.479 42.135 295.373 31.096 285.136 25.973 C 264.813 15.802 249.195 12.031 225.000 11.451 C 210.578 11.105 205.588 11.380 196.627 13.010 "/></g>
<g fill="#B4B4B4FE" stroke="#B4B4B4FE">
<path d="M 359.914 79.659 C 382.627 104.010 398.199 137.395 402.518 171.000 C 403.540 178.953 403.817 199.315 402.987 205.500 C 402.544 208.800 401.920 213.750 401.599 216.500 C 401.278 219.250 400.761 222.625 400.449 224.000 C 400.137 225.375 399.646 227.807 399.357 229.404 C 398.429 234.530 392.888 252.467 391.928 253.450 C 391.418 253.972 391.000 254.968 391.000 255.662 C 391.000 257.628 382.810 274.556 377.131 284.329 C 374.309 289.185 372.000 293.572 372.000 294.079 C 372.000 294.585 371.550 295.000 371.000 295.000 C 370.450 295.000 370.000 295.675 370.000 296.500 C 370.000 297.325 369.550 298.000 369.000 298.000 C 368.450 298.000 368.000 298.675 368.000 299.500 C 368.000 300.325 367.550 301.000 367.000 301.000 C 366.450 301.000 366.000 301.445 366.000 301.989 C 366.000 302.532 365.357 303.770 364.572 304.739 C 363.786 305.707 359.671 311.000 355.428 316.500 C 334.508 343.615 307.601 370.450 265.750 405.934 C 257.596 412.848 254.619 416.345 258.783 414.116 C 262.908 411.909 291.984 406.784 303.421 406.248 L 315.343 405.690 340.516 380.595 C 367.203 353.992 380.691 338.161 394.272 317.500 C 404.436 302.037 414.785 281.148 419.931 265.708 L 424.000 253.497 424.000 210.839 L 424.000 168.180 421.109 159.340 C 410.434 126.696 387.839 96.113 360.020 76.659 L 351.668 70.818 359.914 79.659 "/></g>
<g fill="#B4B4B4FE" stroke="#B4B4B4FE">
<path d="M 376.345 441.000 C 387.699 454.634 394.752 482.953 392.129 504.375 C 389.939 522.258 382.203 532.866 365.095 541.446 C 344.066 551.992 317.271 557.736 262.500 563.437 C 208.899 569.016 203.313 569.378 170.000 569.432 C 134.265 569.490 124.435 568.571 101.500 563.028 C 85.861 559.248 77.021 555.496 65.176 547.612 C 43.208 532.990 40.589 531.310 42.500 533.065 C 51.739 541.552 93.340 569.827 104.138 574.958 C 118.570 581.817 139.832 586.624 166.000 588.944 C 187.009 590.808 247.649 588.359 275.000 584.543 C 276.925 584.274 280.750 583.827 283.500 583.548 C 304.569 581.416 311.237 580.648 324.000 578.884 C 370.137 572.507 399.895 561.028 410.514 545.513 C 414.895 539.113 416.705 533.857 417.951 523.922 C 419.814 509.063 416.089 485.259 409.859 472.204 C 405.911 463.933 400.830 458.430 390.607 451.356 C 386.148 448.270 380.272 443.665 377.549 441.123 L 372.598 436.500 376.345 441.000 "/></g>
<g fill="#001606FE" stroke="#001606FE">
<path d="M 363.483 474.750 C 363.832 475.438 363.641 476.000 363.059 476.000 C 362.477 476.000 361.993 477.463 361.985 479.250 C 361.937 489.957 355.543 504.529 347.865 511.432 C 334.709 523.260 304.160 533.466 267.000 538.448 C 250.105 540.714 190.122 546.696 170.584 548.064 C 146.776 549.732 106.379 548.790 89.478 546.174 C 75.332 543.985 62.621 540.988 54.671 537.967 C 51.893 536.911 49.477 536.190 49.303 536.363 C 48.439 537.228 75.512 554.327 82.015 557.024 C 91.240 560.849 109.572 565.349 125.500 567.697 C 140.429 569.898 192.838 570.181 214.500 568.178 C 246.224 565.244 295.005 559.845 306.843 557.958 C 355.703 550.169 381.464 537.412 388.998 517.276 C 391.539 510.484 393.328 496.371 392.418 490.299 C 391.883 486.731 391.318 485.867 389.171 485.328 C 386.794 484.731 386.740 484.611 388.536 483.908 C 390.268 483.231 390.289 483.132 388.719 483.070 C 387.739 483.032 386.678 483.675 386.362 484.500 C 386.045 485.325 385.362 486.000 384.843 486.000 C 384.266 486.000 384.254 485.369 384.813 484.370 C 385.572 483.013 385.120 482.692 382.112 482.450 C 380.126 482.291 375.913 481.005 372.750 479.593 C 369.588 478.181 367.000 477.294 367.000 477.623 C 367.000 477.952 366.066 477.159 364.924 475.861 C 363.782 474.562 363.133 474.063 363.483 474.750 "/></g>
<g fill="#B4B4B4FE" stroke="#B4B4B4FE">
<path d="M 232.899 156.448 C 221.091 159.704 208.850 167.724 200.409 177.732 C 197.734 180.904 195.295 183.725 194.989 184.000 C 194.684 184.275 192.889 186.975 191.000 190.000 C 189.111 193.025 187.262 195.725 186.890 196.000 C 186.519 196.275 184.704 199.332 182.858 202.793 C 181.011 206.254 177.826 212.104 175.780 215.793 C 173.733 219.482 171.261 224.075 170.285 226.000 C 166.658 233.157 154.703 251.610 149.694 257.784 C 135.917 274.764 115.944 285.000 96.586 285.000 C 90.474 285.000 87.574 284.495 84.066 282.819 C 81.555 281.619 79.275 280.343 79.000 279.983 C 78.725 279.623 75.800 277.620 72.500 275.533 C 68.272 272.858 67.091 272.401 68.500 273.984 C 72.216 278.157 108.165 302.245 112.871 303.714 C 122.538 306.734 142.129 302.907 154.194 295.642 C 171.013 285.514 179.965 274.144 199.974 237.500 C 213.253 213.181 220.957 201.771 230.372 192.478 C 240.106 182.871 249.629 177.715 262.426 175.124 L 270.863 173.416 268.443 167.462 C 265.419 160.022 263.001 156.738 259.910 155.873 C 255.810 154.727 237.747 155.111 232.899 156.448 "/></g>
<g fill="#066C44FE" stroke="#066C44FE">
<path d="M 344.311 266.644 C 344.665 266.998 343.727 268.747 342.227 270.531 C 340.727 272.314 337.250 277.051 334.500 281.058 C 317.964 305.149 289.866 335.444 256.646 365.000 C 250.155 370.775 245.554 375.368 246.422 375.206 C 247.290 375.045 248.000 374.452 248.000 373.889 C 248.000 373.300 248.903 373.152 250.125 373.540 C 251.750 374.055 252.058 373.895 251.433 372.857 C 250.763 371.744 250.898 371.728 252.181 372.767 C 253.042 373.464 254.591 373.759 255.623 373.423 C 257.043 372.960 257.164 373.051 256.118 373.796 C 254.593 374.883 255.733 375.443 261.493 376.439 C 263.139 376.723 264.639 377.416 264.826 377.978 C 265.013 378.540 266.479 379.000 268.083 379.000 C 269.688 379.000 271.000 379.472 271.000 380.050 C 271.000 380.747 271.575 380.778 272.711 380.142 C 274.058 379.388 274.910 379.844 276.711 382.286 C 278.232 384.347 279.000 384.840 279.000 383.753 C 279.000 380.793 280.737 380.973 282.246 384.089 C 283.511 386.701 283.830 386.887 284.418 385.353 C 285.004 383.827 285.245 383.778 286.017 385.028 C 286.577 385.933 286.556 386.548 285.964 386.625 C 285.434 386.694 285.243 386.806 285.539 386.875 C 285.835 386.944 285.217 388.013 284.164 389.250 C 282.897 390.739 283.385 390.528 285.607 388.626 C 287.454 387.045 288.678 385.288 288.328 384.721 C 287.964 384.132 288.179 383.992 288.830 384.395 C 290.784 385.602 323.187 354.397 340.122 335.000 C 358.169 314.328 378.997 284.041 377.625 280.465 C 377.329 279.695 377.518 278.798 378.044 278.473 C 379.935 277.304 378.947 276.287 376.394 276.776 C 374.790 277.082 373.456 276.740 372.926 275.887 C 372.452 275.124 370.816 274.500 369.290 274.500 C 367.649 274.500 366.512 273.955 366.508 273.167 C 366.504 272.433 366.275 272.033 366.000 272.276 C 365.725 272.519 364.150 273.021 362.500 273.390 C 360.447 273.849 359.953 273.760 360.935 273.107 C 362.043 272.371 361.586 271.941 358.935 271.223 C 357.046 270.712 354.757 270.669 353.848 271.129 C 352.505 271.809 352.301 271.564 352.759 269.814 C 353.189 268.169 352.960 267.801 351.785 268.252 C 350.940 268.576 349.016 268.202 347.510 267.421 C 344.599 265.911 343.250 265.583 344.311 266.644 "/></g>
<g fill="#066C44FE" stroke="#066C44FE">
<path d="M 145.462 193.939 C 145.781 194.455 145.245 195.341 144.271 195.908 C 143.297 196.475 142.855 196.953 143.289 196.970 C 143.723 196.986 143.146 198.000 142.007 199.223 C 140.868 200.445 138.091 204.833 135.835 208.973 C 115.628 246.062 95.250 262.115 66.089 263.918 L 56.678 264.500 71.412 274.500 L 86.146 284.500 94.948 284.845 C 120.314 285.839 143.631 270.372 161.048 241.000 C 165.899 232.818 179.855 205.972 178.973 206.517 C 178.553 206.776 177.965 206.351 177.666 205.572 C 177.329 204.693 176.321 204.365 175.010 204.708 C 173.006 205.232 166.229 202.503 164.862 200.622 C 164.511 200.139 163.696 200.070 163.051 200.468 C 161.092 201.679 155.802 198.962 156.507 197.107 C 156.997 195.819 156.868 195.748 155.859 196.750 C 153.937 198.658 150.877 198.246 150.290 196.000 C 149.699 193.743 148.418 193.377 147.662 195.250 C 147.361 195.997 147.126 195.795 147.079 194.750 C 147.036 193.788 146.523 193.000 145.941 193.000 C 145.359 193.000 145.143 193.422 145.462 193.939 "/></g>
<g fill="#229060FE" stroke="#229060FE">
<path d="M 173.000 151.094 C 168.875 155.208 163.189 161.932 160.364 166.037 C 153.910 175.416 139.679 201.015 142.040 199.000 C 143.007 198.175 143.621 197.210 143.405 196.855 C 143.188 196.500 143.712 195.941 144.569 195.612 C 145.426 195.283 145.847 194.561 145.504 194.007 C 145.162 193.453 145.359 193.000 145.941 193.000 C 146.523 193.000 147.036 193.788 147.079 194.750 C 147.126 195.795 147.361 195.997 147.662 195.250 C 148.418 193.377 149.699 193.743 150.290 196.000 C 150.877 198.246 153.937 198.658 155.859 196.750 C 156.868 195.748 156.997 195.819 156.507 197.107 C 155.802 198.962 161.092 201.679 163.051 200.468 C 163.696 200.070 164.511 200.139 164.862 200.622 C 166.211 202.478 172.994 205.235 174.951 204.723 C 179.067 203.647 179.051 206.927 174.901 215.458 C 169.913 225.713 171.350 223.622 179.685 208.500 C 183.323 201.900 188.552 193.125 191.305 189.000 C 197.438 179.812 210.850 166.356 217.196 163.026 L 221.891 160.561 218.538 160.445 C 216.694 160.381 214.437 159.580 213.521 158.664 C 212.606 157.749 210.369 157.000 208.551 157.000 C 206.733 157.000 204.689 156.330 204.009 155.511 C 203.329 154.692 202.436 154.230 202.025 154.485 C 200.954 155.147 192.647 151.813 191.738 150.356 C 191.319 149.684 189.630 149.173 187.985 149.219 C 186.340 149.266 184.018 148.449 182.825 147.402 C 181.632 146.356 181.028 146.132 181.483 146.905 C 182.047 147.864 181.935 148.078 181.128 147.579 C 180.478 147.178 180.071 146.121 180.223 145.232 C 180.376 144.343 177.125 146.981 173.000 151.094 "/></g>
<g fill="#023E22FE" stroke="#023E22FE">
<path d="M 251.472 372.920 C 252.122 373.997 251.909 374.179 250.590 373.673 C 249.634 373.306 248.225 373.567 247.460 374.253 C 246.695 374.939 245.491 375.956 244.785 376.514 C 236.133 383.342 188.857 423.365 192.010 421.192 C 193.054 420.472 194.226 419.950 194.614 420.031 C 195.003 420.113 195.698 419.504 196.160 418.678 C 196.622 417.853 197.788 417.328 198.750 417.512 C 199.713 417.696 200.500 417.923 200.500 418.015 C 200.500 418.108 202.075 418.400 204.000 418.664 C 207.423 419.135 210.730 421.000 208.141 421.000 C 207.449 421.000 207.174 421.472 207.530 422.049 C 207.976 422.770 208.604 422.744 209.541 421.966 C 210.365 421.282 211.813 421.145 213.202 421.618 C 214.466 422.049 215.860 422.424 216.300 422.451 C 216.740 422.478 216.515 423.129 215.800 423.897 C 214.850 424.917 214.836 425.104 215.746 424.590 C 216.432 424.203 218.007 423.697 219.246 423.465 C 220.486 423.233 229.018 421.169 238.208 418.877 L 254.915 414.711 262.708 408.275 C 277.534 396.028 286.893 386.885 286.269 385.258 C 285.760 383.932 285.493 383.973 284.339 385.551 C 283.345 386.911 282.992 387.012 282.968 385.941 C 282.951 385.149 282.261 383.607 281.436 382.515 C 279.954 380.554 279.928 380.558 279.344 382.792 C 278.759 385.028 278.728 385.020 276.588 382.119 C 274.892 379.820 274.052 379.392 272.711 380.142 C 271.575 380.778 271.000 380.747 271.000 380.050 C 271.000 379.472 269.688 379.000 268.083 379.000 C 266.479 379.000 265.013 378.540 264.826 377.978 C 264.639 377.416 263.139 376.723 261.493 376.439 C 255.733 375.443 254.593 374.883 256.118 373.796 C 257.164 373.051 257.043 372.960 255.623 373.423 C 254.591 373.759 253.042 373.464 252.181 372.767 C 250.885 371.718 250.763 371.744 251.472 372.920 "/></g>
<g fill="#229060FE" stroke="#229060FE">
<path d="M 362.848 109.540 C 362.490 109.868 363.274 113.593 364.589 117.818 C 370.016 135.242 371.343 144.986 371.472 168.346 C 371.598 191.185 371.727 191.847 376.000 191.525 C 376.825 191.463 379.075 192.370 381.000 193.539 C 384.901 195.909 391.094 198.239 391.750 197.583 C 391.984 197.349 394.266 198.217 396.821 199.512 C 399.376 200.807 401.626 201.707 401.822 201.511 C 404.606 198.727 403.509 174.201 399.832 157.057 C 396.632 142.132 389.583 123.766 385.322 119.249 C 384.673 118.561 382.775 117.849 381.104 117.666 C 378.975 117.433 378.382 117.018 379.120 116.280 C 379.859 115.541 379.803 114.996 378.933 114.458 C 378.117 113.955 377.945 114.101 378.429 114.886 C 378.968 115.757 378.401 115.897 376.334 115.402 C 374.775 115.029 373.050 114.415 372.500 114.037 C 371.950 113.659 369.593 112.805 367.262 112.139 C 364.931 111.472 363.131 110.481 363.262 109.936 C 363.393 109.391 363.207 109.213 362.848 109.540 "/></g>
<g fill="#229060FE" stroke="#229060FE">
<path d="M 364.548 218.750 C 360.599 232.578 351.606 252.799 343.311 266.500 C 340.531 271.091 340.476 271.348 342.634 269.643 C 343.927 268.621 344.737 267.384 344.434 266.893 C 343.670 265.657 344.329 265.771 347.510 267.421 C 349.016 268.202 350.940 268.576 351.785 268.252 C 352.960 267.801 353.189 268.169 352.759 269.814 C 352.301 271.564 352.505 271.809 353.848 271.129 C 354.757 270.669 357.046 270.712 358.935 271.223 C 361.586 271.941 362.043 272.371 360.935 273.107 C 359.953 273.760 360.447 273.849 362.500 273.390 C 364.150 273.021 365.725 272.519 366.000 272.276 C 366.275 272.033 366.504 272.433 366.508 273.167 C 366.512 273.955 367.649 274.500 369.290 274.500 C 370.816 274.500 372.452 275.124 372.926 275.887 C 373.456 276.740 374.790 277.082 376.394 276.776 C 378.947 276.287 379.935 277.304 378.044 278.473 C 377.518 278.798 377.351 279.750 377.672 280.589 C 378.101 281.706 378.868 281.102 380.544 278.324 C 381.802 276.241 382.617 274.190 382.356 273.768 C 382.095 273.345 382.309 273.000 382.832 273.000 C 384.933 273.000 396.300 242.039 399.406 227.856 C 399.976 225.254 399.425 224.815 394.000 223.546 C 393.725 223.482 392.449 222.846 391.164 222.134 C 389.880 221.421 388.605 221.062 388.331 221.336 C 388.057 221.610 385.618 220.721 382.911 219.361 C 380.204 218.002 377.541 217.166 376.994 217.504 C 376.447 217.842 376.000 217.714 376.000 217.219 C 376.000 216.725 374.200 215.726 372.000 215.000 C 369.800 214.274 368.000 213.302 368.000 212.840 C 368.000 212.378 367.657 212.000 367.238 212.000 C 366.818 212.000 365.608 215.038 364.548 218.750 "/></g>
<g fill="#023E22FE" stroke="#023E22FE">
<path d="M 350.456 425.755 C 355.858 433.917 360.167 450.016 361.566 467.263 C 361.956 472.068 362.663 476.000 363.138 476.000 C 363.612 476.000 363.888 475.481 363.750 474.847 C 363.613 474.212 364.288 474.762 365.250 476.069 C 366.213 477.376 367.000 478.126 367.000 477.735 C 367.000 477.345 369.588 478.181 372.750 479.593 C 375.913 481.005 380.126 482.291 382.112 482.450 C 385.120 482.692 385.572 483.013 384.813 484.370 C 384.254 485.369 384.266 486.000 384.843 486.000 C 385.362 486.000 386.045 485.325 386.362 484.500 C 386.678 483.675 387.739 483.032 388.719 483.070 C 390.278 483.132 390.251 483.248 388.500 484.000 C 387.400 484.473 387.026 484.891 387.668 484.930 C 388.311 484.968 389.549 485.273 390.419 485.607 C 391.783 486.131 391.919 485.476 391.405 480.858 C 390.479 472.545 386.474 457.868 383.563 452.125 C 379.631 444.365 375.034 439.870 362.153 431.191 C 346.934 420.936 347.416 421.161 350.456 425.755 "/></g>
<g fill="#066C44FE" stroke="#066C44FE">
<path d="M 203.083 135.086 C 191.703 137.319 178.678 144.215 180.589 146.995 C 181.333 148.078 181.441 148.067 181.176 146.939 C 180.958 146.010 181.532 146.171 182.923 147.430 C 184.062 148.461 186.340 149.266 187.985 149.219 C 189.630 149.173 191.319 149.684 191.738 150.356 C 192.647 151.813 200.954 155.147 202.025 154.485 C 202.436 154.230 203.329 154.692 204.009 155.511 C 204.689 156.330 206.733 157.000 208.551 157.000 C 210.369 157.000 212.452 157.588 213.179 158.306 C 215.949 161.044 218.281 160.994 226.981 158.007 C 237.542 154.380 245.751 153.393 255.305 154.599 L 262.443 155.500 257.108 151.000 C 253.989 148.369 250.989 146.630 249.886 146.813 C 248.849 146.985 248.000 146.746 248.000 146.281 C 248.000 145.816 246.812 145.338 245.360 145.218 C 243.908 145.098 242.122 144.212 241.392 143.250 C 240.661 142.287 240.049 141.893 240.032 142.372 C 240.014 142.852 239.239 142.627 238.308 141.872 C 237.377 141.118 236.931 141.025 237.315 141.666 C 238.302 143.312 231.774 140.928 230.700 139.250 C 230.260 138.563 228.685 137.994 227.200 137.986 C 223.432 137.967 219.929 136.923 220.506 135.991 C 220.771 135.561 220.316 134.952 219.494 134.636 C 218.672 134.321 218.000 134.589 218.000 135.231 C 218.000 136.105 217.698 136.098 216.800 135.200 C 215.445 133.845 209.651 133.797 203.083 135.086 "/></g>
<g fill="#46B27AFE" stroke="#46B27AFE">
<path d="M 319.084 48.782 C 332.495 60.988 346.452 80.230 354.960 98.241 C 368.826 127.596 373.279 156.573 369.519 193.000 L 369.055 197.500 370.171 193.000 C 370.792 190.495 371.324 179.410 371.371 168.000 C 371.463 145.933 370.010 135.195 364.574 117.759 C 362.937 112.509 362.506 109.805 363.235 109.355 C 363.855 108.972 364.020 109.159 363.626 109.797 C 363.199 110.487 364.552 111.363 367.221 112.126 C 369.575 112.799 371.950 113.659 372.500 114.037 C 374.602 115.482 379.018 116.063 378.757 114.860 C 378.579 114.041 378.735 114.013 379.266 114.770 C 379.688 115.371 379.511 116.184 378.873 116.578 C 378.218 116.984 379.111 117.448 380.928 117.647 C 384.448 118.032 385.775 119.096 387.918 123.248 C 388.698 124.760 389.514 125.819 389.731 125.602 C 390.462 124.872 382.262 109.581 376.193 100.357 C 364.010 81.840 349.972 68.313 326.500 52.472 C 314.801 44.577 314.059 44.208 319.084 48.782 "/></g>
<g fill="#066C44FE" stroke="#066C44FE">
<path d="M 370.983 192.215 C 370.973 193.472 370.143 198.411 369.137 203.191 C 368.132 207.971 367.577 212.295 367.904 212.800 C 368.232 213.305 370.188 214.322 372.250 215.060 C 374.313 215.798 376.000 216.788 376.000 217.260 C 376.000 217.732 376.447 217.842 376.994 217.504 C 377.541 217.166 380.204 218.002 382.911 219.361 C 385.618 220.721 388.057 221.610 388.331 221.336 C 388.605 221.062 389.880 221.415 391.164 222.121 C 392.449 222.826 393.950 223.515 394.500 223.652 C 395.050 223.788 396.460 224.186 397.632 224.536 C 399.585 225.118 399.853 224.638 400.811 218.836 C 402.416 209.118 403.211 199.364 402.290 200.683 C 401.681 201.556 400.248 201.249 396.820 199.512 C 394.266 198.217 391.984 197.349 391.750 197.583 C 391.094 198.239 384.901 195.909 381.000 193.539 C 379.075 192.370 376.825 191.462 376.000 191.523 C 375.175 191.583 373.713 191.249 372.750 190.781 C 371.347 190.098 370.997 190.383 370.983 192.215 "/></g>
<g fill="#001606FE" stroke="#001606FE">
<path d="M 196.070 418.839 C 195.559 419.752 194.964 420.275 194.748 420.000 C 194.533 419.725 190.470 422.650 185.722 426.500 L 177.087 433.500 192.294 429.734 C 200.657 427.663 208.288 425.975 209.250 425.984 C 210.213 425.993 211.000 425.522 211.000 424.937 C 211.000 424.353 211.788 424.004 212.750 424.162 C 213.713 424.321 215.175 424.018 216.000 423.490 C 216.825 422.963 217.050 422.502 216.500 422.466 C 215.950 422.431 214.466 422.049 213.202 421.618 C 211.813 421.145 210.365 421.282 209.541 421.966 C 208.604 422.744 207.976 422.770 207.530 422.049 C 207.174 421.472 207.449 421.000 208.141 421.000 C 210.730 421.000 207.423 419.135 204.000 418.664 C 202.075 418.400 200.500 418.108 200.500 418.015 C 200.500 417.923 199.713 417.696 198.750 417.512 C 197.788 417.328 196.582 417.925 196.070 418.839 "/></g>
<g fill="#229060FE" stroke="#229060FE">
<path d="M 204.500 134.026 C 202.660 134.511 204.103 134.606 208.233 134.272 C 212.885 133.896 215.435 134.116 216.483 134.986 C 217.476 135.810 218.000 135.868 218.000 135.154 C 218.000 134.554 218.672 134.321 219.494 134.636 C 220.316 134.952 220.771 135.561 220.506 135.991 C 219.929 136.923 223.432 137.967 227.200 137.986 C 228.685 137.994 230.260 138.563 230.700 139.250 C 231.774 140.928 238.302 143.312 237.315 141.666 C 236.931 141.025 237.377 141.118 238.308 141.872 C 239.239 142.627 240.014 142.852 240.032 142.372 C 240.049 141.893 240.661 142.287 241.392 143.250 C 242.122 144.212 243.908 145.098 245.360 145.218 C 246.812 145.338 248.000 145.816 248.000 146.281 C 248.000 146.746 248.851 146.985 249.892 146.813 C 250.933 146.641 252.845 147.397 254.142 148.493 C 256.401 150.402 256.396 150.368 254.017 147.680 C 250.686 143.917 245.311 140.690 243.864 141.584 C 243.128 142.039 242.959 141.876 243.410 141.146 C 244.258 139.774 237.749 136.767 229.058 134.515 C 222.953 132.933 209.658 132.669 204.500 134.026 "/></g>
<g fill="#B4B4B4FE" stroke="#B4B4B4FE">
<path d="M 344.428 417.883 C 344.833 418.538 351.315 423.163 358.832 428.160 C 366.349 433.156 371.825 436.583 371.000 435.775 C 368.537 433.362 343.630 416.592 344.428 417.883 "/></g>
<g fill="#066C44FE" stroke="#066C44FE">
<path d="M 229.000 388.571 C 221.025 395.314 214.648 400.911 214.828 401.008 C 215.393 401.315 243.857 377.532 243.674 376.906 C 243.578 376.579 236.975 381.828 229.000 388.571 "/></g>
<g fill="#DEDEDEFE" stroke="#DEDEDEFE">
<path d="M 65.500 383.479 L 54.500 394.534 65.500 383.479 L 76.500 372.425 65.500 383.479 "/></g>
<g fill="#DEDEDEFE" stroke="#DEDEDEFE">
<path d="M 345.500 376.475 L 336.500 385.539 345.500 376.475 L 354.500 367.411 345.500 376.475 "/></g>
<g fill="#B8FEE2FE" stroke="#B8FEE2FE">
<path d="M 90.500 71.468 L 83.500 78.545 90.500 71.468 L 97.500 64.392 90.500 71.468 "/></g>
<g fill="#46B27AFE" stroke="#46B27AFE">
<path d="M 305.000 235.583 C 305.000 238.716 307.348 238.373 307.820 235.172 C 308.032 233.729 307.612 233.000 306.570 233.000 C 305.549 233.000 305.000 233.903 305.000 235.583 "/></g>
<g fill="#46B27AFE" stroke="#46B27AFE">
<path d="M 256.780 150.163 C 260.201 153.828 263.000 156.514 263.000 156.132 C 263.000 155.750 260.201 152.751 256.780 149.469 L 250.561 143.500 256.780 150.163 "/></g>
<g fill="#229060FE" stroke="#229060FE">
<path d="M 303.500 451.014 C 300.338 451.592 300.944 451.700 306.389 451.533 C 310.178 451.416 312.504 451.024 311.557 450.660 C 309.669 449.936 309.324 449.951 303.500 451.014 "/></g>
<g fill="#46B27AFE" stroke="#46B27AFE">
<path d="M 111.500 242.457 L 106.500 247.554 111.500 242.457 L 116.500 237.361 111.500 242.457 "/></g>
<g fill="#229060FE" stroke="#229060FE">
<path d="M 342.343 440.548 C 341.997 441.451 342.530 442.643 343.625 443.409 C 345.353 444.619 345.422 444.536 344.500 442.357 C 343.950 441.057 343.838 440.294 344.250 440.663 C 344.663 441.032 345.000 440.808 345.000 440.167 C 345.000 438.460 343.036 438.742 342.343 440.548 "/></g>
<g fill="#DEDEDEFE" stroke="#DEDEDEFE">
<path d="M 381.500 94.500 L 387.000 100.000 381.500 94.500 L 376.000 89.000 381.500 94.500 "/></g>
<g fill="#229060FE" stroke="#229060FE">
<path d="M 288.391 454.174 C 288.532 454.887 290.393 455.443 292.844 455.504 C 295.807 455.579 296.581 455.345 295.455 454.715 C 294.575 454.222 292.800 454.084 291.510 454.408 C 290.221 454.732 288.937 454.536 288.658 453.973 C 288.378 453.410 288.259 453.501 288.391 454.174 "/></g>
<g fill="#229060FE" stroke="#229060FE">
<path d="M 194.050 482.948 C 193.069 483.569 193.944 483.765 196.756 483.555 C 199.042 483.385 200.632 482.965 200.289 482.623 C 199.370 481.704 195.715 481.894 194.050 482.948 "/></g>
<g fill="#229060FE" stroke="#229060FE">
<path d="M 250.050 466.948 C 249.069 467.569 249.944 467.765 252.756 467.555 C 255.042 467.385 256.632 466.965 256.289 466.623 C 255.370 465.704 251.715 465.894 250.050 466.948 "/></g>
<g fill="#229060FE" stroke="#229060FE">
<path d="M 332.000 443.000 C 328.582 443.719 328.571 443.738 331.500 443.798 C 333.150 443.832 335.400 443.473 336.500 443.000 C 338.905 441.967 336.909 441.967 332.000 443.000 "/></g>
<g fill="#229060FE" stroke="#229060FE">
<path d="M 276.000 459.000 C 272.540 459.728 272.534 459.738 275.500 459.853 C 277.150 459.917 279.175 459.533 280.000 459.000 C 281.665 457.924 281.112 457.924 276.000 459.000 "/></g>
<g fill="#229060FE" stroke="#229060FE">
<path d="M 314.954 447.351 C 315.420 447.819 317.309 447.833 319.151 447.381 L 322.500 446.559 318.302 446.530 C 315.994 446.513 314.487 446.883 314.954 447.351 "/></g>
<g fill="#B4B4B4FE" stroke="#B4B4B4FE">
<path d="M 51.000 261.311 C 51.000 261.544 52.913 262.996 55.250 264.537 C 57.588 266.079 58.972 266.701 58.327 265.920 C 57.086 264.418 51.000 260.589 51.000 261.311 "/></g>
<g fill="#DEDEDEFE" stroke="#DEDEDEFE">
<path d="M 348.500 69.000 C 349.495 70.100 350.760 71.000 351.310 71.000 C 351.860 71.000 351.495 70.100 350.500 69.000 C 349.505 67.900 348.240 67.000 347.690 67.000 C 347.140 67.000 347.505 67.900 348.500 69.000 "/></g>
<g fill="#B8FEE2FE" stroke="#B8FEE2FE">
<path d="M 243.000 240.942 L 239.500 244.562 243.000 240.942 L 246.500 237.323 243.000 240.942 "/></g>
<g fill="#46B27AFE" stroke="#46B27AFE">
<path d="M 128.411 220.079 C 126.705 222.871 126.661 223.132 128.169 221.500 C 129.185 220.400 130.126 218.860 130.258 218.079 C 130.391 217.297 129.560 218.197 128.411 220.079 "/></g>
<g fill="#64E4ACFE" stroke="#64E4ACFE">
<path d="M 51.500 399.435 L 48.500 402.564 51.500 399.435 L 54.500 396.305 51.500 399.435 "/></g>
<g fill="#229060FE" stroke="#229060FE">
<path d="M 54.595 524.043 C 53.547 525.120 52.948 526.000 53.263 526.000 C 53.578 526.000 54.661 526.267 55.668 526.594 C 57.070 527.049 57.175 526.957 56.114 526.201 C 55.193 525.545 55.026 524.690 55.614 523.650 C 56.126 522.747 55.695 522.913 54.595 524.043 "/></g>
<g fill="#229060FE" stroke="#229060FE">
<path d="M 348.500 509.435 L 345.500 512.564 348.500 509.435 L 351.500 506.305 348.500 509.435 "/></g>
<g fill="#229060FE" stroke="#229060FE">
<path d="M 219.000 475.250 C 219.000 476.204 221.297 476.214 223.668 475.272 C 225.010 474.738 224.631 474.538 222.250 474.522 C 220.463 474.510 219.000 474.838 219.000 475.250 "/></g>
<g fill="#229060FE" stroke="#229060FE">
<path d="M 234.000 471.000 C 232.667 471.862 232.667 471.963 234.000 471.914 C 234.825 471.884 236.400 471.473 237.500 471.000 L 239.500 470.141 237.500 470.086 C 236.400 470.055 234.825 470.467 234.000 471.000 "/></g>
<g fill="#229060FE" stroke="#229060FE">
<path d="M 192.500 137.535 C 189.999 138.740 189.916 138.878 192.000 138.369 C 194.834 137.677 198.018 136.053 196.500 136.076 C 195.950 136.084 194.150 136.740 192.500 137.535 "/></g>
<g fill="#DEDEDEFE" stroke="#DEDEDEFE">
<path d="M 26.000 521.096 C 27.925 522.923 29.402 524.082 29.282 523.671 C 29.162 523.261 27.587 521.765 25.782 520.349 C 22.524 517.791 22.525 517.797 26.000 521.096 "/></g>
</svg>
