<?xml version="1.0" encoding="utf-8"?>
<!DOCTYPE svg PUBLIC "-//W3C//DTD SVG 20010904//EN" "http://www.w3.org/TR/2001/REC-SVG-20010904/DTD/svg10.dtd">
<svg version="1.0" xmlns="http://www.w3.org/2000/svg" width="491pt" height="602pt" viewBox="0 0 491 602" style="" preserveAspectRatio="xMidYMid meet">
<g fill="#186EBEFE" stroke="#186EBEFE">
<path d="M 187.000 38.495 C 153.661 43.502 120.783 60.286 95.924 84.990 C 78.821 101.986 71.155 116.032 70.236 132.055 C 69.321 147.999 75.208 159.313 89.337 168.763 C 103.914 178.512 114.667 180.629 125.046 175.791 C 133.220 171.982 137.995 167.249 150.443 150.617 C 166.961 128.551 174.337 121.723 189.560 114.407 C 203.203 107.850 213.721 105.658 228.500 106.291 C 242.432 106.887 250.971 109.379 262.464 116.205 C 270.930 121.233 283.216 133.373 287.926 141.364 C 292.374 148.912 296.000 161.526 296.000 169.453 C 296.000 177.786 292.778 189.923 288.580 197.399 C 277.191 217.685 253.306 232.619 218.143 241.438 C 205.550 244.596 199.231 245.712 183.500 247.555 C 153.655 251.051 140.559 256.154 133.305 267.115 C 129.503 272.860 128.905 281.934 131.937 287.877 C 138.669 301.072 150.394 307.089 172.224 308.551 C 184.327 309.362 192.270 308.451 220.570 303.006 C 248.489 297.634 255.611 296.730 270.500 296.663 C 295.440 296.551 314.644 303.472 327.699 317.275 C 333.752 323.676 336.812 328.427 340.400 337.000 C 341.896 340.575 342.855 342.150 342.531 340.500 C 341.881 337.187 334.939 322.695 333.750 322.167 C 332.421 321.576 332.952 320.000 334.480 320.000 C 335.750 320.000 335.953 316.359 335.911 294.397 L 335.861 268.794 332.515 265.448 C 324.478 257.412 305.312 246.562 294.500 243.929 C 285.503 241.738 285.572 241.935 290.905 233.760 C 313.170 199.629 319.815 165.680 310.509 133.614 C 305.107 115.003 294.953 99.372 279.676 86.157 C 276.279 83.218 271.907 79.393 269.960 77.657 C 268.013 75.920 265.200 73.861 263.710 73.081 C 262.219 72.301 261.000 71.037 261.000 70.272 C 261.000 69.507 260.550 69.160 260.000 69.500 C 259.450 69.840 259.000 69.641 259.000 69.059 C 259.000 68.477 259.385 68.000 259.855 68.000 C 260.325 68.000 260.960 63.450 261.266 57.888 C 261.573 52.327 262.245 47.355 262.760 46.840 C 263.967 45.633 274.194 49.385 288.381 56.242 C 299.166 61.453 299.199 61.462 292.141 57.212 C 277.814 48.584 257.069 41.726 235.703 38.553 C 223.217 36.699 199.153 36.671 187.000 38.495 M 333.070 270.000 C 333.600 270.000 333.926 275.045 333.827 281.750 C 333.677 292.017 333.572 292.679 333.000 287.000 L 332.345 280.500 332.099 288.500 C 331.964 292.900 331.914 299.703 331.988 303.617 C 332.086 308.780 331.707 311.150 330.609 312.248 C 329.776 313.081 329.398 314.064 329.767 314.434 C 330.137 314.803 329.665 314.809 328.720 314.446 C 327.774 314.083 327.000 313.358 327.000 312.834 C 327.000 312.310 327.450 312.160 328.000 312.500 C 328.550 312.840 329.000 312.679 329.000 312.142 C 329.000 311.606 328.663 311.017 328.250 310.833 C 327.838 310.650 327.716 305.550 327.980 299.500 L 328.461 288.500 329.035 299.000 C 329.583 309.042 329.617 308.796 329.804 293.375 C 329.912 284.506 330.263 275.731 330.584 273.875 C 331.027 271.319 330.909 270.864 330.100 272.000 C 328.648 274.037 328.694 271.860 330.179 268.315 C 331.303 265.629 331.375 265.603 331.748 267.750 C 331.963 268.988 332.558 270.000 333.070 270.000 "/></g>
<g fill="#186EBEFE" stroke="#186EBEFE">
<path d="M 84.000 375.134 C 66.612 381.923 50.720 400.296 47.097 417.799 C 41.376 445.434 57.943 473.971 93.306 497.395 C 125.342 518.617 157.329 531.301 189.301 535.464 C 208.344 537.943 247.344 536.963 250.450 533.928 C 251.048 533.344 250.990 533.000 250.294 533.000 C 249.680 533.000 249.420 532.110 249.710 531.000 C 249.998 529.900 250.688 529.000 251.244 529.000 C 253.194 529.000 281.103 514.949 289.259 509.861 C 293.792 507.034 301.100 501.920 305.500 498.497 C 313.627 492.175 327.006 478.500 325.064 478.500 C 324.479 478.500 324.000 478.163 324.000 477.750 C 324.000 477.338 324.000 468.900 324.000 459.000 C 324.000 443.667 324.222 441.000 325.500 441.000 C 326.715 441.000 327.000 439.398 327.000 432.583 C 327.000 427.006 326.602 424.034 325.820 423.773 C 325.112 423.537 324.925 422.638 325.353 421.523 C 325.896 420.107 326.343 419.943 327.233 420.833 C 328.122 421.722 328.115 422.036 327.200 422.150 C 326.380 422.252 326.396 422.332 327.250 422.400 C 327.998 422.460 328.393 421.531 328.233 420.087 C 327.971 417.720 331.717 411.020 333.309 411.007 C 333.754 411.003 333.906 410.657 333.647 410.237 C 333.388 409.818 333.795 408.356 334.552 406.987 C 335.310 405.619 335.974 404.950 336.028 405.500 C 336.083 406.050 336.276 404.987 336.456 403.139 C 336.742 400.222 336.259 400.750 332.806 407.139 C 323.095 425.102 310.018 437.943 292.431 446.782 C 282.044 452.002 273.525 454.559 259.762 456.586 C 232.039 460.670 206.062 454.119 178.844 436.180 C 164.075 426.447 152.962 416.776 132.959 396.252 C 122.000 385.008 113.744 377.388 110.959 375.948 C 104.435 372.574 91.554 372.185 84.000 375.134 "/></g>
<g fill="#223E80FE" stroke="#223E80FE">
<path d="M 262.461 47.063 C 262.100 47.647 261.558 52.597 261.257 58.063 C 260.956 63.528 260.325 68.000 259.855 68.000 C 259.385 68.000 259.000 68.477 259.000 69.059 C 259.000 69.641 259.450 69.840 260.000 69.500 C 260.550 69.160 261.000 69.507 261.000 70.272 C 261.000 71.037 262.219 72.301 263.710 73.081 C 265.200 73.861 268.013 75.920 269.960 77.657 C 271.907 79.393 276.279 83.218 279.676 86.157 C 290.146 95.214 300.002 107.979 305.509 119.614 C 312.320 134.002 315.658 154.594 314.001 171.986 C 311.928 193.748 305.109 211.986 290.905 233.760 C 285.572 241.935 285.503 241.738 294.500 243.929 C 305.312 246.562 324.478 257.412 332.515 265.448 L 335.861 268.794 335.911 294.397 C 335.951 314.860 335.698 320.000 334.651 320.000 C 333.931 320.000 333.345 319.213 333.349 318.250 C 333.353 317.288 333.269 317.175 333.163 318.000 C 332.991 319.333 332.862 319.333 332.000 318.000 C 331.467 317.175 331.024 316.978 331.015 317.561 C 331.007 318.145 331.788 319.497 332.750 320.565 C 335.948 324.113 341.961 337.402 343.581 344.500 C 346.829 358.734 345.161 377.049 338.994 394.863 C 337.264 399.859 336.177 404.478 336.579 405.128 C 337.020 405.841 336.880 406.044 336.227 405.640 C 335.227 405.022 333.926 407.314 334.097 409.388 C 334.138 409.877 333.795 410.552 333.335 410.888 C 330.651 412.854 328.500 416.620 328.500 419.355 C 328.500 421.258 328.006 422.460 327.250 422.400 C 326.396 422.332 326.380 422.252 327.200 422.150 C 328.115 422.036 328.122 421.722 327.233 420.833 C 326.343 419.943 325.896 420.107 325.353 421.523 C 324.925 422.638 325.112 423.537 325.820 423.773 C 326.602 424.034 327.000 427.006 327.000 432.583 C 327.000 439.398 326.715 441.000 325.500 441.000 C 324.222 441.000 324.000 443.667 324.000 459.000 C 324.000 468.900 324.000 477.338 324.000 477.750 C 324.000 478.163 324.479 478.500 325.064 478.500 C 327.006 478.500 313.627 492.175 305.500 498.497 C 301.100 501.920 293.792 507.034 289.259 509.861 C 281.103 514.949 253.194 529.000 251.244 529.000 C 249.812 529.000 248.983 532.828 250.318 533.273 C 252.245 533.915 274.069 528.957 285.500 525.281 C 329.164 511.238 359.848 488.761 383.529 453.469 C 412.776 409.882 419.979 358.372 403.354 311.692 C 399.730 301.519 390.863 284.729 384.768 276.500 C 372.452 259.873 352.304 243.031 334.467 234.452 C 330.360 232.477 327.000 230.675 327.000 230.448 C 327.000 230.221 328.797 227.099 330.993 223.511 C 336.905 213.852 343.395 200.495 346.304 192.000 C 351.563 176.644 352.506 170.633 352.418 153.000 C 352.345 138.040 352.083 135.660 349.612 127.500 C 338.948 92.280 311.545 64.333 273.126 49.495 C 262.867 45.533 263.340 45.641 262.461 47.063 M 332.000 443.500 C 332.000 459.206 331.613 470.121 331.044 470.473 C 330.518 470.798 330.332 471.701 330.631 472.480 C 330.930 473.259 330.295 474.840 329.221 475.993 L 327.268 478.090 326.634 474.920 C 325.681 470.155 325.871 465.000 327.000 465.000 C 327.620 465.000 328.066 458.635 328.173 448.250 C 328.297 436.148 328.527 433.304 329.000 438.000 C 329.514 443.100 329.692 441.417 329.827 430.191 C 329.939 420.948 330.354 416.101 331.000 416.500 C 331.626 416.887 332.000 426.991 332.000 443.500 "/></g>
<g fill="#B4B4B4FE" stroke="#B4B4B4FE">
<path d="M 361.366 97.078 C 376.883 113.838 387.563 134.099 392.161 155.500 C 393.795 163.106 393.791 187.598 392.154 195.500 C 389.789 206.917 383.792 224.011 378.114 235.521 L 372.412 247.079 383.456 254.920 C 421.220 281.733 439.456 308.682 449.152 352.008 C 451.227 361.280 451.496 364.999 451.463 384.000 C 451.422 408.429 450.100 416.864 442.946 438.353 C 426.292 488.376 386.367 529.933 335.721 549.960 C 283.753 570.510 228.293 573.093 181.969 557.120 C 157.114 548.549 137.773 538.626 111.000 520.709 C 102.475 515.004 96.850 511.624 98.500 513.199 C 102.361 516.884 148.324 548.466 157.500 553.739 C 181.175 567.344 206.168 577.550 226.500 581.916 C 255.575 588.160 294.087 587.571 325.362 580.404 C 350.048 574.747 377.027 563.198 397.676 549.447 C 433.034 525.900 461.732 485.397 472.035 444.500 C 476.219 427.889 477.350 416.304 476.703 396.665 C 475.467 359.172 464.349 329.466 441.551 302.747 C 434.379 294.341 420.601 281.869 412.000 275.998 C 408.975 273.932 404.601 270.501 402.279 268.371 L 398.059 264.500 403.554 253.500 C 409.216 242.164 413.906 228.982 416.685 216.590 C 418.759 207.341 418.985 183.955 417.093 174.500 C 410.994 144.038 392.158 116.471 363.520 96.095 L 354.540 89.705 361.366 97.078 "/></g>
<g fill="#000000FE" stroke="#000000FE">
<path d="M 334.995 514.735 C 329.198 518.859 306.011 529.727 295.942 533.040 C 243.870 550.171 196.091 551.468 151.772 536.955 C 141.610 533.627 126.475 527.515 116.500 522.710 L 113.500 521.265 115.964 523.560 C 119.959 527.280 140.974 539.652 152.151 544.863 C 187.080 561.151 212.007 567.000 246.483 567.000 C 282.415 567.000 312.730 560.316 346.214 545.013 C 358.360 539.461 368.067 533.702 376.286 527.170 C 380.541 523.788 380.351 523.450 374.000 523.098 C 371.525 522.961 368.590 522.265 367.478 521.551 C 366.366 520.837 363.554 519.931 361.228 519.539 C 358.903 519.146 357.000 518.267 357.000 517.585 C 357.000 516.765 355.938 516.502 353.858 516.808 C 351.900 517.095 350.950 516.889 351.338 516.261 C 351.716 515.651 349.562 514.982 345.875 514.565 C 342.528 514.187 340.072 513.595 340.416 513.250 C 342.227 511.440 337.999 512.598 334.995 514.735 "/></g>
<g fill="#B4B4B4FE" stroke="#B4B4B4FE">
<path d="M 243.000 137.499 C 229.875 140.146 218.258 145.992 207.425 155.402 C 204.321 158.098 196.735 167.098 190.566 175.402 C 177.915 192.433 168.878 201.461 160.333 205.605 C 155.234 208.077 153.367 208.430 145.500 208.407 C 133.943 208.374 127.407 205.777 110.101 194.340 C 101.652 188.756 98.857 187.253 101.620 189.776 C 108.090 195.688 144.412 219.848 152.867 223.864 C 159.973 227.239 161.156 227.490 170.000 227.495 C 178.439 227.499 180.152 227.180 185.338 224.633 C 193.842 220.458 202.808 211.489 215.538 194.427 C 227.282 178.685 234.086 171.778 243.397 166.145 C 254.275 159.565 268.833 155.055 279.317 155.017 C 283.842 155.001 284.094 154.863 283.464 152.750 C 282.409 149.214 278.418 142.711 275.845 140.334 C 271.412 136.239 255.889 134.899 243.000 137.499 "/></g>
<g fill="#5C9AFEFE" stroke="#5C9AFEFE">
<path d="M 85.282 365.537 C 74.881 368.339 66.004 373.729 57.500 382.407 C 53.100 386.898 48.006 393.105 46.179 396.201 C 35.096 414.990 34.109 437.264 43.492 456.843 C 50.651 471.780 59.511 482.441 75.385 495.216 C 88.948 506.132 95.995 510.570 114.696 519.975 C 152.495 538.986 170.748 543.763 209.250 544.720 L 231.000 545.261 231.000 542.712 C 231.000 541.311 231.250 539.511 231.556 538.713 C 232.028 537.484 228.796 537.180 210.306 536.715 C 192.158 536.259 186.467 535.737 176.383 533.603 C 145.776 527.126 110.431 510.795 84.134 490.980 C 74.958 484.066 61.911 470.657 56.741 462.826 C 44.149 443.757 42.511 422.232 52.232 403.581 C 56.798 394.823 70.483 381.474 79.500 376.985 C 86.090 373.704 87.085 373.500 96.500 373.500 C 105.104 373.500 107.121 373.831 110.947 375.871 C 113.620 377.296 122.596 385.623 133.447 396.746 C 168.707 432.887 192.217 448.181 222.315 454.556 C 230.268 456.241 237.340 456.500 235.000 455.021 C 232.974 453.741 232.938 449.027 234.954 448.910 C 235.804 448.861 232.970 448.183 228.655 447.403 C 211.490 444.302 191.118 435.277 176.594 424.339 C 164.167 414.981 144.585 396.714 133.737 384.361 C 128.707 378.633 122.433 372.561 119.794 370.868 C 109.849 364.486 96.716 362.457 85.282 365.537 "/></g>
<g fill="#5C9AFEFE" stroke="#5C9AFEFE">
<path d="M 185.526 29.588 C 161.322 33.349 138.653 42.361 115.500 57.427 C 88.513 74.988 67.338 100.747 62.082 122.409 C 60.206 130.141 60.602 143.560 62.904 150.233 C 67.754 164.298 80.708 176.529 98.678 184.010 C 105.187 186.719 107.776 187.263 114.167 187.263 C 120.696 187.263 122.853 186.790 128.626 184.088 C 137.173 180.088 149.666 167.695 158.957 154.000 C 167.647 141.189 174.802 133.821 185.250 126.922 C 198.710 118.034 211.338 114.051 226.167 114.017 C 231.350 114.006 233.997 113.595 234.338 112.750 C 234.639 112.003 234.874 112.205 234.921 113.250 C 234.964 114.213 235.626 115.000 236.391 115.000 C 238.034 115.000 239.121 108.193 237.626 107.269 C 237.083 106.933 232.333 106.526 227.069 106.364 C 205.859 105.710 184.319 114.008 168.687 128.856 C 165.419 131.960 157.383 141.569 150.830 150.209 C 135.325 170.650 129.688 175.493 118.474 178.006 C 104.931 181.041 80.957 166.935 73.427 151.500 C 71.028 146.582 70.438 143.938 70.154 136.837 C 69.424 118.589 78.182 101.497 97.808 82.866 C 110.039 71.254 123.074 62.247 139.500 54.056 C 165.593 41.045 183.378 36.948 214.000 36.893 C 224.175 36.874 233.738 37.054 235.250 37.292 C 237.596 37.661 238.000 37.378 238.000 35.362 C 238.000 34.063 238.000 32.663 238.000 32.250 C 238.000 30.481 240.471 31.688 240.560 33.500 C 240.614 34.600 240.735 34.960 240.829 34.300 C 240.923 33.640 241.788 32.657 242.750 32.117 C 244.228 31.287 244.267 31.051 243.000 30.595 C 235.494 27.897 200.373 27.281 185.526 29.588 "/></g>
<g fill="#14225CFE" stroke="#14225CFE">
<path d="M 173.107 138.802 C 170.012 141.936 162.586 150.930 156.606 158.790 C 139.762 180.925 131.310 187.130 117.000 187.872 C 112.680 188.095 107.021 187.675 103.654 186.880 L 97.808 185.500 109.254 193.245 C 128.157 206.035 139.551 210.106 150.698 208.051 C 164.251 205.554 174.505 197.256 188.912 177.126 C 199.364 162.524 205.821 155.412 214.337 149.120 C 219.036 145.649 219.870 144.603 219.053 143.202 C 218.126 141.612 218.059 141.615 218.030 143.250 C 218.014 144.213 217.550 145.000 217.000 145.000 C 216.450 145.000 216.000 144.523 216.000 143.941 C 216.000 143.359 215.521 143.178 214.935 143.540 C 213.457 144.453 206.820 143.100 207.487 142.021 C 208.140 140.964 206.189 140.359 199.325 139.489 C 196.479 139.128 193.923 138.242 193.646 137.520 C 193.369 136.798 190.860 135.893 188.071 135.510 C 185.282 135.126 183.000 134.500 183.000 134.119 C 183.000 133.738 182.041 133.353 180.868 133.265 C 179.473 133.160 176.789 135.075 173.107 138.802 "/></g>
<g fill="#B4B4B4FE" stroke="#B4B4B4FE">
<path d="M 157.604 322.750 C 159.861 324.812 170.507 332.437 181.261 339.693 C 206.967 357.037 208.422 357.522 234.500 357.440 C 251.130 357.388 255.184 357.038 267.000 354.633 C 274.425 353.123 286.125 350.757 293.000 349.376 C 300.780 347.814 310.692 346.654 319.250 346.305 C 335.215 345.653 334.874 345.989 329.750 335.931 C 327.034 330.600 325.957 329.417 323.196 328.733 C 317.095 327.222 301.589 326.494 290.979 327.220 C 281.066 327.898 273.628 329.135 241.000 335.535 C 217.509 340.143 193.931 339.871 180.154 334.832 C 177.044 333.695 169.775 329.668 164.000 325.882 C 155.992 320.633 154.474 319.890 157.604 322.750 "/></g>
<g fill="#223E80FE" stroke="#223E80FE">
<path d="M 325.135 70.131 C 351.295 94.794 365.259 130.115 362.047 163.500 C 360.525 179.306 356.251 193.619 346.419 215.835 C 345.363 218.219 346.242 216.885 348.370 212.871 C 350.499 208.857 353.720 201.745 355.529 197.067 C 358.427 189.571 361.000 185.738 361.000 188.917 C 361.000 189.513 362.255 190.000 363.789 190.000 C 365.322 190.000 368.342 190.900 370.500 192.000 C 372.658 193.100 375.876 194.000 377.652 194.000 C 379.429 194.000 381.188 194.496 381.563 195.102 C 381.938 195.708 383.784 196.847 385.666 197.634 C 387.548 198.420 389.514 200.062 390.035 201.282 C 390.888 203.280 390.967 203.302 390.837 201.500 C 390.758 200.400 391.042 198.693 391.470 197.707 C 391.897 196.721 391.970 195.637 391.632 195.299 C 391.294 194.961 391.443 194.171 391.964 193.543 C 392.485 192.916 393.214 187.699 393.585 181.951 C 395.382 154.066 386.603 128.249 366.886 103.437 C 359.962 94.725 348.422 84.628 334.052 74.711 C 320.518 65.370 319.566 64.881 325.135 70.131 "/></g>
<g fill="#14225CFE" stroke="#14225CFE">
<path d="M 411.407 424.330 C 410.806 425.017 407.967 430.225 405.097 435.904 C 394.278 457.314 386.252 468.585 369.067 486.500 C 362.736 493.100 360.581 495.588 364.278 492.029 C 367.975 488.470 371.053 485.770 371.118 486.029 C 371.184 486.288 371.184 486.163 371.118 485.750 C 370.851 484.058 377.792 484.708 380.837 486.661 C 382.122 487.485 383.398 487.936 383.672 487.662 C 384.675 486.658 390.117 489.254 389.636 490.506 C 389.315 491.343 389.792 491.606 391.041 491.279 C 393.467 490.645 403.000 492.908 403.000 494.119 C 403.000 494.624 404.125 494.756 405.500 494.411 C 407.548 493.897 408.000 494.148 408.000 495.802 C 408.000 496.912 406.854 499.323 405.453 501.160 C 404.052 502.997 405.647 501.350 408.998 497.500 C 422.629 481.839 434.075 462.166 440.917 442.639 C 443.365 435.654 443.691 433.905 442.459 434.377 C 441.554 434.724 441.155 434.558 441.511 433.981 C 441.850 433.434 441.311 432.731 440.313 432.420 C 439.316 432.109 437.730 431.444 436.790 430.943 C 435.849 430.442 434.390 430.297 433.548 430.620 C 432.671 430.956 431.768 430.558 431.433 429.687 C 431.078 428.762 428.924 427.902 425.925 427.490 C 423.216 427.117 421.000 426.405 421.000 425.906 C 421.000 425.408 419.848 425.000 418.441 425.000 C 416.761 425.000 416.127 425.397 416.595 426.155 C 417.070 426.923 416.866 427.035 415.985 426.490 C 414.992 425.877 414.841 426.144 415.383 427.555 C 415.780 428.591 415.744 429.075 415.303 428.629 C 414.861 428.184 414.500 426.887 414.500 425.748 C 414.500 423.292 412.941 422.578 411.407 424.330 "/></g>
<g fill="#4068C0FE" stroke="#4068C0FE">
<path d="M 255.500 297.136 C 250.000 297.677 245.377 298.463 245.226 298.883 C 245.075 299.303 243.612 299.450 241.976 299.210 C 240.339 298.970 239.000 299.212 239.000 299.748 C 239.000 300.284 237.763 300.558 236.250 300.357 C 234.738 300.155 233.971 300.225 234.547 300.511 C 235.123 300.797 235.418 302.546 235.202 304.398 C 234.713 308.587 236.304 309.686 239.667 307.482 C 241.086 306.553 241.910 306.337 241.498 307.003 C 240.950 307.890 241.519 308.049 243.625 307.597 C 265.449 302.914 291.329 304.896 306.500 312.413 C 314.348 316.302 323.999 324.400 326.598 329.276 C 333.455 342.144 335.948 350.472 335.983 360.619 C 336.029 374.231 330.254 394.906 322.991 407.132 C 317.659 416.106 305.866 428.549 297.568 433.956 C 283.249 443.285 262.774 449.000 243.668 449.000 L 233.407 449.000 233.454 451.537 C 233.479 452.932 234.153 454.477 234.950 454.969 C 235.969 455.599 235.078 455.965 231.950 456.202 C 228.789 456.440 230.396 456.789 237.500 457.407 C 255.343 458.958 276.251 454.914 292.431 446.782 C 319.185 433.335 337.316 408.348 342.979 377.115 C 344.599 368.181 344.374 350.641 342.552 343.761 C 337.588 325.025 323.025 308.938 305.000 302.278 C 291.254 297.199 273.545 295.359 255.500 297.136 "/></g>
<g fill="#4068C0FE" stroke="#4068C0FE">
<path d="M 238.087 31.656 C 238.682 35.009 237.836 37.765 236.250 37.646 C 232.298 37.348 237.809 38.872 246.500 40.480 C 281.832 47.017 314.599 67.065 333.157 93.500 C 347.648 114.141 354.000 132.413 354.000 153.457 C 354.000 175.501 346.648 198.461 331.200 224.660 C 328.989 228.411 328.478 230.078 329.291 230.891 C 329.901 231.501 330.883 232.000 331.474 232.000 C 332.065 232.000 336.084 234.015 340.406 236.478 C 344.727 238.940 348.723 240.671 349.286 240.323 C 349.849 239.975 350.029 240.144 349.686 240.699 C 349.344 241.253 351.187 243.193 353.782 245.009 C 356.377 246.826 359.924 249.642 361.664 251.268 C 363.626 253.102 365.304 253.930 366.084 253.448 C 366.947 252.914 367.156 253.152 366.750 254.210 C 366.372 255.194 367.030 256.213 368.580 257.043 C 369.911 257.755 371.000 258.738 371.000 259.228 C 371.000 259.718 371.450 259.840 372.000 259.500 C 372.550 259.160 373.000 259.535 373.000 260.334 C 373.000 261.133 373.675 262.045 374.500 262.362 C 375.656 262.805 376.000 262.141 376.000 259.469 C 376.000 257.561 376.482 256.000 377.071 256.000 C 377.680 256.000 377.542 255.399 376.752 254.609 C 375.708 253.565 374.880 253.485 373.431 254.286 C 371.704 255.241 371.645 255.177 372.872 253.677 C 373.840 252.495 373.896 252.000 373.063 252.000 C 372.414 252.000 372.146 251.573 372.469 251.050 C 372.792 250.528 372.079 249.578 370.885 248.939 C 369.691 248.300 367.541 246.590 366.107 245.138 C 362.361 241.347 351.892 233.657 345.494 229.997 C 342.472 228.268 340.000 226.678 340.000 226.464 C 340.000 226.251 342.154 221.896 344.787 216.788 C 356.143 194.752 360.986 177.945 361.726 158.000 C 362.290 142.826 360.773 132.057 356.331 119.688 C 350.395 103.161 339.560 85.919 327.346 73.561 C 323.031 69.195 319.444 65.258 319.375 64.811 C 319.306 64.365 319.179 64.338 319.093 64.750 C 319.007 65.163 318.388 64.790 317.718 63.922 C 315.892 61.555 298.712 50.878 288.495 45.760 C 272.910 37.952 247.349 29.944 245.765 32.373 C 245.248 33.166 245.026 33.119 245.015 32.215 C 244.996 30.553 241.082 32.489 240.829 34.285 C 240.735 34.953 240.613 34.634 240.557 33.576 C 240.502 32.518 239.890 31.463 239.197 31.232 C 238.504 31.001 238.005 31.192 238.087 31.656 "/></g>
<g fill="#14225CFE" stroke="#14225CFE">
<path d="M 379.504 255.061 C 400.438 277.297 413.430 302.351 419.401 332.000 C 420.912 339.505 422.750 359.980 422.587 367.491 C 422.539 369.686 422.950 371.517 423.500 371.560 C 425.851 371.746 433.699 374.166 436.000 375.416 C 437.375 376.162 440.410 377.089 442.745 377.474 C 445.079 377.859 447.243 378.585 447.554 379.087 C 448.329 380.341 452.000 380.243 452.000 378.969 C 452.000 378.401 451.402 377.708 450.670 377.427 C 449.939 377.146 449.436 375.923 449.553 374.708 C 449.761 372.558 449.796 372.565 450.909 375.000 C 451.878 377.120 451.956 376.740 451.421 372.500 C 451.074 369.750 450.847 366.230 450.916 364.678 C 450.991 363.007 450.631 362.110 450.033 362.480 C 449.441 362.846 449.271 362.458 449.623 361.541 C 451.426 356.841 442.803 328.248 434.532 311.500 C 424.022 290.220 406.067 270.627 381.895 254.061 L 372.500 247.621 379.504 255.061 "/></g>
<g fill="#223E80FE" stroke="#223E80FE">
<path d="M 256.000 306.108 C 247.302 307.091 204.876 315.210 205.448 315.781 C 206.271 316.605 191.793 317.488 177.377 317.494 C 165.655 317.499 160.400 317.050 154.004 315.500 L 145.754 313.500 160.127 323.137 C 175.869 333.693 181.739 336.301 193.406 337.924 C 210.674 340.325 222.741 339.281 256.686 332.449 C 266.175 330.539 276.653 328.692 279.971 328.345 C 285.806 327.735 285.918 327.670 283.388 326.357 C 280.362 324.787 279.907 324.705 280.250 325.791 C 280.388 326.227 276.093 325.421 270.707 324.002 C 265.320 322.582 261.233 321.101 261.623 320.710 C 262.014 320.320 260.233 320.000 257.667 320.000 C 255.100 320.000 253.000 319.550 253.000 319.000 C 253.000 318.450 252.073 318.000 250.941 318.000 C 249.809 318.000 249.128 317.602 249.429 317.115 C 249.730 316.629 247.056 315.918 243.488 315.536 C 238.420 314.993 236.983 314.475 236.921 313.170 C 236.872 312.133 236.651 311.973 236.338 312.749 C 235.950 313.711 235.343 313.653 233.695 312.499 L 231.555 311.000 234.027 310.835 C 235.387 310.745 237.738 310.657 239.250 310.641 C 240.763 310.624 242.000 310.344 242.000 310.019 C 242.000 309.694 242.788 309.356 243.750 309.267 C 244.713 309.179 246.625 308.901 248.000 308.650 C 256.457 307.109 274.604 305.629 273.734 306.553 C 273.312 307.000 275.337 307.263 278.234 307.137 C 284.373 306.869 300.637 310.759 307.105 314.042 C 311.506 316.276 317.092 320.451 317.032 321.462 C 317.014 321.758 317.000 321.691 317.000 321.313 C 317.000 320.935 318.362 321.930 320.026 323.525 C 321.690 325.119 322.817 327.034 322.531 327.781 C 322.176 328.705 322.671 329.036 324.085 328.819 C 325.927 328.536 325.647 327.967 321.592 323.746 C 307.412 308.984 284.664 302.866 256.000 306.108 "/></g>
<g fill="#5C9AFEFE" stroke="#5C9AFEFE">
<path d="M 240.000 225.016 C 237.486 226.668 217.705 232.840 208.333 234.897 C 203.475 235.963 191.831 237.783 182.458 238.942 C 152.824 242.606 140.716 246.625 131.252 255.941 C 124.018 263.062 120.706 270.303 120.706 279.000 C 120.706 288.201 123.874 294.642 132.452 302.879 C 143.871 313.843 154.982 317.345 178.500 317.390 C 192.731 317.417 199.484 316.458 225.500 310.709 L 235.500 308.500 235.500 304.749 C 235.500 302.686 235.212 300.999 234.860 300.999 C 234.508 301.000 229.783 301.918 224.360 303.040 C 172.413 313.786 144.456 309.670 132.931 289.578 C 127.490 280.092 129.629 268.897 138.301 261.475 C 146.777 254.219 158.988 250.351 182.500 247.472 C 189.650 246.597 200.225 244.970 206.000 243.856 C 217.191 241.699 234.568 236.508 235.466 235.054 C 235.764 234.573 236.104 233.013 236.222 231.589 C 236.340 230.165 236.815 229.000 237.277 229.000 C 237.740 229.000 237.840 228.550 237.500 228.000 C 237.155 227.442 237.903 227.007 239.191 227.015 C 241.096 227.028 241.238 227.216 240.000 228.091 C 238.667 229.034 238.667 229.104 240.000 228.722 C 240.825 228.486 241.357 227.507 241.183 226.546 C 240.995 225.510 241.300 225.068 241.933 225.459 C 242.520 225.821 243.000 225.641 243.000 225.059 C 243.000 223.745 241.957 223.730 240.000 225.016 "/></g>
<g fill="#186EBEFE" stroke="#186EBEFE">
<path d="M 366.386 245.482 C 367.859 246.847 369.962 248.445 371.060 249.032 C 372.158 249.620 372.792 250.528 372.469 251.050 C 372.146 251.573 372.414 252.000 373.063 252.000 C 373.896 252.000 373.840 252.495 372.872 253.677 C 371.645 255.177 371.704 255.241 373.431 254.286 C 374.880 253.485 375.708 253.565 376.752 254.609 C 377.542 255.399 377.680 256.000 377.071 256.000 C 376.482 256.000 376.000 257.561 376.000 259.469 C 376.000 262.141 375.656 262.805 374.500 262.362 C 373.675 262.045 373.000 261.084 373.000 260.226 C 373.000 259.369 372.721 258.945 372.381 259.286 C 372.040 259.626 371.108 259.251 370.310 258.452 C 369.511 257.654 369.204 257.000 369.629 257.000 C 370.053 257.000 369.911 256.511 369.313 255.913 C 368.678 255.278 367.989 255.209 367.656 255.747 C 367.343 256.254 369.092 258.637 371.543 261.043 C 373.995 263.448 376.034 264.985 376.077 264.458 C 376.119 263.931 376.301 264.269 376.482 265.208 C 376.982 267.807 385.130 277.038 386.290 276.321 C 386.854 275.972 387.006 276.181 386.631 276.789 C 386.257 277.392 387.478 280.274 389.343 283.193 C 412.565 319.538 418.436 367.127 404.940 409.611 C 400.713 422.917 391.762 441.359 383.723 453.327 C 380.080 458.750 377.366 463.791 377.668 464.577 C 377.968 465.359 377.716 466.000 377.107 466.000 C 376.498 466.000 376.112 465.560 376.250 465.021 C 376.387 464.483 374.236 466.620 371.468 469.771 C 368.700 472.922 366.489 476.175 366.554 477.000 C 366.636 478.035 366.941 477.881 367.538 476.503 C 368.014 475.404 369.434 473.475 370.694 472.215 L 372.984 469.925 372.811 472.713 C 372.715 474.246 372.195 476.085 371.655 476.800 C 370.978 477.695 371.145 478.573 372.188 479.616 C 373.542 480.970 374.155 480.592 377.945 476.066 C 380.278 473.280 381.819 471.000 381.371 471.000 C 380.922 471.000 381.493 470.343 382.640 469.539 C 383.787 468.736 387.668 463.673 391.263 458.289 C 416.419 420.618 426.175 374.752 417.993 332.630 C 412.769 305.739 400.554 279.403 386.225 264.141 C 383.553 261.295 381.529 258.804 381.728 258.605 C 382.247 258.086 365.704 243.000 364.616 243.000 C 364.116 243.000 364.913 244.117 366.386 245.482 "/></g>
<g fill="#223E80FE" stroke="#223E80FE">
<path d="M 406.417 295.789 C 427.004 343.984 425.514 392.930 402.027 440.013 C 399.698 444.681 398.245 448.050 398.798 447.500 C 399.351 446.950 402.177 441.776 405.078 436.003 C 407.978 430.229 410.944 424.913 411.668 424.189 C 413.388 422.469 415.244 423.657 414.500 426.000 C 414.180 427.007 414.382 428.118 414.948 428.468 C 415.581 428.859 415.724 428.444 415.319 427.388 C 414.836 426.132 415.015 425.891 415.985 426.490 C 416.866 427.035 417.070 426.923 416.595 426.155 C 416.127 425.397 416.761 425.000 418.441 425.000 C 419.848 425.000 421.000 425.408 421.000 425.906 C 421.000 426.405 423.216 427.117 425.925 427.490 C 428.924 427.902 431.078 428.762 431.433 429.687 C 431.768 430.558 432.671 430.956 433.548 430.620 C 434.390 430.297 435.849 430.442 436.790 430.943 C 437.730 431.444 439.316 432.109 440.313 432.420 C 441.311 432.731 441.873 433.397 441.562 433.900 C 441.251 434.402 441.869 434.585 442.935 434.307 C 446.458 433.385 452.000 405.338 452.000 388.428 C 452.000 380.752 451.827 380.000 450.059 380.000 C 448.991 380.000 447.864 379.589 447.554 379.087 C 447.243 378.585 445.079 377.859 442.745 377.474 C 440.410 377.089 437.375 376.162 436.000 375.416 C 433.699 374.166 425.851 371.746 423.500 371.560 C 422.950 371.517 422.539 369.686 422.587 367.491 C 422.750 359.980 420.912 339.505 419.401 332.000 C 416.497 317.582 407.384 292.069 403.863 288.500 C 403.320 287.950 404.469 291.230 406.417 295.789 "/></g>
<g fill="#223E80FE" stroke="#223E80FE">
<path d="M 210.000 116.566 C 202.937 118.095 185.000 126.268 185.000 127.957 C 185.000 128.531 184.663 128.888 184.250 128.750 C 183.838 128.613 183.400 128.922 183.277 129.437 C 183.155 129.953 182.298 130.486 181.373 130.622 C 179.139 130.949 168.965 141.090 164.811 147.130 C 162.503 150.486 163.243 149.846 167.255 145.019 C 170.421 141.210 174.471 137.006 176.255 135.677 C 179.353 133.369 183.000 132.502 183.000 134.073 C 183.000 134.480 185.282 135.126 188.071 135.510 C 190.860 135.893 193.369 136.798 193.646 137.520 C 193.923 138.242 196.479 139.128 199.325 139.489 C 206.189 140.359 208.140 140.964 207.487 142.021 C 206.820 143.100 213.457 144.453 214.935 143.540 C 215.521 143.178 216.000 143.359 216.000 143.941 C 216.000 144.523 216.450 145.000 217.000 145.000 C 217.550 145.000 218.014 144.213 218.030 143.250 C 218.058 141.660 218.148 141.650 219.018 143.138 C 219.699 144.305 219.520 145.168 218.396 146.138 C 217.528 146.887 220.346 145.817 224.659 143.761 C 228.972 141.704 235.425 139.262 239.000 138.334 C 245.969 136.525 261.180 135.992 269.500 137.265 L 274.500 138.031 268.002 131.998 C 260.450 124.986 248.982 118.679 239.886 116.535 C 232.013 114.679 218.652 114.693 210.000 116.566 "/></g>
<g fill="#14225CFE" stroke="#14225CFE">
<path d="M 358.312 189.750 C 354.986 199.062 350.982 208.158 346.496 216.595 L 341.128 226.691 344.814 228.439 C 350.080 230.937 359.582 237.467 366.109 243.074 L 371.719 247.893 377.765 235.196 C 381.090 228.213 384.726 219.800 385.844 216.500 C 388.626 208.293 390.930 199.037 390.146 199.220 C 389.016 199.485 382.272 196.249 381.563 195.102 C 381.188 194.496 379.429 194.000 377.652 194.000 C 375.876 194.000 372.658 193.100 370.500 192.000 C 368.342 190.900 365.322 190.000 363.789 190.000 C 362.255 190.000 361.000 189.550 361.000 189.000 C 361.000 187.322 358.978 187.887 358.312 189.750 "/></g>
<g fill="#080E26FE" stroke="#080E26FE">
<path d="M 364.592 491.829 C 360.097 496.048 352.525 502.200 347.765 505.500 C 343.006 508.800 339.233 511.950 339.381 512.500 C 339.528 513.050 342.463 513.952 345.903 514.505 C 349.398 515.067 351.791 515.896 351.328 516.383 C 350.862 516.874 351.919 517.057 353.750 516.801 C 355.912 516.498 357.000 516.761 357.000 517.585 C 357.000 518.267 358.903 519.146 361.228 519.539 C 363.554 519.931 366.366 520.837 367.478 521.551 C 368.590 522.265 371.525 522.962 374.000 523.101 C 376.475 523.239 378.955 523.689 379.512 524.101 C 380.875 525.110 396.293 511.836 402.789 504.062 C 408.604 497.103 409.653 493.368 405.500 494.411 C 404.125 494.756 403.000 494.624 403.000 494.119 C 403.000 492.908 393.467 490.645 391.041 491.279 C 389.792 491.606 389.315 491.343 389.636 490.506 C 390.135 489.206 384.656 486.677 383.609 487.724 C 383.301 488.033 382.375 487.726 381.553 487.044 C 380.730 486.361 378.416 485.432 376.411 484.980 C 372.858 484.179 372.557 484.353 364.592 491.829 "/></g>
<g fill="#4068C0FE" stroke="#4068C0FE">
<path d="M 238.147 111.381 C 237.926 115.655 238.006 115.779 241.420 116.419 C 247.148 117.494 260.026 124.497 267.250 130.466 C 270.963 133.534 274.000 136.461 274.000 136.970 C 274.000 137.480 275.173 139.158 276.606 140.698 C 280.629 145.022 285.780 156.074 287.093 163.200 C 290.926 184.005 275.747 207.534 250.188 220.406 C 246.234 222.396 243.000 224.496 243.000 225.072 C 243.000 225.647 242.520 225.821 241.933 225.459 C 241.300 225.068 240.995 225.510 241.183 226.546 C 241.357 227.507 240.825 228.486 240.000 228.722 C 238.667 229.104 238.667 229.034 240.000 228.091 C 241.238 227.216 241.096 227.028 239.191 227.015 C 237.903 227.007 237.155 227.442 237.500 228.000 C 237.840 228.550 237.740 229.000 237.277 229.000 C 236.815 229.000 236.337 230.238 236.216 231.750 C 236.095 233.263 235.235 235.063 234.307 235.750 C 232.109 237.377 232.683 237.327 238.322 235.406 C 240.895 234.529 243.000 233.378 243.000 232.847 C 243.000 232.316 243.445 232.157 243.989 232.493 C 245.605 233.492 262.797 224.057 270.465 217.963 C 274.377 214.855 279.282 210.329 281.366 207.906 C 290.143 197.700 296.000 182.309 296.000 169.453 C 296.000 161.526 292.374 148.912 287.926 141.364 C 283.216 133.373 270.930 121.233 262.464 116.205 C 256.191 112.480 242.528 107.000 239.512 107.000 C 238.869 107.000 238.275 108.906 238.147 111.381 "/></g>
<g fill="#4068C0FE" stroke="#4068C0FE">
<path d="M 370.447 472.447 C 369.319 473.592 368.007 475.422 367.534 476.514 C 366.920 477.930 366.624 478.069 366.503 477.000 C 366.409 476.175 365.819 476.737 365.191 478.250 C 364.563 479.763 363.668 481.000 363.202 481.000 C 362.735 481.000 359.912 483.297 356.927 486.104 C 336.325 505.479 303.012 522.807 272.363 530.090 C 260.676 532.867 242.433 535.985 237.821 535.993 C 233.383 536.001 231.000 538.125 231.000 542.071 L 231.000 545.000 214.750 545.223 L 198.500 545.445 214.460 545.749 C 223.238 545.916 231.113 545.756 231.960 545.393 C 232.807 545.030 235.090 544.820 237.033 544.927 C 241.752 545.187 263.192 541.521 275.000 538.436 C 300.201 531.851 331.464 516.915 349.098 503.035 C 360.205 494.292 369.000 485.787 369.000 483.790 C 369.000 482.439 369.478 481.970 370.468 482.349 C 372.475 483.119 373.445 481.242 371.964 479.456 C 371.144 478.469 371.077 477.598 371.754 476.750 C 372.304 476.063 372.697 474.345 372.627 472.933 L 372.500 470.366 370.447 472.447 "/></g>
<g fill="#14225CFE" stroke="#14225CFE">
<path d="M 265.917 306.383 C 265.688 306.593 262.350 307.048 258.500 307.394 C 254.650 307.739 250.150 308.266 248.500 308.564 C 246.850 308.862 244.713 309.179 243.750 309.267 C 242.788 309.356 242.000 309.694 242.000 310.019 C 242.000 310.344 240.763 310.624 239.250 310.641 C 237.738 310.657 235.387 310.745 234.027 310.835 L 231.555 311.000 233.695 312.499 C 235.343 313.653 235.950 313.711 236.338 312.749 C 236.651 311.973 236.872 312.133 236.921 313.170 C 236.983 314.475 238.420 314.993 243.488 315.536 C 247.056 315.918 249.730 316.629 249.429 317.115 C 249.128 317.602 249.809 318.000 250.941 318.000 C 252.073 318.000 253.000 318.450 253.000 319.000 C 253.000 319.550 255.100 320.000 257.667 320.000 C 260.233 320.000 262.014 320.320 261.623 320.710 C 261.233 321.101 265.320 322.582 270.707 324.002 C 276.093 325.421 280.388 326.227 280.250 325.791 C 279.880 324.621 281.431 324.831 282.727 326.127 C 283.422 326.822 284.935 326.966 286.677 326.503 C 290.274 325.547 312.079 325.889 317.999 326.995 C 320.474 327.457 322.724 327.599 322.999 327.311 C 323.888 326.381 312.652 316.904 307.589 314.315 C 300.715 310.799 284.603 306.859 278.234 307.137 C 275.337 307.263 273.275 307.059 273.650 306.683 C 274.348 305.985 266.674 305.687 265.917 306.383 "/></g>
<g fill="#14225CFE" stroke="#14225CFE">
<path d="M 131.284 379.992 C 137.263 388.540 177.832 426.000 181.111 426.000 C 185.330 426.000 159.829 398.801 147.688 390.352 C 143.185 387.219 137.259 383.045 134.521 381.077 C 130.205 377.977 129.774 377.832 131.284 379.992 "/></g>
<g fill="#B4B4B4FE" stroke="#B4B4B4FE">
<path d="M 130.000 377.377 C 130.000 377.646 135.513 381.670 142.250 386.321 C 150.501 392.016 157.601 397.995 164.000 404.638 C 183.278 424.651 194.393 434.815 199.586 437.182 L 204.673 439.500 191.586 425.885 C 184.389 418.396 175.730 410.421 172.345 408.162 C 168.960 405.903 163.368 401.593 159.918 398.584 C 153.852 393.294 130.000 376.387 130.000 377.377 "/></g>
<g fill="#186EBEFE" stroke="#186EBEFE">
<path d="M 329.827 430.191 C 329.692 441.417 329.514 443.100 329.000 438.000 C 328.527 433.304 328.297 436.148 328.173 448.250 C 328.066 458.635 327.620 465.000 327.000 465.000 C 325.871 465.000 325.681 470.155 326.634 474.920 L 327.268 478.090 329.221 475.993 C 330.295 474.840 330.930 473.259 330.631 472.480 C 330.332 471.701 330.518 470.798 331.044 470.473 C 332.363 469.658 332.321 417.316 331.000 416.500 C 330.354 416.101 329.939 420.948 329.827 430.191 "/></g>
<g fill="#223E80FE" stroke="#223E80FE">
<path d="M 330.179 268.315 C 328.694 271.860 328.648 274.037 330.100 272.000 C 330.909 270.864 331.027 271.319 330.584 273.875 C 330.263 275.731 329.912 284.506 329.804 293.375 C 329.617 308.796 329.583 309.042 329.035 299.000 L 328.461 288.500 327.980 299.500 C 327.716 305.550 327.838 310.650 328.250 310.833 C 328.663 311.017 329.000 311.606 329.000 312.142 C 329.000 312.679 328.550 312.840 328.000 312.500 C 327.450 312.160 327.000 312.310 327.000 312.834 C 327.000 313.358 327.774 314.083 328.720 314.446 C 329.665 314.809 330.137 314.803 329.767 314.434 C 329.398 314.064 329.776 313.081 330.609 312.248 C 331.707 311.150 332.086 308.780 331.988 303.617 C 331.914 299.703 331.964 292.900 332.099 288.500 L 332.345 280.500 333.000 287.000 C 333.572 292.679 333.677 292.017 333.827 281.750 C 333.926 275.045 333.600 270.000 333.070 270.000 C 332.558 270.000 331.963 268.988 331.748 267.750 C 331.375 265.603 331.303 265.629 330.179 268.315 "/></g>
<g fill="#186EBEFE" stroke="#186EBEFE">
<path d="M 307.317 517.064 C 299.548 520.686 280.337 527.337 272.744 529.034 C 269.578 529.742 267.191 530.524 267.440 530.773 C 268.098 531.431 277.159 529.176 287.500 525.782 C 297.565 522.478 315.874 514.742 314.433 514.402 C 313.920 514.281 310.717 515.479 307.317 517.064 "/></g>
<g fill="#223E80FE" stroke="#223E80FE">
<path d="M 392.589 456.712 C 385.685 466.787 378.072 476.047 368.101 486.500 L 356.653 498.500 368.659 486.500 C 379.725 475.439 392.377 459.992 393.874 455.712 C 394.218 454.728 393.640 455.178 392.589 456.712 "/></g>
<g fill="#186EBEFE" stroke="#186EBEFE">
<path d="M 329.250 226.607 C 328.013 228.536 327.000 230.282 327.000 230.487 C 327.000 230.693 330.263 232.434 334.250 234.357 C 338.238 236.281 344.425 239.703 348.000 241.962 C 351.575 244.221 353.375 245.103 352.000 243.922 C 350.625 242.741 349.500 241.338 349.500 240.804 C 349.500 240.270 349.238 240.095 348.918 240.415 C 348.598 240.735 344.784 238.973 340.442 236.499 C 336.101 234.024 332.065 232.000 331.474 232.000 C 328.877 232.000 328.252 229.843 329.875 226.474 L 331.500 223.100 329.250 226.607 "/></g>
<g fill="#223E80FE" stroke="#223E80FE">
<path d="M 372.015 247.373 C 372.007 247.852 374.751 251.186 378.113 254.780 C 381.475 258.374 386.763 264.507 389.863 268.409 C 392.963 272.310 395.872 275.726 396.326 276.001 C 398.031 277.030 386.704 262.757 380.855 256.504 C 377.509 252.927 375.047 249.944 375.385 249.875 C 375.723 249.806 375.534 249.694 374.964 249.625 C 374.393 249.556 373.500 248.825 372.979 248.000 C 372.457 247.175 372.024 246.893 372.015 247.373 "/></g>
<g fill="#186EBEFE" stroke="#186EBEFE">
<path d="M 340.464 89.289 C 342.934 92.823 346.982 99.491 349.461 104.107 C 354.593 113.668 355.597 114.108 350.861 104.721 C 347.468 97.998 338.676 84.536 337.002 83.501 C 336.436 83.151 337.994 85.756 340.464 89.289 "/></g>
<g fill="#186EBEFE" stroke="#186EBEFE">
<path d="M 352.754 149.500 C 352.977 157.200 353.313 163.950 353.501 164.500 C 354.208 166.572 353.851 143.325 353.117 139.500 C 352.674 137.193 352.520 141.426 352.754 149.500 "/></g>
<g fill="#223E80FE" stroke="#223E80FE">
<path d="M 344.011 228.250 C 344.292 228.583 347.892 231.058 352.011 233.750 C 356.130 236.441 362.200 240.825 365.500 243.490 C 368.800 246.155 370.607 247.321 369.515 246.080 C 366.816 243.011 354.623 233.963 348.500 230.485 C 345.750 228.922 343.730 227.917 344.011 228.250 "/></g>
<g fill="#186EBEFE" stroke="#186EBEFE">
<path d="M 354.796 487.089 C 351.883 489.613 347.122 493.531 344.215 495.795 C 341.309 498.060 338.922 500.125 338.911 500.385 C 338.873 501.304 351.563 491.128 355.796 486.846 L 360.091 482.500 354.796 487.089 "/></g>
<g fill="#186EBEFE" stroke="#186EBEFE">
<path d="M 344.345 361.000 C 344.331 370.592 344.473 371.988 344.959 367.000 C 345.307 363.425 345.316 357.800 344.978 354.500 C 344.533 350.162 344.358 351.962 344.345 361.000 "/></g>
<g fill="#186EBEFE" stroke="#186EBEFE">
<path d="M 320.184 79.000 C 327.105 85.817 327.805 86.367 322.664 80.946 C 318.724 76.791 314.384 72.516 313.020 71.446 C 311.657 70.376 314.880 73.775 320.184 79.000 "/></g>
<g fill="#223E80FE" stroke="#223E80FE">
<path d="M 302.083 326.361 C 302.313 326.559 306.775 326.959 312.000 327.249 C 318.308 327.599 320.156 327.497 317.500 326.946 C 313.554 326.126 301.274 325.660 302.083 326.361 "/></g>
<g fill="#4068C0FE" stroke="#4068C0FE">
<path d="M 145.500 396.500 L 155.000 406.000 145.500 396.500 L 136.000 387.000 145.500 396.500 "/></g>
<g fill="#14225CFE" stroke="#14225CFE">
<path d="M 182.434 425.750 C 182.575 426.713 183.210 427.556 183.845 427.625 C 184.480 427.694 185.450 427.806 186.000 427.875 C 186.550 427.944 186.947 428.338 186.882 428.750 C 186.816 429.163 186.816 429.388 186.882 429.250 C 186.947 429.113 188.013 429.879 189.250 430.953 C 190.488 432.027 189.741 430.902 187.592 428.453 C 183.405 423.682 182.024 422.959 182.434 425.750 "/></g>
<g fill="#223E80FE" stroke="#223E80FE">
<path d="M 143.000 393.000 L 152.000 402.000 143.000 393.000 L 134.000 384.000 143.000 393.000 "/></g>
<g fill="#186EBEFE" stroke="#186EBEFE">
<path d="M 322.770 68.832 C 328.856 74.819 332.733 77.538 328.000 72.500 C 326.708 71.125 326.067 69.966 326.576 69.923 C 327.084 69.881 326.601 69.680 325.501 69.475 C 324.402 69.271 322.821 68.293 321.988 67.302 C 321.154 66.311 319.579 64.862 318.486 64.082 C 317.394 63.302 319.321 65.439 322.770 68.832 "/></g>
<g fill="#223E80FE" stroke="#223E80FE">
<path d="M 287.812 326.137 C 287.051 326.620 289.650 326.943 294.000 326.906 C 302.229 326.836 302.346 326.393 294.312 325.732 C 291.458 325.497 288.533 325.680 287.812 326.137 "/></g>
<g fill="#DEDEDEFE" stroke="#DEDEDEFE">
<path d="M 88.500 78.457 L 83.500 83.554 88.500 78.457 L 93.500 73.361 88.500 78.457 "/></g>
<g fill="#186EBEFE" stroke="#186EBEFE">
<path d="M 259.000 532.000 L 256.500 532.801 259.000 532.801 C 260.375 532.801 262.625 532.440 264.000 532.000 L 266.500 531.199 264.000 531.199 C 262.625 531.199 260.375 531.560 259.000 532.000 "/></g>
<g fill="#B2CEFEFE" stroke="#B2CEFEFE">
<path d="M 310.000 422.953 L 305.500 427.556 310.000 422.953 L 314.500 418.350 310.000 422.953 "/></g>
<g fill="#186EBEFE" stroke="#186EBEFE">
<path d="M 339.100 391.600 C 338.394 393.552 338.038 395.371 338.309 395.642 C 338.579 395.913 339.340 394.499 340.000 392.500 C 341.563 387.765 340.773 386.975 339.100 391.600 "/></g>
<g fill="#186EBEFE" stroke="#186EBEFE">
<path d="M 359.000 249.687 C 361.475 251.856 362.896 252.815 362.158 251.818 C 361.420 250.821 359.395 249.046 357.658 247.874 C 355.766 246.597 356.304 247.324 359.000 249.687 "/></g>
<g fill="#223E80FE" stroke="#223E80FE">
<path d="M 143.500 174.449 L 139.500 178.559 143.500 174.449 L 147.500 170.338 143.500 174.449 "/></g>
<g fill="#186EBEFE" stroke="#186EBEFE">
<path d="M 350.556 176.556 C 350.179 178.562 350.071 180.404 350.315 180.649 C 350.560 180.893 351.068 179.451 351.444 177.444 C 351.821 175.438 351.929 173.596 351.685 173.351 C 351.440 173.107 350.932 174.549 350.556 176.556 "/></g>
<g fill="#223E80FE" stroke="#223E80FE">
<path d="M 409.000 276.000 L 413.000 280.000 409.000 276.000 L 405.000 272.000 409.000 276.000 "/></g>
<g fill="#4068C0FE" stroke="#4068C0FE">
<path d="M 143.000 173.942 L 139.500 177.562 143.000 173.942 L 146.500 170.323 143.000 173.942 "/></g>
<g fill="#DEDEDEFE" stroke="#DEDEDEFE">
<path d="M 423.000 528.942 L 419.500 532.562 423.000 528.942 L 426.500 525.323 423.000 528.942 "/></g>
<g fill="#B2CEFEFE" stroke="#B2CEFEFE">
<path d="M 63.000 485.000 L 67.000 489.000 63.000 485.000 L 59.000 481.000 63.000 485.000 "/></g>
<g fill="#B2CEFEFE" stroke="#B2CEFEFE">
<path d="M 271.000 204.942 L 267.500 208.562 271.000 204.942 L 274.500 201.323 271.000 204.942 "/></g>
</svg>
