<?xml version="1.0" encoding="utf-8"?>
<!DOCTYPE svg PUBLIC "-//W3C//DTD SVG 20010904//EN" "http://www.w3.org/TR/2001/REC-SVG-20010904/DTD/svg10.dtd">
<svg version="1.0" xmlns="http://www.w3.org/2000/svg" width="467pt" height="602pt" viewBox="0 0 467 602" style="" preserveAspectRatio="xMidYMid meet">
<g fill="#E87A0AFE" stroke="#E87A0AFE">
<path d="M 274.108 26.040 C 262.240 28.483 251.655 35.734 231.387 55.307 C 205.425 80.377 173.731 118.257 145.500 157.959 C 141.650 163.373 135.350 172.168 131.500 177.504 C 127.650 182.839 123.177 189.071 121.560 191.352 C 119.943 193.633 110.268 206.459 100.060 219.854 C 89.852 233.249 78.884 247.649 75.686 251.854 C 72.489 256.059 66.718 263.610 62.863 268.633 C 59.007 273.657 48.249 288.507 38.954 301.633 C 11.526 340.372 5.646 355.044 10.848 371.760 C 15.753 387.518 31.506 401.603 51.747 408.327 C 74.460 415.872 81.295 416.228 171.866 414.588 L 222.232 413.675 221.633 418.588 C 220.205 430.297 216.758 484.804 216.603 498.129 C 216.546 502.999 216.230 506.988 215.900 506.992 C 215.570 506.996 215.379 508.350 215.475 510.000 C 215.571 511.650 215.729 512.377 215.825 511.617 C 215.921 510.856 216.900 509.998 218.000 509.710 C 219.219 509.392 220.000 508.346 220.000 507.035 C 220.000 505.851 219.550 505.160 219.000 505.500 C 218.450 505.840 218.000 505.641 218.000 505.059 C 218.000 503.757 219.025 503.730 221.000 504.980 C 221.825 505.503 222.549 507.408 222.609 509.215 C 222.817 515.486 224.137 525.230 225.134 527.853 C 227.850 534.997 235.051 540.306 247.500 544.343 C 254.463 546.601 264.744 547.897 269.500 547.115 C 272.797 546.573 273.505 546.056 273.526 544.172 C 273.540 542.914 273.842 542.176 274.197 542.531 C 275.095 543.428 281.392 523.486 283.839 512.000 C 290.802 479.319 294.704 436.506 297.557 361.500 C 298.457 337.850 299.599 318.073 300.096 317.550 C 300.593 317.028 300.993 316.128 300.985 315.550 C 300.976 314.973 300.533 315.175 300.000 316.000 C 299.418 316.901 299.025 317.025 299.015 316.309 C 299.007 315.654 299.389 314.877 299.865 314.583 C 300.341 314.289 300.602 312.878 300.445 311.448 C 300.235 309.534 300.538 308.992 301.591 309.397 C 302.816 309.867 302.830 309.551 301.691 307.223 C 300.868 305.543 300.627 303.351 301.061 301.500 C 301.447 299.850 301.824 299.175 301.897 300.000 C 302.016 301.333 302.138 301.333 303.000 300.000 C 303.811 298.745 303.972 298.813 303.985 300.417 C 303.993 301.471 304.299 302.034 304.665 301.668 C 305.683 300.650 306.005 295.725 305.130 294.546 C 304.703 293.971 304.400 292.375 304.457 291.000 L 304.560 288.500 305.602 290.885 C 306.639 293.260 306.651 293.254 308.351 289.673 C 309.389 287.486 309.808 285.082 309.420 283.538 C 309.006 281.889 309.199 281.000 309.969 281.000 C 310.808 281.000 311.012 279.211 310.666 274.888 C 310.397 271.527 310.532 269.164 310.967 269.638 C 311.665 270.400 312.951 315.699 312.987 340.785 L 313.000 350.070 332.250 349.984 C 342.838 349.937 352.997 350.209 354.826 350.589 C 357.657 351.177 358.104 351.019 357.826 349.522 C 357.560 348.090 358.285 347.733 361.734 347.595 C 364.652 347.479 366.412 346.817 367.398 345.463 C 368.754 343.604 368.622 343.498 364.915 343.465 C 362.762 343.445 361.000 343.760 361.000 344.164 C 361.000 344.567 359.538 344.297 357.750 343.563 C 355.577 342.670 349.206 342.172 338.530 342.061 C 329.747 341.969 322.360 341.693 322.116 341.449 C 321.318 340.651 322.061 224.189 323.034 197.500 C 325.206 137.920 326.128 115.931 326.547 113.778 C 326.790 112.525 327.009 103.400 327.032 93.500 C 327.066 78.851 326.714 74.104 325.139 68.000 C 321.099 52.345 314.340 41.269 304.301 33.853 C 294.838 26.862 283.885 24.028 274.108 26.040 M 292.502 43.250 C 297.610 54.052 301.119 65.607 303.440 79.272 C 305.103 89.059 305.431 107.000 303.948 107.000 C 303.514 107.000 302.831 108.463 302.429 110.250 C 302.028 112.038 301.505 112.938 301.267 112.250 C 300.811 110.936 298.838 110.454 299.222 111.750 C 299.607 113.048 295.825 118.010 294.891 117.432 C 294.401 117.130 294.000 117.568 294.000 118.406 C 294.000 119.930 290.027 122.768 289.970 121.285 C 289.916 119.906 287.576 124.439 287.537 125.996 C 287.517 126.819 286.600 127.494 285.500 127.496 L 283.500 127.500 285.500 128.414 C 286.600 128.916 286.938 129.422 286.250 129.539 C 285.563 129.655 284.633 129.806 284.185 129.875 C 283.737 129.944 282.619 131.575 281.701 133.500 C 280.783 135.425 279.549 137.000 278.957 137.000 C 278.366 137.000 278.157 137.445 278.493 137.989 C 278.856 138.575 278.408 138.710 277.391 138.320 C 276.016 137.792 275.790 138.089 276.246 139.831 C 276.610 141.225 276.354 142.000 275.529 142.000 C 274.823 142.000 273.676 142.686 272.980 143.524 C 272.284 144.362 271.442 144.775 271.107 144.441 C 270.773 144.107 270.444 144.321 270.375 144.917 C 270.306 145.513 270.194 146.461 270.125 147.025 C 270.056 147.588 268.763 148.563 267.250 149.191 C 265.738 149.819 265.110 150.370 265.855 150.416 C 266.777 150.473 266.558 151.090 265.168 152.348 C 264.045 153.364 262.648 153.900 262.063 153.539 C 261.478 153.178 261.000 153.359 261.000 153.941 C 261.000 154.523 261.553 155.000 262.229 155.000 C 262.905 155.000 262.454 156.013 261.228 157.250 C 260.001 158.488 257.190 161.860 254.980 164.744 C 252.771 167.628 250.634 169.937 250.232 169.875 C 249.829 169.814 249.668 169.816 249.872 169.882 C 250.460 170.068 247.833 173.000 247.078 173.000 C 245.984 173.000 246.132 168.346 247.677 154.205 C 248.476 146.893 248.988 140.197 248.815 139.325 C 248.504 137.762 241.539 146.781 211.222 188.000 C 203.334 198.725 195.386 209.525 193.559 212.000 C 191.733 214.475 186.312 222.125 181.514 229.000 C 171.930 242.730 147.894 275.198 137.464 288.500 C 133.571 293.466 122.220 308.837 114.203 320.000 C 110.055 325.775 106.400 330.725 106.079 331.000 C 105.759 331.275 104.867 332.722 104.098 334.216 C 103.328 335.710 102.322 336.699 101.861 336.414 C 101.400 336.129 101.291 336.594 101.618 337.448 C 101.946 338.302 102.953 339.052 103.857 339.116 C 105.367 339.223 105.366 339.268 103.845 339.671 C 102.934 339.913 101.910 341.224 101.568 342.586 C 101.226 343.948 99.677 345.836 98.126 346.781 C 96.552 347.740 95.415 349.237 95.552 350.167 C 95.707 351.216 94.883 352.064 93.328 352.454 C 91.970 352.795 91.028 353.583 91.235 354.205 C 91.442 354.827 89.449 357.569 86.806 360.297 C 84.163 363.025 82.000 365.653 82.000 366.138 C 82.000 367.249 76.115 373.457 74.903 373.625 C 74.406 373.694 74.280 373.806 74.622 373.875 C 74.965 373.944 74.744 374.604 74.131 375.342 C 73.519 376.080 73.313 376.980 73.675 377.342 C 74.037 377.704 73.653 378.000 72.822 378.000 C 71.990 378.000 70.495 378.900 69.500 380.000 C 68.505 381.100 68.010 382.000 68.401 382.000 C 68.792 382.000 67.399 383.573 65.306 385.495 C 63.213 387.418 61.817 388.993 62.205 388.995 C 62.592 388.998 61.784 390.125 60.409 391.500 C 59.034 392.875 57.535 394.000 57.077 394.000 C 56.619 394.000 55.627 394.788 54.872 395.750 C 53.645 397.316 53.675 397.363 55.161 396.201 C 56.442 395.200 56.992 395.178 57.565 396.106 C 57.997 396.804 57.888 397.049 57.306 396.689 C 56.754 396.348 55.387 396.923 54.266 397.966 C 52.258 399.838 52.118 399.808 43.980 395.750 C 34.222 390.885 23.725 381.162 19.958 373.500 C 18.010 369.538 17.500 366.943 17.500 361.000 C 17.500 348.390 23.038 337.622 46.301 305.000 C 58.104 288.448 87.907 248.459 93.999 241.000 C 100.119 233.507 126.857 197.638 140.587 178.503 C 184.529 117.262 218.596 76.617 247.153 51.361 C 262.932 37.405 269.392 34.131 281.313 34.048 L 288.127 34.000 292.502 43.250 M 235.130 199.500 C 234.510 208.300 233.555 229.900 233.007 247.500 C 231.942 281.740 230.333 315.604 229.417 323.093 L 228.856 327.686 207.178 328.340 C 195.255 328.701 170.515 328.996 152.199 328.998 L 118.899 329.000 123.629 322.250 C 126.231 318.538 140.136 299.750 154.529 280.500 C 168.923 261.250 186.905 236.725 194.490 226.000 C 202.075 215.275 214.630 197.876 222.390 187.336 L 236.500 168.172 236.378 175.836 C 236.311 180.051 235.750 190.700 235.130 199.500 "/></g>
<g fill="#FE983CFE" stroke="#FE983CFE">
<path d="M 270.079 35.643 C 267.648 36.494 263.823 38.343 261.579 39.750 C 255.513 43.557 246.505 51.475 248.106 51.593 C 248.872 51.649 249.050 51.817 248.500 51.966 C 247.950 52.115 247.200 52.196 246.834 52.146 C 245.825 52.009 227.000 70.053 227.000 71.157 C 227.000 71.686 227.520 71.797 228.155 71.405 C 228.946 70.915 229.032 71.133 228.429 72.095 C 227.946 72.868 227.688 74.337 227.856 75.359 C 228.032 76.425 227.727 76.949 227.143 76.588 C 226.582 76.242 226.294 75.067 226.504 73.979 C 226.714 72.891 226.740 72.000 226.562 72.000 C 225.872 72.000 209.950 88.812 205.253 94.500 C 202.528 97.800 200.494 101.063 200.732 101.750 C 200.971 102.438 200.503 103.000 199.691 103.000 C 198.879 103.000 195.096 106.713 191.283 111.250 C 179.733 124.995 155.751 157.084 156.482 157.815 C 156.858 158.192 156.704 158.500 156.137 158.500 C 155.571 158.500 148.935 167.050 141.389 177.500 C 126.410 198.246 99.839 233.849 93.999 241.000 C 87.907 248.459 58.104 288.448 46.301 305.000 C 23.038 337.622 17.500 348.390 17.500 361.000 C 17.500 366.943 18.010 369.538 19.958 373.500 C 23.725 381.162 34.222 390.885 43.980 395.750 C 52.118 399.808 52.258 399.838 54.266 397.966 C 55.387 396.923 56.754 396.348 57.306 396.689 C 57.888 397.049 57.997 396.804 57.565 396.106 C 56.992 395.178 56.442 395.200 55.161 396.201 C 53.675 397.363 53.645 397.316 54.872 395.750 C 55.627 394.788 56.619 394.000 57.077 394.000 C 57.535 394.000 59.034 392.875 60.409 391.500 C 61.784 390.125 62.592 388.998 62.205 388.995 C 61.817 388.993 63.213 387.418 65.306 385.495 C 67.399 383.573 68.792 382.000 68.401 382.000 C 68.010 382.000 68.505 381.100 69.500 380.000 C 70.495 378.900 71.990 378.000 72.822 378.000 C 73.653 378.000 74.037 377.704 73.675 377.342 C 73.313 376.980 73.519 376.080 74.131 375.342 C 74.744 374.604 74.965 373.944 74.622 373.875 C 74.280 373.806 74.406 373.694 74.903 373.625 C 76.115 373.457 82.000 367.249 82.000 366.138 C 82.000 365.653 84.163 363.025 86.806 360.297 C 89.449 357.569 91.442 354.827 91.235 354.205 C 91.028 353.583 91.970 352.795 93.328 352.454 C 94.883 352.064 95.707 351.216 95.552 350.167 C 95.415 349.237 96.552 347.740 98.126 346.781 C 99.677 345.836 101.226 343.948 101.568 342.586 C 101.910 341.224 102.934 339.913 103.845 339.671 C 105.366 339.268 105.367 339.223 103.857 339.116 C 102.953 339.052 101.946 338.302 101.618 337.448 C 101.291 336.594 101.400 336.129 101.861 336.414 C 102.322 336.699 103.328 335.710 104.098 334.216 C 104.867 332.722 105.759 331.275 106.079 331.000 C 106.400 330.725 110.055 325.775 114.203 320.000 C 122.220 308.837 133.571 293.466 137.464 288.500 C 147.894 275.198 171.930 242.730 181.514 229.000 C 186.312 222.125 191.733 214.475 193.559 212.000 C 195.386 209.525 203.334 198.725 211.222 188.000 C 241.539 146.781 248.504 137.762 248.815 139.325 C 248.988 140.197 248.476 146.893 247.677 154.205 C 246.132 168.346 245.984 173.000 247.078 173.000 C 247.833 173.000 250.460 170.068 249.872 169.882 C 249.668 169.816 249.829 169.814 250.232 169.875 C 250.634 169.937 252.771 167.628 254.980 164.744 C 257.190 161.860 260.001 158.488 261.228 157.250 C 262.454 156.013 262.905 155.000 262.229 155.000 C 261.553 155.000 261.000 154.523 261.000 153.941 C 261.000 153.359 261.478 153.178 262.063 153.539 C 262.648 153.900 264.045 153.364 265.168 152.348 C 266.558 151.090 266.777 150.473 265.855 150.416 C 265.110 150.370 265.738 149.819 267.250 149.191 C 268.763 148.563 270.056 147.588 270.125 147.025 C 270.194 146.461 270.306 145.513 270.375 144.917 C 270.444 144.321 270.773 144.107 271.107 144.441 C 271.442 144.775 272.284 144.362 272.980 143.524 C 273.676 142.686 274.823 142.000 275.529 142.000 C 276.354 142.000 276.610 141.225 276.246 139.831 C 275.790 138.089 276.016 137.792 277.391 138.320 C 278.408 138.710 278.856 138.575 278.493 137.989 C 278.157 137.445 278.366 137.000 278.957 137.000 C 279.549 137.000 280.783 135.425 281.701 133.500 C 282.619 131.575 283.737 129.944 284.185 129.875 C 284.633 129.806 285.563 129.655 286.250 129.539 C 286.938 129.422 286.600 128.916 285.500 128.414 L 283.500 127.500 285.500 127.496 C 286.600 127.494 287.517 126.819 287.537 125.996 C 287.576 124.439 289.916 119.906 289.970 121.285 C 290.027 122.768 294.000 119.930 294.000 118.406 C 294.000 117.568 294.401 117.130 294.891 117.432 C 295.825 118.010 299.607 113.048 299.222 111.750 C 298.838 110.454 300.811 110.936 301.267 112.250 C 301.505 112.938 302.028 112.038 302.429 110.250 C 302.831 108.463 303.514 107.000 303.948 107.000 C 305.431 107.000 305.103 89.059 303.440 79.272 C 301.119 65.607 297.610 54.052 292.502 43.250 L 288.127 34.000 281.313 34.048 C 277.566 34.074 272.511 34.792 270.079 35.643 M 222.038 80.272 C 220.367 81.981 219.000 83.692 219.000 84.073 C 219.000 84.455 218.055 85.014 216.899 85.316 C 215.743 85.619 215.095 86.345 215.458 86.933 C 215.822 87.521 215.392 88.000 214.500 88.000 C 213.610 88.000 213.146 88.427 213.469 88.950 C 213.792 89.472 213.256 90.035 212.278 90.200 C 211.165 90.388 212.411 88.535 215.607 85.250 C 218.416 82.363 220.558 80.000 220.367 80.000 C 220.176 80.000 220.770 79.123 221.688 78.051 C 222.606 76.979 223.744 76.342 224.216 76.634 C 224.689 76.926 223.709 78.563 222.038 80.272 M 211.500 93.000 C 211.840 93.550 211.416 94.000 210.559 94.000 C 209.702 94.000 209.000 94.675 209.000 95.500 C 209.000 96.373 208.092 97.000 206.826 97.000 L 204.651 97.000 207.000 94.500 C 209.549 91.787 210.545 91.455 211.500 93.000 M 187.445 119.855 C 185.720 120.175 185.783 119.918 188.000 117.575 C 190.426 115.012 190.483 115.001 189.945 117.214 C 189.640 118.468 188.515 119.656 187.445 119.855 "/></g>
<g fill="#C44E1CFE" stroke="#C44E1CFE">
<path d="M 310.666 274.888 C 311.012 279.211 310.808 281.000 309.969 281.000 C 309.199 281.000 309.006 281.889 309.420 283.538 C 309.808 285.082 309.389 287.486 308.351 289.673 C 306.651 293.254 306.639 293.260 305.602 290.885 L 304.560 288.500 304.457 291.000 C 304.400 292.375 304.703 293.971 305.130 294.546 C 306.005 295.725 305.683 300.650 304.665 301.668 C 304.299 302.034 303.993 301.471 303.985 300.417 C 303.972 298.813 303.811 298.745 303.000 300.000 C 302.138 301.333 302.016 301.333 301.897 300.000 C 301.824 299.175 301.447 299.850 301.061 301.500 C 300.627 303.351 300.868 305.543 301.691 307.223 C 302.830 309.551 302.816 309.867 301.591 309.397 C 300.538 308.992 300.235 309.534 300.445 311.448 C 300.602 312.878 300.341 314.289 299.865 314.583 C 299.389 314.877 299.007 315.654 299.015 316.309 C 299.025 317.025 299.418 316.901 300.000 316.000 C 300.533 315.175 300.976 314.973 300.985 315.550 C 300.993 316.128 300.593 317.028 300.096 317.550 C 299.599 318.073 298.457 337.850 297.557 361.500 C 294.704 436.506 290.802 479.319 283.839 512.000 C 281.392 523.486 275.095 543.428 274.197 542.531 C 273.842 542.176 273.540 542.914 273.526 544.172 C 273.458 550.150 252.444 547.693 236.815 539.879 C 231.125 537.034 227.017 532.805 225.134 527.853 C 224.137 525.230 222.817 515.486 222.609 509.215 C 222.549 507.408 221.825 505.503 221.000 504.980 C 219.025 503.730 218.000 503.757 218.000 505.059 C 218.000 505.641 218.450 505.840 219.000 505.500 C 219.550 505.160 220.000 505.851 220.000 507.035 C 220.000 508.315 219.223 509.390 218.085 509.688 C 215.043 510.484 214.488 516.623 216.596 526.147 C 217.466 530.077 217.562 530.338 219.960 535.314 C 221.808 539.148 223.823 541.169 229.854 545.239 C 240.935 552.716 248.826 555.180 263.598 555.773 C 278.410 556.367 286.961 555.003 296.743 550.483 C 305.940 546.234 315.862 537.008 319.754 529.087 L 322.500 523.500 322.784 470.750 C 322.940 441.738 323.165 417.985 323.284 417.967 C 323.403 417.949 332.035 417.518 342.466 417.008 C 365.884 415.865 370.196 414.554 379.660 405.701 C 388.863 397.092 393.245 387.906 393.813 376.029 C 394.067 370.718 393.753 365.705 393.019 363.368 C 391.562 358.725 385.941 350.005 384.403 350.002 C 383.800 350.001 382.268 349.100 381.000 348.000 C 379.732 346.900 378.313 345.944 377.847 345.875 C 376.878 345.732 375.344 345.362 374.250 345.007 C 373.838 344.873 373.115 344.832 372.645 344.917 C 372.174 345.001 371.202 344.583 370.485 343.987 C 369.504 343.173 368.788 343.465 367.597 345.165 C 366.420 346.846 364.924 347.468 361.757 347.595 C 358.286 347.733 357.560 348.089 357.826 349.522 C 358.104 351.019 357.657 351.177 354.826 350.589 C 352.997 350.209 342.838 349.937 332.250 349.984 L 313.000 350.070 312.987 340.785 C 312.951 315.699 311.665 270.400 310.967 269.638 C 310.532 269.164 310.397 271.527 310.666 274.888 "/></g>
<g fill="#B4B4B4FE" stroke="#B4B4B4FE">
<path d="M 422.247 380.250 C 424.784 385.470 425.668 396.659 424.115 403.899 C 421.636 415.460 413.343 427.318 404.292 432.244 C 396.613 436.424 389.889 437.695 371.250 438.492 L 354.000 439.229 354.000 488.904 C 354.000 544.222 353.815 546.118 347.471 555.718 C 343.899 561.122 336.279 567.797 330.057 570.971 C 320.787 575.700 312.036 577.491 298.500 577.431 C 287.010 577.380 284.571 577.054 277.500 574.621 C 267.867 571.307 264.336 569.317 247.516 557.714 C 240.374 552.788 233.849 548.535 233.016 548.262 C 232.182 547.990 234.650 549.902 238.500 552.511 C 242.350 555.121 246.850 558.488 248.500 559.995 C 253.027 564.128 285.766 586.393 291.691 589.368 C 301.250 594.167 311.382 596.405 323.500 596.394 C 347.832 596.371 367.335 586.296 375.561 569.500 L 378.500 563.500 378.792 510.750 L 379.083 458.000 387.292 457.976 C 404.585 457.926 418.715 456.277 424.486 453.635 C 430.516 450.875 438.732 443.699 443.056 437.417 C 452.673 423.445 452.285 401.368 442.256 391.855 C 438.898 388.670 421.576 376.000 420.579 376.000 C 420.361 376.000 421.111 377.913 422.247 380.250 "/></g>
<g fill="#802C0AFE" stroke="#802C0AFE">
<path d="M 312.000 39.547 C 312.000 39.870 313.075 41.566 314.390 43.317 C 318.347 48.588 323.012 58.751 325.195 66.856 C 327.748 76.336 328.083 95.488 326.248 127.000 C 323.874 167.758 322.868 199.660 322.286 252.615 L 321.703 305.729 325.101 306.403 C 334.404 308.245 339.061 308.990 345.093 309.598 L 351.685 310.264 352.336 274.882 C 353.283 223.428 355.031 170.348 356.514 148.000 C 358.208 122.476 357.774 96.662 355.505 88.000 C 352.838 77.815 346.751 66.160 341.004 60.236 C 336.433 55.523 312.000 38.095 312.000 39.547 "/></g>
<g fill="#2A0E02FE" stroke="#2A0E02FE">
<path d="M 395.417 362.675 C 394.710 362.923 394.492 365.792 394.790 370.942 C 395.823 388.771 386.025 405.896 370.394 413.583 C 364.112 416.672 356.821 417.789 337.668 418.593 L 322.837 419.216 323.535 465.858 C 324.299 516.897 324.005 521.128 319.007 530.931 C 315.551 537.710 308.383 544.878 301.000 548.939 C 295.396 552.021 294.830 552.776 299.435 551.025 C 301.572 550.212 302.003 550.337 302.015 551.775 C 302.027 553.126 302.217 553.206 302.892 552.141 C 303.517 551.154 304.880 550.973 307.871 551.478 C 311.593 552.107 314.336 553.763 312.309 554.158 C 311.864 554.244 312.175 554.194 313.000 554.046 C 316.805 553.362 331.055 554.424 344.435 556.388 C 346.028 556.621 345.736 557.307 342.437 561.081 C 339.119 564.876 339.033 565.079 341.827 562.524 C 346.644 558.119 350.700 551.248 352.450 544.530 C 353.750 539.541 354.000 530.533 354.000 488.790 L 354.000 439.000 356.250 438.975 C 367.695 438.847 387.518 437.669 391.719 436.867 C 394.590 436.319 399.640 434.521 402.940 432.872 C 420.390 424.152 429.744 398.779 421.982 381.224 C 419.713 376.093 415.204 370.756 413.847 371.595 C 413.381 371.882 413.000 371.701 413.000 371.192 C 413.000 370.683 411.142 369.036 408.871 367.533 C 405.537 365.327 404.556 365.060 403.776 366.150 C 403.044 367.175 402.946 367.081 403.370 365.760 C 403.785 364.471 403.227 363.867 401.215 363.427 C 399.722 363.100 398.050 362.712 397.500 362.564 C 396.950 362.416 396.013 362.466 395.417 362.675 "/></g>
<g fill="#B4B4B4FE" stroke="#B4B4B4FE">
<path d="M 339.000 57.293 C 339.000 57.615 340.878 60.043 343.174 62.689 C 347.941 68.185 352.965 78.515 355.482 88.000 C 357.781 96.659 358.218 122.383 356.502 148.000 C 354.418 179.115 352.723 242.603 352.607 293.898 L 352.500 341.297 358.000 341.590 C 366.333 342.033 372.570 342.886 375.426 343.972 L 378.000 344.950 377.991 306.725 C 377.981 263.713 379.236 215.516 381.653 166.120 C 383.953 119.132 383.040 108.220 375.494 92.500 C 371.000 83.135 363.616 75.138 352.668 67.777 C 347.691 64.430 342.580 60.571 341.310 59.200 C 340.039 57.830 339.000 56.971 339.000 57.293 "/></g>
<g fill="#802C0AFE" stroke="#802C0AFE">
<path d="M 226.501 182.321 C 211.668 202.394 199.232 219.636 188.145 235.500 C 182.379 243.750 170.740 259.663 162.282 270.861 C 153.823 282.060 148.034 290.332 149.417 289.244 C 150.800 288.156 151.647 286.981 151.299 286.633 C 150.951 286.285 151.192 286.000 151.833 286.000 C 152.475 286.000 153.069 286.338 153.152 286.750 C 153.236 287.163 153.370 286.825 153.449 286.000 C 153.528 285.175 154.089 284.597 154.695 284.716 C 155.300 284.835 160.904 285.435 167.148 286.050 C 182.188 287.530 185.322 288.012 184.602 288.731 C 183.704 289.630 190.448 289.459 191.926 288.546 C 192.917 287.933 192.964 288.199 192.135 289.748 C 190.551 292.708 191.984 293.290 194.133 290.558 C 196.164 287.976 196.580 286.523 195.011 287.493 C 194.434 287.850 194.284 287.424 194.651 286.468 C 195.101 285.295 195.487 285.170 196.016 286.026 C 196.484 286.783 199.334 283.614 203.811 277.360 C 207.692 271.937 214.947 261.875 219.933 255.000 C 231.893 238.510 233.000 236.145 233.000 227.085 C 233.000 219.378 234.670 190.775 235.880 177.750 C 236.276 173.488 236.353 170.032 236.050 170.071 C 235.748 170.110 231.450 175.622 226.501 182.321 "/></g>
<g fill="#2A0E02FE" stroke="#2A0E02FE">
<path d="M 45.627 407.913 C 49.492 411.274 70.431 424.775 75.348 427.076 C 88.148 433.065 110.871 436.994 132.801 437.009 C 144.829 437.017 219.257 434.929 219.716 434.571 C 219.834 434.478 220.243 429.962 220.625 424.536 L 221.318 414.669 174.909 415.585 C 84.310 417.372 72.923 416.853 53.127 410.036 C 48.521 408.451 45.146 407.495 45.627 407.913 "/></g>
<g fill="#B4B4B4FE" stroke="#B4B4B4FE">
<path d="M 40.956 405.802 C 42.306 406.736 45.681 409.333 48.456 411.573 C 56.257 417.873 87.726 439.340 95.096 443.390 C 103.012 447.740 113.384 451.375 124.390 453.658 C 130.792 454.986 138.712 455.374 162.000 455.498 C 178.225 455.584 197.439 455.483 204.697 455.273 L 217.894 454.890 218.401 450.695 C 218.680 448.388 219.166 443.841 219.481 440.591 L 220.055 434.681 200.277 435.349 C 144.801 437.223 120.789 437.288 108.803 435.596 C 83.942 432.088 76.034 428.950 54.568 414.081 C 46.564 408.536 39.674 404.024 39.257 404.052 C 38.841 404.081 39.605 404.869 40.956 405.802 "/></g>
<g fill="#B4B4B4FE" stroke="#B4B4B4FE">
<path d="M 228.540 242.722 C 224.560 248.977 207.724 272.103 184.840 302.750 L 165.986 328.000 185.743 327.933 L 205.500 327.867 217.390 311.873 C 226.307 299.879 229.473 294.831 230.049 291.690 C 230.472 289.385 230.971 276.378 231.159 262.785 L 231.500 238.071 228.540 242.722 "/></g>
<g fill="#5A1E06FE" stroke="#5A1E06FE">
<path d="M 152.378 285.713 C 151.410 286.421 150.894 287.000 151.232 287.000 C 151.570 287.000 150.643 288.279 149.173 289.842 C 144.457 294.857 121.509 326.063 121.251 327.812 C 121.114 328.740 121.437 328.488 121.969 327.250 C 123.031 324.777 124.527 324.490 128.492 325.997 C 130.235 326.660 130.908 326.660 130.498 325.997 C 130.159 325.449 130.535 325.000 131.334 325.000 C 132.133 325.000 133.037 325.653 133.343 326.452 C 133.781 327.593 132.682 327.980 128.200 328.263 C 122.661 328.612 122.702 328.627 129.625 328.811 C 133.544 328.915 138.269 328.690 140.125 328.310 C 143.383 327.644 143.413 327.596 141.000 326.910 C 138.652 326.242 138.692 326.193 141.667 326.100 C 143.408 326.045 145.003 326.509 145.210 327.131 C 145.683 328.549 164.880 328.345 166.616 326.903 C 167.272 326.360 171.026 321.321 174.960 315.707 C 178.893 310.093 184.376 302.651 187.142 299.170 C 189.909 295.688 191.925 292.592 191.622 292.288 C 191.318 291.985 191.549 290.842 192.135 289.748 C 192.964 288.199 192.917 287.933 191.926 288.546 C 191.225 288.979 189.155 289.296 187.326 289.250 C 185.497 289.204 184.338 289.098 184.750 289.013 C 186.988 288.555 180.716 287.123 176.000 287.016 C 172.975 286.947 166.818 286.336 162.319 285.659 C 155.704 284.662 153.800 284.673 152.378 285.713 "/></g>
<g fill="#000000FE" stroke="#000000FE">
<path d="M 298.191 551.422 C 296.372 552.042 295.233 552.900 295.661 553.328 C 296.089 553.756 295.591 553.780 294.555 553.383 C 293.144 552.841 292.877 552.992 293.490 553.985 C 293.976 554.770 293.918 555.068 293.349 554.716 C 292.821 554.390 290.614 554.535 288.445 555.039 C 274.453 558.288 259.549 558.188 247.168 554.761 C 242.919 553.585 243.333 554.004 253.332 561.000 C 272.864 574.667 280.074 577.183 299.500 577.109 C 318.342 577.038 330.060 572.809 341.000 562.132 C 345.591 557.651 346.175 556.710 344.535 556.439 C 331.149 554.225 315.517 553.235 312.500 554.410 C 311.094 554.958 310.903 554.901 311.857 554.219 C 313.598 552.975 312.373 552.243 307.155 551.409 C 303.985 550.902 302.983 551.071 302.930 552.122 C 302.880 553.106 302.665 553.041 302.180 551.897 C 301.607 550.546 300.981 550.472 298.191 551.422 "/></g>
<g fill="#5A1E06FE" stroke="#5A1E06FE">
<path d="M 322.701 322.673 L 322.905 339.500 329.203 340.133 C 332.666 340.481 339.213 340.819 343.750 340.883 L 352.000 341.000 352.000 325.645 L 352.000 310.290 345.250 309.612 C 339.080 308.991 333.527 308.106 325.498 306.461 L 322.496 305.846 322.701 322.673 "/></g>
<g fill="#802C0AFE" stroke="#802C0AFE">
<path d="M 190.000 414.743 C 216.538 414.987 221.024 415.242 221.167 416.514 C 221.258 417.331 221.371 417.213 221.417 416.250 C 221.494 414.619 219.369 414.499 190.250 414.478 L 158.999 414.457 190.000 414.743 "/></g>
<g fill="#5A1E06FE" stroke="#5A1E06FE">
<path d="M 391.287 357.832 C 393.259 362.243 393.842 362.783 396.647 362.791 C 401.597 362.805 403.970 363.868 403.373 365.801 C 402.898 367.342 402.948 367.348 403.906 365.871 C 404.766 364.546 404.266 363.770 401.232 361.718 C 399.179 360.330 395.604 357.774 393.287 356.038 L 389.074 352.881 391.287 357.832 "/></g>
<g fill="#802C0AFE" stroke="#802C0AFE">
<path d="M 342.000 417.000 L 329.500 417.595 341.000 417.710 C 347.325 417.773 354.750 417.474 357.500 417.046 C 362.109 416.328 362.187 416.273 358.500 416.336 C 356.300 416.374 348.875 416.673 342.000 417.000 "/></g>
<g fill="#E4E4E4FE" stroke="#E4E4E4FE">
<path d="M 231.072 274.194 C 230.990 280.962 230.724 288.300 230.480 290.500 L 230.038 294.500 230.958 291.000 C 231.932 287.295 232.574 263.241 231.722 262.388 C 231.446 262.113 231.154 267.425 231.072 274.194 "/></g>
<g fill="#802C0AFE" stroke="#802C0AFE">
<path d="M 322.000 340.111 C 322.000 340.967 345.404 342.360 349.500 341.748 C 351.150 341.501 348.900 341.204 344.500 341.088 C 340.100 340.972 333.238 340.549 329.250 340.149 C 325.263 339.750 322.000 339.732 322.000 340.111 "/></g>
<g fill="#2A0E02FE" stroke="#2A0E02FE">
<path d="M 122.667 325.667 C 120.981 327.352 122.452 328.000 127.969 328.000 C 132.863 328.000 133.834 327.730 133.362 326.500 C 133.045 325.675 132.133 325.000 131.334 325.000 C 130.535 325.000 130.159 325.449 130.498 325.997 C 130.908 326.660 130.235 326.660 128.492 325.997 C 125.438 324.836 123.602 324.732 122.667 325.667 "/></g>
<g fill="#B4B4B4FE" stroke="#B4B4B4FE">
<path d="M 397.000 358.247 C 399.216 360.454 419.262 374.233 418.526 373.043 C 418.180 372.483 414.208 369.425 409.699 366.246 C 399.699 359.197 394.954 356.209 397.000 358.247 "/></g>
<g fill="#FE9A60FE" stroke="#FE9A60FE">
<path d="M 221.688 78.051 C 220.770 79.123 220.176 80.000 220.367 80.000 C 220.558 80.000 218.416 82.363 215.607 85.250 C 212.411 88.535 211.165 90.388 212.278 90.200 C 213.256 90.035 213.792 89.472 213.469 88.950 C 213.146 88.427 213.610 88.000 214.500 88.000 C 215.392 88.000 215.822 87.521 215.458 86.933 C 215.095 86.345 215.743 85.619 216.899 85.316 C 218.055 85.014 219.000 84.455 219.000 84.073 C 219.000 83.692 220.367 81.981 222.038 80.272 C 223.709 78.563 224.689 76.926 224.216 76.634 C 223.744 76.342 222.606 76.979 221.688 78.051 "/></g>
<g fill="#802C0AFE" stroke="#802C0AFE">
<path d="M 380.500 404.576 C 375.241 409.893 372.176 412.125 368.174 413.551 C 365.245 414.595 363.262 415.587 363.768 415.756 C 366.101 416.534 374.776 411.421 380.580 405.848 C 384.100 402.467 387.098 399.206 387.240 398.601 C 387.383 397.995 384.350 400.684 380.500 404.576 "/></g>
<g fill="#802C0AFE" stroke="#802C0AFE">
<path d="M 139.435 301.092 C 135.549 306.266 131.949 311.275 131.435 312.222 C 130.921 313.170 133.875 309.582 138.000 304.251 C 142.125 298.919 145.725 293.910 146.000 293.121 C 146.275 292.331 143.321 295.918 139.435 301.092 "/></g>
<g fill="#E4E4E4FE" stroke="#E4E4E4FE">
<path d="M 232.051 247.750 C 231.858 252.838 231.680 257.563 231.656 258.250 C 231.631 258.938 231.945 258.373 232.352 256.997 C 232.760 255.620 232.938 250.895 232.748 246.497 L 232.402 238.500 232.051 247.750 "/></g>
<g fill="#FE9A60FE" stroke="#FE9A60FE">
<path d="M 207.000 94.500 L 204.651 97.000 206.826 97.000 C 208.092 97.000 209.000 96.373 209.000 95.500 C 209.000 94.675 209.702 94.000 210.559 94.000 C 211.416 94.000 211.840 93.550 211.500 93.000 C 210.545 91.455 209.549 91.787 207.000 94.500 "/></g>
<g fill="#B4B4B4FE" stroke="#B4B4B4FE">
<path d="M 317.754 42.663 C 318.994 43.673 322.272 45.850 325.039 47.500 C 329.798 50.338 329.758 50.280 324.285 46.424 C 317.844 41.886 314.286 39.837 317.754 42.663 "/></g>
<g fill="#FE983CFE" stroke="#FE983CFE">
<path d="M 220.500 65.464 L 214.500 71.549 220.500 65.464 L 226.500 59.378 220.500 65.464 "/></g>
<g fill="#E4E4E4FE" stroke="#E4E4E4FE">
<path d="M 357.500 342.025 C 359.425 342.828 368.769 343.378 367.917 342.638 C 367.688 342.439 364.800 342.032 361.500 341.733 C 357.877 341.405 356.292 341.521 357.500 342.025 "/></g>
<g fill="#E4E4E4FE" stroke="#E4E4E4FE">
<path d="M 228.000 56.961 L 222.500 62.551 228.000 56.961 L 233.500 51.370 228.000 56.961 "/></g>
<g fill="#E4E4E4FE" stroke="#E4E4E4FE">
<path d="M 216.083 485.500 C 215.891 488.800 216.046 490.764 216.430 489.864 C 216.813 488.965 216.970 486.265 216.780 483.864 C 216.468 479.927 216.400 480.087 216.083 485.500 "/></g>
<g fill="#FE9A60FE" stroke="#FE9A60FE">
<path d="M 188.000 117.575 C 185.783 119.918 185.720 120.175 187.445 119.855 C 188.515 119.656 189.640 118.468 189.945 117.214 C 190.483 115.001 190.426 115.012 188.000 117.575 "/></g>
<g fill="#802C0AFE" stroke="#802C0AFE">
<path d="M 311.500 540.449 L 307.500 544.559 311.500 540.449 L 315.500 536.338 311.500 540.449 "/></g>
<g fill="#E4E4E4FE" stroke="#E4E4E4FE">
<path d="M 369.436 342.897 C 369.688 343.305 371.826 344.058 374.186 344.569 C 379.220 345.661 378.192 344.677 372.739 343.185 C 370.670 342.618 369.184 342.489 369.436 342.897 "/></g>
<g fill="#FE983CFE" stroke="#FE983CFE">
<path d="M 243.000 43.942 L 239.500 47.562 243.000 43.942 L 246.500 40.323 243.000 43.942 "/></g>
<g fill="#C44E1CFE" stroke="#C44E1CFE">
<path d="M 357.750 343.491 C 359.538 344.268 361.000 344.523 361.000 344.059 C 361.000 343.042 358.471 341.985 356.168 342.039 C 355.251 342.061 355.963 342.714 357.750 343.491 "/></g>
<g fill="#2A0E02FE" stroke="#2A0E02FE">
<path d="M 139.083 326.359 C 140.278 327.389 145.000 327.916 145.000 327.019 C 145.000 326.459 143.575 326.000 141.833 326.000 C 140.092 326.000 138.854 326.162 139.083 326.359 "/></g>
</svg>
