<?xml version="1.0" encoding="utf-8"?>
<!DOCTYPE svg PUBLIC "-//W3C//DTD SVG 20010904//EN" "http://www.w3.org/TR/2001/REC-SVG-20010904/DTD/svg10.dtd">
<svg version="1.0" xmlns="http://www.w3.org/2000/svg" width="473pt" height="602pt" viewBox="0 0 473 602" style="" preserveAspectRatio="xMidYMid meet">
<g fill="#A85AB0FE" stroke="#A85AB0FE">
<path d="M 270.721 30.772 L 256.941 31.057 257.178 34.578 C 257.309 36.515 258.066 38.640 258.861 39.300 C 260.081 40.312 260.087 40.510 258.904 40.561 C 258.132 40.595 256.966 40.226 256.314 39.742 C 255.625 39.230 254.368 39.253 253.314 39.795 C 252.316 40.309 250.937 40.528 250.249 40.281 C 249.449 39.994 249.218 40.404 249.607 41.419 C 250.681 44.217 249.137 48.000 246.922 48.000 C 245.750 48.000 245.159 48.447 245.532 49.051 C 245.889 49.629 245.128 51.162 243.841 52.457 C 240.204 56.116 239.377 57.360 238.644 60.284 C 238.269 61.778 237.490 63.000 236.914 63.000 C 235.947 63.000 232.004 66.842 227.750 71.930 C 226.778 73.093 225.993 75.685 225.985 77.761 C 225.974 80.281 225.685 81.051 225.096 80.122 C 224.075 78.508 222.000 79.471 222.000 81.559 C 222.000 82.352 221.363 83.000 220.584 83.000 C 219.805 83.000 218.582 84.322 217.867 85.938 C 217.152 87.554 215.539 89.345 214.283 89.917 C 213.027 90.489 212.000 91.801 212.000 92.833 C 212.000 93.864 210.868 95.930 209.484 97.423 C 208.100 98.916 207.226 100.557 207.543 101.069 C 207.859 101.581 207.416 102.000 206.559 102.000 C 205.702 102.000 205.000 102.420 205.000 102.933 C 205.000 103.446 204.199 104.119 203.220 104.430 C 202.241 104.741 200.779 106.909 199.970 109.248 C 199.162 111.586 198.146 113.371 197.714 113.214 C 197.282 113.057 196.204 113.653 195.319 114.538 C 194.016 115.842 193.550 115.896 192.870 114.824 C 192.237 113.825 192.027 113.807 192.015 114.750 C 192.007 115.438 190.848 116.000 189.441 116.000 C 187.962 116.000 187.147 115.571 187.510 114.984 C 187.856 114.425 188.557 114.226 189.069 114.543 C 189.581 114.859 190.000 114.641 190.000 114.059 C 190.000 112.446 188.552 112.786 186.000 115.000 C 184.126 116.625 182.176 117.017 175.597 117.088 C 171.144 117.137 165.250 117.374 162.500 117.615 C 159.750 117.856 155.475 118.165 153.000 118.300 C 150.525 118.436 148.475 118.986 148.444 119.523 C 148.307 121.925 146.701 126.000 145.892 126.000 C 145.401 126.000 145.000 126.702 145.000 127.559 C 145.000 128.416 144.550 128.840 144.000 128.500 C 143.450 128.160 143.000 128.385 143.000 129.000 C 143.000 129.615 142.491 129.804 141.869 129.419 C 141.045 128.910 140.923 130.723 141.417 136.110 C 142.028 142.771 141.844 144.017 139.548 148.745 C 138.146 151.630 137.000 155.280 137.000 156.856 C 137.000 162.434 135.713 169.000 134.614 169.031 C 131.802 169.111 129.500 174.489 129.464 181.063 C 129.432 186.795 129.083 187.998 126.704 190.563 C 125.207 192.178 124.323 193.507 124.741 193.515 C 125.158 193.524 126.111 193.918 126.857 194.391 C 127.880 195.038 128.065 194.780 127.609 193.342 C 127.105 191.754 127.464 191.468 129.751 191.636 C 131.263 191.747 132.500 191.927 132.500 192.037 C 132.500 192.147 132.163 192.184 131.750 192.118 C 130.454 191.914 130.933 193.230 132.596 194.447 C 134.331 195.715 134.358 195.671 126.255 204.831 C 124.470 206.849 123.003 209.175 122.996 210.000 C 122.989 210.825 120.286 214.290 116.991 217.701 C 112.858 221.979 111.000 224.692 111.000 226.451 C 111.000 228.333 110.477 229.000 109.000 229.000 C 107.749 229.000 107.000 229.667 107.000 230.779 C 107.000 231.758 106.124 233.190 105.054 233.961 C 103.983 234.733 103.335 235.732 103.613 236.182 C 103.891 236.632 103.637 237.000 103.050 237.000 C 101.057 237.000 96.000 242.704 96.000 244.952 C 96.000 246.346 95.248 247.384 94.000 247.710 C 92.900 247.998 92.000 248.581 92.000 249.006 C 92.000 249.431 90.435 251.516 88.523 253.640 C 86.611 255.763 85.036 258.251 85.023 259.168 C 84.980 262.263 83.876 263.890 82.244 263.263 C 81.062 262.810 80.818 263.084 81.295 264.326 C 81.648 265.247 81.614 266.000 81.218 266.000 C 80.823 266.000 78.533 267.797 76.131 269.993 C 72.883 272.961 71.901 274.515 72.303 276.050 C 72.746 277.744 72.588 277.903 71.421 276.935 C 70.437 276.118 70.000 276.093 70.000 276.855 C 70.000 277.459 71.041 278.636 72.314 279.470 C 77.668 282.978 93.773 278.574 101.384 271.520 C 102.880 270.134 104.445 269.000 104.863 269.000 C 105.281 269.000 106.495 268.195 107.561 267.210 C 110.428 264.563 128.574 255.474 137.621 252.153 C 159.819 244.004 189.364 241.426 213.639 245.519 C 222.250 246.971 238.805 251.405 243.500 253.516 C 246.250 254.753 249.513 256.073 250.750 256.450 C 251.988 256.827 253.000 257.540 253.000 258.036 C 253.000 258.532 253.753 258.648 254.674 258.295 C 255.942 257.808 256.192 258.058 255.705 259.326 C 255.352 260.247 255.499 261.000 256.031 261.000 C 256.564 261.000 257.000 262.308 257.000 263.906 C 257.000 266.320 256.661 266.724 255.000 266.290 C 253.900 266.002 253.000 265.444 253.000 265.050 C 253.000 264.656 252.438 264.329 251.750 264.324 C 251.063 264.319 249.375 263.978 248.000 263.566 C 246.625 263.155 251.350 265.753 258.500 269.339 C 296.447 288.375 317.000 318.868 317.000 356.130 C 317.000 389.947 299.570 418.202 266.345 438.244 C 257.047 443.853 256.263 444.561 257.050 446.631 C 257.686 448.303 257.410 449.490 255.988 451.195 C 254.931 452.463 254.052 453.093 254.033 452.595 C 254.015 452.097 253.213 452.391 252.250 453.247 C 249.570 455.633 232.197 460.689 220.224 462.568 C 206.777 464.678 189.961 464.084 178.500 461.092 C 161.297 456.602 138.268 442.869 116.886 424.349 C 68.982 382.857 60.898 377.845 49.817 382.763 C 37.552 388.208 29.611 406.252 26.475 435.808 C 24.667 452.841 24.667 456.766 26.478 465.312 C 28.659 475.607 31.635 480.622 41.500 490.633 C 51.102 500.376 59.087 506.031 74.234 513.813 C 106.900 530.596 134.933 537.005 175.874 537.051 C 204.499 537.083 224.833 534.081 254.869 525.390 C 257.129 524.736 257.220 524.895 256.843 528.852 C 256.625 531.133 256.591 533.000 256.767 533.000 C 258.244 533.000 278.136 524.929 284.403 521.786 C 303.905 512.008 333.481 491.105 333.760 486.903 C 334.059 482.407 335.543 477.238 337.034 475.500 C 337.978 474.400 341.185 470.800 344.161 467.500 C 354.302 456.257 367.927 436.973 373.527 425.939 C 382.625 408.014 388.363 364.121 384.978 338.339 C 383.143 324.364 383.071 322.945 384.063 320.333 C 384.551 319.050 385.595 318.000 386.382 318.000 C 387.320 318.000 387.633 317.312 387.290 316.000 C 386.926 314.609 387.259 314.000 388.383 314.000 C 389.333 314.000 390.000 313.175 390.000 312.000 C 390.000 309.546 391.975 309.307 392.063 311.750 C 392.111 313.065 392.356 312.928 393.050 311.199 C 393.665 309.667 393.632 309.109 392.952 309.529 C 392.320 309.920 392.110 309.180 392.400 307.580 C 392.657 306.161 392.447 305.000 391.934 305.000 C 391.420 305.000 391.000 303.482 391.000 301.626 C 391.000 298.584 389.450 292.923 387.131 287.500 C 380.243 271.388 375.060 261.845 373.665 262.707 C 373.129 263.038 373.007 262.797 373.394 262.171 C 375.271 259.134 355.957 235.793 338.231 219.679 C 334.590 216.369 334.059 215.365 334.264 212.179 C 334.394 210.155 334.876 208.225 335.335 207.889 C 336.592 206.968 320.234 196.830 305.000 189.089 C 287.112 180.000 274.879 175.469 257.750 171.585 C 256.065 171.203 255.000 171.379 255.000 172.040 C 255.000 172.633 255.450 172.840 256.000 172.500 C 256.601 172.128 257.000 173.433 257.000 175.772 L 257.000 179.661 250.750 178.352 C 223.106 172.560 194.157 172.262 166.000 177.479 C 157.969 178.967 155.869 179.396 150.089 180.736 L 147.678 181.295 148.482 166.897 C 148.924 158.979 149.558 146.425 149.893 139.000 C 150.397 127.794 150.755 125.537 152.000 125.719 C 168.230 128.094 182.764 129.214 207.477 129.996 C 223.989 130.519 241.835 131.238 247.132 131.594 L 256.765 132.241 256.693 136.120 C 256.654 138.254 256.144 140.052 255.561 140.115 C 250.925 140.616 298.156 143.926 311.500 144.034 C 330.423 144.189 333.624 143.529 334.556 139.285 C 335.537 134.815 335.897 133.968 336.722 134.196 C 338.112 134.580 346.697 130.281 352.670 126.211 C 359.396 121.628 369.349 111.761 372.780 106.275 C 381.216 92.788 385.734 69.935 382.244 58.401 C 380.413 52.348 377.044 47.922 371.801 44.680 C 367.600 42.083 365.525 41.635 350.820 40.149 L 334.500 38.500 334.500 35.773 C 334.500 34.273 334.158 33.023 333.740 32.995 C 332.425 32.909 335.370 32.103 338.500 31.693 C 340.150 31.477 329.575 31.199 315.000 31.076 C 300.425 30.952 287.600 30.770 286.500 30.670 C 285.400 30.569 278.299 30.616 270.721 30.772 M 149.000 135.616 C 149.000 136.931 148.747 136.936 146.930 135.663 C 145.445 134.624 145.233 134.080 146.180 133.742 C 147.955 133.107 149.000 133.801 149.000 135.616 "/></g>
<g fill="#BE5AD8FE" stroke="#BE5AD8FE">
<path d="M 194.667 31.667 C 194.300 32.033 194.000 33.784 194.000 35.557 L 194.000 38.780 173.250 39.436 C 112.816 41.345 101.707 42.568 89.754 48.624 C 79.085 54.031 69.621 66.574 65.126 81.263 C 58.644 102.449 53.314 161.895 54.346 201.500 C 55.263 236.697 57.562 256.392 62.210 268.847 C 64.484 274.939 69.676 281.000 72.623 281.000 C 74.215 281.000 74.164 280.803 72.223 279.443 C 71.000 278.587 70.000 277.407 70.000 276.821 C 70.000 276.120 70.487 276.159 71.421 276.935 C 72.588 277.903 72.746 277.744 72.303 276.050 C 71.901 274.515 72.883 272.961 76.131 269.993 C 78.533 267.797 80.823 266.000 81.218 266.000 C 81.614 266.000 81.648 265.247 81.295 264.326 C 80.818 263.084 81.062 262.810 82.244 263.263 C 83.876 263.890 84.980 262.263 85.023 259.168 C 85.036 258.251 86.611 255.763 88.523 253.640 C 90.435 251.516 92.000 249.431 92.000 249.006 C 92.000 248.581 92.900 247.998 94.000 247.710 C 95.248 247.384 96.000 246.346 96.000 244.952 C 96.000 242.704 101.057 237.000 103.050 237.000 C 103.637 237.000 103.891 236.632 103.613 236.182 C 103.335 235.732 103.983 234.733 105.054 233.961 C 106.124 233.190 107.000 231.758 107.000 230.779 C 107.000 229.667 107.749 229.000 109.000 229.000 C 110.477 229.000 111.000 228.333 111.000 226.451 C 111.000 224.692 112.858 221.979 116.991 217.701 C 120.286 214.290 122.989 210.825 122.996 210.000 C 123.003 209.175 124.470 206.849 126.255 204.831 C 134.358 195.671 134.331 195.715 132.596 194.447 C 130.933 193.230 130.454 191.914 131.750 192.118 C 132.163 192.184 132.500 192.147 132.500 192.037 C 132.500 191.927 131.263 191.747 129.751 191.636 C 127.464 191.468 127.105 191.754 127.609 193.342 C 128.065 194.780 127.880 195.038 126.857 194.391 C 126.111 193.918 125.158 193.524 124.741 193.515 C 124.323 193.507 125.207 192.178 126.704 190.563 C 129.083 187.998 129.432 186.795 129.464 181.063 C 129.500 174.489 131.802 169.111 134.614 169.031 C 135.713 169.000 137.000 162.434 137.000 156.856 C 137.000 155.280 138.146 151.630 139.548 148.745 C 141.844 144.017 142.028 142.771 141.417 136.110 C 140.923 130.723 141.045 128.910 141.869 129.419 C 142.491 129.804 143.000 129.615 143.000 129.000 C 143.000 128.385 143.450 128.160 144.000 128.500 C 144.550 128.840 145.000 128.416 145.000 127.559 C 145.000 126.702 145.401 126.000 145.892 126.000 C 146.701 126.000 148.307 121.925 148.444 119.523 C 148.475 118.986 150.525 118.436 153.000 118.300 C 155.475 118.165 159.750 117.856 162.500 117.615 C 165.250 117.374 171.144 117.137 175.597 117.088 C 182.176 117.017 184.126 116.625 186.000 115.000 C 188.552 112.786 190.000 112.446 190.000 114.059 C 190.000 114.641 189.581 114.859 189.069 114.543 C 188.557 114.226 187.856 114.425 187.510 114.984 C 187.147 115.571 187.962 116.000 189.441 116.000 C 190.848 116.000 192.007 115.438 192.015 114.750 C 192.027 113.807 192.237 113.825 192.870 114.824 C 193.550 115.896 194.016 115.842 195.319 114.538 C 196.204 113.653 197.282 113.057 197.714 113.214 C 198.146 113.371 199.162 111.586 199.970 109.248 C 200.779 106.909 202.241 104.741 203.220 104.430 C 204.199 104.119 205.000 103.446 205.000 102.933 C 205.000 102.420 205.702 102.000 206.559 102.000 C 207.416 102.000 207.859 101.581 207.543 101.069 C 207.226 100.557 208.100 98.916 209.484 97.423 C 210.868 95.930 212.000 93.864 212.000 92.833 C 212.000 91.801 213.027 90.489 214.283 89.917 C 215.539 89.345 217.152 87.554 217.867 85.938 C 218.582 84.322 219.805 83.000 220.584 83.000 C 221.363 83.000 222.000 82.352 222.000 81.559 C 222.000 79.471 224.075 78.508 225.096 80.122 C 225.685 81.051 225.974 80.281 225.985 77.761 C 225.993 75.685 226.778 73.093 227.750 71.930 C 232.004 66.842 235.947 63.000 236.914 63.000 C 237.490 63.000 238.269 61.778 238.644 60.284 C 239.377 57.360 240.204 56.116 243.841 52.457 C 245.128 51.162 245.889 49.629 245.532 49.051 C 245.159 48.447 245.750 48.000 246.922 48.000 C 249.137 48.000 250.681 44.217 249.607 41.419 C 249.218 40.404 249.449 39.994 250.249 40.281 C 250.937 40.528 252.297 40.320 253.271 39.819 C 254.245 39.318 255.595 39.253 256.271 39.676 C 256.947 40.098 258.101 40.535 258.836 40.646 C 259.857 40.801 259.814 40.452 258.658 39.174 C 257.030 37.375 257.000 37.274 257.000 33.500 L 257.000 31.000 226.167 31.000 C 209.208 31.000 195.033 31.300 194.667 31.667 M 68.811 274.600 C 68.921 277.515 68.690 277.988 67.598 277.082 C 65.921 275.689 65.816 271.000 67.463 271.000 C 68.164 271.000 68.733 272.520 68.811 274.600 M 142.478 123.855 C 141.219 125.115 140.992 122.901 142.169 120.836 L 143.500 118.500 143.228 120.938 C 143.079 122.279 142.742 123.592 142.478 123.855 "/></g>
<g fill="#B4B4B4FE" stroke="#B4B4B4FE">
<path d="M 382.497 242.027 C 393.032 251.871 405.000 264.394 405.000 265.574 C 405.000 265.738 407.516 269.613 410.592 274.186 C 430.027 303.082 438.338 335.673 435.788 373.000 C 433.235 410.386 416.650 450.990 390.813 483.111 C 370.189 508.751 347.852 526.684 317.356 542.087 C 260.488 570.808 183.580 575.720 126.000 554.309 C 120.775 552.366 111.100 548.078 104.500 544.780 C 90.098 537.582 67.750 523.213 68.662 521.737 C 69.039 521.128 68.827 520.989 68.155 521.405 C 67.520 521.797 67.000 521.566 67.000 520.892 C 67.000 520.218 66.721 519.945 66.381 520.286 C 66.040 520.626 65.156 520.364 64.416 519.702 C 60.882 516.546 59.830 515.836 59.371 516.296 C 58.132 517.535 104.273 550.176 119.159 558.590 C 126.618 562.806 144.753 570.912 154.500 574.387 C 210.861 594.481 283.006 589.550 340.394 561.681 C 385.156 539.944 419.051 506.275 440.790 461.957 C 476.766 388.611 465.710 315.732 410.658 263.336 C 405.621 258.542 396.375 250.768 390.111 246.060 C 373.906 233.881 373.615 233.727 382.497 242.027 "/></g>
<g fill="#20142CFE" stroke="#20142CFE">
<path d="M 382.250 445.746 C 381.013 445.962 380.000 446.810 380.000 447.631 C 380.000 448.827 379.128 448.992 375.597 448.462 L 371.195 447.802 366.106 455.344 C 359.448 465.210 340.096 485.259 327.500 495.339 C 293.177 522.809 252.814 539.370 206.000 545.194 C 190.488 547.123 153.381 546.814 138.534 544.630 C 114.130 541.042 96.330 535.615 75.988 525.562 C 72.024 523.603 68.492 522.010 68.140 522.021 C 67.788 522.033 73.350 525.894 80.500 530.601 C 114.704 553.119 148.652 564.280 191.004 566.932 C 223.115 568.942 262.834 563.197 294.492 551.963 C 312.344 545.629 339.184 530.604 355.163 518.000 C 373.270 503.718 392.639 482.110 404.019 463.500 C 409.867 453.935 411.333 450.342 409.651 449.696 C 408.939 449.423 407.822 450.055 407.170 451.100 C 405.761 453.356 404.000 453.598 404.000 451.535 C 404.000 449.585 400.861 448.000 397.000 448.000 C 395.278 448.000 393.111 447.613 392.184 447.141 C 389.871 445.961 384.962 445.271 382.250 445.746 M 400.000 450.500 C 400.000 451.333 399.111 452.000 398.000 452.000 C 396.008 452.000 395.399 450.934 396.667 449.667 C 397.885 448.449 400.000 448.978 400.000 450.500 "/></g>
<g fill="#3E2856FE" stroke="#3E2856FE">
<path d="M 356.038 224.065 C 376.657 244.402 392.334 269.920 399.610 294.988 C 407.168 321.031 407.280 353.277 399.909 381.677 C 395.025 400.498 385.624 422.906 376.170 438.261 C 373.881 441.980 372.059 445.355 372.122 445.761 C 372.185 446.168 372.184 446.323 372.118 446.107 C 372.053 445.891 369.689 448.816 366.865 452.607 C 357.437 465.262 353.841 469.419 341.434 482.000 C 333.606 489.938 334.866 488.843 344.885 479.000 C 354.860 469.200 362.599 460.614 365.929 455.651 L 371.195 447.802 375.597 448.462 C 379.074 448.984 380.000 448.819 380.000 447.678 C 380.000 445.743 384.312 445.025 388.830 446.207 C 390.849 446.735 394.527 447.484 397.004 447.873 C 402.312 448.704 404.000 449.594 404.000 451.559 C 404.000 453.601 405.768 453.345 407.170 451.100 C 407.822 450.055 408.924 449.418 409.619 449.684 C 410.618 450.067 410.633 450.900 409.690 453.684 C 407.970 458.766 416.100 443.960 420.293 434.375 C 438.428 392.922 441.207 346.087 427.788 308.057 C 416.391 275.756 393.757 247.799 360.000 224.326 C 347.824 215.860 347.711 215.852 356.038 224.065 "/></g>
<g fill="#B4B4B4FE" stroke="#B4B4B4FE">
<path d="M 415.557 64.492 C 423.731 73.159 425.980 89.201 421.579 107.460 C 416.956 126.642 409.453 138.848 395.440 149.984 C 386.560 157.040 376.319 162.145 366.215 164.552 C 360.063 166.018 355.864 166.198 339.215 165.712 C 328.372 165.396 309.150 164.239 296.500 163.141 C 283.850 162.043 259.325 160.854 242.000 160.499 C 224.675 160.144 206.900 159.440 202.500 158.935 C 190.919 157.604 191.274 157.525 190.810 161.500 L 190.402 165.000 203.451 165.011 C 228.565 165.031 253.484 168.821 274.000 175.738 C 282.048 178.452 286.602 179.375 293.500 179.688 C 298.450 179.912 314.921 181.199 330.103 182.548 C 362.600 185.435 381.488 185.701 390.936 183.405 C 406.293 179.674 423.609 168.516 432.775 156.446 C 439.311 147.841 442.074 142.123 445.566 129.982 C 449.441 116.512 449.894 105.467 446.975 95.635 C 444.165 86.168 440.683 81.948 429.175 74.063 C 424.404 70.794 418.949 66.517 417.054 64.559 C 415.158 62.602 413.305 61.000 412.936 61.000 C 412.566 61.000 413.746 62.571 415.557 64.492 "/></g>
<g fill="#3E2856FE" stroke="#3E2856FE">
<path d="M 162.641 255.609 C 151.595 257.332 134.562 262.963 126.000 267.724 C 122.425 269.712 114.737 274.577 108.915 278.536 C 95.299 287.794 88.988 290.258 78.274 290.500 L 70.048 290.686 84.895 300.731 C 101.396 311.897 104.818 313.059 115.416 311.100 C 123.443 309.616 127.903 307.418 141.000 298.492 C 166.471 281.132 189.606 274.020 220.651 274.006 C 240.903 273.997 253.371 276.512 281.834 286.348 C 284.788 287.368 284.502 286.959 279.334 282.769 C 262.735 269.309 234.046 257.631 211.129 255.005 C 199.139 253.631 173.255 253.953 162.641 255.609 "/></g>
<g fill="#B4B4B4FE" stroke="#B4B4B4FE">
<path d="M 197.000 275.538 C 176.763 278.738 159.756 285.709 141.000 298.492 C 127.903 307.418 123.443 309.616 115.416 311.100 C 106.183 312.807 100.936 311.541 91.743 305.388 C 87.307 302.418 83.500 300.166 83.284 300.383 C 82.213 301.454 116.975 325.838 123.399 328.522 C 128.433 330.626 139.540 330.386 147.240 328.008 C 151.705 326.629 157.059 323.628 164.637 318.258 C 178.225 308.628 185.115 304.926 196.550 301.108 C 225.179 291.550 253.681 290.680 284.353 298.427 C 291.584 300.254 297.668 301.599 297.873 301.418 C 298.078 301.236 295.754 298.255 292.708 294.794 C 286.768 288.044 286.271 287.782 267.201 281.398 C 246.402 274.434 218.639 272.116 197.000 275.538 "/></g>
<g fill="#3E2856FE" stroke="#3E2856FE">
<path d="M 388.490 48.792 C 393.739 59.244 394.326 70.706 390.440 86.859 C 386.077 104.994 378.171 117.787 364.654 128.582 C 360.719 131.725 354.363 135.805 350.528 137.648 C 346.694 139.492 343.994 141.038 344.528 141.083 C 345.063 141.129 344.600 141.284 343.500 141.428 C 342.400 141.572 337.912 142.502 333.526 143.495 C 326.825 145.012 322.516 145.222 306.526 144.806 C 296.062 144.534 290.875 144.633 295.000 145.025 C 308.323 146.292 327.126 146.045 334.387 144.506 C 338.174 143.704 342.899 143.307 344.887 143.625 C 346.874 143.942 349.963 144.253 351.750 144.315 C 353.538 144.378 355.000 144.670 355.000 144.964 C 355.000 145.528 355.859 145.639 365.500 146.319 C 368.800 146.552 371.500 147.161 371.500 147.672 C 371.500 148.694 376.641 148.692 377.664 147.669 C 378.015 147.318 378.801 147.713 379.410 148.546 C 380.079 149.461 382.391 150.147 385.252 150.280 C 390.120 150.506 391.461 152.170 388.736 154.604 C 388.056 155.212 388.543 155.052 389.817 154.251 C 391.257 153.344 391.911 152.211 391.544 151.255 C 391.095 150.084 391.264 149.975 392.254 150.796 C 395.378 153.388 411.182 135.621 416.551 123.481 C 420.324 114.948 423.997 98.613 423.999 90.355 C 424.000 82.196 421.314 72.345 417.609 66.924 C 415.575 63.949 388.643 44.000 386.660 44.000 C 386.342 44.000 387.166 46.157 388.490 48.792 "/></g>
<g fill="#6A2292FE" stroke="#6A2292FE">
<path d="M 334.323 211.987 C 334.167 215.485 334.649 216.426 338.290 219.734 C 355.931 235.763 375.268 259.139 373.394 262.171 C 373.007 262.797 373.129 263.038 373.665 262.707 C 375.060 261.845 380.243 271.388 387.131 287.500 C 389.450 292.923 391.000 298.584 391.000 301.626 C 391.000 303.482 391.420 305.000 391.934 305.000 C 392.447 305.000 392.657 306.161 392.400 307.580 C 392.110 309.180 392.320 309.920 392.952 309.529 C 393.632 309.109 393.665 309.667 393.050 311.199 C 392.356 312.928 392.111 313.065 392.063 311.750 C 391.975 309.307 390.000 309.546 390.000 312.000 C 390.000 313.175 389.333 314.000 388.383 314.000 C 387.259 314.000 386.926 314.609 387.290 316.000 C 387.633 317.312 387.320 318.000 386.382 318.000 C 385.595 318.000 384.551 319.050 384.063 320.333 C 383.071 322.945 383.143 324.364 384.978 338.339 C 388.363 364.121 382.625 408.014 373.527 425.939 C 367.927 436.973 354.302 456.257 344.161 467.500 C 341.185 470.800 337.978 474.400 337.034 475.500 C 335.545 477.235 334.062 482.396 333.760 486.889 C 333.709 487.653 332.054 489.842 330.083 491.752 L 326.500 495.226 331.000 491.553 C 333.475 489.533 335.556 487.457 335.625 486.940 C 335.694 486.423 335.806 486.325 335.875 486.723 C 336.255 488.920 358.122 464.668 368.085 451.000 C 373.009 444.246 381.208 429.855 386.470 418.731 C 405.897 377.668 410.641 332.996 399.610 294.988 C 392.275 269.717 376.851 244.710 355.556 223.567 C 347.716 215.783 337.726 207.997 335.584 208.003 C 334.988 208.004 334.420 209.797 334.323 211.987 "/></g>
<g fill="#D4B6FEFE" stroke="#D4B6FEFE">
<path d="M 113.678 33.092 C 76.141 37.056 58.128 56.841 51.557 101.323 C 47.094 131.539 45.640 152.902 45.589 189.000 C 45.511 245.426 49.010 268.836 59.598 282.717 C 69.348 295.501 92.302 292.349 111.500 275.590 C 113.150 274.149 115.738 272.418 117.250 271.741 C 118.763 271.065 120.000 270.145 120.000 269.697 C 120.000 269.249 120.450 269.160 121.000 269.500 C 121.550 269.840 122.000 269.725 122.000 269.244 C 122.000 268.164 126.932 265.714 138.000 261.298 C 142.675 259.433 145.446 258.122 144.158 258.384 C 142.055 258.812 141.960 258.690 143.233 257.180 C 144.013 256.256 144.700 254.511 144.759 253.301 C 144.868 251.106 144.854 251.108 136.184 254.151 C 125.499 257.900 113.591 263.991 105.959 269.609 C 95.717 277.149 91.931 279.122 84.890 280.590 C 70.390 283.613 64.621 279.543 60.081 263.083 C 55.902 247.933 54.559 230.278 54.559 190.500 C 54.560 157.058 54.823 151.048 57.297 128.000 C 62.041 83.800 65.936 70.556 77.972 57.689 C 84.844 50.343 90.686 46.896 101.030 44.084 C 109.090 41.893 126.091 40.002 137.750 40.001 C 143.939 40.000 145.019 39.744 145.128 38.250 C 145.198 37.288 145.361 35.488 145.491 34.250 C 145.725 32.021 145.613 32.001 133.613 32.133 C 126.951 32.206 117.980 32.638 113.678 33.092 "/></g>
<g fill="#20142CFE" stroke="#20142CFE">
<path d="M 160.000 139.421 C 160.000 141.081 160.722 142.090 162.250 142.567 C 163.488 142.954 164.831 143.771 165.235 144.385 C 165.730 145.136 165.974 145.151 165.985 144.430 C 165.995 143.734 170.282 144.153 178.250 145.629 C 184.988 146.877 194.100 148.392 198.500 148.996 C 211.755 150.813 217.000 152.170 217.000 153.782 C 217.000 154.965 217.285 155.008 218.491 154.008 C 219.420 153.237 221.210 153.017 223.241 153.424 C 225.033 153.784 228.975 154.461 232.000 154.930 C 235.025 155.399 242.450 156.702 248.500 157.824 C 254.550 158.947 265.483 160.117 272.796 160.424 C 280.108 160.731 295.408 161.938 306.796 163.106 C 318.249 164.280 335.319 165.284 345.000 165.353 C 362.364 165.477 362.574 165.452 371.994 162.176 C 388.654 156.382 394.953 150.731 385.252 150.280 C 382.391 150.147 380.079 149.461 379.410 148.546 C 378.801 147.713 378.015 147.318 377.664 147.669 C 376.641 148.692 371.500 148.694 371.500 147.672 C 371.500 147.161 368.800 146.552 365.500 146.319 C 355.859 145.639 355.000 145.528 355.000 144.964 C 355.000 144.670 353.538 144.377 351.750 144.314 C 349.963 144.252 346.925 143.944 345.000 143.631 C 343.075 143.318 337.900 143.788 333.500 144.675 C 323.691 146.653 302.036 146.065 271.000 142.979 C 258.529 141.739 236.349 140.580 214.368 140.020 C 181.247 139.177 174.820 138.851 163.750 137.451 C 160.310 137.016 160.000 137.178 160.000 139.421 "/></g>
<g fill="#D4B6FEFE" stroke="#D4B6FEFE">
<path d="M 46.221 373.611 C 40.845 375.590 33.366 382.827 29.264 390.021 C 21.312 403.965 16.720 426.270 16.608 451.500 C 16.555 463.168 16.931 467.746 18.300 472.108 C 20.793 480.055 26.119 488.480 33.307 495.849 C 40.061 502.772 58.429 517.238 59.327 516.340 C 59.634 516.033 61.264 516.764 62.949 517.963 C 66.802 520.707 85.639 529.631 89.562 530.572 C 91.178 530.959 92.950 531.604 93.500 532.005 C 97.250 534.741 127.569 542.388 139.521 543.612 C 145.815 544.257 145.851 544.247 145.581 541.785 C 145.244 538.720 143.554 535.661 143.489 538.000 C 143.452 539.329 143.337 539.329 142.474 537.994 C 141.876 537.069 137.063 535.602 130.000 534.193 C 96.412 527.491 59.656 509.700 40.888 491.060 C 25.810 476.085 22.605 462.784 26.498 431.338 C 29.890 403.944 38.522 386.021 50.536 381.433 C 60.664 377.565 70.753 383.326 102.516 411.113 C 122.331 428.448 143.176 444.490 144.355 443.312 C 144.710 442.957 145.000 441.119 145.000 439.226 C 145.000 436.515 144.668 435.913 143.435 436.387 C 142.211 436.856 142.016 436.524 142.542 434.868 C 142.971 433.515 142.839 432.981 142.176 433.392 C 141.604 433.745 140.544 433.186 139.818 432.151 C 139.093 431.116 138.226 430.321 137.892 430.384 C 137.558 430.448 135.018 428.475 132.249 426.000 C 129.479 423.525 125.515 420.150 123.438 418.500 C 119.737 415.559 114.408 410.971 108.920 406.000 C 107.402 404.625 102.274 400.125 97.524 396.000 C 92.775 391.875 86.886 386.666 84.438 384.424 C 81.990 382.183 76.542 378.623 72.332 376.514 C 66.026 373.355 63.427 372.622 57.588 372.358 C 52.896 372.145 49.054 372.569 46.221 373.611 "/></g>
<g fill="#6A2292FE" stroke="#6A2292FE">
<path d="M 333.495 33.008 C 332.952 33.886 333.083 34.067 333.898 33.563 C 334.753 33.035 335.016 33.642 334.802 35.648 L 334.500 38.479 350.820 40.138 C 365.513 41.633 367.604 42.086 371.801 44.680 C 377.044 47.922 380.413 52.348 382.244 58.401 C 385.734 69.935 381.216 92.788 372.780 106.275 C 369.349 111.761 359.396 121.628 352.670 126.211 C 346.697 130.281 338.112 134.580 336.722 134.196 C 335.897 133.968 335.537 134.814 334.554 139.291 C 334.176 141.012 333.510 141.815 332.816 141.386 C 332.130 140.962 331.969 141.141 332.405 141.845 C 332.839 142.548 332.442 143.000 331.392 143.000 C 330.443 143.000 329.942 143.276 330.279 143.613 C 331.387 144.721 341.353 141.833 349.500 138.044 C 364.418 131.106 377.305 118.664 384.509 104.247 C 391.169 90.918 394.597 69.638 391.940 58.115 C 389.876 49.162 386.315 43.691 379.685 39.289 C 370.001 32.860 370.004 32.861 351.549 32.264 C 337.993 31.826 334.127 31.986 333.495 33.008 "/></g>
<g fill="#3E2856FE" stroke="#3E2856FE">
<path d="M 159.632 147.715 C 159.317 150.897 158.795 156.923 158.471 161.107 L 157.881 168.714 164.999 167.368 C 168.913 166.628 176.253 165.680 181.308 165.261 L 190.500 164.500 190.813 161.250 C 191.171 157.545 190.888 157.600 202.620 158.949 C 207.086 159.463 225.536 160.095 243.620 160.353 C 264.824 160.657 272.416 160.538 265.000 160.020 C 258.675 159.578 250.125 158.468 246.000 157.554 C 241.875 156.640 235.800 155.483 232.500 154.983 C 229.200 154.483 225.033 153.780 223.241 153.422 C 221.212 153.016 219.419 153.237 218.491 154.008 C 217.285 155.008 217.000 154.965 217.000 153.782 C 217.000 152.170 211.755 150.813 198.500 148.996 C 194.100 148.392 184.988 146.877 178.250 145.629 C 170.282 144.153 165.995 143.734 165.985 144.430 C 165.974 145.151 165.730 145.136 165.235 144.385 C 164.831 143.771 163.534 142.968 162.352 142.600 C 160.365 141.980 160.162 142.361 159.632 147.715 "/></g>
<g fill="#D48EFEFE" stroke="#D48EFEFE">
<path d="M 151.526 126.808 C 151.236 127.097 151.008 130.746 151.018 134.917 C 151.028 139.088 150.495 150.704 149.833 160.732 C 149.172 170.759 148.874 179.208 149.173 179.506 C 149.471 179.804 153.492 179.178 158.108 178.115 C 165.403 176.434 173.271 175.078 184.500 173.568 C 186.150 173.346 189.413 173.127 191.750 173.082 C 195.471 173.010 195.998 172.720 195.985 170.750 C 195.974 169.135 195.731 168.877 195.123 169.835 C 194.480 170.849 194.147 170.669 193.732 169.085 C 193.371 167.702 193.661 167.000 194.594 167.000 C 195.367 167.000 196.000 166.531 196.000 165.958 C 196.000 164.397 167.136 167.313 159.632 169.632 C 157.843 170.185 157.793 169.554 158.453 154.855 C 158.832 146.410 159.382 138.661 159.675 137.635 C 160.141 136.004 160.855 135.856 165.354 136.454 C 174.858 137.718 197.665 138.085 195.750 136.944 C 194.788 136.370 194.032 135.135 194.070 134.200 C 194.128 132.803 194.294 132.857 195.000 134.500 C 195.829 136.428 195.862 136.421 195.930 134.309 C 195.968 133.104 195.519 131.821 194.931 131.457 C 194.343 131.094 186.580 130.163 177.681 129.390 C 168.781 128.616 159.374 127.600 156.776 127.133 C 154.177 126.665 151.815 126.519 151.526 126.808 "/></g>
<g fill="#BE5AD8FE" stroke="#BE5AD8FE">
<path d="M 174.977 244.032 C 165.611 244.720 141.267 249.600 142.257 250.591 C 142.469 250.803 147.561 249.859 153.571 248.494 C 165.144 245.866 187.956 243.641 192.996 244.649 C 195.211 245.092 195.996 245.808 195.985 247.375 C 195.972 249.114 195.793 249.227 195.000 248.000 C 194.216 246.787 194.028 246.931 194.015 248.750 C 194.007 250.019 194.545 250.894 195.250 250.757 C 195.938 250.623 195.825 250.830 195.000 251.218 C 194.175 251.606 191.925 252.093 190.000 252.301 C 188.075 252.510 190.393 252.752 195.151 252.840 C 207.051 253.060 224.072 256.145 239.207 260.824 C 246.195 262.985 252.158 264.509 252.457 264.210 C 252.755 263.911 253.000 264.139 253.000 264.717 C 253.000 265.294 253.900 266.002 255.000 266.290 C 256.661 266.724 257.000 266.320 257.000 263.906 C 257.000 262.308 256.564 261.000 256.031 261.000 C 255.499 261.000 255.352 260.247 255.705 259.326 C 256.192 258.058 255.942 257.808 254.674 258.295 C 253.753 258.648 253.000 258.532 253.000 258.036 C 253.000 257.540 251.988 256.827 250.750 256.450 C 249.513 256.073 246.250 254.753 243.500 253.516 C 227.972 246.532 197.794 242.355 174.977 244.032 "/></g>
<g fill="#BE5AD8FE" stroke="#BE5AD8FE">
<path d="M 196.000 166.000 C 196.000 166.550 195.367 167.000 194.594 167.000 C 193.661 167.000 193.371 167.702 193.732 169.085 C 194.147 170.669 194.480 170.849 195.123 169.835 C 195.731 168.877 195.974 169.135 195.985 170.750 C 195.998 172.721 195.473 173.009 191.750 173.077 C 189.413 173.119 186.825 173.278 186.000 173.430 C 185.175 173.583 181.888 174.005 178.695 174.369 C 170.657 175.285 156.672 178.098 155.678 178.998 C 155.227 179.408 158.827 178.930 163.678 177.936 C 191.240 172.289 222.528 172.439 250.750 178.352 L 257.000 179.661 257.000 175.772 C 257.000 173.632 256.588 172.136 256.085 172.447 C 255.582 172.758 255.020 172.588 254.835 172.070 C 253.559 168.481 196.000 162.543 196.000 166.000 "/></g>
<g fill="#BE5AD8FE" stroke="#BE5AD8FE">
<path d="M 252.123 526.078 C 241.705 530.248 211.050 535.736 191.595 536.914 C 180.937 537.559 179.942 537.734 186.250 537.853 L 194.000 538.000 194.000 541.500 C 194.000 544.753 194.221 545.000 197.122 545.000 C 208.921 545.000 249.415 536.165 253.904 532.611 C 254.676 532.000 255.576 531.725 255.904 532.000 C 256.232 532.275 256.640 530.813 256.810 528.750 C 257.143 524.734 256.457 524.343 252.123 526.078 "/></g>
<g fill="#BE5AD8FE" stroke="#BE5AD8FE">
<path d="M 253.170 444.689 C 237.181 451.493 217.746 456.000 204.390 456.000 C 199.151 456.000 196.000 456.398 196.000 457.059 C 196.000 457.641 195.550 457.840 195.000 457.500 C 194.450 457.160 194.000 457.610 194.000 458.500 C 194.000 459.390 194.419 459.859 194.931 459.543 C 195.443 459.226 196.085 459.329 196.359 459.772 C 196.632 460.214 195.426 461.228 193.678 462.026 C 190.717 463.377 190.657 463.499 192.805 463.815 C 194.073 464.001 195.847 463.556 196.747 462.827 C 197.929 461.869 198.175 461.848 197.633 462.750 C 196.558 464.540 208.997 464.392 221.000 462.473 C 232.111 460.696 249.735 455.496 252.250 453.252 C 253.213 452.393 254.015 452.097 254.033 452.595 C 254.052 453.093 254.931 452.463 255.988 451.195 C 257.400 449.501 257.684 448.299 257.059 446.655 C 256.512 445.216 256.617 444.062 257.354 443.420 C 257.984 442.870 256.102 443.441 253.170 444.689 "/></g>
<g fill="#BE5AD8FE" stroke="#BE5AD8FE">
<path d="M 193.000 130.809 C 194.713 131.344 195.478 132.285 195.429 133.795 C 195.381 135.269 195.246 135.420 195.022 134.250 C 194.838 133.288 194.600 133.722 194.493 135.217 C 194.386 136.711 194.577 137.762 194.916 137.552 C 195.255 137.342 197.564 137.550 200.046 138.014 C 202.528 138.478 216.248 138.957 230.535 139.079 L 256.510 139.302 256.669 135.792 L 256.827 132.283 248.663 131.645 C 235.672 130.630 190.243 129.948 193.000 130.809 "/></g>
<g fill="#D48EFEFE" stroke="#D48EFEFE">
<path d="M 142.627 434.706 C 141.396 435.937 142.028 436.926 143.649 436.305 C 145.075 435.757 145.227 436.294 144.776 440.298 L 144.254 444.923 151.099 448.989 C 159.548 454.009 172.993 459.241 183.225 461.491 C 189.753 462.926 191.408 462.987 193.903 461.883 C 195.527 461.164 196.632 460.214 196.359 459.772 C 196.085 459.329 195.443 459.226 194.931 459.543 C 194.419 459.859 194.000 459.390 194.000 458.500 C 194.000 457.552 194.468 457.171 195.130 457.580 C 195.805 457.997 196.081 457.742 195.815 456.945 C 195.559 456.177 192.431 455.108 188.435 454.423 C 176.016 452.294 160.099 445.490 147.377 436.872 C 145.110 435.336 142.972 434.361 142.627 434.706 "/></g>
<g fill="#D48EFEFE" stroke="#D48EFEFE">
<path d="M 175.950 245.019 C 170.698 245.420 161.585 246.763 155.700 248.004 C 145.161 250.227 144.262 250.759 144.923 254.375 C 145.011 254.856 144.360 256.049 143.477 257.026 C 142.259 258.371 142.165 258.984 143.089 259.555 C 143.921 260.069 144.051 259.891 143.498 258.997 C 142.895 258.020 143.236 257.829 144.836 258.247 C 146.018 258.556 149.074 258.180 151.626 257.412 C 158.672 255.291 172.306 253.251 183.969 252.571 C 189.728 252.236 194.903 251.454 195.469 250.834 C 196.198 250.037 196.133 249.914 195.250 250.412 C 194.406 250.889 194.005 250.368 194.015 248.809 C 194.028 246.951 194.220 246.793 195.000 248.000 C 195.793 249.227 195.972 249.114 195.985 247.375 C 196.000 245.193 192.437 243.816 187.625 244.145 C 186.456 244.225 181.203 244.619 175.950 245.019 "/></g>
<g fill="#D48EFEFE" stroke="#D48EFEFE">
<path d="M 142.000 536.724 C 142.000 538.228 143.496 539.309 143.535 537.833 C 143.555 537.100 144.103 537.455 144.753 538.623 C 145.402 539.790 145.762 541.640 145.551 542.733 C 145.205 544.533 145.884 544.781 152.735 545.360 C 162.342 546.172 190.327 546.195 192.418 545.393 C 193.411 545.012 194.000 543.578 194.000 541.543 L 194.000 538.300 171.750 537.619 C 159.513 537.244 147.813 536.677 145.750 536.359 C 143.660 536.037 142.000 536.198 142.000 536.724 "/></g>
<g fill="#D48EFEFE" stroke="#D48EFEFE">
<path d="M 158.604 31.940 L 145.709 32.500 145.326 36.250 L 144.944 40.000 154.313 40.000 C 159.466 40.000 170.504 39.705 178.841 39.344 L 194.000 38.688 194.100 35.094 C 194.192 31.782 194.266 31.696 195.051 34.000 L 195.903 36.500 195.702 34.000 L 195.500 31.500 183.500 31.440 C 176.900 31.407 165.697 31.632 158.604 31.940 "/></g>
<g fill="#20142CFE" stroke="#20142CFE">
<path d="M 106.098 400.716 C 106.938 403.078 133.672 425.531 145.000 433.389 C 150.829 437.432 150.375 436.952 137.500 425.465 C 126.129 415.320 105.512 399.071 106.098 400.716 "/></g>
<g fill="#B4B4B4FE" stroke="#B4B4B4FE">
<path d="M 130.805 418.206 C 132.963 420.903 157.713 442.147 161.088 444.200 C 166.671 447.595 165.216 445.452 157.268 438.576 C 147.980 430.540 128.957 415.897 130.805 418.206 "/></g>
<g fill="#BE5AD8FE" stroke="#BE5AD8FE">
<path d="M 150.709 126.000 C 150.405 126.825 149.903 134.025 149.594 142.000 C 149.284 149.975 148.733 162.013 148.368 168.750 C 147.741 180.348 147.807 180.999 149.603 180.985 C 150.646 180.976 152.175 180.513 153.000 179.954 C 154.113 179.201 153.790 179.104 151.750 179.578 C 149.011 180.214 149.000 180.195 149.016 174.858 C 149.025 171.911 149.449 164.325 149.958 158.000 C 151.031 144.686 151.521 123.798 150.709 126.000 "/></g>
<g fill="#3E2856FE" stroke="#3E2856FE">
<path d="M 92.500 390.692 C 93.600 391.769 99.675 397.045 106.000 402.417 C 112.325 407.789 114.990 409.781 111.922 406.842 C 108.855 403.904 106.045 400.684 105.679 399.687 C 105.313 398.689 104.561 398.153 104.007 398.496 C 103.453 398.838 103.000 398.730 103.000 398.256 C 103.000 397.782 100.188 395.446 96.750 393.064 C 93.313 390.683 91.400 389.616 92.500 390.692 "/></g>
<g fill="#B4B4B4FE" stroke="#B4B4B4FE">
<path d="M 95.473 392.761 C 95.634 393.717 96.290 394.380 96.930 394.234 C 98.252 393.933 103.697 397.495 116.000 406.710 C 121.377 410.738 122.847 411.580 120.000 409.002 C 112.655 402.351 95.134 390.750 95.473 392.761 "/></g>
<g fill="#3E2856FE" stroke="#3E2856FE">
<path d="M 137.000 424.528 C 137.000 424.821 138.590 426.457 140.534 428.164 C 144.026 431.230 144.595 433.013 141.552 431.356 C 140.688 430.885 141.417 431.601 143.171 432.947 C 144.926 434.292 145.992 434.796 145.541 434.067 C 144.984 433.164 145.166 432.889 146.111 433.204 C 146.875 433.458 147.520 434.304 147.545 435.083 C 147.570 435.863 148.133 436.388 148.795 436.250 C 149.458 436.113 150.000 436.424 150.000 436.943 C 150.000 437.461 151.542 438.699 153.427 439.693 C 155.447 440.758 152.779 437.908 146.927 432.748 C 141.467 427.934 137.000 424.235 137.000 424.528 "/></g>
<g fill="#3E2856FE" stroke="#3E2856FE">
<path d="M 111.000 403.378 C 111.000 403.656 113.813 406.041 117.250 408.679 C 120.688 411.317 126.425 415.874 130.000 418.805 C 135.194 423.065 135.580 423.268 131.921 419.818 C 126.853 415.038 111.000 402.581 111.000 403.378 "/></g>
<g fill="#3E2856FE" stroke="#3E2856FE">
<path d="M 278.000 161.081 C 278.000 161.885 300.018 163.316 300.773 162.560 C 301.081 162.252 299.571 161.968 297.417 161.929 C 295.263 161.890 290.013 161.540 285.750 161.152 C 281.488 160.764 278.000 160.732 278.000 161.081 "/></g>
<g fill="#3E2856FE" stroke="#3E2856FE">
<path d="M 122.464 416.557 C 125.195 419.118 130.145 423.231 133.464 425.696 C 140.806 431.149 137.308 427.908 125.914 418.701 C 120.484 414.312 119.260 413.552 122.464 416.557 "/></g>
<g fill="#6A2292FE" stroke="#6A2292FE">
<path d="M 316.000 502.452 C 311.325 505.779 307.275 508.884 307.000 509.354 C 306.345 510.473 322.198 499.197 323.500 497.617 C 324.050 496.950 320.675 499.126 316.000 502.452 "/></g>
<g fill="#A85AB0FE" stroke="#A85AB0FE">
<path d="M 66.250 273.481 C 66.250 274.846 66.857 276.466 67.598 277.082 C 68.690 277.988 68.921 277.515 68.811 274.600 C 68.660 270.566 66.250 269.513 66.250 273.481 "/></g>
<g fill="#D48EFEFE" stroke="#D48EFEFE">
<path d="M 140.000 251.716 C 139.175 252.024 136.106 253.157 133.181 254.235 C 130.256 255.313 128.014 256.348 128.200 256.534 C 128.386 256.720 132.130 255.576 136.519 253.992 C 140.909 252.408 143.825 251.122 143.000 251.135 C 142.175 251.148 140.825 251.409 140.000 251.716 "/></g>
<g fill="#B4B4B4FE" stroke="#B4B4B4FE">
<path d="M 69.115 290.826 C 73.544 294.216 80.855 299.000 81.608 299.000 C 82.020 299.000 79.090 296.750 75.098 294.000 C 68.020 289.124 64.346 287.174 69.115 290.826 "/></g>
<g fill="#D4B6FEFE" stroke="#D4B6FEFE">
<path d="M 308.577 392.757 C 308.244 393.806 306.402 397.328 304.483 400.582 C 302.564 403.837 301.943 405.379 303.102 404.010 C 305.670 400.976 310.317 391.984 309.659 391.325 C 309.397 391.063 308.910 391.708 308.577 392.757 "/></g>
<g fill="#B4B4B4FE" stroke="#B4B4B4FE">
<path d="M 352.402 219.102 C 355.553 221.358 358.333 223.001 358.580 222.753 C 359.055 222.278 348.516 215.000 347.353 215.000 C 346.980 215.000 349.252 216.846 352.402 219.102 "/></g>
<g fill="#B4B4B4FE" stroke="#B4B4B4FE">
<path d="M 84.500 384.445 C 85.600 385.321 87.400 386.809 88.500 387.752 C 89.600 388.695 90.725 389.510 91.000 389.562 C 91.275 389.615 92.137 389.847 92.915 390.079 C 93.693 390.311 92.343 389.114 89.915 387.420 C 84.899 383.921 81.492 382.049 84.500 384.445 "/></g>
<g fill="#BE5AD8FE" stroke="#BE5AD8FE">
<path d="M 105.612 268.367 C 103.933 269.375 102.740 270.330 97.795 274.625 C 97.083 275.244 99.117 273.961 102.315 271.774 C 105.513 269.586 107.988 267.670 107.815 267.516 C 107.642 267.361 106.650 267.744 105.612 268.367 "/></g>
<g fill="#B4B4B4FE" stroke="#B4B4B4FE">
<path d="M 402.457 54.403 C 404.083 55.779 406.653 57.489 408.169 58.202 C 409.684 58.916 408.353 57.790 405.212 55.701 C 402.070 53.611 400.831 53.027 402.457 54.403 "/></g>
<g fill="#3E2856FE" stroke="#3E2856FE">
<path d="M 396.667 449.667 C 395.399 450.934 396.008 452.000 398.000 452.000 C 399.111 452.000 400.000 451.333 400.000 450.500 C 400.000 448.978 397.885 448.449 396.667 449.667 "/></g>
<g fill="#D4B6FEFE" stroke="#D4B6FEFE">
<path d="M 279.344 428.500 C 276.508 430.700 274.942 432.216 275.864 431.868 C 276.786 431.521 279.106 429.721 281.020 427.868 C 284.106 424.881 283.917 424.952 279.344 428.500 "/></g>
<g fill="#D4B6FEFE" stroke="#D4B6FEFE">
<path d="M 300.026 303.215 C 299.992 304.164 305.962 313.555 306.443 313.308 C 306.648 313.202 305.294 310.727 303.434 307.808 C 301.573 304.889 300.040 302.822 300.026 303.215 "/></g>
<g fill="#D4B6FEFE" stroke="#D4B6FEFE">
<path d="M 313.000 192.333 C 313.000 192.943 322.755 199.000 323.738 199.000 C 324.526 199.000 322.359 197.480 316.750 194.098 C 314.688 192.854 313.000 192.060 313.000 192.333 "/></g>
<g fill="#B4B4B4FE" stroke="#B4B4B4FE">
<path d="M 384.017 41.702 C 384.027 42.141 386.081 43.625 388.583 45.000 L 393.132 47.500 388.566 44.202 C 386.055 42.388 384.008 41.263 384.017 41.702 "/></g>
<g fill="#3E2856FE" stroke="#3E2856FE">
<path d="M 303.164 511.937 C 300.779 513.347 299.888 514.155 301.185 513.732 C 302.481 513.310 304.433 512.157 305.521 511.169 C 306.640 510.153 305.616 510.487 303.164 511.937 "/></g>
<g fill="#3E2856FE" stroke="#3E2856FE">
<path d="M 398.158 472.681 C 394.839 477.466 394.837 477.475 397.888 474.000 C 399.578 472.075 401.082 469.906 401.231 469.181 C 401.379 468.455 399.996 470.030 398.158 472.681 "/></g>
<g fill="#3E2856FE" stroke="#3E2856FE">
<path d="M 404.937 462.164 C 403.487 464.616 403.153 465.640 404.169 464.521 C 405.157 463.433 406.310 461.481 406.732 460.185 C 407.155 458.888 406.347 459.779 404.937 462.164 "/></g>
<g fill="#A85AB0FE" stroke="#A85AB0FE">
<path d="M 142.169 120.836 C 141.437 122.120 141.099 123.433 141.419 123.752 C 142.296 124.629 142.927 123.649 143.228 120.938 L 143.500 118.500 142.169 120.836 "/></g>
<g fill="#B4B4B4FE" stroke="#B4B4B4FE">
<path d="M 368.000 229.961 C 369.375 231.114 371.400 232.524 372.500 233.096 C 373.865 233.804 373.706 233.469 372.000 232.039 C 370.625 230.886 368.600 229.476 367.500 228.904 C 366.135 228.196 366.294 228.531 368.000 229.961 "/></g>
<g fill="#BE5AD8FE" stroke="#BE5AD8FE">
<path d="M 146.180 133.742 C 145.233 134.080 145.445 134.624 146.930 135.663 C 148.747 136.936 149.000 136.931 149.000 135.616 C 149.000 133.801 147.955 133.107 146.180 133.742 "/></g>
</svg>
