<?xml version="1.0" encoding="utf-8"?>
<!DOCTYPE svg PUBLIC "-//W3C//DTD SVG 20010904//EN" "http://www.w3.org/TR/2001/REC-SVG-20010904/DTD/svg10.dtd">
<svg version="1.0" xmlns="http://www.w3.org/2000/svg" width="443pt" height="602pt" viewBox="0 0 443 602" style="" preserveAspectRatio="xMidYMid meet">
<g fill="#7CB800FE" stroke="#7CB800FE">
<path d="M 291.207 56.793 C 290.221 57.779 287.971 59.184 286.207 59.914 C 284.443 60.645 283.000 61.638 283.000 62.121 C 283.000 62.605 282.351 63.000 281.557 63.000 C 280.763 63.000 279.456 63.938 278.654 65.084 C 277.296 67.023 277.125 67.047 276.216 65.421 C 275.334 63.846 275.164 63.907 274.487 66.040 C 273.596 68.847 271.491 71.158 270.619 70.286 C 270.279 69.945 270.000 70.218 270.000 70.892 C 270.000 71.566 269.556 71.843 269.013 71.508 C 267.977 70.868 266.407 71.911 262.406 75.896 C 261.083 77.214 260.000 77.931 260.000 77.490 C 260.000 77.050 258.988 77.864 257.750 79.299 C 255.706 81.671 255.134 81.827 251.500 81.002 C 238.453 78.042 212.561 78.933 193.876 82.986 C 154.751 91.472 122.335 115.225 99.418 152.202 C 94.164 160.680 86.398 176.208 83.017 185.000 C 82.276 186.925 81.069 189.212 80.333 190.081 C 79.598 190.951 79.333 192.000 79.746 192.413 C 80.159 192.826 79.624 193.802 78.557 194.582 C 77.491 195.362 77.180 196.000 77.868 196.000 C 78.555 196.000 78.875 196.394 78.577 196.875 C 78.280 197.356 76.969 197.750 75.664 197.750 C 73.659 197.750 63.727 203.458 63.050 205.000 C 62.929 205.275 62.368 204.943 61.803 204.263 C 61.104 203.421 60.253 203.331 59.138 203.982 C 57.702 204.821 57.746 204.943 59.490 204.970 C 61.282 204.997 61.205 205.255 58.718 207.561 C 56.751 209.385 55.316 209.941 53.728 209.495 C 52.381 209.117 51.979 209.205 52.710 209.719 C 53.534 210.298 51.462 212.201 46.210 215.689 C 40.136 219.723 38.204 220.566 37.106 219.663 C 35.966 218.725 35.837 218.910 36.396 220.674 C 37.189 223.171 35.875 224.411 31.941 224.875 C 31.359 224.944 31.160 225.450 31.500 226.000 C 31.840 226.550 31.700 227.000 31.190 227.000 C 30.237 227.000 29.922 228.385 27.558 243.000 C 23.160 270.186 22.511 307.356 26.004 332.000 C 31.642 371.790 39.783 401.223 52.454 427.636 C 63.233 450.104 74.169 465.271 93.460 484.503 C 107.889 498.887 118.319 507.239 132.966 516.138 C 138.974 519.789 143.592 523.075 143.226 523.441 C 142.860 523.806 143.289 523.826 144.179 523.485 C 145.069 523.143 146.099 523.352 146.468 523.948 C 146.837 524.545 147.557 524.774 148.069 524.457 C 148.581 524.141 149.000 524.359 149.000 524.941 C 149.000 525.523 148.501 526.000 147.892 526.000 C 147.209 526.000 147.024 526.960 147.411 528.500 C 147.901 530.455 147.653 531.007 146.269 531.030 C 144.586 531.059 144.585 531.111 146.255 532.083 C 147.688 532.918 148.192 532.626 149.005 530.487 C 149.552 529.048 150.000 527.238 150.000 526.466 C 150.000 525.597 150.602 525.294 151.584 525.671 C 152.455 526.005 152.792 526.553 152.334 526.889 C 151.875 527.225 150.991 528.924 150.369 530.665 C 149.362 533.482 149.453 533.885 151.198 534.342 C 152.603 534.709 153.003 534.450 152.610 533.427 C 152.309 532.642 152.446 532.000 152.915 532.000 C 153.383 532.000 153.980 532.815 154.241 533.812 C 155.275 537.767 179.847 542.913 201.535 543.716 C 245.347 545.338 289.579 530.638 323.244 503.267 C 337.551 491.634 352.921 472.949 360.478 458.000 C 378.470 422.414 379.559 372.557 363.295 329.000 C 351.051 296.210 329.268 267.490 305.164 252.359 C 295.723 246.432 288.791 242.734 286.800 242.561 C 286.415 242.527 285.538 241.938 284.850 241.250 C 284.162 240.563 283.208 240.000 282.729 240.000 C 281.074 240.000 278.807 243.056 279.371 244.526 C 279.712 245.412 279.352 246.000 278.469 246.000 C 276.531 246.000 276.592 243.600 278.574 241.872 C 279.440 241.118 279.652 240.617 279.046 240.759 C 278.440 240.902 277.666 240.293 277.325 239.406 C 276.854 238.176 276.386 238.556 275.356 241.004 C 274.314 243.484 273.606 244.048 272.253 243.479 C 266.993 241.269 253.086 237.679 243.000 235.927 C 229.983 233.667 207.621 233.259 194.440 235.041 C 169.474 238.417 144.121 248.429 124.631 262.612 C 121.314 265.025 118.282 267.000 117.893 267.000 C 116.761 267.000 111.321 253.054 109.896 246.500 C 107.993 237.742 108.265 215.304 110.398 205.204 C 113.694 189.598 119.206 176.091 127.411 163.510 C 142.298 140.683 161.468 127.611 188.500 121.850 C 197.294 119.975 222.520 120.256 233.500 122.351 C 253.889 126.240 277.036 135.060 295.314 145.904 C 306.127 152.319 310.977 156.563 310.289 159.006 C 310.018 159.968 310.108 160.054 310.541 159.250 C 310.911 158.563 311.616 158.000 312.107 158.000 C 313.358 158.000 313.227 160.758 311.956 161.181 C 311.381 161.373 310.835 162.541 310.742 163.777 C 310.561 166.176 308.577 166.296 308.407 163.918 C 308.350 163.138 308.236 162.876 308.152 163.337 C 308.069 163.797 306.088 162.826 303.750 161.180 L 299.500 158.186 303.500 162.066 C 309.100 167.499 313.465 169.418 320.102 169.366 C 327.345 169.309 333.454 166.360 339.318 160.091 C 349.098 149.636 353.243 136.443 353.330 115.500 C 353.421 93.525 349.558 82.593 337.439 70.529 C 332.475 65.586 331.881 65.150 335.439 69.058 C 338.223 72.115 341.807 76.514 343.405 78.835 C 345.979 82.575 346.165 83.324 345.037 85.431 C 343.260 88.752 344.822 91.049 346.705 87.885 C 348.104 85.537 348.118 85.535 347.656 87.750 C 347.386 89.048 347.677 90.013 348.344 90.032 C 348.997 90.050 348.810 90.593 347.912 91.282 C 347.039 91.952 346.514 93.063 346.746 93.750 C 346.977 94.438 346.693 95.000 346.115 95.000 C 345.536 95.000 345.304 95.629 345.600 96.399 C 345.895 97.168 345.703 98.066 345.173 98.393 C 343.796 99.244 342.901 96.306 343.582 93.171 C 343.982 91.328 343.867 90.918 343.212 91.846 C 342.485 92.877 342.027 92.525 341.255 90.346 C 337.824 80.651 324.022 68.060 309.000 60.920 C 304.325 58.698 299.719 56.457 298.764 55.940 C 296.087 54.491 293.181 54.819 291.207 56.793 M 234.026 236.053 C 253.669 238.493 269.758 243.197 285.422 251.078 C 297.475 257.142 305.130 262.509 315.384 272.085 C 362.757 316.326 379.581 398.461 352.485 453.211 C 346.218 465.873 338.781 476.105 327.963 486.944 C 305.888 509.063 276.381 524.447 242.058 531.731 C 230.803 534.120 227.321 534.402 208.500 534.448 C 192.019 534.489 185.671 534.115 179.000 532.713 C 154.835 527.633 134.168 517.853 114.500 502.191 C 104.591 494.299 91.000 481.930 91.000 480.802 C 91.000 480.278 93.588 481.262 96.750 482.988 C 110.997 490.763 134.206 499.673 151.779 504.114 C 165.592 507.605 186.862 510.359 188.637 508.887 C 189.419 508.237 190.042 508.259 190.470 508.951 C 191.215 510.157 198.000 510.397 198.000 509.218 C 198.000 508.788 199.184 508.338 200.631 508.218 C 203.677 507.966 209.595 504.546 210.842 502.318 C 211.312 501.478 213.175 500.675 214.982 500.533 C 216.862 500.385 218.686 499.526 219.246 498.524 C 220.965 495.453 223.867 493.071 226.725 492.384 C 228.251 492.018 230.305 490.882 231.289 489.859 C 232.273 488.837 234.185 488.000 235.539 488.000 C 237.360 488.000 238.000 487.462 238.000 485.933 C 238.000 484.386 238.460 484.011 239.825 484.444 C 241.100 484.849 242.054 484.268 242.994 482.512 C 243.943 480.737 245.169 480.000 247.169 480.000 C 249.045 480.000 250.000 479.483 250.000 478.469 C 250.000 477.626 250.753 476.648 251.674 476.295 C 252.594 475.942 254.169 474.831 255.174 473.826 C 256.178 472.822 258.073 472.000 259.383 472.000 C 260.974 472.000 261.952 471.292 262.324 469.870 C 262.696 468.447 263.399 467.939 264.440 468.339 C 265.526 468.755 266.000 468.342 266.000 466.980 C 266.000 465.471 266.914 464.877 270.000 464.384 C 272.413 463.998 274.000 463.200 274.000 462.372 C 274.000 461.617 274.384 461.000 274.854 461.000 C 275.324 461.000 276.922 459.875 278.405 458.500 C 279.889 457.125 281.964 456.000 283.016 456.000 C 284.069 456.000 285.426 455.073 286.033 453.939 C 286.639 452.806 287.663 452.054 288.308 452.269 C 288.952 452.484 290.304 451.611 291.312 450.330 C 292.320 449.048 294.012 448.000 295.073 448.000 C 296.133 448.000 297.944 447.056 299.098 445.902 C 300.465 444.535 302.033 443.964 303.598 444.263 C 305.586 444.643 306.000 444.315 306.000 442.361 C 306.000 440.897 306.588 440.000 307.548 440.000 C 308.399 440.000 310.087 438.988 311.298 437.750 C 312.509 436.513 314.625 435.500 316.000 435.500 C 317.467 435.500 318.397 434.983 318.250 434.250 C 318.112 433.563 318.432 433.000 318.961 433.000 C 319.490 433.000 320.807 432.050 321.889 430.888 C 322.971 429.727 325.261 428.489 326.978 428.138 C 328.695 427.787 330.109 427.050 330.121 426.500 C 330.133 425.950 330.804 424.769 331.613 423.875 C 332.422 422.981 333.011 421.856 332.923 421.375 C 332.835 420.894 332.838 420.725 332.928 421.000 C 333.487 422.691 339.300 401.845 340.525 393.757 C 346.482 354.413 335.115 318.126 308.495 291.505 C 294.781 277.792 280.159 268.909 259.417 261.692 C 243.011 255.983 234.001 254.591 213.500 254.596 C 198.706 254.599 193.689 254.992 185.336 256.801 C 150.955 264.248 118.904 281.474 87.868 309.185 C 83.670 312.933 79.975 316.000 79.656 316.000 C 78.288 316.000 73.884 297.336 72.144 284.160 C 71.432 278.769 71.546 277.729 72.903 277.216 C 73.781 276.884 75.117 276.002 75.871 275.257 C 76.624 274.512 78.530 273.644 80.104 273.329 C 81.679 273.014 82.769 272.435 82.527 272.043 C 81.976 271.152 88.853 267.655 91.333 267.566 C 92.342 267.530 92.882 267.215 92.533 266.867 C 91.911 266.244 101.544 259.666 103.500 259.378 C 104.050 259.297 104.987 259.179 105.583 259.115 C 106.178 259.052 106.592 258.003 106.503 256.784 C 106.383 255.164 106.898 254.559 108.420 254.534 C 110.028 254.508 111.294 256.151 114.000 261.775 L 117.500 269.050 126.725 262.662 C 147.378 248.361 169.047 239.937 194.000 236.511 C 205.909 234.875 222.978 234.680 234.026 236.053 M 216.935 294.059 C 232.370 296.563 244.801 302.968 257.174 314.789 C 269.500 326.565 277.774 339.429 283.437 355.625 C 285.787 362.346 285.838 365.000 283.615 365.000 C 282.971 365.000 281.700 365.870 280.789 366.933 C 279.263 368.716 279.260 368.969 280.759 370.183 C 281.771 371.003 282.117 371.054 281.675 370.318 C 281.269 369.640 281.921 368.468 283.206 367.568 C 286.095 365.545 287.004 365.589 286.985 367.750 C 286.971 369.261 286.824 369.295 285.904 368.000 C 285.086 366.849 284.964 367.198 285.379 369.500 C 285.677 371.150 285.684 371.961 285.394 371.302 C 284.998 370.400 284.265 370.378 282.434 371.212 C 279.573 372.516 279.123 376.450 281.722 377.447 C 282.834 377.874 283.056 378.354 282.348 378.804 C 281.745 379.187 280.968 382.650 280.622 386.500 C 279.190 402.397 273.668 415.202 264.000 425.047 C 253.293 435.949 241.873 440.648 224.750 441.195 C 220.876 441.319 217.993 441.856 217.985 442.456 C 217.976 443.030 217.576 442.879 217.095 442.120 C 216.536 441.237 215.087 440.907 213.067 441.204 C 211.332 441.458 209.680 441.292 209.397 440.833 C 209.114 440.375 207.671 439.993 206.191 439.985 C 204.711 439.976 202.837 439.550 202.026 439.037 C 201.216 438.525 200.316 438.419 200.026 438.803 C 199.737 439.186 198.627 439.982 197.560 440.571 C 194.912 442.033 194.437 443.958 196.667 444.192 C 197.675 444.298 197.375 444.285 196.000 444.164 C 194.625 444.044 192.488 443.910 191.250 443.867 C 190.013 443.824 189.000 443.482 189.000 443.107 C 189.000 442.732 188.152 442.362 187.116 442.284 C 184.542 442.090 172.266 435.939 165.254 431.330 C 162.090 429.250 156.044 424.073 151.819 419.826 C 145.718 413.691 143.201 410.192 139.575 402.802 C 133.628 390.680 131.936 383.774 131.905 371.500 C 131.850 349.894 140.692 330.776 158.311 314.405 C 170.064 303.484 182.467 297.003 196.486 294.455 C 205.400 292.835 208.966 292.766 216.935 294.059 M 334.461 128.106 C 341.999 136.097 342.023 136.249 337.260 145.808 C 333.618 153.115 328.344 157.618 321.053 159.645 C 317.779 160.555 315.131 161.570 315.168 161.900 C 315.373 163.698 314.883 165.000 314.000 165.000 C 312.177 165.000 312.964 162.138 315.223 160.557 C 316.445 159.701 316.896 159.000 316.225 159.000 C 315.555 159.000 313.317 157.482 311.253 155.627 C 309.189 153.773 304.156 150.098 300.070 147.463 C 295.069 144.237 293.238 142.582 294.470 142.402 C 295.476 142.254 296.615 141.623 297.000 141.000 C 297.385 140.377 298.555 139.706 299.600 139.510 C 300.645 139.314 301.145 139.119 300.711 139.077 C 299.248 138.935 303.478 135.255 305.996 134.479 C 307.369 134.055 308.944 133.124 309.496 132.409 C 310.048 131.695 311.175 130.973 312.000 130.805 C 312.825 130.637 314.512 129.375 315.749 128.000 C 316.986 126.625 317.998 125.876 317.999 126.337 C 317.999 126.797 319.889 125.784 322.197 124.087 C 324.505 122.389 326.701 121.000 327.076 121.000 C 327.451 121.000 330.774 124.198 334.461 128.106 M 75.955 201.278 C 74.554 202.783 73.996 202.970 73.985 201.939 C 73.972 200.710 73.834 200.715 73.039 201.971 C 72.527 202.780 71.754 203.087 71.319 202.653 C 70.271 201.604 75.022 198.071 76.644 198.693 C 77.567 199.048 77.380 199.749 75.955 201.278 M 63.000 210.122 C 63.000 211.896 62.753 212.040 61.500 211.000 C 60.464 210.140 60.000 210.102 60.000 210.878 C 60.000 211.495 59.550 212.000 59.000 212.000 C 57.561 212.000 57.766 209.261 59.250 208.662 C 61.842 207.616 63.000 208.067 63.000 210.122 M 68.000 205.500 C 68.000 206.325 67.339 207.000 66.531 207.000 C 65.637 207.000 65.288 206.414 65.638 205.500 C 65.955 204.675 66.616 204.000 67.107 204.000 C 67.598 204.000 68.000 204.675 68.000 205.500 "/></g>
<g fill="#409A00FE" stroke="#409A00FE">
<path d="M 194.000 236.511 C 169.047 239.937 147.378 248.361 126.725 262.662 L 117.500 269.050 114.000 261.775 C 111.294 256.151 110.028 254.508 108.420 254.534 C 106.898 254.559 106.383 255.164 106.503 256.784 C 106.592 258.003 106.178 259.052 105.583 259.115 C 104.987 259.179 104.050 259.297 103.500 259.378 C 101.544 259.666 91.911 266.244 92.533 266.867 C 92.882 267.215 92.342 267.530 91.333 267.566 C 88.853 267.655 81.976 271.152 82.527 272.043 C 82.769 272.435 81.679 273.014 80.104 273.329 C 78.530 273.644 76.624 274.512 75.871 275.257 C 75.117 276.002 73.781 276.884 72.903 277.216 C 71.546 277.729 71.432 278.769 72.144 284.160 C 73.884 297.336 78.288 316.000 79.656 316.000 C 79.975 316.000 83.670 312.933 87.868 309.185 C 118.904 281.474 150.955 264.248 185.336 256.801 C 193.689 254.992 198.706 254.599 213.500 254.596 C 234.001 254.591 243.011 255.983 259.417 261.692 C 280.159 268.909 294.781 277.792 308.495 291.505 C 335.115 318.126 346.482 354.413 340.525 393.757 C 339.300 401.845 333.487 422.691 332.928 421.000 C 332.838 420.725 332.835 420.894 332.923 421.375 C 333.011 421.856 332.422 422.981 331.613 423.875 C 330.804 424.769 330.133 425.950 330.121 426.500 C 330.109 427.050 328.695 427.787 326.978 428.138 C 325.261 428.489 322.971 429.727 321.889 430.888 C 320.807 432.050 319.490 433.000 318.961 433.000 C 318.432 433.000 318.112 433.563 318.250 434.250 C 318.397 434.983 317.467 435.500 316.000 435.500 C 314.625 435.500 312.509 436.513 311.298 437.750 C 310.087 438.988 308.399 440.000 307.548 440.000 C 306.588 440.000 306.000 440.897 306.000 442.361 C 306.000 444.315 305.586 444.643 303.598 444.263 C 302.033 443.964 300.465 444.535 299.098 445.902 C 297.944 447.056 296.133 448.000 295.073 448.000 C 294.012 448.000 292.320 449.048 291.312 450.330 C 290.304 451.611 288.952 452.484 288.308 452.269 C 287.663 452.054 286.639 452.806 286.033 453.939 C 285.426 455.073 284.069 456.000 283.016 456.000 C 281.964 456.000 279.889 457.125 278.405 458.500 C 276.922 459.875 275.324 461.000 274.854 461.000 C 274.384 461.000 274.000 461.617 274.000 462.372 C 274.000 463.200 272.413 463.998 270.000 464.384 C 266.914 464.877 266.000 465.471 266.000 466.980 C 266.000 468.342 265.526 468.755 264.440 468.339 C 263.399 467.939 262.696 468.447 262.324 469.870 C 261.952 471.292 260.974 472.000 259.383 472.000 C 258.073 472.000 256.178 472.822 255.174 473.826 C 254.169 474.831 252.594 475.942 251.674 476.295 C 250.753 476.648 250.000 477.626 250.000 478.469 C 250.000 479.483 249.045 480.000 247.169 480.000 C 245.169 480.000 243.943 480.737 242.994 482.512 C 242.054 484.268 241.100 484.849 239.825 484.444 C 238.460 484.011 238.000 484.386 238.000 485.933 C 238.000 487.462 237.360 488.000 235.539 488.000 C 234.185 488.000 232.273 488.837 231.289 489.859 C 230.305 490.882 228.251 492.018 226.725 492.384 C 223.867 493.071 220.965 495.453 219.246 498.524 C 218.686 499.526 216.862 500.385 214.982 500.533 C 213.175 500.675 211.312 501.478 210.842 502.318 C 209.595 504.546 203.677 507.966 200.631 508.218 C 199.184 508.338 198.000 508.788 198.000 509.218 C 198.000 510.397 191.215 510.157 190.470 508.951 C 190.042 508.259 189.419 508.237 188.637 508.887 C 186.862 510.359 165.592 507.605 151.779 504.114 C 134.206 499.673 110.997 490.763 96.750 482.988 C 93.588 481.262 91.000 480.278 91.000 480.802 C 91.000 481.930 104.591 494.299 114.500 502.191 C 134.168 517.853 154.835 527.633 179.000 532.713 C 185.671 534.115 192.019 534.489 208.500 534.448 C 227.321 534.402 230.803 534.120 242.058 531.731 C 292.579 521.009 333.241 492.096 352.485 453.211 C 374.090 409.555 368.361 347.881 338.206 299.500 C 329.905 286.181 314.321 269.612 301.471 260.442 C 273.810 240.704 231.719 231.331 194.000 236.511 "/></g>
<g fill="#ACD60AFE" stroke="#ACD60AFE">
<path d="M 202.000 34.033 C 159.329 39.895 120.362 58.996 92.000 87.951 C 82.962 97.179 79.247 101.350 72.363 110.000 C 65.619 118.475 56.888 131.559 56.580 133.653 C 56.468 134.417 56.108 134.775 55.780 134.447 C 55.452 134.119 54.602 135.459 53.891 137.425 C 53.180 139.391 52.239 141.000 51.799 141.000 C 51.360 141.000 51.000 141.863 51.000 142.917 C 51.000 143.971 50.646 144.983 50.214 145.167 C 49.139 145.623 40.731 162.000 41.572 162.000 C 41.942 162.000 41.627 162.761 40.872 163.692 C 39.691 165.149 39.709 165.277 41.000 164.618 C 41.965 164.125 41.896 164.348 40.807 165.244 C 38.996 166.734 34.599 176.932 35.416 177.749 C 35.685 178.018 35.216 178.927 34.375 179.768 C 33.533 180.610 33.063 182.132 33.329 183.150 C 33.596 184.169 33.453 184.780 33.013 184.508 C 31.952 183.852 30.748 188.783 31.624 190.200 C 32.012 190.829 31.857 191.030 31.266 190.664 C 30.074 189.928 25.235 206.549 21.524 224.129 C 10.270 277.435 13.072 336.672 29.466 392.023 C 37.780 420.093 50.151 445.430 65.332 465.479 C 79.794 484.578 110.867 513.073 126.500 521.572 C 145.674 531.997 148.525 532.941 147.411 528.500 C 147.024 526.960 147.209 526.000 147.892 526.000 C 148.501 526.000 149.000 525.523 149.000 524.941 C 149.000 524.359 148.581 524.141 148.069 524.457 C 147.557 524.774 146.837 524.545 146.468 523.948 C 146.099 523.352 145.069 523.143 144.179 523.485 C 143.289 523.826 142.860 523.806 143.226 523.441 C 143.592 523.075 138.974 519.789 132.966 516.138 C 118.319 507.239 107.889 498.887 93.460 484.503 C 74.169 465.271 63.233 450.104 52.454 427.636 C 32.481 386.002 21.270 326.406 24.102 276.929 C 25.034 260.640 25.595 255.137 27.558 243.000 C 29.922 228.385 30.237 227.000 31.190 227.000 C 31.700 227.000 31.840 226.550 31.500 226.000 C 31.160 225.450 31.359 224.944 31.941 224.875 C 35.875 224.411 37.189 223.171 36.396 220.674 C 35.837 218.910 35.966 218.725 37.106 219.663 C 38.204 220.566 40.136 219.723 46.210 215.689 C 51.462 212.201 53.534 210.298 52.710 209.719 C 51.979 209.205 52.381 209.117 53.728 209.495 C 55.316 209.941 56.751 209.385 58.718 207.561 C 61.205 205.255 61.282 204.997 59.490 204.970 C 57.746 204.943 57.702 204.821 59.138 203.982 C 60.314 203.296 61.161 203.489 62.138 204.667 C 62.887 205.569 63.448 205.901 63.385 205.404 C 63.195 203.922 73.099 197.750 75.664 197.750 C 76.969 197.750 78.280 197.356 78.577 196.875 C 78.875 196.394 78.555 196.000 77.868 196.000 C 77.180 196.000 77.491 195.362 78.557 194.582 C 79.624 193.802 80.159 192.826 79.746 192.413 C 79.333 192.000 79.598 190.951 80.333 190.081 C 81.069 189.212 82.276 186.925 83.017 185.000 C 86.398 176.208 94.164 160.680 99.418 152.202 C 122.335 115.225 154.751 91.472 193.876 82.986 C 212.561 78.933 238.453 78.042 251.500 81.002 C 255.134 81.827 255.706 81.671 257.750 79.299 C 258.988 77.864 260.000 77.050 260.000 77.490 C 260.000 77.931 261.083 77.214 262.406 75.896 C 266.407 71.911 267.977 70.868 269.013 71.508 C 269.556 71.843 270.000 71.566 270.000 70.892 C 270.000 70.218 270.279 69.945 270.619 70.286 C 271.491 71.158 273.596 68.847 274.487 66.040 C 275.164 63.907 275.334 63.846 276.216 65.421 C 277.125 67.047 277.296 67.023 278.654 65.084 C 279.456 63.938 280.763 63.000 281.557 63.000 C 282.351 63.000 283.000 62.605 283.000 62.121 C 283.000 61.638 284.443 60.645 286.207 59.914 C 287.971 59.184 290.221 57.779 291.207 56.793 C 293.181 54.819 296.087 54.491 298.764 55.940 C 299.719 56.457 304.325 58.698 309.000 60.920 C 324.022 68.060 337.824 80.651 341.255 90.346 C 342.027 92.525 342.485 92.877 343.212 91.846 C 343.867 90.918 343.982 91.328 343.582 93.171 C 342.901 96.306 343.796 99.244 345.173 98.393 C 345.703 98.066 345.895 97.168 345.600 96.399 C 345.304 95.629 345.536 95.000 346.115 95.000 C 346.693 95.000 346.977 94.438 346.746 93.750 C 346.514 93.063 347.039 91.952 347.912 91.282 C 348.810 90.593 348.997 90.050 348.344 90.032 C 347.677 90.013 347.386 89.048 347.656 87.750 C 348.118 85.535 348.104 85.537 346.705 87.885 C 344.822 91.049 343.260 88.752 345.037 85.431 C 346.165 83.324 345.979 82.575 343.405 78.836 C 339.359 72.961 328.383 61.907 323.000 58.288 C 309.946 49.510 288.073 41.127 266.000 36.444 C 255.025 34.115 250.754 33.752 231.000 33.465 C 218.625 33.286 205.575 33.541 202.000 34.033 "/></g>
<g fill="#B4B4B4FE" stroke="#B4B4B4FE">
<path d="M 343.000 277.551 C 354.246 286.950 367.881 301.948 375.259 313.035 C 405.216 358.047 413.754 414.480 397.872 462.500 C 391.225 482.594 381.459 498.313 365.934 513.900 C 358.086 521.779 345.000 532.852 345.000 531.614 C 345.000 531.329 343.901 532.114 342.557 533.360 C 341.213 534.605 338.401 536.496 336.307 537.562 C 334.213 538.628 332.275 539.778 332.000 540.118 C 331.725 540.458 329.700 541.640 327.500 542.745 C 313.876 549.585 310.960 550.934 306.601 552.414 C 303.939 553.318 300.996 554.467 300.059 554.968 C 297.255 556.469 275.185 561.959 265.000 563.689 C 248.423 566.506 218.889 565.682 204.000 561.988 C 191.630 558.919 187.097 557.630 184.000 556.300 C 182.075 555.473 179.600 554.473 178.500 554.077 C 169.999 551.022 150.340 539.161 133.750 527.078 C 130.588 524.774 128.000 523.272 128.000 523.739 C 128.000 526.143 183.824 563.868 196.009 569.699 C 245.838 593.542 313.566 587.526 363.707 554.803 C 386.951 539.633 407.000 517.563 417.344 495.759 C 436.741 454.873 434.916 399.870 412.623 353.500 C 400.590 328.471 385.050 309.356 364.000 293.694 C 358.775 289.806 352.292 284.665 349.594 282.270 C 346.896 279.874 343.296 276.986 341.594 275.852 C 339.892 274.718 340.525 275.482 343.000 277.551 "/></g>
<g fill="#B4B4B4FE" stroke="#B4B4B4FE">
<path d="M 332.000 63.880 C 332.000 65.064 336.862 69.362 338.468 69.598 C 341.250 70.007 360.615 84.071 367.007 90.326 C 379.560 102.611 384.000 114.337 384.000 135.202 C 384.000 149.600 382.045 160.043 377.553 169.629 C 373.342 178.617 368.317 184.209 361.412 187.587 C 356.846 189.821 355.005 190.170 349.601 189.826 C 343.447 189.434 342.648 189.053 328.928 179.959 C 321.078 174.757 314.160 170.050 313.554 169.500 C 312.948 168.950 311.792 168.351 310.986 168.170 C 310.179 167.988 309.290 167.538 309.009 167.170 C 308.729 166.801 307.610 166.344 306.521 166.154 C 305.433 165.963 302.944 164.992 300.990 163.995 C 295.084 160.982 276.857 155.218 265.857 152.884 C 250.540 149.635 229.142 149.805 215.922 153.280 C 188.985 160.361 169.180 178.164 157.541 205.763 C 153.223 216.001 146.874 242.369 149.699 238.332 C 150.781 236.787 161.419 232.847 172.080 230.043 L 180.660 227.787 184.935 219.143 C 190.614 207.661 196.295 199.851 204.813 191.815 C 223.052 174.610 248.402 166.913 276.828 169.950 C 305.029 172.963 328.836 182.044 354.471 199.567 C 366.907 208.068 367.702 208.450 373.764 208.836 C 382.024 209.362 387.626 207.209 393.901 201.097 C 403.639 191.612 409.200 174.856 409.200 155.000 C 409.200 128.831 400.723 112.679 379.240 97.918 C 374.983 94.992 368.800 90.206 365.500 87.282 C 358.915 81.447 332.000 62.645 332.000 63.880 "/></g>
<g fill="#407222FE" stroke="#407222FE">
<path d="M 363.563 327.500 C 363.889 328.600 365.297 332.875 366.691 337.000 C 368.085 341.125 370.272 349.450 371.551 355.500 C 380.551 398.067 374.895 437.067 355.234 468.000 C 352.788 471.848 352.389 472.918 353.905 471.562 C 355.792 469.875 356.497 469.778 359.357 470.812 C 361.164 471.465 363.698 472.000 364.988 472.000 C 366.278 472.000 367.011 472.323 366.617 472.717 C 366.222 473.111 367.160 473.509 368.700 473.600 C 370.240 473.692 374.199 474.518 377.498 475.435 C 380.797 476.353 384.284 476.897 385.248 476.645 C 386.212 476.393 387.000 476.543 387.000 476.977 C 387.000 477.411 388.117 477.980 389.482 478.241 C 391.768 478.678 392.194 478.116 394.881 471.108 C 402.992 449.951 405.406 436.572 405.363 413.000 C 405.317 387.940 401.769 369.135 392.770 346.271 C 389.385 337.668 388.385 336.011 386.614 336.070 C 384.547 336.139 384.544 336.160 386.500 337.000 C 389.786 338.412 388.000 338.125 377.821 335.605 C 366.409 332.779 366.370 332.759 364.457 328.673 C 363.639 326.928 363.237 326.400 363.563 327.500 "/></g>
<g fill="#000000FE" stroke="#000000FE">
<path d="M 306.500 516.704 C 298.100 522.124 280.349 530.759 270.000 534.460 C 230.208 548.690 184.915 548.583 148.210 534.173 L 138.853 530.500 151.177 538.632 C 169.473 550.705 181.178 556.067 198.892 560.492 C 212.629 563.923 223.503 565.170 239.500 565.149 C 277.964 565.097 316.138 552.610 345.750 530.392 C 352.858 525.059 354.733 522.147 351.250 521.852 C 348.601 521.628 346.557 521.322 346.000 521.067 C 345.725 520.941 344.375 520.689 343.000 520.508 C 341.625 520.327 339.600 519.948 338.500 519.666 C 337.400 519.384 335.600 519.112 334.500 519.061 C 332.831 518.985 332.749 518.806 334.000 517.986 C 335.067 517.287 334.561 517.183 332.250 517.626 C 330.463 517.969 328.999 517.856 328.998 517.375 C 328.997 516.894 327.598 516.402 325.889 516.282 C 324.180 516.162 322.227 515.603 321.549 515.040 C 320.871 514.478 320.049 514.284 319.723 514.611 C 319.396 514.937 318.100 514.483 316.842 513.602 C 315.584 512.721 314.318 512.042 314.027 512.094 C 313.737 512.145 310.350 514.220 306.500 516.704 "/></g>
<g fill="#ACD60AFE" stroke="#ACD60AFE">
<path d="M 197.500 120.585 C 182.866 122.670 173.094 125.486 163.000 130.527 C 137.340 143.342 117.521 171.479 110.398 205.204 C 108.265 215.304 107.993 237.742 109.896 246.500 C 111.321 253.054 116.761 267.000 117.893 267.000 C 118.282 267.000 121.314 265.025 124.631 262.612 C 144.121 248.429 169.474 238.417 194.440 235.041 C 207.621 233.259 229.983 233.667 243.000 235.927 C 253.086 237.679 266.993 241.269 272.253 243.479 C 273.606 244.048 274.314 243.484 275.356 241.004 C 276.386 238.556 276.854 238.176 277.325 239.406 C 277.666 240.293 278.440 240.902 279.046 240.759 C 279.652 240.617 279.440 241.118 278.574 241.872 C 276.592 243.600 276.531 246.000 278.469 246.000 C 279.376 246.000 279.713 245.415 279.350 244.470 C 279.005 243.572 279.701 242.127 281.035 240.970 C 283.162 239.125 283.183 239.000 281.353 239.000 C 280.279 239.000 278.972 238.577 278.450 238.059 C 276.877 236.502 260.166 231.264 249.500 228.985 C 235.098 225.909 207.553 225.166 192.000 227.436 C 167.208 231.054 145.959 238.664 127.231 250.633 C 124.332 252.485 121.757 254.000 121.509 254.000 C 121.260 254.000 120.262 251.413 119.291 248.250 C 116.587 239.443 116.839 215.426 119.758 203.793 C 125.290 181.741 132.959 167.769 147.382 153.465 C 155.983 144.935 158.924 142.720 167.000 138.696 C 179.787 132.325 189.470 129.962 205.500 129.301 C 221.660 128.635 237.609 131.104 255.256 137.005 C 274.024 143.280 294.717 153.801 305.668 162.637 C 307.961 164.487 310.003 166.000 310.205 166.000 C 310.408 166.000 310.650 164.994 310.743 163.765 C 310.835 162.535 311.381 161.373 311.956 161.181 C 313.227 160.758 313.358 158.000 312.107 158.000 C 311.616 158.000 310.911 158.563 310.541 159.250 C 310.108 160.054 310.018 159.968 310.289 159.006 C 310.977 156.563 306.127 152.319 295.314 145.904 C 277.045 135.066 255.527 126.778 235.500 122.867 C 225.960 121.004 203.869 119.677 197.500 120.585 "/></g>
<g fill="#B4B4B4FE" stroke="#B4B4B4FE">
<path d="M 231.500 324.030 C 218.379 325.772 203.335 333.724 192.620 344.580 C 178.676 358.708 172.000 374.222 172.000 392.500 C 172.000 402.860 173.781 410.784 178.063 419.465 C 181.393 426.220 187.391 434.276 188.364 433.302 C 188.714 432.953 189.000 433.267 189.000 434.000 C 189.000 434.733 189.296 435.037 189.658 434.675 C 190.020 434.313 190.920 434.519 191.658 435.131 C 192.396 435.744 193.000 435.910 193.000 435.500 C 193.000 435.090 193.675 435.315 194.500 436.000 C 195.325 436.685 196.000 436.996 196.000 436.692 C 196.000 436.388 197.350 436.527 199.000 437.000 C 202.538 438.015 202.550 437.955 200.107 431.500 C 194.384 416.370 195.624 398.650 203.502 383.000 C 211.001 368.102 223.772 355.491 238.270 348.670 C 246.813 344.651 253.357 342.977 261.665 342.685 L 267.737 342.471 264.119 337.069 C 262.128 334.099 260.050 330.980 259.500 330.138 C 256.687 325.836 254.971 324.770 250.324 324.434 C 247.671 324.243 243.700 323.894 241.500 323.660 C 239.300 323.425 234.800 323.591 231.500 324.030 "/></g>
<g fill="#407222FE" stroke="#407222FE">
<path d="M 202.000 130.251 C 201.725 130.524 198.800 131.005 195.500 131.321 C 181.054 132.702 170.685 136.413 158.271 144.644 C 150.232 149.973 141.304 158.934 136.344 166.653 L 133.872 170.500 136.460 167.500 C 137.883 165.850 139.471 164.607 139.988 164.738 C 140.505 164.869 140.671 164.306 140.357 163.488 C 140.043 162.670 140.284 162.000 140.893 162.000 C 141.502 162.000 142.000 162.408 142.000 162.906 C 142.000 163.405 142.902 163.577 144.005 163.288 C 145.108 163.000 146.612 163.263 147.347 163.873 C 148.083 164.483 148.942 164.725 149.256 164.410 C 149.571 164.096 150.732 164.321 151.835 164.912 C 152.939 165.503 155.565 166.243 157.671 166.558 C 159.777 166.873 162.850 167.536 164.500 168.031 C 166.150 168.526 168.756 169.184 170.291 169.495 C 171.826 169.805 172.804 170.508 172.465 171.057 C 172.080 171.679 173.007 171.851 174.924 171.513 C 178.820 170.827 178.923 172.371 175.250 176.431 C 173.738 178.103 175.200 176.979 178.500 173.933 C 203.164 151.166 235.209 144.869 274.648 155.038 C 284.091 157.473 289.468 159.363 305.000 165.708 C 308.090 166.970 301.274 160.568 295.541 156.823 C 280.536 147.021 255.141 136.697 236.886 132.977 C 227.570 131.078 203.095 129.166 202.000 130.251 "/></g>
<g fill="#324C22FE" stroke="#324C22FE">
<path d="M 140.382 163.552 C 140.709 164.406 140.582 164.860 140.100 164.562 C 137.732 163.098 128.273 179.998 123.623 194.000 C 119.169 207.411 117.577 218.556 118.282 231.395 C 118.860 241.906 120.755 252.000 122.152 252.000 C 122.597 252.000 125.375 250.456 128.325 248.569 C 131.275 246.682 137.069 243.465 141.200 241.421 L 148.711 237.704 150.704 227.602 C 154.175 210.011 163.216 190.570 173.613 178.341 C 178.852 172.178 179.122 170.774 174.924 171.513 C 173.007 171.851 172.080 171.679 172.465 171.057 C 172.804 170.508 171.826 169.805 170.291 169.495 C 168.756 169.184 166.150 168.526 164.500 168.031 C 162.850 167.536 159.777 166.873 157.671 166.558 C 155.565 166.243 152.939 165.503 151.835 164.912 C 150.732 164.321 149.571 164.096 149.256 164.410 C 148.942 164.725 148.083 164.483 147.347 163.873 C 146.612 163.263 145.108 163.000 144.005 163.288 C 142.902 163.577 142.000 163.405 142.000 162.906 C 142.000 162.408 141.502 162.000 140.893 162.000 C 140.284 162.000 140.054 162.698 140.382 163.552 "/></g>
<g fill="#ACD60AFE" stroke="#ACD60AFE">
<path d="M 196.486 294.455 C 182.467 297.003 170.064 303.484 158.311 314.405 C 140.692 330.776 131.850 349.894 131.905 371.500 C 131.936 383.774 133.628 390.680 139.575 402.802 C 146.764 417.455 159.804 429.575 178.120 438.627 C 182.031 440.560 186.079 442.206 187.116 442.284 C 188.152 442.362 189.000 442.732 189.000 443.107 C 189.000 443.482 190.013 443.824 191.250 443.867 C 192.488 443.910 194.625 444.044 196.000 444.164 C 197.375 444.285 197.675 444.298 196.667 444.192 C 194.314 443.946 194.987 441.790 197.815 440.513 C 199.017 439.970 200.000 439.271 200.000 438.960 C 200.000 438.321 191.702 435.211 188.193 434.536 C 180.365 433.031 163.403 421.367 155.391 411.981 C 146.778 401.891 140.063 384.299 140.017 371.708 C 139.992 364.634 142.765 352.473 146.064 345.199 C 157.933 319.022 186.194 300.498 211.500 302.309 C 242.602 304.534 271.894 333.902 278.517 369.500 C 279.233 373.350 279.860 375.560 279.910 374.411 C 280.016 371.939 284.546 369.371 285.394 371.302 C 285.684 371.961 285.677 371.150 285.379 369.500 C 284.964 367.198 285.086 366.849 285.904 368.000 C 286.824 369.295 286.971 369.261 286.985 367.750 C 287.004 365.589 286.095 365.545 283.206 367.568 C 281.921 368.468 281.269 369.640 281.675 370.318 C 282.117 371.054 281.771 371.003 280.759 370.183 C 279.260 368.969 279.263 368.716 280.789 366.933 C 281.700 365.870 282.971 365.000 283.615 365.000 C 285.838 365.000 285.787 362.346 283.437 355.625 C 277.774 339.429 269.500 326.565 257.174 314.789 C 244.801 302.968 232.370 296.563 216.935 294.059 C 208.966 292.766 205.400 292.835 196.486 294.455 M 194.410 440.099 C 193.464 441.145 192.006 442.000 191.171 442.000 C 190.028 442.000 190.226 441.388 191.971 439.531 C 194.646 436.684 197.004 437.233 194.410 440.099 "/></g>
<g fill="#407222FE" stroke="#407222FE">
<path d="M 194.109 304.521 C 186.357 306.693 180.761 309.341 172.954 314.530 C 161.439 322.185 147.773 338.672 149.551 342.762 C 149.967 343.718 150.350 345.175 150.403 346.000 C 150.471 347.055 150.794 346.907 151.493 345.500 C 152.040 344.400 152.395 344.011 152.282 344.635 C 152.158 345.319 154.938 346.194 159.273 346.838 C 163.230 347.425 166.626 348.377 166.818 348.953 C 167.010 349.529 169.068 350.000 171.392 350.000 C 173.716 350.000 176.456 350.613 177.480 351.362 C 178.504 352.111 180.165 352.508 181.171 352.245 C 182.177 351.982 183.000 352.004 183.000 352.294 C 183.000 352.584 180.992 357.024 178.537 362.161 C 176.082 367.297 173.827 372.850 173.525 374.500 C 173.219 376.168 173.806 375.275 174.846 372.488 C 181.005 355.985 191.859 342.579 206.355 333.572 C 217.256 326.798 227.403 323.771 239.000 323.834 C 244.225 323.862 250.047 324.354 251.937 324.926 L 255.374 325.968 251.437 321.857 C 246.133 316.318 235.507 309.489 227.263 306.321 C 218.690 303.027 202.565 302.151 194.109 304.521 "/></g>
<g fill="#407222FE" stroke="#407222FE">
<path d="M 353.856 120.000 C 352.817 138.540 347.960 152.150 339.307 160.770 C 332.761 167.290 327.998 169.468 319.995 169.599 L 313.490 169.705 328.343 179.561 C 342.677 189.073 343.420 189.432 349.600 189.825 C 361.413 190.578 370.976 183.669 377.553 169.629 C 382.246 159.613 384.027 149.639 383.864 134.292 C 383.789 127.256 383.533 122.513 383.294 123.750 C 382.851 126.053 380.608 126.792 379.500 125.000 C 379.160 124.450 377.371 124.000 375.524 124.000 C 373.678 124.000 372.017 123.554 371.833 123.009 C 371.650 122.463 370.150 121.835 368.500 121.611 C 366.850 121.388 363.160 120.677 360.300 120.030 L 355.100 118.856 354.800 113.678 C 354.614 110.472 354.255 112.880 353.856 120.000 "/></g>
<g fill="#324C22FE" stroke="#324C22FE">
<path d="M 148.656 343.794 C 148.931 344.843 148.437 346.420 147.560 347.297 C 146.682 348.175 146.026 349.254 146.101 349.696 C 146.176 350.138 146.149 350.275 146.042 350.000 C 145.486 348.574 141.871 363.420 141.365 369.205 C 140.242 382.054 145.491 397.588 154.941 409.385 C 159.908 415.585 160.398 416.063 167.503 421.634 C 172.055 425.202 185.000 432.520 185.000 431.525 C 185.000 431.163 183.925 429.434 182.612 427.683 C 175.868 418.694 171.000 403.525 171.000 391.500 C 171.000 382.161 173.853 371.237 178.928 361.143 C 181.168 356.689 183.000 352.757 183.000 352.406 C 183.000 352.054 182.177 351.982 181.171 352.245 C 180.165 352.508 178.504 352.111 177.480 351.362 C 176.456 350.613 173.716 350.000 171.392 350.000 C 169.068 350.000 167.010 349.529 166.818 348.953 C 166.626 348.377 163.220 347.424 159.249 346.834 C 154.488 346.128 152.219 345.377 152.588 344.631 C 152.896 344.009 152.379 344.400 151.440 345.500 C 150.129 347.034 149.865 347.109 150.306 345.823 C 150.622 344.901 150.268 343.638 149.519 343.016 C 148.436 342.117 148.259 342.275 148.656 343.794 "/></g>
<g fill="#324C22FE" stroke="#324C22FE">
<path d="M 348.749 478.218 C 345.144 482.834 337.689 490.896 332.182 496.132 C 325.508 502.478 322.427 506.073 322.946 506.912 C 323.374 507.604 324.020 508.084 324.382 507.978 C 325.525 507.643 332.456 509.145 333.500 509.953 C 334.050 510.379 335.175 510.770 336.000 510.823 C 336.825 510.875 339.525 511.409 342.000 512.010 C 347.381 513.315 355.824 515.077 358.230 515.396 C 361.868 515.879 361.306 517.393 355.500 522.753 C 352.102 525.890 351.234 526.973 353.500 525.251 C 358.603 521.371 371.623 508.080 377.065 501.194 C 381.414 495.693 391.000 480.314 391.000 478.840 C 391.000 478.378 390.100 478.000 389.000 478.000 C 387.900 478.000 387.000 477.592 387.000 477.094 C 387.000 476.595 386.212 476.393 385.248 476.645 C 384.284 476.897 380.797 476.353 377.498 475.435 C 374.199 474.518 370.150 473.642 368.500 473.489 C 366.850 473.337 365.950 473.113 366.500 472.991 C 367.050 472.869 365.925 472.396 364.000 471.939 C 362.075 471.482 359.331 470.820 357.901 470.467 C 355.562 469.889 354.649 470.662 348.749 478.218 "/></g>
<g fill="#409A00FE" stroke="#409A00FE">
<path d="M 322.197 124.087 C 319.889 125.784 317.999 126.797 317.999 126.337 C 317.998 125.876 316.986 126.625 315.749 128.000 C 314.512 129.375 312.825 130.637 312.000 130.805 C 311.175 130.973 310.048 131.695 309.496 132.409 C 308.944 133.124 307.369 134.055 305.996 134.479 C 303.478 135.255 299.248 138.935 300.711 139.077 C 301.145 139.119 300.645 139.314 299.600 139.510 C 298.555 139.706 297.385 140.377 297.000 141.000 C 296.615 141.623 295.476 142.254 294.470 142.402 C 293.238 142.582 295.069 144.237 300.070 147.463 C 304.156 150.098 309.176 153.761 311.225 155.602 C 316.089 159.973 319.051 160.634 324.480 158.561 C 329.549 156.625 334.696 151.350 337.752 144.957 C 341.931 136.215 341.884 135.975 334.461 128.106 C 330.774 124.198 327.451 121.000 327.076 121.000 C 326.701 121.000 324.505 122.389 322.197 124.087 "/></g>
<g fill="#324C22FE" stroke="#324C22FE">
<path d="M 328.085 270.604 C 336.199 279.051 344.310 289.650 350.372 299.728 C 354.386 306.402 365.000 328.223 365.000 329.802 C 365.000 331.774 368.164 333.213 377.686 335.571 C 387.995 338.124 389.794 338.415 386.500 337.000 C 384.676 336.216 384.662 336.134 386.341 336.070 C 387.922 336.010 387.516 334.765 383.463 327.250 C 370.566 303.332 354.265 285.332 331.535 269.906 C 319.871 261.990 319.821 262.000 328.085 270.604 "/></g>
<g fill="#324C22FE" stroke="#324C22FE">
<path d="M 341.329 73.071 C 348.991 82.022 353.304 94.022 354.541 109.832 L 355.249 118.888 360.375 120.046 C 363.194 120.684 366.850 121.388 368.500 121.611 C 370.150 121.835 371.650 122.463 371.833 123.009 C 372.017 123.554 373.485 124.000 375.097 124.000 C 376.709 124.000 378.901 124.545 379.968 125.212 C 381.036 125.879 382.244 126.090 382.652 125.681 C 384.104 124.229 381.060 111.505 377.572 104.449 C 373.293 95.790 363.763 86.292 349.863 76.831 C 337.000 68.076 337.086 68.114 341.329 73.071 "/></g>
<g fill="#B4B4B4FE" stroke="#B4B4B4FE">
<path d="M 317.601 509.068 C 315.457 510.681 314.107 512.007 314.601 512.015 C 315.096 512.024 314.825 512.516 314.000 513.110 C 312.762 514.000 312.828 514.082 314.377 513.577 C 315.409 513.241 316.882 513.487 317.651 514.125 C 318.419 514.763 319.334 515.000 319.682 514.651 C 320.031 514.303 320.871 514.478 321.549 515.040 C 322.227 515.603 324.180 516.162 325.889 516.282 C 327.598 516.402 328.997 516.894 328.998 517.375 C 328.999 517.856 330.463 517.969 332.250 517.626 C 334.561 517.183 335.067 517.287 334.000 517.986 C 332.749 518.806 332.831 518.985 334.500 519.061 C 335.600 519.112 337.400 519.384 338.500 519.666 C 339.600 519.948 341.625 520.327 343.000 520.508 C 344.375 520.689 345.500 520.923 345.500 521.028 C 345.500 521.133 347.018 521.345 348.872 521.499 C 350.727 521.653 352.620 522.385 353.079 523.128 C 353.721 524.166 354.732 523.683 357.470 521.029 C 361.280 517.336 361.546 515.804 358.443 515.412 C 355.918 515.093 347.704 513.394 342.000 512.010 C 339.525 511.409 336.825 510.875 336.000 510.823 C 335.175 510.770 334.050 510.379 333.500 509.953 C 332.416 509.114 324.972 507.468 323.750 507.798 C 323.338 507.909 323.000 507.550 323.000 507.000 C 323.000 505.445 321.818 505.898 317.601 509.068 "/></g>
<g fill="#7CB800FE" stroke="#7CB800FE">
<path d="M 158.000 415.203 C 158.000 415.449 160.843 417.957 164.318 420.777 C 170.959 426.165 180.509 431.953 185.397 433.552 C 186.990 434.073 184.515 432.480 179.897 430.011 C 175.279 427.542 169.025 423.537 166.000 421.111 C 158.196 414.851 158.000 414.706 158.000 415.203 "/></g>
<g fill="#407222FE" stroke="#407222FE">
<path d="M 146.993 343.250 C 146.989 343.388 145.864 346.806 144.493 350.846 C 143.122 354.886 142.037 358.936 142.081 359.846 C 142.126 360.756 142.990 358.800 144.000 355.500 C 145.010 352.200 145.927 349.725 146.037 350.000 C 146.147 350.275 146.176 350.138 146.101 349.696 C 146.026 349.254 146.647 348.210 147.482 347.375 C 149.198 345.659 149.513 343.000 148.000 343.000 C 147.450 343.000 146.997 343.113 146.993 343.250 "/></g>
<g fill="#409A00FE" stroke="#409A00FE">
<path d="M 372.002 423.389 C 371.179 427.850 370.513 432.175 370.522 433.000 C 370.556 435.922 373.308 422.444 373.403 418.889 C 373.456 416.903 372.826 418.928 372.002 423.389 "/></g>
<g fill="#C6E23AFE" stroke="#C6E23AFE">
<path d="M 86.000 489.000 L 95.000 498.000 86.000 489.000 L 77.000 480.000 86.000 489.000 "/></g>
<g fill="#ACD60AFE" stroke="#ACD60AFE">
<path d="M 72.953 200.035 C 71.620 201.041 70.885 202.218 71.319 202.653 C 71.754 203.087 72.527 202.780 73.039 201.971 C 73.834 200.715 73.972 200.710 73.985 201.939 C 73.996 202.970 74.554 202.783 75.955 201.278 C 78.572 198.470 76.284 197.523 72.953 200.035 "/></g>
<g fill="#ACD60AFE" stroke="#ACD60AFE">
<path d="M 59.250 208.662 C 57.766 209.261 57.561 212.000 59.000 212.000 C 59.550 212.000 60.000 211.495 60.000 210.878 C 60.000 210.102 60.464 210.140 61.500 211.000 C 62.753 212.040 63.000 211.896 63.000 210.122 C 63.000 208.067 61.842 207.616 59.250 208.662 "/></g>
<g fill="#EEF8B2FE" stroke="#EEF8B2FE">
<path d="M 85.000 489.000 L 92.000 496.000 85.000 489.000 L 78.000 482.000 85.000 489.000 "/></g>
<g fill="#C6E23AFE" stroke="#C6E23AFE">
<path d="M 79.610 100.408 C 76.371 103.896 73.740 106.993 73.763 107.289 C 73.786 107.586 76.437 104.732 79.653 100.947 L 85.500 94.066 79.610 100.408 "/></g>
<g fill="#7CB800FE" stroke="#7CB800FE">
<path d="M 191.971 439.531 C 190.226 441.388 190.028 442.000 191.171 442.000 C 193.099 442.000 196.438 438.389 195.211 437.630 C 194.705 437.317 193.247 438.173 191.971 439.531 "/></g>
<g fill="#ACD60AFE" stroke="#ACD60AFE">
<path d="M 149.330 529.057 C 148.751 531.226 148.677 533.000 149.164 533.000 C 149.651 533.000 150.320 531.650 150.650 530.000 C 150.980 528.350 151.756 526.986 152.375 526.970 C 152.994 526.953 152.799 526.529 151.941 526.027 C 150.688 525.293 150.176 525.887 149.330 529.057 "/></g>
<g fill="#ACD60AFE" stroke="#ACD60AFE">
<path d="M 280.175 382.250 C 280.342 387.269 280.366 387.313 280.732 383.250 C 280.943 380.913 281.566 379.000 282.117 379.000 C 282.667 379.000 282.840 378.550 282.500 378.000 C 281.007 375.584 280.013 377.401 280.175 382.250 "/></g>
<g fill="#7CB800FE" stroke="#7CB800FE">
<path d="M 250.500 320.149 C 253.800 323.141 255.654 324.548 254.621 323.276 C 253.587 322.004 250.887 319.556 248.621 317.836 C 246.278 316.058 247.089 317.056 250.500 320.149 "/></g>
<g fill="#7CB800FE" stroke="#7CB800FE">
<path d="M 161.500 323.457 L 156.500 328.554 161.500 323.457 L 166.500 318.361 161.500 323.457 "/></g>
<g fill="#ACD60AFE" stroke="#ACD60AFE">
<path d="M 314.200 161.200 C 312.744 162.656 312.620 165.000 314.000 165.000 C 314.907 165.000 315.138 164.324 314.926 162.289 C 314.885 161.898 315.673 161.255 316.676 160.859 C 318.067 160.311 318.132 160.124 316.950 160.070 C 316.098 160.032 314.860 160.540 314.200 161.200 "/></g>
<g fill="#B4B4B4FE" stroke="#B4B4B4FE">
<path d="M 313.031 256.784 C 313.070 257.666 316.698 260.194 319.824 261.517 C 321.102 262.057 320.089 261.053 317.574 259.284 C 315.058 257.515 313.014 256.390 313.031 256.784 "/></g>
<g fill="#409A00FE" stroke="#409A00FE">
<path d="M 335.000 492.953 L 330.500 497.556 335.000 492.953 L 339.500 488.350 335.000 492.953 "/></g>
<g fill="#B4B4B4FE" stroke="#B4B4B4FE">
<path d="M 329.684 268.055 C 330.335 268.850 332.494 270.400 334.481 271.500 C 337.078 272.938 336.745 272.532 333.297 270.055 C 330.658 268.160 329.033 267.260 329.684 268.055 "/></g>
<g fill="#B4B4B4FE" stroke="#B4B4B4FE">
<path d="M 325.500 268.500 L 330.000 273.000 325.500 268.500 L 321.000 264.000 325.500 268.500 "/></g>
<g fill="#EEF8B2FE" stroke="#EEF8B2FE">
<path d="M 81.500 97.449 L 77.500 101.559 81.500 97.449 L 85.500 93.338 81.500 97.449 "/></g>
<g fill="#EEF8B2FE" stroke="#EEF8B2FE">
<path d="M 97.500 81.449 L 93.500 85.559 97.500 81.449 L 101.500 77.338 97.500 81.449 "/></g>
<g fill="#EEF8B2FE" stroke="#EEF8B2FE">
<path d="M 107.417 73.019 L 103.500 76.538 107.417 73.019 L 111.334 69.500 107.417 73.019 "/></g>
<g fill="#7CB800FE" stroke="#7CB800FE">
<path d="M 151.825 407.596 C 152.420 408.750 153.964 410.550 155.257 411.596 C 156.657 412.730 156.220 411.882 154.176 409.500 C 152.289 407.300 151.231 406.443 151.825 407.596 "/></g>
<g fill="#EEF8B2FE" stroke="#EEF8B2FE">
<path d="M 119.694 63.771 L 115.888 66.500 119.514 64.500 C 121.508 63.400 123.221 62.172 123.320 61.771 C 123.419 61.371 121.787 62.271 119.694 63.771 "/></g>
<g fill="#7CB800FE" stroke="#7CB800FE">
<path d="M 139.629 242.792 C 136.775 244.490 136.780 244.492 140.528 243.050 C 142.602 242.252 143.894 241.484 143.399 241.342 C 142.905 241.201 141.208 241.853 139.629 242.792 "/></g>
<g fill="#ACD60AFE" stroke="#ACD60AFE">
<path d="M 263.500 425.435 L 260.500 428.564 263.500 425.435 L 266.500 422.305 263.500 425.435 "/></g>
<g fill="#ACD60AFE" stroke="#ACD60AFE">
<path d="M 65.638 205.500 C 65.288 206.414 65.637 207.000 66.531 207.000 C 67.339 207.000 68.000 206.325 68.000 205.500 C 68.000 204.675 67.598 204.000 67.107 204.000 C 66.616 204.000 65.955 204.675 65.638 205.500 "/></g>
<g fill="#ACD60AFE" stroke="#ACD60AFE">
<path d="M 285.638 62.500 C 285.955 63.325 286.616 64.000 287.107 64.000 C 287.598 64.000 288.000 63.325 288.000 62.500 C 288.000 61.675 287.339 61.000 286.531 61.000 C 285.637 61.000 285.288 61.586 285.638 62.500 "/></g>
<g fill="#EEF8B2FE" stroke="#EEF8B2FE">
<path d="M 109.239 510.632 C 110.195 511.732 111.897 513.053 113.022 513.566 C 114.146 514.080 113.363 513.179 111.283 511.565 C 109.202 509.951 108.282 509.531 109.239 510.632 "/></g>
<g fill="#EEF8B2FE" stroke="#EEF8B2FE">
<path d="M 98.500 501.500 L 102.000 505.000 98.500 501.500 L 95.000 498.000 98.500 501.500 "/></g>
<g fill="#EEF8B2FE" stroke="#EEF8B2FE">
<path d="M 73.500 476.500 L 77.000 480.000 73.500 476.500 L 70.000 473.000 73.500 476.500 "/></g>
<g fill="#EEF8B2FE" stroke="#EEF8B2FE">
<path d="M 262.500 425.435 L 259.500 428.564 262.500 425.435 L 265.500 422.305 262.500 425.435 "/></g>
<g fill="#EEF8B2FE" stroke="#EEF8B2FE">
<path d="M 70.128 110.887 C 68.824 112.500 67.699 114.197 67.628 114.657 C 67.558 115.118 68.625 113.798 70.000 111.725 C 72.333 108.207 72.342 108.151 70.128 110.887 "/></g>
<g fill="#C6E23AFE" stroke="#C6E23AFE">
<path d="M 89.500 89.435 L 86.500 92.564 89.500 89.435 L 92.500 86.305 89.500 89.435 "/></g>
<g fill="#E0E0E0FE" stroke="#E0E0E0FE">
<path d="M 391.500 532.435 L 388.500 535.564 391.500 532.435 L 394.500 529.305 391.500 532.435 "/></g>
<g fill="#E0E0E0FE" stroke="#E0E0E0FE">
<path d="M 217.500 363.435 L 214.500 366.564 217.500 363.435 L 220.500 360.305 217.500 363.435 "/></g>
</svg>
