<?xml version="1.0" encoding="utf-8"?>
<!DOCTYPE svg PUBLIC "-//W3C//DTD SVG 20010904//EN" "http://www.w3.org/TR/2001/REC-SVG-20010904/DTD/svg10.dtd">
<svg version="1.0" xmlns="http://www.w3.org/2000/svg" width="554pt" height="602pt" viewBox="0 0 554 602" style="" preserveAspectRatio="xMidYMid meet">
<g fill="#EAB226FE" stroke="#EAB226FE">
<path d="M 363.000 27.095 C 358.084 27.692 294.399 30.130 283.770 30.128 C 281.689 30.127 280.565 31.613 281.984 32.490 C 282.543 32.835 283.000 32.551 283.000 31.859 C 283.000 30.880 283.267 30.867 284.200 31.800 C 285.066 32.666 285.082 33.000 284.257 33.000 C 283.629 33.000 283.288 33.900 283.500 35.000 C 283.712 36.100 283.492 37.000 283.012 37.000 C 282.532 37.000 281.995 35.988 281.820 34.750 C 281.377 31.631 279.497 32.875 279.511 36.278 C 279.522 39.003 279.420 39.052 274.011 38.858 C 268.881 38.675 254.325 39.357 237.279 40.581 C 233.308 40.866 214.858 40.979 196.279 40.831 C 129.703 40.301 114.028 40.546 106.000 42.241 C 88.820 45.867 79.782 51.538 77.917 59.860 C 75.156 72.186 86.822 92.982 108.910 115.108 C 117.912 124.125 120.774 126.331 128.000 129.825 C 141.795 136.496 159.614 138.963 180.000 137.023 C 186.325 136.422 207.250 133.709 226.500 130.996 C 270.692 124.768 271.040 124.733 270.311 126.633 C 269.986 127.479 269.046 127.875 268.121 127.555 C 266.884 127.128 266.939 127.336 268.350 128.431 C 269.368 129.221 269.960 130.256 269.666 130.731 C 269.372 131.207 269.545 132.249 270.051 133.048 C 270.649 133.994 270.975 134.075 270.985 133.281 C 270.993 132.607 271.675 132.322 272.511 132.643 C 273.600 133.060 273.847 132.765 273.395 131.586 C 272.873 130.227 272.489 130.166 271.133 131.224 C 269.676 132.363 269.649 132.310 270.883 130.738 C 271.849 129.507 272.630 129.278 273.475 129.979 C 274.140 130.531 274.980 130.687 275.342 130.325 C 275.704 129.963 276.000 130.357 276.000 131.201 C 276.000 132.521 278.690 132.282 295.250 129.489 C 329.580 123.699 335.765 122.755 336.888 123.130 C 339.405 123.972 319.033 151.593 273.750 208.733 C 270.038 213.417 267.000 217.944 267.000 218.792 C 267.000 219.640 266.714 220.048 266.365 219.699 C 266.016 219.350 264.404 220.734 262.782 222.775 C 260.242 225.971 260.087 226.486 261.666 226.493 C 263.420 226.500 263.419 226.533 261.638 227.262 C 260.244 227.832 259.887 228.774 260.215 231.012 C 260.456 232.655 260.324 234.000 259.920 234.000 C 259.517 234.000 259.405 234.833 259.671 235.851 C 259.937 236.869 259.413 238.444 258.506 239.351 C 257.297 240.561 257.209 241.009 258.179 241.033 C 258.962 241.053 258.583 241.831 257.250 242.944 C 256.013 243.976 255.000 245.311 255.000 245.910 C 255.000 246.510 254.298 247.000 253.441 247.000 C 252.584 247.000 252.168 247.463 252.518 248.030 C 252.868 248.596 251.883 250.550 250.327 252.372 C 244.874 258.760 219.786 292.170 206.869 310.246 C 199.694 320.286 181.314 347.189 166.024 370.032 C 150.734 392.875 131.664 420.008 123.647 430.328 C 94.239 468.183 85.794 482.156 81.954 499.314 C 80.313 506.648 81.095 508.999 87.170 514.978 C 92.823 520.543 100.968 524.866 111.000 527.627 C 120.364 530.203 145.467 530.207 156.500 527.634 C 172.742 523.845 174.343 522.891 182.185 512.320 C 186.052 507.106 197.740 489.264 208.158 472.670 C 218.576 456.077 227.667 442.050 228.362 441.500 C 229.056 440.950 229.930 439.684 230.305 438.687 C 230.679 437.689 231.434 437.150 231.981 437.489 C 232.529 437.827 232.741 437.489 232.453 436.737 C 232.164 435.985 233.022 434.189 234.359 432.747 C 235.696 431.304 236.537 429.871 236.228 429.562 C 235.919 429.253 236.139 429.000 236.717 429.000 C 237.294 429.000 238.096 427.988 238.499 426.750 C 238.902 425.513 239.291 425.025 239.365 425.667 C 239.439 426.308 239.806 427.139 240.179 427.512 C 240.553 427.886 239.960 429.791 238.862 431.745 C 237.764 433.700 237.278 435.569 237.782 435.900 C 238.873 436.615 238.989 440.000 237.922 440.000 C 237.512 440.000 237.282 440.718 237.411 441.595 C 237.584 442.775 238.096 442.502 239.376 440.550 C 240.357 439.051 240.871 436.955 240.562 435.704 C 240.263 434.492 240.277 434.063 240.593 434.750 C 240.908 435.438 241.606 436.000 242.142 436.000 C 242.679 436.000 242.840 435.550 242.500 435.000 C 242.160 434.450 242.381 434.000 242.992 434.000 C 243.603 434.000 244.770 432.538 245.586 430.750 C 246.403 428.963 248.392 425.363 250.006 422.750 C 251.621 420.138 252.617 417.993 252.221 417.985 C 251.824 417.976 252.012 417.639 252.639 417.235 C 253.265 416.831 257.038 410.875 261.023 404.000 C 290.113 353.820 326.491 295.774 363.698 240.168 C 372.653 226.785 382.529 211.260 385.645 205.668 C 399.999 179.905 416.318 151.930 426.868 135.000 C 445.680 104.811 451.834 91.100 454.071 74.397 C 454.847 68.606 454.850 65.155 454.081 62.301 C 450.207 47.914 427.361 33.171 400.185 27.521 C 392.420 25.907 374.471 25.701 363.000 27.095 M 396.500 36.557 C 412.348 38.306 437.159 51.050 442.946 60.412 C 448.909 70.060 442.724 91.236 425.980 118.500 C 406.649 149.977 395.825 168.233 384.844 187.885 C 378.271 199.646 363.563 223.271 352.159 240.385 C 332.058 270.552 295.850 326.603 288.968 338.208 C 287.106 341.348 285.367 343.700 285.103 343.437 C 284.839 343.173 284.526 343.621 284.407 344.432 C 284.077 346.684 273.994 363.000 272.933 363.000 C 272.420 363.000 272.053 363.338 272.118 363.750 C 272.184 364.163 272.184 365.100 272.118 365.833 C 271.933 367.921 269.721 366.641 269.353 364.233 C 269.113 362.659 269.428 362.227 270.512 362.643 C 271.330 362.957 272.000 362.689 272.000 362.048 C 272.000 361.407 272.521 361.204 273.158 361.597 C 273.962 362.095 274.130 361.606 273.709 359.995 C 273.375 358.720 273.545 356.849 274.087 355.838 C 274.738 354.621 274.731 354.000 274.067 354.000 C 273.514 354.000 273.311 353.353 273.614 352.563 C 273.936 351.725 274.860 351.373 275.833 351.719 C 277.057 352.154 276.943 351.805 275.406 350.406 C 273.312 348.501 273.312 348.499 275.309 346.500 C 276.408 345.400 276.987 345.063 276.595 345.750 C 276.203 346.438 276.381 347.000 276.990 347.000 C 277.681 347.000 278.015 345.160 277.876 342.125 C 277.653 337.239 279.473 331.000 281.121 331.000 C 281.605 331.000 281.951 330.663 281.892 330.250 C 281.655 328.611 283.277 325.053 284.045 325.528 C 284.494 325.805 285.187 325.506 285.585 324.862 C 286.070 324.077 285.872 323.961 284.985 324.510 C 284.010 325.112 283.837 324.866 284.330 323.582 C 284.699 322.622 285.000 319.655 285.000 316.990 C 285.000 314.067 285.581 311.561 286.464 310.679 C 287.270 309.873 288.057 308.614 288.214 307.881 C 288.371 307.148 289.056 305.949 289.736 305.217 C 290.728 304.148 290.897 304.734 290.592 308.193 C 290.253 312.041 290.332 312.234 291.328 310.000 C 291.941 308.625 293.019 307.139 293.724 306.699 C 294.640 306.126 294.828 304.389 294.384 300.613 C 293.821 295.822 294.008 295.083 296.382 292.709 C 297.822 291.269 299.000 289.170 299.000 288.045 C 299.000 286.920 299.351 286.000 299.781 286.000 C 300.210 286.000 301.087 284.609 301.728 282.909 C 302.532 280.780 303.301 280.061 304.198 280.601 C 305.181 281.192 305.164 280.970 304.128 279.692 C 303.208 278.558 303.132 278.000 303.897 278.000 C 304.580 278.000 304.850 276.959 304.570 275.412 C 304.226 273.514 304.465 272.964 305.468 273.349 C 306.219 273.638 307.094 273.198 307.411 272.371 C 307.850 271.227 307.454 271.002 305.744 271.425 C 304.510 271.731 304.063 271.723 304.750 271.407 C 305.438 271.092 306.000 269.971 306.000 268.917 C 306.000 267.862 306.338 267.053 306.750 267.118 C 308.812 267.444 309.765 266.836 309.639 265.274 C 309.563 264.325 310.085 263.537 310.800 263.524 C 311.840 263.505 311.850 263.250 310.850 262.250 C 309.850 261.250 309.852 261.000 310.859 261.000 C 311.551 261.000 311.901 260.649 311.636 260.221 C 311.371 259.792 313.315 256.212 315.956 252.265 C 318.597 248.318 321.892 243.157 323.278 240.795 C 327.203 234.106 341.445 214.089 364.323 183.109 C 399.027 136.117 408.047 121.779 414.131 103.936 C 416.871 95.900 417.360 93.017 417.424 84.500 C 417.489 75.997 417.142 73.709 415.111 69.212 C 411.201 60.560 402.959 54.315 389.000 49.425 C 385.425 48.173 383.288 47.115 384.250 47.074 C 385.456 47.023 386.022 46.145 386.070 44.250 C 386.133 41.813 386.238 41.728 387.000 43.500 C 387.820 45.408 387.863 45.397 387.930 43.250 C 387.968 42.013 388.525 41.000 389.167 41.000 C 389.808 41.000 390.049 40.716 389.702 40.369 C 389.355 40.021 389.543 38.854 390.121 37.774 C 391.040 36.056 390.911 35.893 389.086 36.473 C 387.773 36.889 387.000 36.696 387.000 35.951 C 387.000 35.162 387.919 34.992 389.750 35.441 C 391.263 35.812 394.300 36.314 396.500 36.557 M 265.543 223.931 C 265.226 224.443 265.447 225.158 266.032 225.520 C 266.695 225.930 266.750 226.616 266.177 227.339 C 265.671 227.978 265.385 229.290 265.541 230.255 C 265.697 231.220 265.414 231.756 264.912 231.446 C 263.634 230.656 263.767 223.000 265.059 223.000 C 265.641 223.000 265.859 223.419 265.543 223.931 M 264.716 378.679 C 263.497 380.702 262.640 381.569 262.811 380.605 C 262.982 379.640 262.604 378.228 261.972 377.466 C 261.045 376.349 261.227 376.158 262.911 376.483 C 264.060 376.704 265.000 376.461 265.000 375.943 C 265.000 375.424 265.435 375.000 265.966 375.000 C 266.498 375.000 265.935 376.655 264.716 378.679 M 269.634 370.223 C 268.735 371.122 267.997 372.452 267.994 373.179 C 267.990 373.905 267.315 373.210 266.492 371.633 C 265.072 368.910 265.097 368.792 266.999 369.289 C 268.099 369.577 269.000 369.367 269.000 368.823 C 269.000 368.279 269.510 368.003 270.134 368.211 C 270.877 368.459 270.705 369.152 269.634 370.223 M 260.976 382.485 C 261.669 382.914 261.622 383.837 260.832 385.311 C 259.730 387.367 259.647 387.288 259.465 384.000 C 259.358 382.075 259.547 380.060 259.885 379.522 C 260.223 378.984 260.376 379.288 260.223 380.197 C 260.071 381.106 260.410 382.135 260.976 382.485 "/></g>
<g fill="#B4B4B4FE" stroke="#B4B4B4FE">
<path d="M 481.004 74.190 C 481.006 74.361 482.131 76.714 483.504 79.419 C 487.771 87.829 486.151 101.482 478.774 119.292 C 474.950 128.523 471.984 133.733 450.643 168.710 C 445.875 176.525 435.298 194.769 427.139 209.252 C 418.981 223.736 403.529 248.841 392.802 265.043 C 348.924 331.315 324.964 369.612 293.978 423.000 C 283.923 440.325 271.777 460.350 266.987 467.500 C 262.197 474.650 252.982 489.050 246.508 499.500 C 223.942 535.928 214.612 548.627 207.897 552.053 C 197.460 557.377 171.443 561.715 157.618 560.437 C 137.805 558.604 128.663 555.246 110.155 543.000 L 101.842 537.500 107.843 542.349 C 114.789 547.963 142.071 566.817 147.686 569.883 C 167.108 580.490 193.505 582.538 219.865 575.483 C 231.553 572.355 235.903 570.096 240.465 564.784 C 245.812 558.558 257.712 540.722 274.014 514.500 C 281.879 501.850 290.854 487.900 293.959 483.500 C 297.065 479.100 304.269 467.400 309.968 457.500 C 345.465 395.840 379.946 340.421 421.027 279.000 C 429.671 266.075 442.052 246.050 448.539 234.500 C 464.076 206.839 475.470 187.412 485.490 171.500 C 500.119 148.271 506.657 134.516 509.504 120.982 C 513.621 101.410 509.805 93.793 488.505 79.069 C 484.377 76.215 481.002 74.020 481.004 74.190 "/></g>
<g fill="#6E5014FE" stroke="#6E5014FE">
<path d="M 447.699 51.095 C 449.458 52.968 451.878 56.721 453.077 59.434 C 454.973 63.727 455.170 65.415 454.586 72.414 C 453.253 88.396 445.504 105.836 425.888 137.007 C 420.175 146.085 408.075 166.691 399.000 182.798 C 389.925 198.904 374.833 223.651 365.462 237.791 C 323.913 300.488 272.806 382.102 272.500 386.244 C 272.428 387.229 272.097 387.764 271.765 387.432 C 270.826 386.492 268.821 390.901 269.608 392.175 C 270.046 392.884 269.861 393.032 269.114 392.571 C 268.254 392.039 268.075 392.624 268.475 394.666 C 268.894 396.803 268.820 397.014 268.172 395.522 C 267.322 393.562 267.304 393.563 266.227 395.576 C 264.949 397.965 265.720 399.392 268.500 399.778 C 272.299 400.306 272.679 400.578 272.362 402.535 C 272.187 403.616 272.333 405.175 272.686 406.000 C 273.039 406.825 273.366 406.975 273.414 406.333 C 273.569 404.230 274.791 403.818 277.164 405.069 C 278.449 405.746 279.725 406.570 280.000 406.901 C 280.275 407.232 281.722 408.133 283.216 408.902 C 284.710 409.672 285.653 410.753 285.311 411.305 C 284.966 411.864 285.190 412.001 285.817 411.613 C 287.199 410.759 292.198 413.871 291.432 415.109 C 291.130 415.599 291.994 416.000 293.352 416.000 C 294.760 416.000 295.744 416.538 295.640 417.250 C 295.539 417.938 295.578 418.613 295.728 418.750 C 295.878 418.888 295.962 418.713 295.915 418.362 C 295.868 418.011 296.250 417.448 296.765 417.112 C 297.279 416.775 301.520 409.975 306.189 402.000 C 327.233 366.052 355.099 321.987 392.802 265.043 C 403.529 248.841 418.981 223.736 427.139 209.252 C 435.298 194.769 445.875 176.525 450.643 168.710 C 471.984 133.733 474.950 128.523 478.774 119.292 C 483.171 108.675 486.000 96.911 486.000 89.239 C 486.000 82.869 482.149 75.181 476.441 70.157 C 469.431 63.987 443.908 47.060 447.699 51.095 "/></g>
<g fill="#CE8E12FE" stroke="#CE8E12FE">
<path d="M 387.000 35.951 C 387.000 36.696 387.773 36.889 389.086 36.473 C 390.911 35.893 391.040 36.056 390.121 37.774 C 389.543 38.854 389.355 40.021 389.702 40.369 C 390.049 40.716 389.808 41.000 389.167 41.000 C 388.525 41.000 387.968 42.013 387.930 43.250 C 387.863 45.397 387.820 45.408 387.000 43.500 C 386.238 41.728 386.133 41.813 386.070 44.250 C 386.022 46.145 385.456 47.023 384.250 47.074 C 383.288 47.115 385.425 48.173 389.000 49.425 C 402.959 54.315 411.201 60.560 415.111 69.212 C 417.142 73.709 417.489 75.997 417.424 84.500 C 417.360 93.017 416.871 95.900 414.131 103.936 C 408.047 121.779 399.027 136.117 364.323 183.109 C 341.445 214.089 327.203 234.106 323.278 240.795 C 321.892 243.157 318.597 248.318 315.956 252.265 C 313.315 256.212 311.371 259.792 311.636 260.221 C 311.901 260.649 311.551 261.000 310.859 261.000 C 309.852 261.000 309.850 261.250 310.850 262.250 C 311.850 263.250 311.840 263.505 310.800 263.524 C 310.085 263.537 309.563 264.325 309.639 265.274 C 309.765 266.836 308.812 267.444 306.750 267.118 C 306.338 267.053 306.000 267.862 306.000 268.917 C 306.000 269.971 305.438 271.092 304.750 271.407 C 304.063 271.723 304.510 271.731 305.744 271.425 C 307.454 271.002 307.850 271.227 307.411 272.371 C 307.094 273.198 306.219 273.638 305.468 273.349 C 304.465 272.964 304.226 273.514 304.570 275.412 C 304.850 276.959 304.580 278.000 303.897 278.000 C 303.132 278.000 303.208 278.558 304.128 279.692 C 305.164 280.970 305.181 281.192 304.198 280.601 C 303.301 280.061 302.532 280.780 301.728 282.909 C 301.087 284.609 300.210 286.000 299.781 286.000 C 299.351 286.000 299.000 286.920 299.000 288.045 C 299.000 289.170 297.822 291.269 296.382 292.709 C 294.008 295.083 293.821 295.822 294.384 300.613 C 294.828 304.389 294.640 306.126 293.724 306.699 C 293.019 307.139 291.941 308.625 291.328 310.000 C 290.332 312.234 290.253 312.041 290.592 308.193 C 290.897 304.734 290.728 304.148 289.736 305.217 C 289.056 305.949 288.371 307.148 288.214 307.881 C 288.057 308.614 287.270 309.873 286.464 310.679 C 285.581 311.561 285.000 314.067 285.000 316.990 C 285.000 319.655 284.699 322.622 284.330 323.582 C 283.837 324.866 284.010 325.112 284.985 324.510 C 285.872 323.961 286.070 324.077 285.585 324.862 C 285.187 325.506 284.494 325.805 284.045 325.528 C 283.277 325.053 281.655 328.611 281.892 330.250 C 281.951 330.663 281.605 331.000 281.121 331.000 C 279.473 331.000 277.653 337.239 277.876 342.125 C 278.015 345.160 277.681 347.000 276.990 347.000 C 276.381 347.000 276.203 346.438 276.595 345.750 C 276.987 345.063 276.408 345.400 275.309 346.500 C 273.312 348.499 273.312 348.501 275.406 350.406 C 276.943 351.805 277.057 352.154 275.833 351.719 C 274.860 351.373 273.936 351.725 273.614 352.563 C 273.311 353.353 273.514 354.000 274.067 354.000 C 274.731 354.000 274.738 354.621 274.087 355.838 C 273.545 356.849 273.375 358.720 273.709 359.995 C 274.130 361.606 273.962 362.095 273.158 361.597 C 272.521 361.204 272.000 361.407 272.000 362.048 C 272.000 362.689 271.330 362.957 270.512 362.643 C 269.428 362.227 269.113 362.659 269.353 364.233 C 269.721 366.641 271.933 367.921 272.118 365.833 C 272.184 365.100 272.184 364.163 272.118 363.750 C 272.053 363.338 272.420 363.000 272.933 363.000 C 273.994 363.000 284.077 346.684 284.407 344.432 C 284.526 343.621 284.839 343.173 285.103 343.437 C 285.367 343.700 287.106 341.348 288.968 338.208 C 295.850 326.603 332.058 270.552 352.159 240.385 C 363.563 223.271 378.271 199.646 384.844 187.885 C 395.825 168.233 406.649 149.977 425.980 118.500 C 442.724 91.236 448.909 70.060 442.946 60.412 C 437.159 51.050 412.348 38.306 396.500 36.557 C 394.300 36.314 391.263 35.812 389.750 35.441 C 387.919 34.992 387.000 35.162 387.000 35.951 "/></g>
<g fill="#181204FE" stroke="#181204FE">
<path d="M 235.374 447.831 C 234.343 448.938 227.678 459.217 220.561 470.672 C 213.445 482.127 203.720 497.350 198.950 504.500 C 182.615 528.986 180.227 531.105 164.099 535.421 C 144.365 540.702 125.846 541.022 108.500 536.381 C 103.550 535.057 98.902 533.867 98.172 533.737 C 96.730 533.480 116.096 547.143 122.147 550.651 C 140.193 561.116 168.904 563.431 194.775 556.508 C 211.445 552.046 213.246 550.497 228.488 527.500 C 241.700 507.567 263.710 471.742 264.156 469.444 C 264.533 467.507 260.558 463.717 256.750 462.381 C 255.788 462.043 255.000 461.413 255.000 460.981 C 255.000 460.549 253.763 459.688 252.250 459.067 C 247.508 457.120 245.503 455.560 245.417 453.750 C 245.371 452.788 245.258 452.450 245.167 453.000 C 245.075 453.550 244.502 454.000 243.893 454.000 C 243.284 454.000 243.009 453.419 243.281 452.709 C 243.598 451.884 242.834 451.340 241.167 451.202 C 239.732 451.083 237.869 450.226 237.029 449.298 C 235.630 447.753 235.650 447.723 237.274 448.947 C 239.588 450.692 240.846 449.417 238.814 447.385 C 237.391 445.963 237.074 446.004 235.374 447.831 "/></g>
<g fill="#FEF05CFE" stroke="#FEF05CFE">
<path d="M 257.614 228.617 C 256.113 230.499 255.472 231.920 256.192 231.776 C 256.911 231.631 256.712 231.896 255.750 232.364 C 254.156 233.138 231.611 261.590 212.853 286.500 C 200.333 303.124 178.533 334.608 154.688 370.500 C 142.264 389.200 127.514 410.350 121.909 417.500 C 105.846 437.990 92.638 455.892 87.969 463.500 C 78.276 479.296 72.052 495.621 72.015 505.349 C 71.970 517.090 85.944 529.356 106.500 535.619 C 114.786 538.143 116.888 538.366 133.000 538.430 C 149.077 538.494 151.394 538.270 161.500 535.672 C 167.695 534.079 174.684 531.532 177.500 529.841 C 184.462 525.658 194.738 511.468 214.048 479.369 C 219.630 470.091 225.996 459.716 228.196 456.313 C 230.396 452.911 232.040 449.842 231.848 449.493 C 231.657 449.145 232.400 448.356 233.500 447.740 C 234.600 447.124 235.078 446.718 234.563 446.838 C 234.047 446.957 233.529 446.399 233.411 445.597 C 233.287 444.751 233.754 444.352 234.522 444.647 C 235.251 444.926 236.347 444.220 236.958 443.078 C 237.570 441.935 237.744 441.000 237.344 441.000 C 236.945 441.000 237.429 440.407 238.420 439.682 C 240.083 438.466 240.097 438.240 238.596 436.739 C 237.095 435.238 237.120 434.848 238.914 431.652 C 239.983 429.749 240.553 427.886 240.179 427.512 C 239.806 427.139 239.439 426.308 239.365 425.667 C 239.291 425.025 238.902 425.513 238.499 426.750 C 238.096 427.988 237.294 429.000 236.717 429.000 C 236.139 429.000 235.919 429.253 236.228 429.562 C 236.537 429.871 235.696 431.304 234.359 432.747 C 233.022 434.189 232.164 435.985 232.453 436.737 C 232.741 437.489 232.529 437.827 231.981 437.489 C 231.434 437.150 230.679 437.689 230.305 438.687 C 229.930 439.684 229.056 440.950 228.362 441.500 C 227.667 442.050 218.576 456.077 208.158 472.670 C 197.740 489.264 186.052 507.106 182.185 512.320 C 174.343 522.891 172.742 523.845 156.500 527.634 C 145.467 530.207 120.364 530.203 111.000 527.627 C 100.968 524.866 92.823 520.543 87.170 514.978 C 81.095 508.999 80.313 506.648 81.954 499.314 C 85.794 482.156 94.239 468.183 123.647 430.328 C 131.664 420.008 150.734 392.875 166.024 370.032 C 181.314 347.189 199.694 320.286 206.869 310.246 C 219.786 292.170 244.874 258.760 250.327 252.372 C 251.883 250.550 252.868 248.596 252.518 248.030 C 252.168 247.463 252.584 247.000 253.441 247.000 C 254.298 247.000 255.000 246.510 255.000 245.910 C 255.000 245.311 256.013 243.976 257.250 242.944 C 258.583 241.831 258.962 241.053 258.179 241.033 C 257.209 241.009 257.297 240.561 258.506 239.351 C 259.413 238.444 259.937 236.869 259.671 235.851 C 259.405 234.833 259.533 234.000 259.955 234.000 C 260.377 234.000 260.494 232.805 260.215 231.344 C 259.875 229.564 260.260 228.283 261.383 227.462 C 262.708 226.493 262.774 226.127 261.702 225.716 C 260.935 225.421 259.158 226.683 257.614 228.617 "/></g>
<g fill="#6E5014FE" stroke="#6E5014FE">
<path d="M 325.500 124.608 C 304.951 128.673 216.777 142.154 188.500 145.554 C 164.624 148.425 139.107 146.244 127.728 140.359 C 120.725 136.738 125.183 140.322 139.288 149.653 C 163.264 165.515 169.547 167.435 197.500 167.445 C 212.888 167.451 220.207 166.928 236.000 164.694 C 281.149 158.308 315.640 152.714 317.636 151.453 C 318.811 150.710 323.893 144.005 328.929 136.551 C 339.342 121.140 339.541 121.831 325.500 124.608 "/></g>
<g fill="#FEF05CFE" stroke="#FEF05CFE">
<path d="M 246.000 31.083 C 220.290 32.373 191.292 32.548 156.500 31.623 C 114.961 30.518 101.247 31.942 85.426 39.004 C 59.579 50.541 63.170 79.150 94.886 114.369 C 109.656 130.769 120.771 138.560 135.500 142.835 C 155.866 148.746 169.393 148.306 227.000 139.858 C 245.975 137.076 263.380 134.564 265.679 134.278 C 269.172 133.842 269.834 133.407 269.718 131.628 C 269.641 130.458 268.886 128.936 268.039 128.248 C 266.667 127.131 266.676 127.056 268.121 127.555 C 269.046 127.875 269.986 127.479 270.311 126.633 C 271.040 124.733 270.692 124.768 226.500 130.996 C 207.250 133.709 186.325 136.422 180.000 137.023 C 159.614 138.963 141.795 136.496 128.000 129.825 C 120.774 126.331 117.912 124.125 108.910 115.108 C 86.822 92.982 75.156 72.186 77.917 59.860 C 79.782 51.538 88.820 45.867 106.000 42.241 C 114.028 40.546 129.703 40.301 196.279 40.831 C 214.858 40.979 233.308 40.866 237.279 40.581 C 254.325 39.357 268.881 38.675 274.011 38.858 C 279.420 39.052 279.522 39.003 279.511 36.278 C 279.498 33.029 281.351 31.972 281.820 34.960 C 281.995 36.082 282.532 37.000 283.012 37.000 C 283.492 37.000 283.712 36.100 283.500 35.000 C 283.288 33.900 283.499 33.000 283.969 33.000 C 284.439 33.000 284.688 32.213 284.524 31.250 C 284.239 29.588 284.188 29.587 283.507 31.244 C 283.113 32.204 282.380 32.735 281.879 32.425 C 281.378 32.115 281.226 31.443 281.543 30.931 C 281.859 30.419 281.679 30.000 281.142 30.000 C 280.606 30.000 279.960 30.563 279.708 31.250 C 279.342 32.250 278.985 32.250 277.925 31.250 C 276.462 29.869 270.792 29.840 246.000 31.083 "/></g>
<g fill="#B4B4B4FE" stroke="#B4B4B4FE">
<path d="M 135.347 148.386 C 142.248 154.653 179.277 178.720 186.111 181.379 C 204.075 188.370 227.585 188.610 271.125 182.246 L 296.750 178.500 307.798 164.807 C 314.343 156.694 317.960 151.493 316.673 152.044 C 314.524 152.964 273.742 159.360 236.000 164.695 C 209.480 168.445 182.864 168.642 170.104 165.185 C 159.948 162.434 153.272 159.207 140.893 151.068 C 134.057 146.574 132.547 145.843 135.347 148.386 "/></g>
<g fill="#40300CFE" stroke="#40300CFE">
<path d="M 260.559 406.500 C 257.326 412.000 252.296 420.550 249.382 425.500 C 246.468 430.450 242.283 437.200 240.080 440.500 C 237.878 443.800 236.466 446.402 236.942 446.282 C 238.110 445.988 240.445 448.888 239.667 449.667 C 239.327 450.007 238.250 449.683 237.274 448.947 C 235.650 447.723 235.630 447.753 237.029 449.298 C 237.869 450.226 239.732 451.083 241.167 451.202 C 242.834 451.340 243.598 451.884 243.281 452.709 C 243.009 453.419 243.284 454.000 243.893 454.000 C 244.502 454.000 245.075 453.550 245.167 453.000 C 245.258 452.450 245.371 452.788 245.417 453.750 C 245.503 455.560 247.508 457.120 252.250 459.067 C 253.763 459.688 255.000 460.549 255.000 460.981 C 255.000 461.413 255.788 462.043 256.750 462.381 C 260.589 463.728 264.532 467.508 264.177 469.500 C 263.823 471.483 263.833 471.483 265.304 469.535 C 266.379 468.111 266.532 466.900 265.862 465.136 C 265.038 462.970 265.113 462.849 266.544 464.037 C 267.551 464.872 268.404 465.003 268.826 464.388 C 269.197 463.847 270.891 461.401 272.592 458.952 C 275.842 454.273 296.142 418.725 296.369 417.317 C 296.441 416.868 295.255 416.357 293.733 416.182 C 292.211 416.007 291.195 415.494 291.474 415.041 C 292.210 413.851 287.154 410.787 285.817 411.613 C 285.190 412.001 284.966 411.864 285.311 411.305 C 285.653 410.753 284.710 409.672 283.216 408.902 C 281.722 408.133 280.275 407.232 280.000 406.901 C 279.725 406.570 278.449 405.746 277.164 405.069 C 274.791 403.818 273.569 404.230 273.414 406.333 C 273.366 406.975 273.039 406.825 272.686 406.000 C 272.333 405.175 272.187 403.616 272.362 402.535 C 272.679 400.578 272.299 400.306 268.500 399.778 C 267.400 399.625 266.486 398.825 266.469 398.000 C 266.452 397.175 263.793 401.000 260.559 406.500 "/></g>
<g fill="#FEF05CFE" stroke="#FEF05CFE">
<path d="M 264.000 226.941 C 264.000 229.109 264.410 231.136 264.912 231.446 C 265.414 231.756 265.697 231.220 265.541 230.255 C 265.385 229.290 265.671 227.978 266.177 227.339 C 266.750 226.616 266.695 225.930 266.032 225.520 C 265.447 225.158 265.226 224.443 265.543 223.931 C 265.859 223.419 265.641 223.000 265.059 223.000 C 264.477 223.000 264.000 224.773 264.000 226.941 "/></g>
<g fill="#CE8E12FE" stroke="#CE8E12FE">
<path d="M 265.000 375.943 C 265.000 376.461 264.060 376.704 262.911 376.483 C 261.227 376.158 261.045 376.349 261.972 377.466 C 262.604 378.228 262.982 379.640 262.811 380.605 C 262.640 381.569 263.497 380.702 264.716 378.679 C 265.935 376.655 266.498 375.000 265.966 375.000 C 265.435 375.000 265.000 375.424 265.000 375.943 "/></g>
<g fill="#CE8E12FE" stroke="#CE8E12FE">
<path d="M 269.000 368.823 C 269.000 369.367 268.099 369.577 266.999 369.289 C 265.097 368.792 265.072 368.910 266.492 371.633 C 267.315 373.210 267.990 373.905 267.994 373.179 C 267.997 372.452 268.735 371.122 269.634 370.223 C 270.705 369.152 270.877 368.459 270.134 368.211 C 269.510 368.003 269.000 368.279 269.000 368.823 "/></g>
<g fill="#FEF05CFE" stroke="#FEF05CFE">
<path d="M 271.084 130.399 C 270.174 131.495 270.179 131.993 271.106 132.565 C 271.841 133.020 272.048 132.887 271.638 132.224 C 271.269 131.627 271.378 130.885 271.879 130.575 C 272.380 130.265 273.048 130.684 273.364 131.506 C 274.139 133.527 276.000 133.405 276.000 131.333 C 276.000 130.417 275.704 129.963 275.342 130.325 C 274.980 130.687 274.140 130.531 273.475 129.979 C 272.642 129.288 271.898 129.418 271.084 130.399 "/></g>
<g fill="#CE8E12FE" stroke="#CE8E12FE">
<path d="M 259.885 379.522 C 259.547 380.060 259.358 382.075 259.465 384.000 C 259.647 387.288 259.730 387.367 260.832 385.311 C 261.622 383.837 261.669 382.914 260.976 382.485 C 260.410 382.135 260.071 381.106 260.223 380.197 C 260.376 379.288 260.223 378.984 259.885 379.522 "/></g>
</svg>
