<?xml version="1.0" encoding="utf-8"?>
<!DOCTYPE svg PUBLIC "-//W3C//DTD SVG 20010904//EN" "http://www.w3.org/TR/2001/REC-SVG-20010904/DTD/svg10.dtd">
<svg version="1.0" xmlns="http://www.w3.org/2000/svg" width="455pt" height="602pt" viewBox="0 0 455 602" style="" preserveAspectRatio="xMidYMid meet">
<g fill="#E44E12FE" stroke="#E44E12FE">
<path d="M 212.500 55.718 C 213.050 56.247 218.375 58.390 224.334 60.479 C 231.813 63.101 234.755 64.553 233.834 65.168 C 232.936 65.767 233.473 65.966 235.479 65.779 C 238.887 65.460 239.871 68.244 236.530 68.754 C 235.447 68.919 232.951 70.730 230.983 72.777 C 227.101 76.818 226.814 77.000 224.333 77.000 C 223.417 77.000 222.930 77.264 223.252 77.586 C 224.060 78.393 219.929 83.000 218.396 83.000 C 217.713 83.000 215.816 84.125 214.182 85.500 C 212.548 86.875 210.714 88.000 210.106 88.000 C 209.094 88.000 208.583 89.358 208.882 91.250 C 208.947 91.663 207.891 92.000 206.535 92.000 C 205.060 92.000 203.622 92.837 202.954 94.086 C 202.340 95.233 201.537 95.870 201.169 95.502 C 200.801 95.134 200.484 95.208 200.464 95.667 C 200.385 97.507 197.568 100.771 196.434 100.336 C 195.769 100.081 194.628 101.218 193.900 102.864 C 193.172 104.509 192.218 105.635 191.781 105.364 C 191.344 105.094 190.706 105.603 190.364 106.494 C 190.022 107.386 189.125 107.878 188.371 107.589 C 187.617 107.300 187.000 107.510 187.000 108.056 C 187.000 108.602 185.905 109.466 184.567 109.974 C 183.229 110.483 181.119 112.272 179.879 113.950 C 178.639 115.627 177.114 117.000 176.491 117.000 C 175.868 117.000 173.311 118.962 170.808 121.359 C 168.306 123.757 165.076 126.015 163.630 126.378 C 162.183 126.741 161.000 127.459 161.000 127.974 C 161.000 128.488 159.855 130.055 158.455 131.455 C 156.116 133.793 154.745 134.433 152.750 134.118 C 152.046 134.007 151.615 135.562 151.882 137.250 C 151.947 137.663 151.351 138.000 150.557 138.000 C 149.763 138.000 148.449 138.949 147.637 140.108 C 146.824 141.268 145.743 141.959 145.233 141.644 C 144.723 141.329 141.096 144.205 137.173 148.035 C 133.250 151.866 129.612 155.000 129.088 155.000 C 128.564 155.000 127.839 155.931 127.478 157.069 C 126.871 158.983 126.728 159.010 125.574 157.431 C 124.887 156.493 123.690 155.976 122.913 156.283 C 121.872 156.695 121.961 156.863 123.250 156.921 C 125.553 157.025 125.528 160.000 123.224 160.000 C 121.325 160.000 112.000 169.004 112.000 170.839 C 112.000 171.443 111.329 171.680 110.508 171.365 C 109.652 171.036 108.751 171.486 108.392 172.422 C 107.994 173.458 107.354 173.731 106.633 173.170 C 104.990 171.892 100.897 171.024 101.558 172.093 C 101.866 172.592 102.977 173.000 104.028 173.000 C 105.314 173.000 105.749 173.489 105.362 174.500 C 105.045 175.325 104.133 176.000 103.334 176.000 C 102.491 176.000 102.181 176.484 102.595 177.155 C 103.041 177.875 102.869 178.037 102.140 177.586 C 101.445 177.157 99.433 178.513 97.177 180.932 C 94.971 183.298 92.467 185.000 91.192 185.000 C 89.934 185.000 89.000 185.624 89.000 186.465 C 89.000 187.270 88.100 188.411 87.000 189.000 C 85.900 189.589 85.000 190.763 85.000 191.609 C 85.000 192.533 84.304 193.013 83.256 192.811 C 82.218 192.611 79.857 194.202 77.427 196.737 C 75.181 199.082 73.022 201.000 72.630 201.000 C 71.797 201.000 67.411 204.946 68.061 205.111 C 68.303 205.172 67.974 205.060 67.330 204.861 C 65.564 204.316 70.965 219.026 76.758 230.542 C 83.946 244.831 92.844 257.675 101.541 266.315 L 109.053 273.779 103.277 277.032 C 74.968 292.974 50.515 315.603 36.643 338.696 C 23.093 361.253 16.666 383.663 16.625 408.500 C 16.590 430.016 19.657 444.328 27.766 460.500 C 46.527 497.911 84.170 523.844 133.500 533.340 C 159.082 538.264 178.662 538.851 205.109 535.485 C 210.943 534.743 216.379 534.233 217.188 534.351 C 218.943 534.609 218.545 540.033 216.685 541.216 C 212.872 543.641 235.176 538.599 250.242 533.631 C 278.184 524.417 313.315 504.657 329.083 489.286 C 331.604 486.829 333.688 484.297 333.714 483.659 C 333.740 483.022 334.089 481.713 334.488 480.750 C 335.054 479.386 334.694 478.974 332.857 478.884 C 331.162 478.801 330.992 478.639 332.250 478.311 C 333.213 478.059 334.000 477.211 334.000 476.427 C 334.000 475.642 335.013 473.994 336.250 472.765 C 340.848 468.198 352.185 453.240 357.028 445.351 C 378.554 410.289 385.331 373.787 376.869 338.500 C 374.390 328.159 368.078 313.118 362.700 304.731 C 360.665 301.557 359.000 298.720 359.000 298.426 C 359.000 298.132 357.656 296.453 356.012 294.696 C 353.892 292.427 353.214 290.920 353.676 289.500 C 355.163 284.928 354.618 280.980 352.287 279.452 C 351.029 278.628 349.944 278.189 349.875 278.477 C 349.806 278.765 349.694 278.468 349.625 277.818 C 349.304 274.781 324.908 261.068 314.250 257.933 C 311.913 257.246 310.000 256.483 310.000 256.238 C 310.000 255.994 314.111 251.452 319.136 246.147 C 339.899 224.222 355.751 194.362 358.392 172.198 C 359.792 160.450 359.183 142.753 357.104 134.767 C 350.655 110.000 335.317 88.572 313.872 74.373 C 303.482 67.493 297.503 64.570 283.500 59.524 C 272.978 55.733 268.920 54.659 269.157 55.729 C 269.440 57.003 267.832 62.000 267.142 61.994 C 266.789 61.991 264.925 61.552 263.000 61.018 C 250.261 57.486 209.943 53.254 212.500 55.718 M 217.115 319.750 C 217.341 323.169 217.506 323.979 218.000 324.084 C 218.275 324.143 218.163 324.400 217.750 324.655 C 216.395 325.492 215.076 323.971 215.638 322.218 C 216.077 320.848 215.986 320.786 215.187 321.909 C 213.260 324.619 215.003 326.000 220.357 326.006 C 227.768 326.014 243.379 328.545 251.436 331.044 C 260.248 333.777 274.869 339.657 276.860 341.267 C 278.072 342.248 278.230 342.244 277.633 341.250 C 277.220 340.563 277.359 340.000 277.941 340.000 C 278.523 340.000 279.069 340.338 279.152 340.750 C 279.236 341.163 279.349 340.825 279.404 340.000 C 279.458 339.175 279.052 338.500 278.501 338.500 C 277.951 338.500 277.455 337.308 277.400 335.852 L 277.301 333.204 282.400 336.294 C 290.827 341.400 300.208 351.665 304.760 360.760 C 314.442 380.104 312.247 398.416 297.660 420.000 C 291.851 428.596 277.496 440.837 273.750 440.390 C 273.338 440.340 273.338 440.226 273.750 440.135 C 274.163 440.044 273.893 439.585 273.152 439.115 C 272.087 438.440 272.298 437.799 274.152 436.069 C 275.817 434.514 275.991 434.071 274.750 434.545 C 273.697 434.948 273.000 434.746 273.000 434.039 C 273.000 433.351 271.765 433.743 270.020 434.986 C 260.263 441.933 238.833 449.671 220.750 452.776 C 211.892 454.297 211.000 454.651 211.000 456.642 C 211.000 457.847 211.563 459.034 212.250 459.280 C 215.703 460.513 210.576 461.534 199.437 461.831 C 149.501 463.165 108.890 439.321 100.502 403.745 C 95.467 382.391 104.263 358.139 122.412 343.334 C 142.918 326.607 169.175 318.471 203.750 318.130 C 215.712 318.013 217.011 318.170 217.115 319.750 M 214.750 127.172 C 218.738 127.783 222.000 128.669 222.000 129.141 C 222.000 129.614 222.661 130.000 223.469 130.000 C 224.428 130.000 224.716 130.577 224.299 131.664 C 223.911 132.675 224.063 133.079 224.686 132.694 C 225.310 132.308 225.542 132.944 225.279 134.321 C 224.911 136.248 224.306 136.538 221.174 136.290 C 218.532 136.082 219.466 136.578 224.500 138.058 C 247.961 144.956 261.858 158.394 263.338 175.612 C 264.728 191.786 251.789 209.909 231.500 220.205 C 228.200 221.880 225.349 223.646 225.165 224.131 C 224.980 224.616 224.418 224.758 223.915 224.447 C 223.412 224.136 223.000 224.385 223.000 225.000 C 223.000 225.615 222.550 225.840 222.000 225.500 C 221.161 224.981 220.462 228.539 220.875 231.231 C 221.347 234.308 206.960 237.965 194.299 237.985 C 182.351 238.004 176.334 236.696 166.257 231.885 C 150.947 224.576 139.715 210.760 135.405 193.934 C 133.305 185.739 133.886 169.611 136.519 163.000 C 139.164 156.358 146.678 145.347 150.614 142.345 C 152.506 140.902 153.780 139.446 153.444 139.111 C 153.108 138.775 153.321 138.444 153.917 138.375 C 154.513 138.306 155.365 138.194 155.811 138.125 C 156.258 138.056 157.710 136.988 159.038 135.750 C 160.366 134.513 161.464 133.666 161.477 133.868 C 161.489 134.070 163.232 133.512 165.350 132.627 C 181.728 125.784 195.651 124.246 214.750 127.172 "/></g>
<g fill="#FE8A2CFE" stroke="#FE8A2CFE">
<path d="M 197.977 47.141 C 181.372 48.263 167.779 51.550 148.864 59.016 C 116.458 71.809 84.032 99.815 69.310 127.726 C 56.001 152.959 52.242 191.106 60.555 216.573 C 65.174 230.722 77.736 252.519 89.122 266.139 C 91.255 268.690 92.993 271.165 92.985 271.639 C 92.977 272.112 88.169 275.846 82.300 279.936 C 66.136 291.200 55.365 300.602 45.394 312.152 C 34.053 325.288 31.423 329.123 25.020 341.863 C 12.763 366.252 8.012 385.032 8.004 409.119 C 7.997 430.904 12.290 448.176 22.681 468.176 C 35.278 492.422 55.257 511.271 83.477 525.534 C 110.429 539.158 138.090 545.066 174.301 544.934 C 184.327 544.897 196.766 544.238 202.000 543.467 C 207.225 542.697 212.725 541.914 214.222 541.728 C 217.613 541.306 217.780 541.132 218.264 537.516 C 218.759 533.823 218.493 533.782 205.109 535.485 C 178.662 538.851 159.082 538.264 133.500 533.340 C 84.170 523.844 46.527 497.911 27.766 460.500 C 19.657 444.328 16.590 430.016 16.625 408.500 C 16.666 383.663 23.093 361.253 36.643 338.696 C 50.515 315.603 74.968 292.974 103.277 277.032 L 109.053 273.779 101.541 266.315 C 92.844 257.675 83.946 244.831 76.758 230.542 C 70.965 219.026 65.564 204.316 67.330 204.861 C 67.974 205.060 68.303 205.172 68.061 205.111 C 67.411 204.946 71.797 201.000 72.630 201.000 C 73.022 201.000 75.181 199.082 77.427 196.737 C 79.857 194.202 82.218 192.611 83.256 192.811 C 84.304 193.013 85.000 192.533 85.000 191.609 C 85.000 190.763 85.900 189.589 87.000 189.000 C 88.100 188.411 89.000 187.270 89.000 186.465 C 89.000 185.624 89.934 185.000 91.192 185.000 C 92.467 185.000 94.971 183.298 97.177 180.932 C 99.433 178.513 101.445 177.157 102.140 177.586 C 102.869 178.037 103.041 177.875 102.595 177.155 C 102.181 176.484 102.491 176.000 103.334 176.000 C 104.133 176.000 105.045 175.325 105.362 174.500 C 105.749 173.489 105.314 173.000 104.028 173.000 C 102.977 173.000 101.866 172.592 101.558 172.093 C 100.897 171.024 104.990 171.892 106.633 173.170 C 107.354 173.731 107.994 173.458 108.392 172.422 C 108.751 171.486 109.652 171.036 110.508 171.365 C 111.329 171.680 112.000 171.443 112.000 170.839 C 112.000 169.004 121.325 160.000 123.224 160.000 C 125.528 160.000 125.553 157.025 123.250 156.921 C 121.961 156.863 121.872 156.695 122.913 156.283 C 123.690 155.976 124.887 156.493 125.574 157.431 C 126.728 159.010 126.871 158.983 127.478 157.069 C 127.839 155.931 128.564 155.000 129.088 155.000 C 129.612 155.000 133.250 151.866 137.173 148.035 C 141.096 144.205 144.723 141.329 145.233 141.644 C 145.743 141.959 146.824 141.268 147.637 140.108 C 148.449 138.949 149.763 138.000 150.557 138.000 C 151.351 138.000 151.947 137.663 151.882 137.250 C 151.615 135.562 152.046 134.007 152.750 134.118 C 154.745 134.433 156.116 133.793 158.455 131.455 C 159.855 130.055 161.000 128.488 161.000 127.974 C 161.000 127.459 162.183 126.741 163.630 126.378 C 165.076 126.015 168.306 123.757 170.808 121.359 C 173.311 118.962 175.868 117.000 176.491 117.000 C 177.114 117.000 178.639 115.627 179.879 113.950 C 181.119 112.272 183.229 110.483 184.567 109.974 C 185.905 109.466 187.000 108.602 187.000 108.056 C 187.000 107.510 187.617 107.300 188.371 107.589 C 189.125 107.878 190.022 107.386 190.364 106.494 C 190.706 105.603 191.344 105.094 191.781 105.364 C 192.218 105.635 193.172 104.509 193.900 102.864 C 194.628 101.218 195.769 100.081 196.434 100.336 C 197.568 100.771 200.385 97.507 200.464 95.667 C 200.484 95.208 200.801 95.134 201.169 95.502 C 201.537 95.870 202.340 95.233 202.954 94.086 C 203.622 92.837 205.060 92.000 206.535 92.000 C 207.891 92.000 208.947 91.663 208.882 91.250 C 208.583 89.358 209.094 88.000 210.106 88.000 C 210.714 88.000 212.548 86.875 214.182 85.500 C 215.816 84.125 217.713 83.000 218.396 83.000 C 219.929 83.000 224.060 78.393 223.252 77.586 C 222.930 77.264 223.417 77.000 224.333 77.000 C 226.814 77.000 227.101 76.818 230.983 72.777 C 232.951 70.730 235.447 68.919 236.530 68.754 C 239.871 68.244 238.887 65.460 235.479 65.779 C 233.473 65.966 232.936 65.767 233.834 65.168 C 234.755 64.553 231.813 63.101 224.334 60.479 C 218.375 58.390 213.050 56.247 212.500 55.718 C 209.914 53.226 249.764 57.436 263.320 61.086 C 265.455 61.661 267.290 61.989 267.398 61.816 C 268.917 59.377 269.649 56.057 268.922 54.908 C 268.432 54.134 268.024 53.893 268.015 54.372 C 268.007 54.852 267.437 54.778 266.749 54.207 C 264.902 52.674 245.860 49.208 232.849 48.036 C 216.990 46.607 208.931 46.400 197.977 47.141 "/></g>
<g fill="#B4B4B4FE" stroke="#B4B4B4FE">
<path d="M 389.127 305.690 C 389.882 306.724 392.369 310.029 394.653 313.035 C 405.094 326.775 414.348 349.353 417.569 368.948 C 419.733 382.109 419.048 405.113 416.105 418.089 C 410.587 442.425 398.282 468.096 383.546 486.016 C 371.353 500.842 350.299 519.196 332.500 530.511 C 318.476 539.428 294.187 550.183 275.500 555.752 C 260.351 560.267 258.385 560.749 246.342 562.906 C 197.576 571.639 149.189 564.880 108.485 543.647 C 99.590 539.008 79.948 525.999 76.045 522.163 C 75.189 521.322 74.449 521.153 74.249 521.753 C 73.505 523.985 122.209 557.179 137.500 564.861 C 188.180 590.322 257.027 591.901 316.013 568.954 C 398.369 536.917 447.854 470.270 442.944 398.000 C 440.345 359.742 423.559 328.253 395.583 309.155 C 391.277 306.216 388.372 304.656 389.127 305.690 "/></g>
<g fill="#842C0CFE" stroke="#842C0CFE">
<path d="M 191.500 326.659 C 172.331 328.959 157.545 333.136 144.000 340.080 C 131.592 346.440 123.286 353.281 117.733 361.714 C 110.750 372.317 108.652 378.793 108.570 390.000 C 108.503 399.155 110.331 409.000 112.099 409.000 C 112.560 409.000 112.713 409.584 112.439 410.299 C 111.754 412.083 118.884 422.732 123.619 426.995 L 127.500 430.491 123.345 425.995 C 119.526 421.863 113.000 412.414 113.000 411.016 C 113.000 410.690 115.025 410.357 117.500 410.276 C 119.975 410.196 122.000 410.577 122.000 411.124 C 122.000 411.671 122.450 411.840 123.000 411.500 C 123.550 411.160 124.000 411.632 124.000 412.548 C 124.000 413.618 124.537 414.008 125.500 413.638 C 126.325 413.322 127.000 413.386 126.999 413.781 C 126.999 414.177 128.645 414.500 130.657 414.500 C 133.916 414.500 134.553 414.946 136.482 418.575 L 138.649 422.651 138.190 414.717 C 137.263 398.706 142.091 386.770 154.458 374.500 C 170.727 358.359 192.995 349.748 226.071 346.806 C 246.240 345.012 271.152 347.676 288.500 353.482 C 289.600 353.850 287.800 351.599 284.500 348.481 C 280.355 344.563 275.409 341.308 268.500 337.950 C 256.657 332.193 247.286 329.427 233.000 327.474 C 223.608 326.191 199.377 325.715 191.500 326.659 "/></g>
<g fill="#B4B4B4FE" stroke="#B4B4B4FE">
<path d="M 221.500 347.027 C 205.874 348.800 185.000 353.988 185.000 356.099 C 185.000 356.660 184.544 356.836 183.987 356.492 C 180.942 354.610 160.899 367.146 152.363 376.271 C 141.969 387.384 137.363 399.986 138.252 414.881 C 138.835 424.648 141.154 431.646 146.453 439.626 C 149.789 444.651 150.387 445.059 157.738 447.325 C 162.007 448.640 165.658 449.585 165.852 449.423 C 166.045 449.262 165.508 446.963 164.657 444.315 C 160.830 432.403 162.028 419.585 168.144 407.000 C 172.591 397.848 184.850 385.902 195.549 380.294 C 205.665 374.991 221.700 369.596 234.000 367.355 C 246.536 365.072 277.624 364.878 290.842 367.000 L 300.184 368.500 295.455 361.355 C 290.745 354.239 290.697 354.201 283.343 352.018 C 279.282 350.813 272.481 349.204 268.230 348.444 C 258.265 346.663 231.787 345.860 221.500 347.027 "/></g>
<g fill="#842C0CFE" stroke="#842C0CFE">
<path d="M 388.930 369.025 C 389.114 398.237 376.734 433.850 357.429 459.636 C 349.354 470.424 336.292 484.147 325.768 492.900 C 322.066 495.980 319.816 498.074 320.768 497.553 C 322.702 496.496 336.200 485.909 337.033 484.797 C 337.891 483.651 345.324 484.472 345.754 485.761 C 345.969 486.407 347.724 487.233 349.653 487.595 C 351.582 487.956 353.371 488.804 353.630 489.478 C 353.909 490.204 355.159 490.501 356.699 490.207 C 358.652 489.833 359.098 490.033 358.494 491.010 C 357.931 491.920 358.082 492.068 358.997 491.502 C 359.810 490.999 360.776 491.341 361.556 492.407 C 362.353 493.497 363.046 493.734 363.463 493.060 C 363.823 492.477 363.641 491.933 363.059 491.850 C 362.477 491.768 362.450 491.700 363.000 491.700 C 367.010 491.700 369.058 492.201 370.357 493.500 C 373.081 496.224 375.654 495.172 380.749 489.250 C 390.156 478.317 395.306 470.444 402.054 456.687 C 412.942 434.490 417.684 417.318 418.701 396.404 L 419.289 384.309 416.895 383.559 C 415.578 383.146 413.375 382.665 412.000 382.490 C 410.625 382.314 408.150 381.460 406.500 380.591 C 404.850 379.723 402.713 379.010 401.750 379.006 C 400.788 379.003 400.113 378.494 400.250 377.875 C 400.388 377.256 399.875 376.523 399.111 376.245 C 398.260 375.936 397.992 376.178 398.420 376.870 C 399.392 378.443 398.254 378.284 393.973 376.250 C 390.379 374.541 390.287 374.359 390.109 368.547 C 389.843 359.856 388.875 360.248 388.930 369.025 "/></g>
<g fill="#B4B4B4FE" stroke="#B4B4B4FE">
<path d="M 365.571 113.524 C 368.360 116.811 371.397 120.613 372.321 121.973 C 373.244 123.332 374.034 124.007 374.077 123.473 C 374.119 122.938 374.318 123.388 374.521 124.473 C 374.723 125.558 375.674 127.020 376.635 127.723 C 377.596 128.425 378.064 129.000 377.674 129.000 C 377.285 129.000 378.092 131.222 379.468 133.937 C 386.642 148.095 390.223 162.764 390.052 177.299 C 389.700 207.303 377.534 235.615 352.796 264.000 C 345.927 271.881 345.509 272.617 347.049 274.105 C 347.963 274.988 355.638 280.497 364.105 286.348 C 372.572 292.198 380.175 297.457 381.000 298.034 C 381.825 298.612 379.913 296.968 376.750 294.382 C 373.588 291.795 371.000 289.486 371.000 289.251 C 371.000 289.015 373.946 285.600 377.547 281.661 C 403.905 252.828 417.363 217.408 413.892 186.000 C 412.547 173.827 407.381 157.890 401.267 147.048 C 394.005 134.171 378.853 118.999 364.000 109.732 C 360.605 107.614 360.652 107.727 365.571 113.524 "/></g>
<g fill="#000000FE" stroke="#000000FE">
<path d="M 82.000 526.386 C 82.000 526.617 86.766 530.050 92.591 534.015 C 142.699 568.123 214.489 576.071 278.500 554.596 C 287.476 551.585 288.246 551.141 286.015 550.262 C 283.995 549.465 283.526 549.583 283.504 550.891 C 283.487 551.956 283.220 551.785 282.715 550.388 C 282.290 549.211 280.524 547.846 278.726 547.305 C 276.952 546.772 275.602 545.842 275.726 545.239 C 275.871 544.535 275.016 544.629 273.334 545.502 C 271.107 546.657 270.503 546.645 269.280 545.423 C 267.187 543.330 264.992 542.352 260.604 541.559 C 258.461 541.171 255.677 540.179 254.417 539.354 C 253.157 538.528 251.311 537.955 250.313 538.080 C 249.316 538.205 247.657 537.944 246.627 537.500 C 245.454 536.993 240.600 537.701 233.627 539.395 C 217.677 543.270 208.421 544.787 192.251 546.178 C 174.149 547.734 148.093 546.190 130.601 542.526 C 117.800 539.844 94.666 532.385 86.824 528.411 C 84.171 527.066 82.000 526.155 82.000 526.386 "/></g>
<g fill="#842C0CFE" stroke="#842C0CFE">
<path d="M 332.995 89.653 C 344.078 101.501 351.448 114.597 356.667 131.716 C 359.088 139.657 359.347 142.036 359.365 156.500 C 359.383 170.654 359.084 173.614 356.774 182.155 C 353.493 194.289 347.337 208.347 340.575 219.147 C 337.699 223.741 336.195 226.600 337.234 225.500 C 339.421 223.183 347.970 209.023 350.063 204.250 C 351.622 200.696 352.991 200.000 353.015 202.750 C 353.029 204.260 353.176 204.294 354.091 203.000 C 354.811 201.983 355.304 201.868 355.624 202.644 C 355.884 203.273 356.924 203.571 357.935 203.307 C 358.947 203.042 360.077 203.315 360.446 203.913 C 360.816 204.511 362.190 205.000 363.500 205.000 C 364.810 205.000 366.139 205.415 366.452 205.923 C 366.766 206.431 368.368 207.142 370.011 207.503 C 371.655 207.864 373.000 208.628 373.000 209.202 C 373.000 209.830 373.604 209.744 374.519 208.984 C 375.751 207.962 376.364 208.004 377.769 209.210 C 380.124 211.232 382.450 211.958 383.831 211.104 C 387.976 208.543 391.456 176.221 389.070 162.441 C 384.113 133.808 368.203 111.045 339.603 91.668 L 326.705 82.930 332.995 89.653 "/></g>
<g fill="#B4B4B4FE" stroke="#B4B4B4FE">
<path d="M 217.575 156.060 C 196.482 159.591 179.413 173.190 174.464 190.409 C 171.351 201.240 174.065 218.919 179.959 226.197 C 181.546 228.158 182.929 228.527 189.852 228.842 L 197.900 229.207 197.900 220.786 C 197.900 207.173 201.880 197.966 211.609 189.074 C 222.223 179.374 233.520 175.167 251.321 174.285 L 263.141 173.699 262.512 171.100 C 261.181 165.601 257.714 159.841 255.126 158.828 C 246.867 155.595 228.459 154.238 217.575 156.060 "/></g>
<g fill="#561C08FE" stroke="#561C08FE">
<path d="M 336.815 484.806 C 336.382 485.760 323.995 495.507 315.500 501.577 C 303.806 509.932 295.107 515.066 281.671 521.542 C 273.067 525.689 269.379 527.931 270.473 528.351 C 271.539 528.760 271.861 528.584 271.403 527.844 C 270.925 527.069 271.530 526.868 273.316 527.210 C 274.754 527.484 276.082 527.253 276.268 526.695 C 276.587 525.739 279.623 526.794 280.024 528.000 C 280.116 528.275 280.381 528.193 280.612 527.818 C 280.844 527.443 282.264 527.778 283.767 528.562 C 285.270 529.346 287.486 529.990 288.691 529.994 C 289.896 529.997 291.122 530.388 291.415 530.863 C 291.967 531.755 300.354 534.401 303.000 534.518 C 303.825 534.554 305.940 535.352 307.700 536.292 C 309.461 537.231 311.850 538.000 313.009 538.000 C 314.183 538.000 314.840 538.451 314.490 539.016 C 314.144 539.575 313.466 539.788 312.981 539.488 C 312.497 539.189 311.965 539.624 311.800 540.454 C 311.392 542.508 324.657 535.657 337.048 527.414 C 353.530 516.450 377.650 495.000 373.497 495.000 C 372.595 495.000 371.182 494.325 370.357 493.500 C 369.058 492.201 367.010 491.700 363.000 491.700 C 362.450 491.700 362.477 491.768 363.059 491.850 C 363.641 491.933 363.823 492.477 363.463 493.060 C 363.046 493.734 362.353 493.497 361.556 492.407 C 360.776 491.341 359.810 490.999 358.997 491.502 C 358.082 492.068 357.931 491.920 358.494 491.010 C 359.098 490.033 358.652 489.833 356.699 490.207 C 355.159 490.501 353.909 490.204 353.630 489.478 C 353.371 488.804 351.592 487.958 349.676 487.599 C 347.761 487.240 345.976 486.381 345.711 485.690 C 345.207 484.377 337.363 483.597 336.815 484.806 "/></g>
<g fill="#FE8A2CFE" stroke="#FE8A2CFE">
<path d="M 181.000 319.490 C 145.316 324.109 116.391 341.633 104.977 365.548 C 90.417 396.055 103.563 429.980 137.070 448.369 C 153.158 457.198 177.354 462.421 199.437 461.831 C 210.576 461.534 215.703 460.513 212.250 459.280 C 211.563 459.034 211.000 457.806 211.000 456.551 C 211.000 454.282 210.900 454.266 193.250 453.706 C 175.055 453.129 166.971 451.736 154.229 446.980 C 137.121 440.594 121.679 428.840 114.656 416.857 C 105.798 401.741 105.185 383.486 113.013 367.907 C 125.157 343.741 158.160 327.920 199.801 326.303 C 211.063 325.866 214.981 325.394 214.644 324.514 C 214.391 323.857 214.636 322.684 215.187 321.909 C 215.986 320.786 216.077 320.848 215.638 322.218 C 215.076 323.971 216.395 325.492 217.750 324.655 C 218.163 324.400 218.275 324.143 218.000 324.084 C 217.506 323.979 217.341 323.169 217.115 319.750 C 217.011 318.170 215.712 318.013 203.750 318.130 C 196.463 318.202 186.225 318.814 181.000 319.490 "/></g>
<g fill="#561C08FE" stroke="#561C08FE">
<path d="M 164.249 144.918 C 149.980 154.140 141.995 169.903 143.742 185.401 C 144.283 190.200 147.407 195.199 148.295 192.688 C 148.601 191.824 149.504 191.940 151.608 193.114 C 154.889 194.945 159.890 196.427 161.750 196.119 C 162.438 196.005 163.007 196.495 163.015 197.206 C 163.027 198.234 163.204 198.226 163.876 197.166 C 164.557 196.092 164.840 196.141 165.329 197.416 C 165.664 198.287 166.796 199.000 167.846 199.000 C 170.010 199.000 171.556 200.571 172.276 203.500 C 172.547 204.600 172.820 203.219 172.884 200.432 C 173.146 188.972 178.297 178.481 187.874 169.897 C 193.393 164.950 207.773 157.077 211.573 156.921 C 212.641 156.877 212.940 156.616 212.244 156.336 C 211.553 156.057 211.242 155.418 211.553 154.915 C 211.864 154.412 211.304 153.966 210.309 153.923 C 205.808 153.733 200.000 151.506 200.000 149.970 C 200.000 149.589 198.946 149.479 197.658 149.725 C 196.370 149.971 194.678 149.535 193.899 148.756 C 193.120 147.977 191.872 147.543 191.125 147.792 C 190.379 148.040 189.450 147.728 189.061 147.098 C 188.671 146.468 186.586 145.909 184.426 145.857 C 182.267 145.805 179.150 144.997 177.500 144.063 C 171.854 140.864 170.372 140.960 164.249 144.918 "/></g>
<g fill="#561C08FE" stroke="#561C08FE">
<path d="M 350.064 204.250 C 344.990 215.824 332.304 233.495 319.027 247.485 C 314.337 252.426 312.445 254.760 314.822 252.672 C 318.412 249.518 319.399 249.086 320.648 250.123 C 321.769 251.053 322.334 251.078 322.864 250.219 C 323.484 249.217 325.853 249.894 329.274 252.049 C 329.398 252.127 329.068 252.458 328.541 252.784 C 328.013 253.110 329.363 253.503 331.541 253.658 C 335.503 253.939 341.059 254.600 342.000 254.903 C 342.275 254.991 341.626 255.724 340.559 256.532 C 339.491 257.339 339.064 258.000 339.609 258.000 C 340.154 258.000 341.034 257.566 341.564 257.036 C 342.827 255.773 351.044 258.522 352.825 260.803 C 354.034 262.353 354.409 262.197 357.146 259.000 C 365.634 249.089 375.562 233.002 380.292 221.500 C 384.217 211.954 384.296 211.448 381.888 211.267 C 380.726 211.179 378.935 210.346 377.907 209.416 C 376.381 208.035 375.759 207.955 374.519 208.984 C 373.604 209.744 373.000 209.830 373.000 209.202 C 373.000 208.628 371.655 207.864 370.011 207.503 C 368.368 207.142 366.766 206.431 366.452 205.923 C 366.139 205.415 364.810 205.000 363.500 205.000 C 362.190 205.000 360.816 204.511 360.446 203.913 C 360.077 203.315 358.947 203.042 357.935 203.307 C 356.924 203.571 355.884 203.273 355.624 202.644 C 355.304 201.868 354.811 201.983 354.091 203.000 C 353.176 204.294 353.029 204.260 353.015 202.750 C 352.991 200.000 351.622 200.696 350.064 204.250 "/></g>
<g fill="#FE8A2CFE" stroke="#FE8A2CFE">
<path d="M 190.500 126.118 C 182.868 126.765 173.701 129.138 165.350 132.627 C 163.232 133.512 161.489 134.070 161.477 133.868 C 161.464 133.666 160.366 134.513 159.038 135.750 C 157.710 136.988 156.258 138.056 155.811 138.125 C 155.365 138.194 154.513 138.306 153.917 138.375 C 153.321 138.444 153.108 138.775 153.444 139.111 C 153.780 139.446 152.506 140.902 150.614 142.345 C 146.678 145.347 139.164 156.358 136.519 163.000 C 133.886 169.611 133.305 185.739 135.405 193.934 C 139.715 210.760 150.947 224.576 166.257 231.885 C 170.791 234.049 176.885 236.310 179.799 236.910 C 191.326 239.281 212.619 237.445 218.533 233.570 C 219.860 232.701 220.661 230.965 220.819 228.616 C 220.953 226.627 220.880 225.000 220.657 225.000 C 220.434 225.000 218.452 225.635 216.253 226.411 C 210.658 228.385 194.604 230.196 189.100 229.474 C 186.570 229.142 183.063 228.681 181.306 228.450 C 176.595 227.829 170.188 225.118 164.238 221.229 C 149.414 211.539 140.020 191.064 142.892 174.702 C 146.081 156.536 160.395 142.142 180.346 137.039 C 191.169 134.271 201.867 133.706 214.173 135.250 L 224.845 136.590 225.278 134.325 C 225.542 132.945 225.311 132.308 224.686 132.694 C 224.063 133.079 223.911 132.675 224.299 131.664 C 224.716 130.577 224.428 130.000 223.469 130.000 C 222.661 130.000 222.000 129.614 222.000 129.141 C 222.000 127.093 201.829 125.157 190.500 126.118 "/></g>
<g fill="#BA4220FE" stroke="#BA4220FE">
<path d="M 354.244 284.750 C 354.334 286.263 354.097 288.400 353.716 289.500 C 353.216 290.946 353.852 292.385 356.012 294.696 C 357.656 296.453 359.000 298.132 359.000 298.426 C 359.000 298.720 360.665 301.557 362.700 304.731 C 368.078 313.118 374.390 328.159 376.869 338.500 C 385.331 373.787 378.554 410.289 357.028 445.351 C 352.185 453.240 340.848 468.198 336.250 472.765 C 335.013 473.994 334.000 475.642 334.000 476.427 C 334.000 477.211 333.213 478.059 332.250 478.311 C 330.992 478.639 331.162 478.801 332.857 478.884 C 334.694 478.974 335.054 479.386 334.488 480.750 C 334.089 481.713 333.740 483.086 333.714 483.801 C 333.688 484.517 332.335 486.223 330.708 487.592 C 329.080 488.962 327.953 490.286 328.202 490.535 C 329.162 491.495 350.443 469.009 357.574 459.500 C 370.337 442.478 381.516 417.515 386.150 395.688 C 389.063 381.969 389.325 356.486 386.680 344.125 C 381.991 322.206 371.277 299.635 358.836 285.466 C 355.163 281.282 354.027 281.105 354.244 284.750 "/></g>
<g fill="#561C08FE" stroke="#561C08FE">
<path d="M 377.635 313.781 C 381.150 321.770 384.237 330.855 386.100 338.692 C 388.469 348.658 390.892 372.441 389.747 374.487 C 389.135 375.582 389.323 375.813 390.467 375.374 C 391.319 375.048 393.121 375.505 394.473 376.390 C 397.317 378.254 399.434 378.511 398.420 376.870 C 397.992 376.178 398.260 375.936 399.111 376.245 C 399.875 376.523 400.388 377.256 400.250 377.875 C 400.113 378.494 400.788 379.003 401.750 379.006 C 402.713 379.010 404.850 379.723 406.500 380.591 C 408.150 381.460 410.725 382.269 412.221 382.390 C 413.718 382.511 415.256 382.922 415.638 383.305 C 416.020 383.687 416.991 384.000 417.796 384.000 C 420.859 384.000 416.767 359.641 411.074 343.978 C 407.829 335.052 398.152 316.638 395.332 314.024 C 394.428 313.186 394.714 313.997 395.967 315.827 C 397.600 318.210 397.939 319.461 397.165 320.235 C 396.391 321.009 395.692 320.989 394.700 320.166 C 393.939 319.534 392.996 319.337 392.605 319.728 C 392.214 320.119 392.157 319.754 392.478 318.917 C 392.936 317.724 392.157 317.341 388.872 317.147 C 383.832 316.850 381.000 315.487 381.000 313.358 C 381.000 312.348 380.445 311.999 379.448 312.382 C 378.594 312.709 378.142 312.579 378.442 312.093 C 378.743 311.607 378.316 310.951 377.494 310.636 C 376.210 310.143 376.230 310.587 377.635 313.781 "/></g>
<g fill="#842C0CFE" stroke="#842C0CFE">
<path d="M 185.500 136.050 C 177.613 137.969 171.000 140.289 171.000 141.137 C 171.000 141.612 171.649 142.000 172.443 142.000 C 173.236 142.000 175.374 142.846 177.193 143.881 C 179.012 144.915 182.267 145.805 184.426 145.857 C 186.586 145.909 188.671 146.468 189.061 147.098 C 189.450 147.728 190.379 148.040 191.125 147.792 C 191.872 147.543 193.120 147.977 193.899 148.756 C 194.678 149.535 196.370 149.971 197.658 149.725 C 198.946 149.479 200.000 149.589 200.000 149.970 C 200.000 151.506 205.808 153.733 210.309 153.923 C 211.304 153.966 211.869 154.403 211.565 154.895 C 210.635 156.400 213.275 156.796 218.513 155.937 C 228.610 154.281 243.079 155.330 255.000 158.580 C 257.062 159.143 256.548 158.282 252.067 153.664 C 245.717 147.121 234.362 140.955 223.000 137.878 C 214.407 135.552 192.032 134.461 185.500 136.050 "/></g>
<g fill="#BA4220FE" stroke="#BA4220FE">
<path d="M 277.400 335.852 C 277.455 337.308 277.951 338.500 278.501 338.500 C 279.052 338.500 279.458 339.175 279.404 340.000 C 279.349 340.825 279.236 341.114 279.152 340.643 C 279.069 340.172 278.415 340.011 277.700 340.285 C 276.984 340.559 275.297 340.174 273.950 339.427 C 272.602 338.681 271.050 338.059 270.500 338.045 C 269.950 338.030 271.845 339.364 274.712 341.008 C 281.417 344.853 292.006 354.767 295.845 360.793 C 302.533 371.290 304.467 382.935 301.451 394.540 C 299.912 400.458 294.608 411.139 290.805 415.976 C 287.601 420.052 277.504 430.375 275.160 431.971 C 272.568 433.735 272.290 435.485 274.750 434.545 C 275.991 434.071 275.817 434.514 274.152 436.069 C 272.298 437.799 272.087 438.440 273.152 439.115 C 273.893 439.585 274.163 440.044 273.750 440.135 C 273.338 440.226 273.338 440.340 273.750 440.390 C 277.496 440.837 291.851 428.596 297.660 420.000 C 312.247 398.416 314.442 380.104 304.760 360.760 C 300.208 351.665 290.827 341.400 282.400 336.294 L 277.301 333.204 277.400 335.852 "/></g>
<g fill="#321004FE" stroke="#321004FE">
<path d="M 276.000 526.861 C 276.000 527.335 274.808 527.495 273.351 527.216 C 271.355 526.835 270.901 527.030 271.506 528.010 C 271.999 528.808 271.914 529.065 271.284 528.675 C 270.720 528.327 264.278 529.986 256.970 532.363 C 246.133 535.887 244.126 536.824 246.091 537.447 C 247.416 537.867 249.316 538.130 250.313 538.032 C 251.311 537.933 253.157 538.528 254.417 539.354 C 255.677 540.179 258.461 541.171 260.604 541.559 C 264.992 542.352 267.187 543.330 269.280 545.423 C 270.503 546.645 271.107 546.657 273.334 545.502 C 275.016 544.629 275.871 544.535 275.726 545.239 C 275.602 545.842 276.952 546.772 278.726 547.305 C 280.516 547.844 282.297 549.216 282.726 550.388 C 283.197 551.673 283.452 551.852 283.377 550.846 C 283.273 549.448 283.703 549.349 286.158 550.205 C 289.388 551.331 290.293 551.055 303.750 544.833 C 308.288 542.735 312.000 540.537 312.000 539.950 C 312.000 539.363 312.419 539.141 312.931 539.457 C 313.443 539.774 314.144 539.575 314.490 539.016 C 314.840 538.451 314.183 538.000 313.009 538.000 C 311.850 538.000 309.461 537.231 307.700 536.292 C 305.940 535.352 303.825 534.554 303.000 534.518 C 300.354 534.401 291.967 531.755 291.415 530.863 C 291.122 530.388 289.896 529.997 288.691 529.994 C 287.486 529.990 285.270 529.346 283.767 528.562 C 282.264 527.778 280.844 527.443 280.612 527.818 C 280.381 528.193 280.186 528.325 280.181 528.112 C 280.167 527.568 277.656 526.034 276.750 526.015 C 276.338 526.007 276.000 526.388 276.000 526.861 "/></g>
<g fill="#321004FE" stroke="#321004FE">
<path d="M 145.926 194.115 C 146.368 196.104 148.021 200.154 149.601 203.115 C 153.202 209.866 165.409 222.492 167.223 221.341 C 168.227 220.704 168.233 220.501 167.250 220.390 C 165.343 220.176 164.855 219.772 166.250 219.562 C 167.993 219.299 171.081 222.060 170.356 223.233 C 170.027 223.765 170.683 223.705 171.814 223.100 C 174.789 221.508 177.000 221.749 177.000 223.667 C 177.000 224.583 177.284 225.049 177.631 224.702 C 177.978 224.355 177.493 222.451 176.553 220.471 C 175.613 218.491 174.150 213.412 173.300 209.185 C 171.597 200.708 170.682 199.000 167.846 199.000 C 166.796 199.000 165.664 198.287 165.329 197.416 C 164.840 196.141 164.557 196.092 163.876 197.166 C 163.204 198.226 163.027 198.234 163.015 197.206 C 163.007 196.495 162.438 196.005 161.750 196.119 C 159.890 196.427 154.889 194.945 151.608 193.114 C 149.317 191.836 148.620 191.771 148.257 192.803 C 147.918 193.764 147.447 193.633 146.461 192.303 C 145.296 190.732 145.227 190.965 145.926 194.115 "/></g>
<g fill="#561C08FE" stroke="#561C08FE">
<path d="M 114.616 414.036 C 117.519 419.369 125.842 429.313 131.120 433.754 C 132.730 435.109 137.074 437.712 140.774 439.538 L 147.500 442.858 144.207 436.462 C 142.397 432.944 140.074 427.620 139.045 424.632 C 136.042 415.902 134.244 413.753 130.327 414.210 C 128.497 414.424 127.000 414.253 127.000 413.831 C 127.000 413.408 126.325 413.322 125.500 413.638 C 124.537 414.008 124.000 413.618 124.000 412.548 C 124.000 411.632 123.550 411.160 123.000 411.500 C 122.450 411.840 122.000 411.616 122.000 411.003 C 122.000 410.329 120.717 410.050 118.750 410.298 C 116.963 410.523 114.661 410.279 113.635 409.757 C 112.076 408.962 112.237 409.665 114.616 414.036 "/></g>
<g fill="#321004FE" stroke="#321004FE">
<path d="M 315.520 252.117 L 311.860 255.330 317.180 257.510 C 324.164 260.373 338.813 267.764 342.086 270.076 L 344.671 271.902 349.346 267.156 C 353.347 263.094 353.839 262.172 352.760 260.758 C 351.052 258.519 342.818 255.782 341.564 257.036 C 341.034 257.566 340.154 258.000 339.609 258.000 C 339.064 258.000 339.491 257.339 340.559 256.532 C 341.626 255.724 342.275 254.991 342.000 254.903 C 341.059 254.600 335.503 253.939 331.541 253.658 C 329.363 253.503 328.013 253.110 328.541 252.784 C 329.068 252.458 329.275 252.063 329.000 251.906 C 324.759 249.493 323.523 249.154 322.864 250.219 C 322.333 251.079 321.776 251.059 320.666 250.138 C 319.444 249.123 318.528 249.475 315.520 252.117 "/></g>
<g fill="#321004FE" stroke="#321004FE">
<path d="M 365.200 289.200 C 364.361 290.039 364.930 291.508 367.410 294.914 C 369.246 297.437 372.198 302.088 373.969 305.250 C 375.741 308.413 377.625 311.000 378.154 311.000 C 378.684 311.000 378.843 311.445 378.507 311.989 C 378.157 312.555 378.558 312.723 379.448 312.382 C 380.445 311.999 381.000 312.348 381.000 313.358 C 381.000 315.487 383.832 316.850 388.872 317.147 C 392.157 317.341 392.936 317.724 392.478 318.917 C 392.157 319.754 392.214 320.119 392.605 319.728 C 392.996 319.337 393.939 319.534 394.700 320.166 C 395.648 320.953 396.409 320.991 397.113 320.287 C 399.154 318.246 389.691 305.674 381.000 298.879 C 370.055 290.322 366.349 288.051 365.200 289.200 "/></g>
<g fill="#000000FE" stroke="#000000FE">
<path d="M 165.618 220.191 C 166.453 221.542 176.099 225.999 178.000 225.911 C 179.023 225.864 179.103 225.682 178.250 225.338 C 177.563 225.060 177.000 224.143 177.000 223.300 C 177.000 222.165 176.286 221.905 174.250 222.300 C 172.495 222.640 170.849 222.248 169.702 221.218 C 167.673 219.395 164.658 218.637 165.618 220.191 "/></g>
<g fill="#842C0CFE" stroke="#842C0CFE">
<path d="M 365.331 294.183 C 367.729 297.657 371.204 303.294 373.053 306.709 C 374.903 310.123 376.577 312.756 376.774 312.560 C 377.633 311.700 364.227 289.877 361.991 288.495 C 361.431 288.148 362.934 290.708 365.331 294.183 "/></g>
<g fill="#E4E4E4FE" stroke="#E4E4E4FE">
<path d="M 300.026 395.250 C 300.040 395.938 298.802 399.604 297.276 403.398 C 294.888 409.331 294.829 409.695 296.848 405.996 C 300.014 400.198 302.136 394.000 300.956 394.000 C 300.430 394.000 300.012 394.563 300.026 395.250 "/></g>
<g fill="#842C0CFE" stroke="#842C0CFE">
<path d="M 318.500 247.468 L 311.500 254.545 318.500 247.468 L 325.500 240.392 318.500 247.468 "/></g>
<g fill="#BA4220FE" stroke="#BA4220FE">
<path d="M 330.481 87.528 C 334.320 91.362 335.801 92.700 333.772 90.500 C 331.743 88.300 330.064 86.163 330.041 85.750 C 330.019 85.338 330.000 85.309 330.000 85.687 C 330.000 86.065 328.538 85.065 326.750 83.465 C 324.963 81.865 326.641 83.693 330.481 87.528 "/></g>
<g fill="#FE9E52FE" stroke="#FE9E52FE">
<path d="M 93.000 95.966 L 86.500 102.547 93.000 95.966 L 99.500 89.385 93.000 95.966 "/></g>
<g fill="#842C0CFE" stroke="#842C0CFE">
<path d="M 290.660 516.374 L 284.821 519.500 290.477 517.049 C 293.588 515.701 296.216 514.295 296.317 513.924 C 296.418 513.552 293.872 514.655 290.660 516.374 "/></g>
<g fill="#E4E4E4FE" stroke="#E4E4E4FE">
<path d="M 395.500 518.457 L 390.500 523.554 395.500 518.457 L 400.500 513.361 395.500 518.457 "/></g>
<g fill="#000000FE" stroke="#000000FE">
<path d="M 362.010 287.271 C 363.380 288.519 365.100 289.532 365.834 289.521 C 366.567 289.509 365.798 288.488 364.124 287.250 C 360.178 284.333 358.803 284.346 362.010 287.271 "/></g>
<g fill="#842C0CFE" stroke="#842C0CFE">
<path d="M 356.500 282.500 L 361.000 287.000 356.500 282.500 L 352.000 278.000 356.500 282.500 "/></g>
<g fill="#E4E4E4FE" stroke="#E4E4E4FE">
<path d="M 194.000 229.100 L 189.500 229.700 193.750 229.850 C 196.088 229.932 198.113 229.663 198.250 229.250 C 198.388 228.838 196.475 228.770 194.000 229.100 "/></g>
<g fill="#842C0CFE" stroke="#842C0CFE">
<path d="M 277.000 523.000 C 275.075 524.054 273.950 524.916 274.500 524.916 C 275.050 524.916 277.075 524.054 279.000 523.000 C 280.925 521.946 282.050 521.084 281.500 521.084 C 280.950 521.084 278.925 521.946 277.000 523.000 "/></g>
<g fill="#BA4220FE" stroke="#BA4220FE">
<path d="M 252.000 153.000 L 256.000 157.000 252.000 153.000 L 248.000 149.000 252.000 153.000 "/></g>
<g fill="#E4E4E4FE" stroke="#E4E4E4FE">
<path d="M 385.000 126.000 L 389.000 130.000 385.000 126.000 L 381.000 122.000 385.000 126.000 "/></g>
<g fill="#842C0CFE" stroke="#842C0CFE">
<path d="M 155.500 151.435 L 152.500 154.564 155.500 151.435 L 158.500 148.305 155.500 151.435 "/></g>
<g fill="#561C08FE" stroke="#561C08FE">
<path d="M 263.500 529.535 C 260.999 530.740 260.916 530.878 263.000 530.369 C 265.834 529.677 269.018 528.053 267.500 528.076 C 266.950 528.084 265.150 528.740 263.500 529.535 "/></g>
<g fill="#561C08FE" stroke="#561C08FE">
<path d="M 157.500 214.500 L 161.000 218.000 157.500 214.500 L 154.000 211.000 157.500 214.500 "/></g>
<g fill="#E4E4E4FE" stroke="#E4E4E4FE">
<path d="M 259.629 439.792 C 256.775 441.490 256.780 441.492 260.528 440.050 C 262.602 439.252 263.894 438.484 263.399 438.342 C 262.905 438.201 261.208 438.853 259.629 439.792 "/></g>
<g fill="#E4E4E4FE" stroke="#E4E4E4FE">
<path d="M 256.956 196.746 C 254.948 200.789 255.207 201.613 257.347 197.989 C 258.364 196.269 258.999 194.666 258.760 194.427 C 258.521 194.187 257.709 195.231 256.956 196.746 "/></g>
<g fill="#FEC498FE" stroke="#FEC498FE">
<path d="M 283.500 423.435 L 280.500 426.564 283.500 423.435 L 286.500 420.305 283.500 423.435 "/></g>
<g fill="#FEC498FE" stroke="#FEC498FE">
<path d="M 52.500 303.435 L 49.500 306.564 52.500 303.435 L 55.500 300.305 52.500 303.435 "/></g>
</svg>
