<?xml version="1.0" encoding="utf-8"?>
<!DOCTYPE svg PUBLIC "-//W3C//DTD SVG 20010904//EN" "http://www.w3.org/TR/2001/REC-SVG-20010904/DTD/svg10.dtd">
<svg version="1.0" xmlns="http://www.w3.org/2000/svg" width="491pt" height="602pt" viewBox="0 0 491 602" style="" preserveAspectRatio="xMidYMid meet">
<g fill="#865CB0FE" stroke="#865CB0FE">
<path d="M 199.000 31.695 C 179.101 33.826 145.920 43.648 136.883 50.083 C 135.403 51.137 133.698 52.000 133.096 52.000 C 132.493 52.000 132.000 52.450 132.000 53.000 C 132.000 53.550 131.395 54.000 130.655 54.000 C 128.794 54.000 125.654 57.662 125.479 60.037 C 125.328 62.084 126.464 62.677 127.457 61.069 C 127.774 60.557 127.546 59.837 126.951 59.470 C 126.231 59.025 126.444 58.167 127.590 56.901 C 129.375 54.928 131.585 54.244 130.500 56.000 C 130.160 56.550 130.359 57.000 130.941 57.000 C 131.523 57.000 131.993 58.238 131.985 59.750 C 131.975 61.535 131.686 62.053 131.162 61.227 C 130.166 59.659 128.000 68.441 128.000 74.045 C 128.000 76.955 127.650 77.803 126.611 77.404 C 125.290 76.897 124.534 79.608 123.724 87.750 C 123.601 88.988 122.881 90.000 122.125 90.000 C 121.112 90.000 120.914 90.857 121.374 93.250 C 121.749 95.208 121.655 95.969 121.137 95.165 C 120.055 93.486 119.033 96.854 119.014 102.167 C 119.006 104.183 118.578 105.983 118.061 106.167 C 117.545 106.350 116.962 107.720 116.766 109.212 C 116.570 110.704 116.092 112.241 115.704 112.629 C 115.317 113.016 115.000 115.021 115.000 117.083 C 115.000 119.146 114.597 120.983 114.105 121.167 C 113.612 121.350 112.975 123.075 112.690 125.000 C 111.765 131.224 110.801 135.380 108.882 141.415 C 107.847 144.668 107.000 149.056 107.000 151.165 C 107.000 153.780 106.556 155.000 105.604 155.000 C 104.585 155.000 104.017 157.158 103.500 162.995 C 103.111 167.392 102.386 170.739 101.889 170.432 C 101.392 170.124 100.764 170.577 100.493 171.437 C 100.222 172.296 99.710 173.788 99.356 174.750 C 99.003 175.713 98.818 177.799 98.946 179.386 C 99.074 180.973 98.733 182.548 98.188 182.886 C 97.222 183.485 96.626 185.780 95.041 195.000 C 94.615 197.475 94.155 199.050 94.019 198.500 C 93.635 196.956 91.975 204.837 91.334 211.250 C 91.018 214.413 90.435 217.000 90.038 217.000 C 88.884 217.000 87.000 224.358 87.000 228.866 C 87.000 231.140 86.640 233.000 86.201 233.000 C 84.809 233.000 83.000 239.460 83.000 244.428 C 83.000 248.271 82.705 249.101 81.500 248.638 C 80.308 248.181 80.000 248.957 80.000 252.409 C 80.000 256.424 78.140 259.806 76.714 258.381 C 76.384 258.050 76.282 259.067 76.488 260.640 C 76.694 262.213 76.962 263.275 77.083 263.000 C 77.205 262.725 77.370 263.175 77.449 264.000 C 77.528 264.825 78.081 265.405 78.678 265.290 C 79.274 265.174 80.560 265.962 81.536 267.040 C 82.554 268.165 82.818 269.000 82.155 269.000 C 81.520 269.000 81.000 268.550 81.000 268.000 C 81.000 267.450 80.507 267.000 79.905 267.000 C 78.931 267.000 84.307 277.745 85.908 279.000 C 86.259 279.275 87.343 280.752 88.317 282.282 C 89.291 283.812 90.513 284.801 91.032 284.480 C 91.552 284.159 91.719 284.569 91.403 285.391 C 90.601 287.482 110.518 307.116 120.150 313.729 C 173.807 350.568 251.443 348.020 304.176 307.687 L 307.852 304.876 310.024 309.688 C 319.079 329.741 320.235 352.740 313.458 378.000 C 310.560 388.805 303.275 404.739 296.941 414.130 C 291.360 422.404 280.116 434.060 272.340 439.633 C 246.303 458.291 207.726 461.691 166.572 448.954 C 148.439 443.342 121.365 429.548 111.446 420.867 C 104.238 414.560 101.304 414.017 94.165 417.668 C 90.136 419.728 87.522 422.007 84.928 425.719 C 75.813 438.766 72.935 464.505 78.465 483.526 C 84.908 505.692 114.783 524.442 158.138 533.531 C 173.538 536.760 200.803 537.929 217.000 536.055 C 229.249 534.638 242.031 532.159 243.592 530.899 C 244.193 530.414 244.980 530.313 245.342 530.675 C 245.704 531.037 246.000 530.848 246.000 530.255 C 246.000 529.662 246.687 529.278 247.527 529.401 C 248.368 529.524 249.004 529.422 248.942 529.174 C 248.880 528.926 249.430 528.352 250.165 527.898 C 250.899 527.444 251.500 527.446 251.500 527.901 C 251.500 528.356 252.564 528.336 253.864 527.855 C 255.694 527.178 255.977 526.678 255.119 525.643 C 253.988 524.281 254.128 495.624 255.286 491.500 C 255.594 490.400 255.881 489.114 255.923 488.643 C 255.966 488.172 256.675 488.045 257.500 488.362 C 258.325 488.678 259.000 488.522 259.000 488.014 C 259.000 487.506 262.713 484.276 267.250 480.837 C 277.576 473.009 295.303 455.868 303.277 446.000 C 329.878 413.078 348.248 368.718 355.676 319.466 C 358.249 302.404 358.257 254.704 355.689 237.500 C 349.597 196.676 338.382 165.890 317.280 132.060 C 316.058 130.102 314.595 127.740 314.027 126.811 C 313.340 125.687 313.330 124.914 313.997 124.502 C 314.549 124.161 315.009 124.246 315.020 124.691 C 315.032 125.136 315.219 122.350 315.436 118.500 C 315.654 114.650 316.298 109.475 316.867 107.000 C 318.128 101.517 319.037 85.689 317.929 88.500 C 317.255 90.209 317.130 90.084 317.070 87.637 C 317.006 85.001 317.244 84.809 320.053 85.221 C 322.268 85.546 323.367 85.182 324.056 83.895 C 324.678 82.734 324.643 81.897 323.954 81.472 C 323.245 81.034 323.326 80.300 324.201 79.219 C 325.032 78.193 325.075 77.871 324.319 78.324 C 323.670 78.714 322.851 78.568 322.500 78.000 C 322.149 77.432 321.443 77.226 320.931 77.543 C 320.419 77.859 320.000 77.615 320.000 77.000 C 320.000 76.385 319.555 76.157 319.011 76.493 C 318.447 76.842 318.275 76.446 318.611 75.570 C 319.081 74.346 319.633 74.259 321.350 75.142 C 323.450 76.221 323.447 76.196 321.250 74.084 C 320.013 72.895 319.000 72.465 319.000 73.128 C 319.000 74.318 317.581 73.458 317.414 72.167 C 317.188 70.425 315.687 68.000 314.834 68.000 C 314.310 68.000 314.203 68.520 314.595 69.155 C 315.041 69.876 314.869 70.037 314.138 69.585 C 313.494 69.187 313.189 68.503 313.460 68.064 C 314.125 66.989 298.424 55.387 288.500 49.618 C 274.587 41.531 255.969 35.242 237.757 32.479 C 228.961 31.144 208.087 30.722 199.000 31.695 M 225.170 122.369 C 262.039 131.805 287.185 155.967 292.584 187.146 C 298.973 224.040 275.349 261.627 236.911 275.728 C 230.231 278.178 228.168 278.449 216.000 278.473 C 204.488 278.496 201.479 278.158 195.571 276.179 C 182.098 271.666 172.528 265.410 161.428 253.859 C 142.318 233.974 132.365 209.481 133.096 184.144 C 133.411 173.262 135.518 164.859 140.582 154.302 C 149.377 135.966 165.609 123.844 186.500 120.010 C 195.103 118.431 214.377 119.607 225.170 122.369 "/></g>
<g fill="#56387AFE" stroke="#56387AFE">
<path d="M 316.872 70.250 C 317.627 71.213 317.910 72.000 317.500 72.000 C 317.090 72.000 317.299 72.655 317.964 73.456 C 318.628 74.257 318.839 75.452 318.432 76.111 C 317.963 76.869 318.115 77.047 318.845 76.595 C 319.480 76.203 320.000 76.385 320.000 77.000 C 320.000 77.615 320.419 77.859 320.931 77.543 C 321.443 77.226 322.149 77.432 322.500 78.000 C 322.851 78.568 323.670 78.714 324.319 78.324 C 325.075 77.871 325.032 78.193 324.201 79.219 C 323.326 80.300 323.245 81.034 323.954 81.472 C 324.643 81.897 324.678 82.734 324.056 83.895 C 323.367 85.182 322.268 85.546 320.053 85.221 C 317.244 84.809 317.006 85.001 317.070 87.637 C 317.130 90.084 317.255 90.209 317.929 88.500 C 319.037 85.689 318.128 101.517 316.867 107.000 C 316.298 109.475 315.675 114.425 315.483 118.000 C 315.159 124.039 314.882 125.000 313.465 125.000 C 312.925 125.000 313.244 125.590 317.280 132.060 C 338.382 165.890 349.597 196.676 355.689 237.500 C 358.257 254.704 358.249 302.404 355.676 319.466 C 348.248 368.718 329.878 413.078 303.277 446.000 C 295.303 455.868 277.576 473.009 267.250 480.837 C 262.713 484.276 259.000 487.506 259.000 488.014 C 259.000 488.522 258.325 488.678 257.500 488.362 C 256.675 488.045 255.966 488.172 255.923 488.643 C 255.881 489.114 255.594 490.400 255.286 491.500 C 254.129 495.620 253.988 524.281 255.117 525.641 C 255.956 526.652 255.823 527.131 254.569 527.612 C 253.659 527.961 252.649 527.982 252.325 527.659 C 252.002 527.335 250.784 527.600 249.619 528.248 C 248.453 528.895 247.163 529.329 246.750 529.212 C 246.338 529.096 246.000 529.525 246.000 530.167 C 246.000 530.808 245.704 531.037 245.342 530.675 C 244.980 530.313 244.193 530.416 243.592 530.904 C 242.322 531.935 230.195 534.411 218.000 536.130 C 213.325 536.788 200.874 537.336 190.331 537.348 L 171.163 537.368 170.713 539.719 C 170.261 542.088 172.986 544.680 174.421 543.245 C 174.798 542.869 174.829 543.282 174.490 544.164 C 174.003 545.436 174.561 545.770 177.188 545.778 C 179.009 545.784 184.550 546.105 189.500 546.492 C 194.751 546.902 203.498 546.702 210.500 546.011 C 217.100 545.359 223.336 544.841 224.358 544.859 C 225.393 544.877 226.447 544.005 226.739 542.889 C 227.064 541.648 227.814 541.098 228.713 541.443 C 229.511 541.750 230.464 542.032 230.832 542.070 C 231.199 542.109 230.600 542.527 229.500 543.000 C 227.592 543.820 227.603 543.863 229.750 543.930 C 231.229 543.976 232.000 543.417 232.000 542.300 C 232.000 541.111 232.316 540.916 233.051 541.651 C 234.576 543.176 238.986 542.127 238.322 540.397 C 238.027 539.627 238.395 538.993 239.143 538.985 C 240.190 538.973 240.157 538.748 239.000 538.000 C 237.910 537.296 237.858 537.026 238.809 537.015 C 239.529 537.007 239.869 536.597 239.565 536.105 C 238.666 534.651 241.974 533.916 244.158 535.085 C 245.265 535.677 246.433 535.901 246.752 535.581 C 247.072 535.261 246.782 535.000 246.108 535.000 C 245.434 535.000 245.179 534.520 245.541 533.933 C 245.937 533.293 245.461 532.993 244.350 533.183 C 242.985 533.417 243.123 533.146 244.877 532.147 C 246.826 531.037 247.400 531.029 248.061 532.099 C 248.505 532.817 248.603 533.833 248.280 534.357 C 247.956 534.881 248.150 535.025 248.711 534.679 C 249.271 534.332 249.609 532.943 249.461 531.592 C 249.274 529.894 249.600 529.293 250.517 529.645 C 251.247 529.925 252.779 529.654 253.922 529.042 C 255.125 528.398 256.000 528.330 256.000 528.881 C 256.000 529.405 255.438 530.060 254.750 530.338 C 253.771 530.733 253.778 530.859 254.781 530.921 C 255.486 530.964 256.336 530.287 256.671 529.416 C 257.160 528.141 257.443 528.092 258.124 529.166 C 258.784 530.207 258.973 530.139 258.985 528.858 C 258.999 527.372 261.840 526.020 266.000 525.522 C 266.825 525.423 267.087 525.265 266.583 525.171 C 266.079 525.077 265.956 524.711 266.309 524.357 C 266.663 524.004 267.638 524.284 268.476 524.980 C 269.729 526.020 270.000 525.972 270.000 524.710 C 270.000 523.699 271.365 522.945 274.000 522.500 C 276.252 522.120 278.000 521.260 278.000 520.533 C 278.000 518.877 283.498 516.571 285.094 517.558 C 285.868 518.037 286.050 517.890 285.595 517.155 C 285.172 516.469 285.520 516.000 286.451 516.000 C 287.314 516.000 288.742 515.156 289.626 514.124 C 291.247 512.231 295.000 512.311 295.000 514.239 C 295.000 514.801 295.673 514.687 296.523 513.981 C 297.461 513.202 297.800 511.947 297.407 510.708 C 296.910 509.140 297.125 508.834 298.385 509.317 C 299.325 509.678 300.006 509.428 300.015 508.719 C 300.026 507.848 300.272 507.881 300.876 508.834 C 301.557 509.908 301.840 509.859 302.329 508.584 C 302.678 507.675 302.418 506.993 301.719 506.985 C 300.933 506.975 301.021 506.640 301.966 506.042 C 302.883 505.462 303.884 505.489 304.636 506.113 C 305.507 506.836 305.765 506.613 305.569 505.306 C 305.421 504.313 306.161 502.892 307.214 502.148 C 309.477 500.550 310.305 501.043 309.384 503.441 C 308.859 504.810 308.546 504.891 307.876 503.834 C 307.299 502.924 307.026 502.879 307.015 503.691 C 306.986 506.003 309.003 506.083 309.914 503.806 C 310.422 502.538 311.191 500.600 311.624 499.500 C 312.356 497.637 312.413 497.659 312.455 499.825 C 312.505 502.409 314.000 501.631 314.000 499.020 C 314.000 497.405 319.880 490.966 320.125 492.313 C 320.240 492.943 320.536 492.143 320.890 490.250 C 320.967 489.838 321.467 490.175 322.000 491.000 C 322.712 492.101 322.973 492.150 322.985 491.183 C 323.008 489.138 328.157 482.875 329.395 483.386 C 330.072 483.666 329.993 483.873 329.191 483.921 C 328.471 483.964 328.160 484.450 328.500 485.000 C 329.623 486.818 330.728 486.040 330.613 483.512 C 330.551 482.143 330.950 481.087 331.500 481.165 C 332.050 481.243 332.344 482.229 332.153 483.356 C 331.862 485.072 332.048 485.205 333.297 484.168 C 334.118 483.487 335.377 483.058 336.094 483.215 C 336.812 483.372 336.409 482.922 335.200 482.215 C 331.792 480.224 332.503 477.290 336.250 477.882 C 336.663 477.947 337.000 477.325 337.000 476.500 C 337.000 475.675 337.450 475.000 338.000 475.000 C 338.550 475.000 338.887 474.473 338.750 473.828 C 338.612 473.184 339.625 472.592 341.000 472.513 C 342.375 472.434 343.013 472.286 342.417 472.185 C 341.821 472.083 341.333 471.344 341.333 470.543 C 341.333 468.980 343.661 467.672 344.985 468.491 C 345.428 468.765 346.057 468.293 346.384 467.442 C 346.771 466.433 346.575 466.145 345.819 466.612 C 345.034 467.097 344.876 466.765 345.330 465.582 C 345.699 464.622 346.000 463.648 346.000 463.418 C 346.000 463.188 346.477 463.000 347.059 463.000 C 347.641 463.000 347.864 463.410 347.554 463.912 C 347.244 464.414 347.780 464.673 348.745 464.489 C 349.710 464.304 350.050 464.090 349.500 464.013 C 348.950 463.936 349.547 463.454 350.826 462.941 C 353.049 462.049 353.074 461.931 351.382 460.254 C 349.700 458.587 349.645 458.587 350.275 460.250 C 350.639 461.213 350.501 462.000 349.969 462.000 C 348.063 462.000 349.053 459.326 352.119 456.190 C 353.834 454.435 355.660 453.000 356.178 453.000 C 356.695 453.000 356.862 452.586 356.550 452.081 C 355.588 450.524 358.816 448.139 361.082 448.732 C 363.145 449.271 363.158 449.207 361.588 446.169 C 360.179 443.445 360.168 443.127 361.500 443.638 C 362.586 444.055 362.848 443.768 362.414 442.637 C 361.600 440.516 364.537 437.458 365.674 439.242 C 366.221 440.101 366.515 439.795 366.600 438.276 C 366.668 437.053 366.336 436.292 365.862 436.585 C 365.388 436.878 365.000 436.641 365.000 436.059 C 365.000 435.477 365.473 435.000 366.051 435.000 C 366.629 435.000 367.777 433.386 368.601 431.412 C 369.428 429.433 370.638 428.026 371.300 428.274 C 371.960 428.521 373.400 428.367 374.500 427.932 C 376.354 427.198 376.363 427.135 374.628 427.070 C 373.097 427.013 372.977 426.732 373.973 425.532 C 374.644 424.725 374.811 423.996 374.346 423.914 C 373.881 423.831 373.645 423.816 373.821 423.882 C 374.317 424.064 371.224 427.000 370.536 427.000 C 369.484 427.000 372.219 422.545 373.896 421.526 C 374.918 420.906 375.039 420.543 374.231 420.526 C 372.632 420.493 375.559 416.000 377.179 416.000 C 377.847 416.000 377.773 416.569 376.981 417.523 C 375.920 418.801 375.990 418.941 377.416 418.394 C 378.350 418.035 378.878 417.125 378.589 416.371 C 378.300 415.617 378.386 414.923 378.781 414.829 C 379.177 414.735 378.764 414.608 377.864 414.547 C 376.413 414.448 376.440 414.175 378.109 412.114 C 379.143 410.837 379.728 409.369 379.409 408.852 C 379.089 408.335 379.409 407.212 380.120 406.355 C 380.831 405.499 381.516 404.090 381.643 403.224 C 381.770 402.358 382.597 401.245 383.481 400.751 C 384.500 400.180 384.864 399.147 384.476 397.926 C 384.134 396.846 384.334 396.000 384.933 396.000 C 385.520 396.000 385.887 396.563 385.750 397.250 C 385.612 397.938 386.288 398.463 387.250 398.417 C 388.917 398.337 388.917 398.325 387.250 398.151 C 385.895 398.010 385.801 397.779 386.834 397.124 C 387.886 396.457 387.780 396.092 386.334 395.396 C 385.325 394.910 385.098 394.634 385.828 394.783 C 386.716 394.963 387.084 394.133 386.937 392.276 C 386.817 390.749 387.439 387.925 388.320 386.000 C 389.201 384.075 389.939 383.089 389.961 383.809 C 389.982 384.529 390.479 384.822 391.065 384.460 C 391.762 384.029 391.536 383.145 390.410 381.901 C 389.464 380.855 389.097 379.948 389.595 379.885 C 390.093 379.821 391.136 379.709 391.914 379.635 C 392.692 379.561 393.513 378.825 393.740 378.000 C 394.105 376.673 394.033 376.672 393.118 377.992 C 392.397 379.031 391.766 379.166 391.036 378.436 C 390.307 377.707 390.622 376.709 392.078 375.147 C 393.606 373.506 393.882 372.563 393.107 371.629 C 392.356 370.724 392.385 370.015 393.208 369.192 C 394.368 368.032 394.569 367.278 395.302 361.327 C 395.517 359.582 396.890 356.731 398.353 354.992 C 400.952 351.904 401.082 349.985 398.691 350.015 C 397.836 350.026 397.859 350.258 398.774 350.839 C 399.738 351.451 399.513 352.116 397.852 353.574 C 396.644 354.633 395.990 354.930 396.397 354.234 C 396.805 353.537 397.359 351.751 397.628 350.265 C 397.898 348.778 398.654 346.899 399.309 346.089 C 400.162 345.035 400.171 344.813 399.343 345.309 C 398.569 345.774 398.359 345.345 398.707 344.013 C 399.007 342.864 399.708 342.310 400.364 342.703 C 401.212 343.211 401.212 343.018 400.365 341.942 C 399.025 340.240 400.429 335.529 401.989 336.493 C 402.656 336.905 402.651 336.213 401.975 334.436 C 401.271 332.581 401.286 331.360 402.027 330.467 C 402.795 329.542 402.756 328.941 401.888 328.339 C 400.948 327.687 400.951 327.560 401.903 327.771 C 402.737 327.956 402.974 327.071 402.646 324.993 C 402.382 323.317 402.466 321.904 402.833 321.854 C 403.200 321.804 403.419 321.816 403.320 321.882 C 403.221 321.947 403.527 323.350 404.000 325.000 C 404.473 326.650 404.517 328.000 404.097 328.000 C 403.677 328.000 403.333 328.602 403.333 329.337 C 403.333 330.073 405.171 328.869 407.417 326.663 C 410.057 324.069 410.793 322.891 409.500 323.328 C 407.594 323.973 407.586 323.938 409.329 322.584 C 410.335 321.803 411.328 319.890 411.537 318.332 C 412.793 308.930 413.443 296.408 413.449 281.500 C 413.460 256.483 412.713 246.000 410.920 246.000 C 410.449 246.000 410.308 246.640 410.609 247.423 C 410.927 248.251 410.600 248.763 409.827 248.648 C 409.097 248.540 408.501 247.562 408.501 246.475 C 408.502 245.389 408.840 244.613 409.251 244.750 C 411.182 245.395 412.000 244.825 412.000 242.833 C 412.000 241.642 411.716 240.951 411.369 241.298 C 411.021 241.645 409.924 241.494 408.929 240.962 C 407.849 240.384 406.894 240.362 406.557 240.908 C 406.246 241.411 405.246 241.712 404.334 241.579 C 403.000 241.383 402.137 238.121 399.921 224.918 C 391.561 175.087 375.793 135.410 352.741 106.202 C 344.526 95.793 329.938 80.920 328.697 81.687 C 328.144 82.029 327.968 81.861 328.307 81.313 C 328.645 80.765 327.297 78.783 325.311 76.908 C 323.325 75.034 322.016 74.057 322.402 74.739 C 322.873 75.569 322.595 75.782 321.558 75.384 C 320.707 75.057 320.303 74.318 320.660 73.741 C 321.039 73.128 320.829 72.988 320.155 73.405 C 319.486 73.817 319.000 73.513 319.000 72.681 C 319.000 71.891 318.213 70.627 317.250 69.872 C 315.664 68.629 315.629 68.664 316.872 70.250 M 407.017 244.829 C 405.358 246.056 403.939 247.834 403.864 248.780 C 403.789 249.726 403.588 248.909 403.417 246.964 C 403.167 244.130 403.541 243.224 405.303 242.398 C 409.129 240.604 410.364 242.355 407.017 244.829 M 236.667 535.415 C 236.667 536.194 235.617 537.309 234.333 537.894 C 232.869 538.561 232.000 538.592 232.000 537.979 C 232.000 537.440 232.450 537.000 233.000 537.000 C 233.550 537.000 233.947 536.663 233.882 536.250 C 233.629 534.653 234.051 534.000 235.333 534.000 C 236.067 534.000 236.667 534.637 236.667 535.415 "/></g>
<g fill="#4C50BCFE" stroke="#4C50BCFE">
<path d="M 186.500 120.010 C 162.182 124.473 144.327 140.295 136.294 164.500 C 133.919 171.655 133.635 174.031 133.608 187.000 C 133.573 203.577 135.244 211.324 141.934 225.601 C 151.066 245.087 168.035 263.477 184.571 271.807 C 195.048 277.085 201.781 278.500 216.417 278.500 C 226.698 278.500 230.443 278.172 230.752 277.244 C 230.982 276.553 231.621 276.266 232.172 276.606 C 233.129 277.198 237.843 275.571 244.662 272.298 C 246.401 271.463 248.175 269.817 248.604 268.640 C 249.168 267.090 249.361 266.982 249.303 268.250 C 249.258 269.213 249.622 270.000 250.111 270.000 C 250.600 270.000 251.000 269.550 251.000 269.000 C 251.000 268.450 251.605 268.000 252.344 268.000 C 254.493 268.000 258.804 263.710 259.167 261.210 C 259.350 259.951 259.818 259.051 260.207 259.210 C 260.596 259.370 261.540 258.644 262.305 257.597 C 263.168 256.417 264.183 255.995 264.977 256.486 C 265.971 257.100 265.893 257.481 264.628 258.188 C 263.733 258.689 263.000 259.597 263.000 260.205 C 263.000 260.813 263.889 260.505 264.976 259.521 C 266.063 258.538 266.712 257.343 266.417 256.866 C 266.123 256.390 266.263 256.000 266.728 256.000 C 267.194 256.000 267.643 255.090 267.727 253.978 C 267.810 252.866 267.479 252.204 266.990 252.506 C 266.501 252.809 265.639 252.194 265.075 251.140 C 264.210 249.523 264.436 249.150 266.525 248.751 C 268.783 248.319 269.423 248.870 268.750 250.667 C 268.259 251.979 273.053 251.641 274.179 250.285 C 275.118 249.152 274.844 248.989 272.663 249.385 C 270.543 249.769 270.000 249.480 270.000 247.965 C 270.000 246.679 270.489 246.251 271.511 246.643 C 272.650 247.080 272.851 246.764 272.324 245.361 C 271.713 243.733 271.833 243.668 273.281 244.846 C 274.191 245.586 274.838 246.671 274.718 247.256 C 274.598 247.842 274.917 247.713 275.427 246.970 C 276.033 246.087 275.946 245.482 275.177 245.226 C 273.368 244.623 273.741 239.314 275.643 238.583 C 276.547 238.237 277.027 237.694 276.710 237.376 C 276.393 237.059 277.633 235.300 279.467 233.467 C 281.300 231.633 282.508 229.807 282.150 229.407 C 281.793 229.008 282.311 228.973 283.302 229.329 C 284.301 229.689 284.851 229.568 284.536 229.058 C 284.223 228.552 284.425 227.856 284.984 227.510 C 285.543 227.165 286.000 227.455 286.000 228.155 C 286.000 229.024 286.535 228.894 287.683 227.745 C 289.240 226.189 289.244 225.927 287.738 224.263 C 285.898 222.229 285.928 219.143 287.783 219.761 C 288.452 219.984 289.000 220.606 289.000 221.142 C 289.000 221.679 288.492 221.804 287.870 221.420 C 287.185 220.996 286.923 221.268 287.204 222.111 C 287.458 222.875 288.192 223.455 288.833 223.400 C 289.475 223.345 289.720 223.233 289.378 223.150 C 289.035 223.068 289.284 222.362 289.931 221.583 C 290.578 220.804 291.196 218.554 291.304 216.583 C 291.412 214.613 291.798 213.001 292.162 213.000 C 293.326 213.000 292.355 209.505 291.155 209.375 C 289.825 209.231 290.420 208.815 292.250 208.610 C 293.117 208.512 293.041 208.179 292.000 207.521 C 291.175 207.000 290.900 206.707 291.388 206.872 C 296.280 208.518 293.677 183.662 287.573 170.452 C 283.125 160.824 278.908 154.805 271.442 147.425 C 254.408 130.588 229.538 120.364 203.500 119.494 C 196.900 119.273 189.250 119.506 186.500 120.010 "/></g>
<g fill="#B4B4B4FE" stroke="#B4B4B4FE">
<path d="M 363.000 90.315 C 363.275 90.665 367.793 95.350 373.040 100.726 C 393.191 121.370 403.542 135.803 414.475 158.500 C 421.778 173.659 422.290 174.905 426.807 188.500 C 436.460 217.556 442.666 247.964 444.667 276.000 C 445.975 294.329 445.369 333.612 443.641 342.500 C 443.427 343.600 442.951 347.200 442.582 350.500 C 440.356 370.398 433.703 395.879 422.998 425.500 C 416.220 444.255 399.358 473.688 385.065 491.710 C 331.219 559.609 244.486 585.312 162.500 557.668 C 147.746 552.693 138.846 548.278 123.615 538.379 L 109.956 529.500 119.338 536.695 C 132.849 547.058 158.626 564.285 166.633 568.304 C 210.989 590.566 269.458 593.868 318.691 576.892 C 399.210 549.128 454.698 470.135 468.587 363.500 C 470.746 346.923 471.463 314.975 470.080 297.000 C 468.749 279.712 464.503 252.933 460.470 236.392 C 453.622 208.302 440.436 175.535 428.521 157.000 C 413.895 134.246 391.930 111.216 368.500 94.070 C 365.200 91.655 362.725 89.965 363.000 90.315 "/></g>
<g fill="#202C66FE" stroke="#202C66FE">
<path d="M 325.000 63.519 C 335.503 72.602 354.722 92.817 361.711 102.133 C 371.194 114.774 376.178 123.080 383.531 138.500 C 398.035 168.916 406.549 200.768 412.132 245.500 C 413.772 258.646 413.813 302.479 412.197 316.500 C 407.663 355.851 395.949 396.754 380.745 426.321 C 378.432 430.819 376.470 434.950 376.385 435.500 C 376.300 436.050 376.176 436.275 376.110 436.000 C 376.044 435.725 374.905 437.292 373.579 439.482 C 372.254 441.672 371.452 443.922 371.798 444.482 C 372.144 445.042 372.319 445.078 372.186 444.563 C 372.053 444.047 372.601 443.529 373.403 443.411 C 374.298 443.280 374.649 443.750 374.312 444.628 C 373.984 445.485 373.032 445.827 371.942 445.482 C 370.716 445.093 369.743 445.612 368.961 447.073 C 368.059 448.759 368.071 449.074 369.018 448.489 C 371.474 446.971 377.123 446.131 376.719 447.344 C 376.507 447.980 375.771 448.500 375.083 448.500 C 374.396 448.500 374.140 448.806 374.514 449.181 C 374.889 449.556 375.823 449.622 376.589 449.327 C 377.356 449.033 378.268 449.534 378.615 450.439 C 379.196 451.954 379.401 451.947 381.167 450.349 C 382.859 448.817 383.012 448.806 382.457 450.250 C 381.990 451.468 382.365 451.848 383.914 451.731 C 385.061 451.645 386.000 451.135 386.000 450.599 C 386.000 450.062 386.918 450.608 388.039 451.811 C 389.160 453.015 391.148 454.000 392.456 454.000 C 393.763 454.000 395.062 454.563 395.341 455.250 C 395.723 456.192 396.118 456.130 396.943 455.000 C 397.911 453.674 398.181 453.685 399.269 455.096 C 399.946 455.974 401.950 457.442 403.723 458.358 C 406.735 459.915 406.904 459.914 406.303 458.348 C 405.903 457.304 406.057 456.917 406.713 457.323 C 407.321 457.698 409.320 455.017 411.438 450.987 C 413.457 447.144 414.747 443.993 414.305 443.985 C 413.862 443.976 413.985 443.639 414.578 443.235 C 417.432 441.290 430.687 405.056 435.400 386.318 C 442.504 358.072 445.236 335.143 445.268 303.500 C 445.293 277.988 444.417 267.211 440.430 244.000 C 435.711 216.528 427.210 186.910 418.113 166.250 C 400.923 127.211 372.454 94.791 330.000 65.907 C 320.856 59.685 320.210 59.377 325.000 63.519 "/></g>
<g fill="#A066D6FE" stroke="#A066D6FE">
<path d="M 122.992 57.064 C 92.924 75.327 71.256 101.068 61.597 130.000 C 56.721 144.605 54.846 156.035 54.463 173.500 C 54.001 194.563 56.621 212.480 63.032 232.099 C 66.880 243.872 73.103 258.054 74.141 257.413 C 74.601 257.129 74.731 257.536 74.431 258.319 C 74.131 259.102 74.564 260.422 75.395 261.252 C 76.225 262.082 76.626 263.040 76.286 263.381 C 75.945 263.721 76.240 264.000 76.940 264.000 C 77.641 264.000 77.984 263.438 77.703 262.750 C 76.110 258.854 75.770 257.580 76.499 258.241 C 78.147 259.737 80.000 256.651 80.000 252.409 C 80.000 248.957 80.308 248.181 81.500 248.638 C 82.705 249.101 83.000 248.271 83.000 244.428 C 83.000 239.460 84.809 233.000 86.201 233.000 C 86.640 233.000 87.000 231.140 87.000 228.866 C 87.000 224.358 88.884 217.000 90.038 217.000 C 90.435 217.000 91.018 214.413 91.334 211.250 C 91.975 204.837 93.635 196.956 94.019 198.500 C 94.155 199.050 94.615 197.475 95.041 195.000 C 96.626 185.780 97.222 183.485 98.188 182.886 C 98.733 182.548 99.074 180.973 98.946 179.386 C 98.818 177.799 99.003 175.713 99.356 174.750 C 99.710 173.788 100.222 172.296 100.493 171.437 C 100.764 170.577 101.392 170.124 101.889 170.432 C 102.386 170.739 103.111 167.392 103.500 162.995 C 104.017 157.158 104.585 155.000 105.604 155.000 C 106.556 155.000 107.000 153.780 107.000 151.165 C 107.000 149.056 107.847 144.668 108.882 141.415 C 110.801 135.380 111.765 131.224 112.690 125.000 C 112.975 123.075 113.612 121.350 114.105 121.167 C 114.597 120.983 115.000 119.146 115.000 117.083 C 115.000 115.021 115.317 113.016 115.704 112.629 C 116.092 112.241 116.570 110.704 116.766 109.212 C 116.962 107.720 117.545 106.350 118.061 106.167 C 118.578 105.983 119.006 104.183 119.014 102.167 C 119.033 96.854 120.055 93.486 121.137 95.165 C 121.655 95.969 121.749 95.208 121.374 93.250 C 120.914 90.857 121.112 90.000 122.125 90.000 C 122.881 90.000 123.601 88.988 123.724 87.750 C 124.534 79.608 125.290 76.897 126.611 77.404 C 127.650 77.803 128.000 76.955 128.000 74.045 C 128.000 68.441 130.166 59.659 131.162 61.227 C 131.686 62.053 131.975 61.535 131.985 59.750 C 131.993 58.238 131.523 57.000 130.941 57.000 C 130.359 57.000 130.160 56.550 130.500 56.000 C 131.585 54.244 129.375 54.928 127.590 56.901 C 126.444 58.167 126.231 59.025 126.951 59.470 C 127.546 59.837 127.774 60.557 127.457 61.069 C 126.464 62.677 125.328 62.084 125.479 60.037 C 125.657 57.616 128.807 54.000 130.738 54.000 C 131.524 54.000 132.010 53.531 131.819 52.957 C 131.628 52.384 127.656 54.232 122.992 57.064 "/></g>
<g fill="#020408FE" stroke="#020408FE">
<path d="M 332.590 497.145 C 333.075 497.930 332.499 498.137 330.761 497.805 C 328.829 497.436 328.298 497.699 328.535 498.910 C 328.707 499.785 328.938 500.163 329.048 499.750 C 329.159 499.338 329.306 499.553 329.375 500.228 C 329.444 500.903 328.938 501.539 328.250 501.640 C 327.563 501.740 327.000 501.427 327.000 500.943 C 327.000 499.814 323.946 500.907 322.000 502.733 C 318.693 505.836 305.093 515.412 298.525 519.262 C 274.507 533.342 246.962 542.702 219.670 546.058 C 203.773 548.013 172.338 546.766 157.614 543.597 C 142.552 540.354 131.233 536.926 118.205 531.661 L 107.910 527.500 122.534 537.242 C 139.349 548.443 147.659 552.621 163.899 558.037 C 221.443 577.227 283.226 569.864 334.102 537.751 C 346.814 529.727 362.093 517.151 359.405 516.923 C 358.907 516.881 359.354 516.686 360.397 516.490 C 361.441 516.294 363.008 515.420 363.880 514.548 C 365.852 512.576 364.368 509.659 361.148 509.180 C 359.967 509.005 359.000 508.217 359.000 507.430 C 359.000 506.486 357.895 505.995 355.750 505.985 C 353.353 505.973 352.886 505.725 353.972 505.038 C 355.222 504.248 355.168 504.002 353.621 503.408 C 352.498 502.977 351.459 503.245 350.914 504.104 C 350.235 505.177 350.027 505.026 350.015 503.451 C 350.002 501.694 349.493 501.461 346.445 501.817 C 343.806 502.125 342.534 501.751 341.507 500.366 C 340.163 498.552 340.081 498.556 338.594 500.500 C 337.355 502.119 337.058 502.196 337.032 500.905 C 337.014 500.028 336.177 498.565 335.171 497.655 C 333.072 495.755 331.544 495.453 332.590 497.145 "/></g>
<g fill="#202C66FE" stroke="#202C66FE">
<path d="M 189.536 129.113 C 180.842 130.379 174.746 132.654 168.033 137.137 C 161.034 141.811 154.223 149.106 150.121 156.323 C 139.883 174.334 139.971 198.918 150.354 221.391 C 159.389 240.946 175.572 257.744 192.273 264.903 L 196.895 266.884 192.619 261.192 C 166.623 226.585 168.182 182.666 196.164 161.302 C 206.998 153.031 216.522 150.033 232.000 150.024 C 241.480 150.018 260.022 153.390 265.194 156.061 C 266.966 156.975 266.689 156.392 264.000 153.545 C 252.689 141.570 230.833 131.585 210.500 129.104 C 200.405 127.872 198.046 127.873 189.536 129.113 "/></g>
<g fill="#B4B4B4FE" stroke="#B4B4B4FE">
<path d="M 217.327 151.555 C 213.932 152.299 209.550 153.579 207.588 154.399 C 199.407 157.817 190.116 165.958 183.601 175.417 C 169.505 195.885 171.487 228.938 188.361 254.787 C 195.034 265.009 197.877 267.645 203.107 268.461 C 205.523 268.838 208.315 269.377 209.311 269.660 C 210.912 270.114 210.826 269.591 208.573 265.144 C 204.451 257.009 201.248 246.169 199.964 236.000 C 195.888 203.747 216.211 174.582 246.008 169.921 C 253.037 168.822 267.542 169.191 274.250 170.639 C 278.017 171.453 277.741 170.227 272.582 163.219 C 268.610 157.823 267.525 157.010 261.832 155.154 C 246.645 150.205 229.722 148.836 217.327 151.555 "/></g>
<g fill="#202C66FE" stroke="#202C66FE">
<path d="M 299.000 323.190 C 291.447 328.170 271.044 337.627 261.000 340.801 C 244.185 346.115 231.964 348.174 213.846 348.746 C 184.396 349.675 161.276 345.199 136.283 333.730 L 127.065 329.500 141.965 339.695 C 157.024 349.998 175.058 359.700 176.964 358.522 C 177.534 358.170 178.000 358.339 178.000 358.897 C 178.000 361.456 205.980 368.241 224.000 370.053 C 247.602 372.426 278.262 368.321 300.250 359.843 L 308.000 356.855 307.983 346.177 C 307.966 336.129 305.956 322.482 304.263 320.924 C 303.843 320.538 301.475 321.557 299.000 323.190 "/></g>
<g fill="#6858ECFE" stroke="#6858ECFE">
<path d="M 195.000 23.112 C 137.922 29.602 84.401 63.547 61.083 108.049 C 55.518 118.668 50.063 134.098 47.312 147.000 C 45.834 153.933 45.518 159.833 45.597 179.000 C 45.693 202.274 46.554 211.500 48.628 211.500 C 49.260 211.500 49.420 212.303 49.016 213.453 C 48.640 214.527 49.237 219.012 50.344 223.419 C 51.450 227.826 52.542 230.875 52.768 230.195 C 52.995 229.514 52.678 227.515 52.063 225.752 C 51.156 223.150 51.187 222.787 52.223 223.823 C 52.925 224.525 53.556 225.527 53.625 226.050 C 53.694 226.572 53.806 227.325 53.875 227.723 C 54.095 228.996 59.501 222.481 59.485 220.962 C 59.473 219.841 59.282 219.795 58.666 220.766 C 58.224 221.463 57.443 221.774 56.931 221.457 C 56.419 221.141 56.000 221.584 56.000 222.441 C 56.000 223.298 55.550 224.000 55.000 224.000 C 53.264 224.000 53.912 222.214 56.342 220.303 C 57.790 219.164 58.532 217.704 58.285 216.480 C 58.065 215.391 57.676 212.925 57.421 211.000 C 57.165 209.075 56.709 206.825 56.407 206.000 C 53.974 199.357 53.948 163.371 56.367 150.000 C 61.045 124.139 71.924 102.640 89.883 83.769 C 104.106 68.822 119.103 58.058 138.350 48.979 C 147.190 44.809 162.451 39.040 168.912 37.426 C 169.785 37.208 174.002 36.153 178.282 35.083 C 182.562 34.012 188.525 32.828 191.532 32.453 C 194.540 32.077 197.007 31.259 197.015 30.635 C 197.024 30.011 197.467 30.175 198.000 31.000 C 198.533 31.825 198.976 32.032 198.985 31.461 C 198.993 30.889 200.231 30.439 201.737 30.461 C 203.242 30.482 204.536 29.938 204.612 29.250 C 204.688 28.563 204.860 28.338 204.993 28.750 C 205.127 29.163 205.184 29.838 205.118 30.250 C 204.843 31.994 206.693 30.758 209.357 27.419 C 212.214 23.839 212.214 23.838 209.857 24.169 C 208.375 24.377 207.593 24.036 207.750 23.250 C 208.031 21.846 206.299 21.828 195.000 23.112 "/></g>
<g fill="#141C40FE" stroke="#141C40FE">
<path d="M 373.157 447.102 C 369.333 447.884 369.898 447.322 363.706 456.500 C 355.462 468.721 329.622 498.000 327.080 498.000 C 326.621 498.000 325.627 498.759 324.872 499.687 C 323.671 501.165 323.718 501.293 325.250 500.719 C 326.213 500.358 327.000 500.459 327.000 500.943 C 327.000 501.427 327.603 501.735 328.340 501.626 C 329.077 501.518 329.567 500.658 329.429 499.715 C 329.264 498.590 329.855 498.000 331.148 498.000 C 332.231 498.000 332.840 497.550 332.500 497.000 C 332.160 496.450 332.289 496.000 332.786 496.000 C 334.121 496.000 336.995 499.438 337.032 501.079 C 337.054 502.068 337.529 501.891 338.594 500.500 C 340.081 498.556 340.163 498.552 341.507 500.366 C 342.534 501.751 343.806 502.125 346.445 501.817 C 349.493 501.461 350.002 501.694 350.015 503.451 C 350.027 505.026 350.235 505.177 350.914 504.104 C 351.459 503.245 352.498 502.977 353.621 503.408 C 355.168 504.002 355.222 504.248 353.972 505.038 C 352.886 505.725 353.353 505.973 355.750 505.985 C 357.965 505.995 359.000 506.478 359.000 507.500 C 359.000 508.325 359.874 509.000 360.943 509.000 C 362.012 509.000 363.510 509.890 364.272 510.978 C 365.594 512.866 365.927 512.673 371.616 506.728 C 379.974 497.992 385.803 490.868 392.745 480.902 C 399.134 471.729 407.010 458.690 406.985 457.326 C 406.976 456.871 406.583 457.109 406.112 457.853 C 405.410 458.961 404.824 458.977 402.877 457.940 C 401.570 457.243 399.946 455.959 399.269 455.087 C 398.180 453.683 397.912 453.673 396.943 455.000 C 396.118 456.130 395.723 456.192 395.341 455.250 C 395.062 454.563 393.763 454.000 392.456 454.000 C 391.148 454.000 389.160 453.015 388.039 451.811 C 386.918 450.608 386.000 450.062 386.000 450.599 C 386.000 451.135 385.061 451.645 383.914 451.731 C 382.365 451.848 381.990 451.468 382.457 450.250 C 383.012 448.806 382.859 448.817 381.167 450.349 C 379.401 451.947 379.196 451.954 378.615 450.439 C 378.268 449.534 377.356 449.033 376.589 449.327 C 375.823 449.622 374.889 449.556 374.514 449.181 C 374.140 448.806 374.433 448.500 375.167 448.500 C 375.900 448.500 376.500 448.032 376.500 447.459 C 376.500 446.809 375.245 446.675 373.157 447.102 "/></g>
<g fill="#B4B4B4FE" stroke="#B4B4B4FE">
<path d="M 128.010 331.176 C 132.050 334.720 146.327 344.918 163.481 356.513 C 190.649 374.877 206.913 382.131 232.245 387.181 C 241.532 389.033 246.910 389.432 263.000 389.463 C 275.164 389.486 285.945 388.962 291.658 388.070 L 300.816 386.639 302.912 379.570 C 304.815 373.153 308.115 357.774 307.679 357.351 C 307.581 357.255 304.800 358.279 301.500 359.626 C 298.200 360.973 291.225 363.207 286.000 364.589 C 250.856 373.886 215.529 372.775 182.676 361.339 C 168.821 356.517 159.087 351.420 143.160 340.650 C 129.050 331.109 125.160 328.677 128.010 331.176 "/></g>
<g fill="#324892FE" stroke="#324892FE">
<path d="M 402.886 321.750 C 402.824 322.163 402.711 324.075 402.636 326.000 C 402.561 327.925 402.159 330.025 401.743 330.666 C 401.326 331.307 401.426 332.991 401.965 334.407 C 402.692 336.319 402.629 336.919 401.722 336.741 C 401.003 336.599 400.435 337.736 400.342 339.500 C 400.255 341.150 400.065 342.500 399.921 342.500 C 399.776 342.500 399.575 343.175 399.473 344.000 C 399.371 344.825 398.941 346.309 398.518 347.298 C 397.999 348.513 398.308 349.505 399.472 350.356 C 401.074 351.528 401.024 351.820 398.742 354.558 C 396.687 357.022 394.849 362.227 394.523 366.500 C 394.481 367.050 394.092 368.067 393.659 368.759 C 393.226 369.451 393.155 370.914 393.503 372.009 C 393.850 373.104 393.689 374.000 393.145 374.000 C 391.428 374.000 389.649 380.872 390.958 382.450 C 391.741 383.392 391.769 384.025 391.049 384.470 C 390.472 384.826 389.982 384.529 389.961 383.809 C 389.939 383.089 389.333 383.850 388.614 385.500 C 387.051 389.088 387.000 389.307 387.000 392.500 C 387.000 393.963 386.482 394.899 385.750 394.757 C 385.063 394.623 385.325 394.910 386.334 395.396 C 387.780 396.092 387.886 396.457 386.834 397.124 C 385.801 397.779 385.895 398.010 387.250 398.151 C 388.917 398.325 388.917 398.337 387.250 398.417 C 386.288 398.463 385.613 397.938 385.750 397.250 C 385.888 396.563 385.520 396.000 384.933 396.000 C 384.334 396.000 384.134 396.846 384.476 397.926 C 384.864 399.147 384.500 400.180 383.481 400.751 C 382.597 401.245 381.769 402.291 381.639 403.075 C 381.510 403.859 380.847 405.513 380.167 406.750 C 379.486 407.988 379.222 409.000 379.580 409.000 C 379.937 409.000 379.493 410.125 378.592 411.500 C 377.057 413.842 377.066 414.003 378.727 414.040 C 380.015 414.069 379.747 414.488 377.750 415.572 C 376.238 416.393 374.944 417.500 374.875 418.032 C 374.610 420.084 374.392 420.584 372.575 423.301 C 371.113 425.489 370.967 426.365 371.911 427.301 C 372.852 428.235 372.971 428.114 372.452 426.750 C 372.054 425.703 372.254 425.000 372.952 425.000 C 373.593 425.000 373.797 424.480 373.405 423.845 C 372.952 423.114 373.131 422.963 373.894 423.435 C 374.815 424.004 374.823 424.509 373.926 425.589 C 372.990 426.717 373.131 427.014 374.628 427.070 C 376.363 427.135 376.354 427.198 374.500 427.932 C 373.400 428.367 371.960 428.521 371.300 428.274 C 370.640 428.027 369.449 429.384 368.652 431.290 C 367.856 433.196 366.596 435.141 365.852 435.613 C 365.108 436.084 364.951 436.476 365.501 436.485 C 366.052 436.493 366.502 437.400 366.501 438.500 C 366.500 439.972 366.275 440.151 365.646 439.177 C 364.978 438.142 364.474 438.306 363.338 439.928 C 362.538 441.070 362.138 442.414 362.448 442.916 C 362.759 443.418 362.495 444.002 361.863 444.212 C 361.014 444.495 361.042 445.210 361.970 446.944 C 363.113 449.081 363.046 449.245 361.224 448.769 C 358.887 448.158 357.295 448.942 356.830 450.934 C 356.649 451.713 355.061 453.647 353.303 455.232 C 351.219 457.110 350.321 458.673 350.723 459.721 C 351.133 460.790 350.948 461.086 350.170 460.605 C 349.526 460.207 349.000 460.353 349.000 460.929 C 349.000 461.505 350.013 461.872 351.250 461.744 C 353.384 461.524 353.371 461.573 351.000 462.693 C 349.625 463.342 348.950 463.936 349.500 464.013 C 350.050 464.090 349.710 464.304 348.745 464.489 C 347.627 464.703 347.243 464.403 347.687 463.662 C 348.070 463.023 347.623 463.118 346.692 463.872 C 344.901 465.326 344.308 467.546 345.989 466.507 C 346.546 466.162 346.728 466.545 346.406 467.385 C 346.092 468.204 345.231 468.642 344.494 468.359 C 343.757 468.076 342.653 468.780 342.042 469.922 C 341.187 471.519 341.227 472.043 342.215 472.185 C 342.922 472.286 342.375 472.434 341.000 472.513 C 339.625 472.592 338.613 473.184 338.750 473.828 C 338.887 474.473 338.550 475.000 338.000 475.000 C 337.450 475.000 337.000 475.702 337.000 476.559 C 337.000 477.416 336.601 477.871 336.113 477.570 C 335.626 477.269 334.635 477.735 333.913 478.605 C 332.796 479.951 332.966 480.488 335.049 482.181 C 336.397 483.277 336.918 483.871 336.206 483.501 C 335.495 483.131 334.179 483.429 333.283 484.164 C 331.848 485.341 331.722 485.231 332.233 483.250 C 332.552 482.013 332.405 481.000 331.906 481.000 C 331.408 481.000 331.000 481.702 331.000 482.559 C 331.000 483.540 330.537 483.840 329.750 483.367 C 329.023 482.930 329.127 483.402 330.000 484.495 C 331.374 486.217 331.340 486.314 329.595 485.659 C 327.409 484.838 323.010 488.342 322.985 490.924 C 322.971 492.307 322.851 492.316 322.000 491.000 C 321.467 490.175 320.967 489.838 320.890 490.250 C 320.536 492.143 320.240 492.943 320.125 492.313 C 319.880 490.966 314.000 497.405 314.000 499.020 C 314.000 501.631 312.505 502.409 312.455 499.825 C 312.413 497.659 312.356 497.637 311.624 499.500 C 311.191 500.600 310.422 502.538 309.914 503.806 C 309.003 506.083 306.986 506.003 307.015 503.691 C 307.026 502.879 307.299 502.924 307.876 503.834 C 308.546 504.891 308.859 504.810 309.384 503.441 C 310.305 501.043 309.477 500.550 307.214 502.148 C 306.161 502.892 305.421 504.313 305.569 505.306 C 305.765 506.613 305.507 506.836 304.636 506.113 C 303.884 505.489 302.883 505.462 301.966 506.042 C 301.021 506.640 300.933 506.975 301.719 506.985 C 302.418 506.993 302.678 507.675 302.329 508.584 C 301.840 509.859 301.557 509.908 300.876 508.834 C 300.272 507.881 300.026 507.848 300.015 508.719 C 300.006 509.428 299.325 509.678 298.385 509.317 C 297.125 508.834 296.910 509.140 297.407 510.708 C 297.800 511.947 297.461 513.202 296.523 513.981 C 295.673 514.687 295.000 514.801 295.000 514.239 C 295.000 512.311 291.247 512.231 289.626 514.124 C 288.742 515.156 287.314 516.000 286.451 516.000 C 285.520 516.000 285.172 516.469 285.595 517.155 C 286.050 517.890 285.868 518.037 285.094 517.558 C 283.498 516.571 278.000 518.877 278.000 520.533 C 278.000 521.260 276.252 522.120 274.000 522.500 C 271.365 522.945 270.000 523.699 270.000 524.710 C 270.000 525.972 269.729 526.020 268.476 524.980 C 267.638 524.284 266.663 524.004 266.309 524.357 C 265.956 524.711 266.079 525.077 266.583 525.171 C 267.088 525.265 266.825 525.423 266.000 525.522 C 261.840 526.020 258.999 527.372 258.985 528.858 C 258.973 530.139 258.784 530.207 258.124 529.166 C 257.449 528.102 257.149 528.170 256.639 529.499 C 256.287 530.416 255.437 530.939 254.749 530.662 C 253.751 530.259 253.751 530.142 254.750 530.079 C 255.438 530.036 256.000 529.572 256.000 529.048 C 256.000 527.597 249.519 530.644 249.365 532.168 C 249.078 535.009 248.834 535.429 248.499 533.658 C 247.937 530.692 247.369 530.666 242.819 533.393 C 240.444 534.816 238.950 535.992 239.500 536.006 C 240.050 536.019 239.825 536.467 239.000 537.000 C 237.667 537.862 237.667 537.973 239.000 538.000 C 240.241 538.025 240.262 538.181 239.122 538.904 C 237.683 539.815 238.386 542.000 240.118 542.000 C 240.668 542.000 240.877 541.610 240.583 541.134 C 240.288 540.658 241.499 540.421 243.274 540.608 C 246.363 540.933 246.415 540.882 244.500 539.396 L 242.500 537.845 244.500 538.172 C 245.600 538.353 246.846 538.950 247.269 539.500 C 247.744 540.118 248.604 539.758 249.519 538.559 C 250.370 537.443 251.000 537.160 251.000 537.892 C 251.000 538.593 251.563 538.979 252.250 538.750 C 252.938 538.521 253.500 537.786 253.500 537.117 C 253.500 536.172 253.776 536.176 254.737 537.137 C 255.719 538.119 256.524 537.872 258.648 535.937 C 260.119 534.597 260.951 534.139 260.497 534.920 C 259.874 535.992 260.099 536.176 261.418 535.670 C 262.378 535.301 263.407 535.000 263.704 535.000 C 264.002 535.000 263.702 534.345 263.038 533.546 C 262.004 532.300 262.275 532.218 264.915 532.976 C 266.947 533.559 268.000 533.506 268.000 532.823 C 268.000 532.253 268.605 532.018 269.345 532.302 C 270.084 532.586 271.308 531.960 272.064 530.911 C 272.820 529.862 274.127 529.218 274.969 529.479 C 275.811 529.741 277.175 529.522 278.000 528.992 C 279.287 528.167 279.256 528.028 277.782 528.015 C 276.401 528.003 276.242 527.559 276.969 525.750 C 277.730 523.857 277.883 523.796 277.937 525.367 C 277.983 526.730 278.539 527.092 280.001 526.710 C 281.167 526.405 281.750 526.596 281.397 527.167 C 281.064 527.706 282.750 527.154 285.145 525.939 C 290.383 523.284 291.184 522.212 289.825 519.674 C 288.834 517.822 288.890 517.810 291.145 519.389 C 292.440 520.296 293.470 521.142 293.433 521.269 C 293.396 521.396 294.296 520.825 295.433 520.000 C 296.570 519.175 299.075 517.630 301.000 516.567 C 306.203 513.694 311.000 509.676 311.000 508.191 C 311.000 507.456 310.494 507.195 309.845 507.595 C 309.082 508.067 308.965 507.866 309.498 507.003 C 310.137 505.970 310.562 506.048 311.531 507.374 C 312.639 508.888 313.276 508.642 318.129 504.823 C 325.339 499.149 325.998 498.439 326.015 496.321 C 326.028 494.780 326.179 494.730 327.000 496.000 C 327.822 497.272 327.972 497.225 327.985 495.691 C 327.993 494.696 328.365 494.108 328.812 494.384 C 329.258 494.660 332.971 491.465 337.062 487.285 C 341.445 482.807 343.984 479.510 343.244 479.257 C 341.261 478.582 342.867 477.000 345.535 477.000 C 347.310 477.000 348.479 476.003 349.932 473.250 C 351.021 471.188 351.931 469.919 351.956 470.431 C 351.980 470.942 353.797 468.952 355.994 466.008 C 358.191 463.064 359.793 460.460 359.555 460.221 C 359.316 459.983 360.106 458.742 361.311 457.463 C 364.474 454.104 367.527 449.620 367.244 448.750 C 367.110 448.338 367.450 448.000 368.000 448.000 C 368.550 448.000 369.000 447.518 369.000 446.929 C 369.000 446.339 369.679 445.178 370.509 444.348 C 371.339 443.518 371.763 442.425 371.450 441.919 C 371.138 441.414 371.414 441.000 372.063 441.000 C 372.967 441.000 372.970 440.668 372.074 439.589 C 371.273 438.624 371.235 437.973 371.951 437.530 C 372.528 437.174 373.014 437.471 373.032 438.191 C 373.051 438.974 373.655 438.697 374.536 437.500 C 375.552 436.120 375.626 435.601 374.776 435.826 C 374.098 436.005 374.878 434.916 376.508 433.405 C 378.369 431.680 379.012 430.504 378.236 430.245 C 377.556 430.019 377.000 430.347 377.000 430.976 C 377.000 431.604 376.517 431.819 375.927 431.455 C 375.248 431.035 375.568 430.290 376.795 429.431 C 377.863 428.683 379.021 428.355 379.369 428.702 C 379.927 429.260 380.166 428.237 379.915 426.362 C 379.868 426.011 380.430 425.293 381.165 424.767 C 382.165 424.051 382.061 423.953 380.750 424.374 C 379.788 424.684 379.000 424.469 379.000 423.897 C 379.000 422.337 381.854 419.792 382.888 420.430 C 383.384 420.737 384.037 420.345 384.339 419.559 C 384.641 418.773 384.350 417.911 383.694 417.644 C 383.037 417.376 383.363 417.122 384.417 417.079 C 385.471 417.036 386.049 416.716 385.702 416.369 C 385.355 416.021 385.696 414.845 386.460 413.754 C 387.224 412.663 387.582 411.073 387.255 410.221 C 386.864 409.202 387.061 408.920 387.830 409.395 C 388.870 410.038 389.510 408.227 389.118 405.750 C 389.053 405.338 389.354 405.000 389.787 405.000 C 390.220 405.000 390.650 403.994 390.743 402.765 C 390.835 401.535 391.409 400.364 392.017 400.161 C 392.707 399.931 392.442 399.015 391.311 397.724 C 390.315 396.587 390.092 396.004 390.817 396.428 C 392.147 397.209 395.221 394.166 394.417 392.865 C 394.193 392.504 394.678 390.924 395.493 389.354 C 396.371 387.663 396.573 386.364 395.988 386.167 C 394.543 385.679 394.779 383.956 396.250 384.250 C 397.041 384.408 397.392 383.583 397.205 382.000 C 396.998 380.241 397.180 379.897 397.820 380.840 C 398.958 382.517 402.569 369.925 401.643 367.511 C 401.236 366.451 401.416 366.139 402.169 366.604 C 402.948 367.086 403.135 366.623 402.751 365.156 C 402.441 363.970 402.622 363.000 403.153 363.000 C 403.684 363.000 403.840 362.550 403.500 362.000 C 403.160 361.450 403.307 361.000 403.827 361.000 C 405.560 361.000 405.775 355.192 404.067 354.527 C 403.205 354.192 402.790 353.920 403.145 353.924 C 403.500 353.927 404.098 352.290 404.474 350.284 C 404.914 347.940 405.438 347.090 405.940 347.903 C 406.532 348.860 406.878 348.761 407.364 347.494 C 407.717 346.573 407.759 345.419 407.457 344.930 C 407.155 344.441 407.394 343.132 407.989 342.021 C 408.813 340.481 408.765 339.996 407.785 339.985 C 406.778 339.973 406.768 339.799 407.738 339.183 C 409.069 338.338 410.898 330.080 410.651 326.033 C 410.502 323.593 410.459 323.606 406.917 327.149 C 404.946 329.121 403.333 330.118 403.333 329.367 C 403.333 328.615 403.677 328.000 404.097 328.000 C 404.517 328.000 404.471 326.642 403.995 324.982 C 403.519 323.321 403.100 321.746 403.065 321.482 C 403.029 321.217 402.949 321.338 402.886 321.750 M 354.484 458.949 C 354.884 460.210 355.702 460.713 356.801 460.373 C 358.014 459.999 357.928 460.221 356.500 461.148 L 354.500 462.446 356.500 462.570 C 358.335 462.684 358.315 462.757 356.261 463.461 C 355.030 463.882 354.266 464.621 354.563 465.102 C 354.861 465.583 354.417 465.714 353.578 465.391 C 352.253 464.883 352.241 464.616 353.483 463.374 C 354.973 461.884 354.465 458.595 352.895 459.565 C 352.403 459.869 352.000 459.416 352.000 458.559 C 352.000 456.349 353.745 456.623 354.484 458.949 M 387.940 406.250 C 387.779 406.965 387.608 406.858 387.542 405.999 C 387.478 405.173 387.102 403.974 386.707 403.334 C 386.311 402.694 386.540 401.987 387.216 401.761 C 388.354 401.382 388.640 403.151 387.940 406.250 "/></g>
<g fill="#4C50BCFE" stroke="#4C50BCFE">
<path d="M 51.331 223.692 C 51.725 224.348 52.524 227.498 53.109 230.692 C 53.693 233.886 54.753 237.850 55.464 239.500 C 56.175 241.150 57.543 244.750 58.505 247.500 C 61.530 256.153 71.803 275.125 78.784 284.954 C 91.234 302.479 111.731 320.766 129.302 330.023 C 145.520 338.568 163.158 344.148 182.692 346.914 C 185.547 347.319 187.856 347.391 187.823 347.075 C 187.618 345.112 188.296 344.964 190.594 346.470 C 193.119 348.124 193.171 348.113 192.525 346.080 C 192.074 344.656 192.362 343.798 193.431 343.388 C 194.294 343.057 195.000 342.368 195.000 341.858 C 195.000 341.347 193.988 341.469 192.750 342.129 C 190.740 343.199 190.641 343.157 191.818 341.729 C 192.543 340.850 194.343 340.226 195.818 340.343 C 197.579 340.482 198.066 340.826 197.238 341.344 C 196.301 341.930 196.256 342.568 197.063 343.817 C 198.074 345.380 198.113 345.378 197.619 343.782 C 197.327 342.837 197.525 341.794 198.060 341.463 C 199.720 340.437 198.017 339.000 195.141 339.000 C 193.633 339.000 191.794 339.563 191.053 340.250 C 190.133 341.105 189.917 341.125 190.373 340.314 C 190.827 339.505 189.525 338.918 186.269 338.467 C 162.058 335.108 138.283 326.229 120.402 313.867 C 105.972 303.892 91.045 287.762 80.707 270.974 C 75.723 262.881 66.561 244.083 65.458 239.688 C 65.087 238.210 64.355 237.000 63.833 237.000 C 63.310 237.000 63.114 236.624 63.398 236.165 C 64.239 234.804 61.777 228.020 60.686 228.694 C 60.087 229.064 59.900 228.491 60.220 227.267 C 60.514 226.142 60.352 224.609 59.859 223.861 C 59.156 222.795 58.514 223.097 56.894 225.255 C 55.756 226.770 54.408 227.752 53.897 227.436 C 53.385 227.120 53.195 226.494 53.473 226.044 C 53.751 225.595 53.222 224.613 52.297 223.863 C 51.294 223.050 50.905 222.981 51.331 223.692 "/></g>
<g fill="#4C50BCFE" stroke="#4C50BCFE">
<path d="M 217.557 24.572 C 217.705 25.913 217.431 26.766 216.949 26.468 C 215.970 25.864 211.548 29.881 212.331 30.664 C 212.605 30.938 213.822 30.631 215.035 29.981 C 216.521 29.186 217.019 29.160 216.562 29.900 C 216.096 30.654 217.792 31.000 221.948 31.000 C 242.118 31.000 270.780 39.196 289.691 50.370 C 307.804 61.074 333.590 82.641 345.516 97.063 C 356.019 109.764 358.396 112.433 358.820 112.000 C 359.089 111.725 359.421 112.262 359.558 113.193 C 359.853 115.205 362.966 119.876 363.077 118.473 C 363.119 117.938 363.305 118.297 363.491 119.271 C 363.855 121.178 370.000 128.652 370.000 127.188 C 370.000 126.703 369.100 125.268 368.000 124.000 C 365.541 121.164 365.478 119.640 367.750 117.921 C 369.239 116.794 369.313 116.806 368.250 117.998 C 366.610 119.838 366.665 121.000 368.393 121.000 C 370.147 121.000 371.134 118.545 370.304 116.250 C 369.955 115.288 366.946 110.450 363.615 105.500 C 355.378 93.255 325.228 63.131 311.475 53.404 C 283.049 33.299 257.952 24.308 225.395 22.568 C 217.296 22.135 217.290 22.136 217.557 24.572 "/></g>
<g fill="#324892FE" stroke="#324892FE">
<path d="M 300.500 310.595 C 279.792 326.423 246.899 337.891 217.103 339.670 C 211.229 340.021 206.172 340.793 205.765 341.402 C 205.258 342.160 205.026 342.113 205.015 341.250 C 205.007 340.563 204.100 340.000 203.000 340.000 C 201.900 340.000 200.993 340.563 200.985 341.250 C 200.973 342.170 200.742 342.142 200.110 341.143 C 199.386 340.001 199.116 340.001 198.401 341.143 C 197.935 341.889 197.541 343.175 197.526 344.000 C 197.506 345.140 197.330 345.087 196.794 343.782 C 196.389 342.798 196.603 341.742 197.294 341.310 C 198.040 340.843 197.478 340.474 195.818 340.343 C 194.343 340.226 192.543 340.850 191.818 341.729 C 190.641 343.157 190.740 343.199 192.750 342.129 C 195.343 340.747 195.788 341.703 193.373 343.469 C 192.011 344.465 191.948 345.034 192.984 346.971 L 194.222 349.283 211.361 348.688 C 232.679 347.947 245.551 345.716 264.839 339.421 C 272.503 336.919 292.407 327.729 295.000 325.495 C 296.477 324.223 303.717 320.000 304.422 320.000 C 304.795 320.000 305.727 323.258 306.855 328.500 C 307.210 330.150 307.500 338.475 307.500 347.000 C 307.500 359.554 307.785 362.738 309.000 363.752 C 310.284 364.825 310.225 364.908 308.586 364.333 C 307.184 363.840 306.884 364.003 307.464 364.942 C 307.931 365.698 307.694 366.571 306.886 367.070 C 305.855 367.708 305.801 368.201 306.665 369.065 C 307.530 369.930 308.264 369.508 309.634 367.357 C 310.635 365.786 311.898 364.189 312.441 363.808 C 312.984 363.428 313.483 361.888 313.548 360.385 C 313.618 358.807 313.974 358.149 314.393 358.827 C 314.792 359.472 315.570 360.000 316.122 360.000 C 317.349 360.000 316.874 355.769 315.540 354.811 C 314.976 354.406 315.340 353.282 316.423 352.086 C 318.140 350.187 318.188 349.227 317.116 337.944 C 315.963 325.794 313.739 317.271 309.681 309.448 L 307.500 305.244 300.500 310.595 "/></g>
<g fill="#324892FE" stroke="#324892FE">
<path d="M 370.362 116.500 C 371.151 118.557 370.082 121.000 368.393 121.000 C 366.665 121.000 366.610 119.838 368.250 117.998 C 369.313 116.806 369.239 116.794 367.750 117.921 C 365.478 119.640 365.541 121.164 368.000 124.000 C 371.215 127.707 370.298 128.346 366.902 124.766 L 363.804 121.500 366.056 125.500 C 367.294 127.700 369.025 130.082 369.903 130.793 C 370.782 131.504 371.393 132.404 371.262 132.793 C 370.806 134.148 372.143 137.000 373.234 137.000 C 373.839 137.000 374.077 137.256 373.764 137.569 C 373.209 138.125 379.657 153.006 380.883 154.000 C 381.222 154.275 381.586 155.175 381.691 156.000 C 381.796 156.825 383.902 163.350 386.370 170.500 C 392.252 187.536 396.528 204.710 399.920 224.918 C 402.136 238.120 403.000 241.383 404.334 241.579 C 405.246 241.712 406.233 241.432 406.528 240.955 C 406.823 240.478 407.837 240.405 408.782 240.794 C 410.137 241.351 410.183 241.531 409.000 241.644 C 404.219 242.105 403.090 243.158 403.411 246.854 C 403.585 248.859 403.789 249.756 403.864 248.847 C 403.939 247.938 405.620 245.894 407.600 244.306 L 411.200 241.418 410.088 233.459 C 409.476 229.082 408.535 223.025 407.996 220.000 C 407.458 216.975 406.841 213.150 406.625 211.500 C 406.410 209.850 405.760 206.700 405.181 204.500 C 404.603 202.300 403.902 199.150 403.624 197.500 C 403.346 195.850 402.867 193.488 402.559 192.250 C 402.252 191.013 401.815 189.213 401.589 188.250 C 401.363 187.288 400.699 185.263 400.114 183.750 C 399.528 182.238 399.240 181.000 399.474 181.000 C 399.707 181.000 399.266 179.488 398.494 177.639 C 397.722 175.791 396.889 173.204 396.644 171.889 C 395.784 167.281 388.708 149.383 382.951 137.250 C 378.675 128.240 376.656 124.996 375.319 124.985 C 373.941 124.973 373.823 124.764 374.834 124.124 C 375.886 123.457 375.780 123.092 374.334 122.396 C 373.325 121.910 373.044 121.616 373.708 121.743 C 374.435 121.881 374.096 120.582 372.859 118.486 C 370.763 114.934 369.320 113.786 370.362 116.500 "/></g>
<g fill="#4C50BCFE" stroke="#4C50BCFE">
<path d="M 94.246 407.411 C 79.615 412.159 69.726 428.506 67.069 452.335 C 65.473 466.649 68.391 489.831 71.633 488.587 C 73.199 487.986 73.506 489.569 72.004 490.498 C 70.815 491.232 72.771 495.341 76.050 499.000 C 78.245 501.450 78.279 501.455 77.739 499.251 C 77.436 498.014 77.673 496.702 78.267 496.335 C 78.921 495.931 78.687 495.571 77.673 495.423 C 76.753 495.287 76.000 495.614 76.000 496.148 C 76.000 496.681 75.550 496.840 75.000 496.500 C 74.450 496.160 74.000 494.982 74.000 493.882 C 74.000 492.782 74.453 492.162 75.007 492.504 C 75.561 492.847 76.284 492.423 76.614 491.563 C 76.944 490.704 77.841 490.000 78.607 490.000 C 80.114 490.000 80.447 488.780 79.263 487.596 C 78.521 486.854 78.431 486.418 78.152 482.191 C 78.069 480.921 77.557 480.156 77.015 480.491 C 76.404 480.868 76.262 479.941 76.640 478.050 C 76.976 476.372 76.856 475.000 76.375 475.000 C 75.351 475.001 75.393 455.564 76.431 449.000 C 78.906 433.350 85.182 422.262 94.165 417.668 C 101.363 413.986 104.230 414.553 111.766 421.147 C 115.237 424.185 118.107 425.944 119.148 425.672 C 120.388 425.347 120.684 425.671 120.238 426.863 C 119.703 428.293 119.842 428.324 121.336 427.109 C 122.847 425.879 122.965 425.927 122.353 427.523 C 121.908 428.683 122.041 429.093 122.725 428.670 C 123.311 428.308 124.068 428.735 124.407 429.618 C 124.933 430.990 125.264 431.026 126.666 429.863 C 127.946 428.800 127.998 428.492 126.904 428.464 C 126.062 428.443 126.401 427.846 127.750 426.974 C 131.021 424.859 130.768 422.712 127.289 423.074 C 126.898 423.115 126.318 422.406 126.000 421.500 C 125.682 420.594 124.989 419.845 124.461 419.837 C 123.932 419.829 121.588 417.883 119.251 415.513 C 111.407 407.556 102.595 404.701 94.246 407.411 "/></g>
<g fill="#324892FE" stroke="#324892FE">
<path d="M 126.000 421.442 C 126.000 422.299 126.338 422.947 126.750 422.882 C 130.511 422.288 131.123 424.793 127.750 426.974 C 126.513 427.774 126.085 428.445 126.800 428.464 C 127.840 428.493 127.850 428.750 126.850 429.750 C 125.850 430.750 126.061 431.000 127.907 431.000 C 129.678 431.000 130.061 430.600 129.554 429.280 C 129.191 428.335 129.256 427.925 129.697 428.371 C 130.139 428.816 130.500 430.031 130.500 431.071 C 130.500 432.111 130.900 432.932 131.388 432.895 C 131.877 432.859 132.570 433.305 132.929 433.886 C 134.094 435.771 154.208 444.678 165.500 448.309 C 190.195 456.251 217.230 458.694 235.500 454.634 C 236.600 454.390 238.175 454.034 239.000 453.845 C 239.825 453.655 241.511 452.375 242.747 451.000 C 243.982 449.625 245.332 448.500 245.747 448.500 C 246.161 448.500 246.449 447.498 246.388 446.274 C 246.319 444.915 247.001 443.817 248.138 443.456 C 249.162 443.131 250.000 442.390 250.000 441.810 C 250.000 441.139 249.472 441.194 248.548 441.960 C 247.749 442.623 246.062 443.280 244.798 443.420 C 243.534 443.561 240.250 444.196 237.500 444.833 C 219.075 449.101 200.147 448.201 176.226 441.921 C 163.985 438.707 153.072 434.661 143.211 429.683 C 137.803 426.952 136.778 426.717 135.896 428.004 C 135.073 429.203 134.979 429.102 135.424 427.497 C 135.867 425.895 134.980 424.932 130.989 422.689 C 127.006 420.450 126.000 420.199 126.000 421.442 "/></g>
<g fill="#324892FE" stroke="#324892FE">
<path d="M 79.000 489.813 C 78.175 490.077 77.135 490.912 76.689 491.668 C 76.242 492.424 75.455 492.781 74.939 492.462 C 74.422 492.143 74.000 492.782 74.000 493.882 C 74.000 494.982 74.450 496.160 75.000 496.500 C 75.550 496.840 76.000 496.681 76.000 496.148 C 76.000 495.614 76.753 495.287 77.673 495.423 C 78.593 495.558 78.914 495.935 78.387 496.261 C 77.281 496.945 77.281 501.027 78.387 502.817 C 78.800 503.486 79.627 503.731 80.224 503.362 C 80.830 502.987 81.025 503.151 80.664 503.735 C 79.783 505.161 86.440 511.832 95.221 518.324 C 103.493 524.439 115.494 530.495 128.170 534.952 C 139.028 538.769 157.721 543.321 159.592 542.603 C 160.366 542.306 161.000 542.550 161.000 543.145 C 161.000 543.774 162.233 544.046 163.947 543.794 C 165.568 543.557 166.719 543.646 166.504 543.994 C 166.289 544.341 167.775 544.545 169.807 544.446 C 171.838 544.348 173.613 543.982 173.750 543.634 C 173.888 543.285 174.000 543.241 174.000 543.535 C 174.000 543.830 173.159 543.620 172.132 543.071 C 169.210 541.507 170.470 537.028 173.867 536.903 C 175.315 536.850 172.462 536.179 167.527 535.412 C 133.368 530.104 103.282 516.880 88.225 500.555 C 85.351 497.439 82.931 495.027 82.848 495.195 C 82.764 495.363 82.647 494.919 82.589 494.208 C 82.530 493.498 82.036 492.598 81.491 492.208 C 80.946 491.819 80.500 491.013 80.500 490.417 C 80.500 489.821 79.825 489.549 79.000 489.813 "/></g>
<g fill="#56387AFE" stroke="#56387AFE">
<path d="M 313.674 359.862 C 313.939 360.874 313.552 362.331 312.815 363.101 C 312.077 363.870 310.592 365.850 309.513 367.500 C 308.392 369.215 307.534 369.857 307.511 369.000 C 307.431 366.106 305.907 369.845 305.379 374.232 C 304.908 378.137 303.339 382.677 300.842 387.355 C 300.075 388.792 300.150 389.035 301.176 388.433 C 302.034 387.930 301.953 388.333 300.946 389.578 C 298.202 392.972 291.934 406.000 293.045 406.000 C 293.635 406.000 293.821 406.481 293.458 407.068 C 293.095 407.656 292.221 407.915 291.515 407.644 C 290.783 407.363 289.442 408.621 288.389 410.576 C 287.375 412.459 286.123 414.000 285.606 414.000 C 285.089 414.000 284.960 414.293 285.318 414.652 C 286.257 415.590 272.324 429.152 267.000 432.483 C 264.525 434.032 262.225 435.720 261.888 436.235 C 261.552 436.750 260.989 437.132 260.638 437.085 C 258.485 436.797 257.850 437.167 258.334 438.427 C 258.635 439.212 258.120 440.449 257.191 441.177 C 255.691 442.350 255.647 442.312 256.799 440.839 C 258.743 438.351 256.570 437.712 254.384 440.129 C 253.348 441.273 252.613 442.388 252.750 442.605 C 252.888 442.822 253.000 443.540 253.000 444.200 C 253.000 445.133 252.733 445.133 251.800 444.200 C 250.867 443.267 250.911 443.000 252.000 443.000 C 253.115 443.000 253.147 442.747 252.158 441.758 C 251.170 440.770 250.744 440.796 250.070 441.886 C 249.577 442.684 248.695 442.929 247.957 442.474 C 247.075 441.928 246.939 442.092 247.510 443.015 C 248.109 443.985 247.868 444.164 246.612 443.681 C 245.415 443.222 245.124 443.392 245.651 444.244 C 246.620 445.812 246.870 449.038 245.980 448.488 C 245.607 448.257 244.303 449.217 243.082 450.621 C 241.128 452.868 241.080 453.126 242.681 452.777 C 243.682 452.559 244.388 451.845 244.250 451.191 C 244.113 450.536 244.450 450.000 245.000 450.000 C 245.550 450.000 246.000 450.466 246.000 451.035 C 246.000 451.686 246.836 451.607 248.250 450.823 C 249.488 450.137 250.884 449.686 251.354 449.822 C 252.773 450.233 256.198 448.865 255.500 448.166 C 255.141 447.808 255.445 447.468 256.174 447.410 C 256.903 447.352 258.363 447.236 259.417 447.152 C 260.471 447.069 261.025 446.692 260.649 446.316 C 260.273 445.939 260.786 445.571 261.790 445.497 C 265.285 445.240 275.563 437.561 284.864 428.259 C 290.013 423.108 294.000 418.667 293.723 418.389 C 293.445 418.112 294.509 416.471 296.087 414.744 C 304.249 405.807 317.210 371.784 315.470 363.862 C 315.029 361.856 315.231 361.000 316.143 361.000 C 316.859 361.000 316.488 360.330 315.319 359.511 C 313.369 358.145 313.233 358.175 313.674 359.862 "/></g>
<g fill="#324892FE" stroke="#324892FE">
<path d="M 284.566 227.893 C 284.190 228.502 284.021 229.052 284.191 229.115 C 284.361 229.179 284.050 229.335 283.500 229.463 C 282.950 229.591 282.598 229.764 282.717 229.848 C 282.836 229.931 281.403 231.530 279.533 233.400 C 277.663 235.270 276.393 237.059 276.710 237.376 C 277.027 237.694 276.547 238.237 275.643 238.583 C 273.741 239.314 273.368 244.623 275.177 245.226 C 275.945 245.482 276.037 246.119 275.442 247.059 C 274.863 247.975 274.525 248.063 274.515 247.300 C 274.507 246.640 273.871 245.515 273.103 244.800 C 271.934 243.712 271.813 243.804 272.364 245.361 C 272.857 246.754 272.642 247.077 271.511 246.643 C 270.488 246.250 270.000 246.680 270.000 247.974 C 270.000 249.348 270.563 249.777 272.004 249.499 C 274.963 248.929 275.608 248.371 278.840 243.582 C 281.594 239.502 281.679 239.097 280.143 237.413 C 278.612 235.732 278.616 235.697 280.206 236.891 C 282.460 238.583 284.359 237.440 283.043 235.183 C 282.503 234.257 282.013 233.950 281.954 234.500 C 281.895 235.050 281.691 234.674 281.499 233.664 C 281.168 231.914 281.243 231.909 283.076 233.569 C 284.192 234.579 285.000 234.825 285.000 234.155 C 285.000 232.222 285.295 231.562 286.857 230.000 C 287.682 229.175 287.990 228.651 287.540 228.835 C 287.091 229.020 286.392 228.634 285.987 227.979 C 285.458 227.123 285.057 227.099 284.566 227.893 "/></g>
<g fill="#324892FE" stroke="#324892FE">
<path d="M 266.252 248.805 C 264.356 249.086 264.168 249.445 265.052 251.097 C 265.629 252.175 266.501 252.809 266.990 252.506 C 267.479 252.204 267.810 252.866 267.727 253.978 C 267.582 255.897 266.696 256.472 264.538 256.048 C 264.009 255.944 263.109 256.498 262.538 257.279 C 261.967 258.060 261.050 258.752 260.500 258.818 C 259.950 258.884 259.353 260.189 259.173 261.719 C 258.909 263.963 259.093 264.259 260.123 263.250 C 260.825 262.563 261.085 261.944 260.700 261.875 C 260.315 261.806 260.338 261.694 260.750 261.625 C 261.163 261.556 262.507 260.600 263.738 259.500 C 264.968 258.400 267.323 256.375 268.970 255.000 C 272.194 252.309 272.967 250.415 270.448 251.382 C 269.594 251.709 269.115 251.623 269.382 251.191 C 270.259 249.772 268.544 248.464 266.252 248.805 "/></g>
<g fill="#6858ECFE" stroke="#6858ECFE">
<path d="M 212.756 22.686 C 213.447 22.953 213.698 23.695 213.314 24.335 C 212.930 24.976 213.490 24.825 214.558 24.000 C 216.355 22.612 216.398 22.630 215.128 24.250 C 214.373 25.213 213.135 26.000 212.378 26.000 C 211.620 26.000 211.000 26.675 211.000 27.500 C 211.000 28.325 210.550 29.000 210.000 29.000 C 209.450 29.000 209.000 29.450 209.000 30.000 C 209.000 31.798 211.222 31.052 213.640 28.444 C 214.943 27.038 216.395 26.126 216.867 26.418 C 217.338 26.709 217.674 25.956 217.612 24.745 C 217.525 23.030 216.835 22.504 214.500 22.372 C 212.850 22.278 212.065 22.419 212.756 22.686 "/></g>
<g fill="#4C50BCFE" stroke="#4C50BCFE">
<path d="M 207.513 22.979 C 206.822 24.096 207.495 24.338 210.415 24.024 C 212.103 23.843 212.009 24.201 209.624 27.035 C 208.136 28.804 207.140 30.473 207.411 30.745 C 208.010 31.343 211.000 28.480 211.000 27.309 C 211.000 26.850 211.961 26.030 213.137 25.487 C 214.312 24.944 215.099 24.075 214.887 23.555 C 214.341 22.222 208.274 21.748 207.513 22.979 "/></g>
<g fill="#56387AFE" stroke="#56387AFE">
<path d="M 352.000 458.559 C 352.000 459.416 352.403 459.869 352.895 459.565 C 354.465 458.595 354.973 461.884 353.483 463.374 C 352.241 464.616 352.253 464.883 353.578 465.391 C 354.417 465.714 354.861 465.583 354.563 465.102 C 354.266 464.621 355.030 463.882 356.261 463.461 C 358.315 462.757 358.335 462.684 356.500 462.570 L 354.500 462.446 356.500 461.148 C 357.928 460.221 358.014 459.999 356.801 460.373 C 355.702 460.713 354.884 460.210 354.484 458.949 C 353.745 456.623 352.000 456.349 352.000 458.559 "/></g>
<g fill="#202C66FE" stroke="#202C66FE">
<path d="M 336.500 488.475 L 327.500 497.539 336.500 488.475 L 345.500 479.411 336.500 488.475 "/></g>
<g fill="#202C66FE" stroke="#202C66FE">
<path d="M 362.000 457.959 C 356.590 466.007 356.579 466.038 361.337 459.820 C 363.998 456.344 366.473 452.663 366.837 451.639 C 367.202 450.616 365.025 453.460 362.000 457.959 "/></g>
<g fill="#A066D6FE" stroke="#A066D6FE">
<path d="M 137.665 50.267 C 137.960 50.744 137.593 51.050 136.850 50.948 C 136.108 50.846 134.825 50.823 134.000 50.897 C 132.670 51.015 132.669 51.138 133.995 51.976 C 135.278 52.787 135.208 53.141 133.495 54.477 C 131.613 55.945 131.653 55.967 134.219 54.870 C 135.714 54.231 136.729 53.370 136.474 52.959 C 135.925 52.070 138.963 50.598 140.750 50.886 C 141.438 50.997 142.000 50.708 142.000 50.244 C 142.000 49.780 140.904 49.400 139.565 49.400 C 138.225 49.400 137.370 49.790 137.665 50.267 "/></g>
<g fill="#56387AFE" stroke="#56387AFE">
<path d="M 380.163 421.589 C 379.427 422.422 379.076 423.754 379.381 424.551 C 379.687 425.348 379.501 426.068 378.969 426.150 C 378.413 426.236 378.427 426.343 379.000 426.400 C 379.550 426.455 379.960 426.090 379.910 425.590 C 379.861 425.089 380.536 424.279 381.410 423.790 C 383.003 422.899 383.659 419.967 382.250 420.038 C 381.838 420.059 380.898 420.757 380.163 421.589 "/></g>
<g fill="#56387AFE" stroke="#56387AFE">
<path d="M 404.470 350.310 C 404.062 352.485 403.355 353.719 402.736 353.337 C 402.128 352.961 401.989 353.173 402.405 353.845 C 403.369 355.406 406.282 355.322 405.718 353.750 C 405.472 353.063 405.628 351.801 406.065 350.946 C 406.503 350.091 406.478 348.773 406.009 348.015 C 405.409 347.044 404.956 347.719 404.470 350.310 "/></g>
<g fill="#324892FE" stroke="#324892FE">
<path d="M 233.882 534.750 C 233.816 535.163 233.816 535.838 233.882 536.250 C 233.947 536.663 233.550 537.000 233.000 537.000 C 232.450 537.000 232.000 537.440 232.000 537.979 C 232.000 538.592 232.869 538.561 234.333 537.894 C 236.834 536.755 237.541 534.000 235.333 534.000 C 234.600 534.000 233.947 534.338 233.882 534.750 "/></g>
<g fill="#324892FE" stroke="#324892FE">
<path d="M 340.500 78.500 L 347.000 85.000 340.500 78.500 L 334.000 72.000 340.500 78.500 "/></g>
<g fill="#324892FE" stroke="#324892FE">
<path d="M 186.042 346.606 C 183.730 347.816 183.848 347.880 188.042 347.694 C 191.865 347.525 192.215 347.342 190.500 346.409 C 189.017 345.602 187.865 345.653 186.042 346.606 "/></g>
<g fill="#4C50BCFE" stroke="#4C50BCFE">
<path d="M 55.655 220.829 C 53.771 222.911 53.546 224.000 55.000 224.000 C 55.550 224.000 56.000 223.351 56.000 222.557 C 56.000 221.667 56.744 221.258 57.942 221.489 C 59.300 221.750 59.719 221.432 59.335 220.431 C 58.603 218.524 57.647 218.627 55.655 220.829 "/></g>
<g fill="#324892FE" stroke="#324892FE">
<path d="M 303.388 379.267 C 302.506 381.998 302.572 383.208 303.707 385.106 C 304.708 386.780 304.927 386.899 304.436 385.500 C 304.049 384.400 303.807 382.825 303.898 382.000 C 304.495 376.558 304.410 376.102 303.388 379.267 "/></g>
<g fill="#202C66FE" stroke="#202C66FE">
<path d="M 119.000 414.750 C 119.000 415.215 121.052 416.699 123.561 418.048 L 128.122 420.500 123.561 417.202 C 121.052 415.388 119.000 414.285 119.000 414.750 "/></g>
<g fill="#324892FE" stroke="#324892FE">
<path d="M 278.000 422.953 L 273.500 427.556 278.000 422.953 L 282.500 418.350 278.000 422.953 "/></g>
<g fill="#56387AFE" stroke="#56387AFE">
<path d="M 276.826 525.664 C 276.120 528.236 279.263 529.593 281.020 527.475 C 281.877 526.444 281.687 526.269 280.148 526.671 C 278.789 527.027 278.065 526.617 277.801 525.343 C 277.464 523.715 277.350 523.753 276.826 525.664 "/></g>
<g fill="#ACA2F2FE" stroke="#ACA2F2FE">
<path d="M 86.000 73.953 L 81.500 78.556 86.000 73.953 L 90.500 69.350 86.000 73.953 "/></g>
<g fill="#324892FE" stroke="#324892FE">
<path d="M 286.272 221.043 C 286.196 222.046 286.892 223.437 287.817 224.135 C 289.240 225.207 289.307 225.187 288.250 224.002 C 286.484 222.021 286.693 220.500 288.523 222.019 C 289.789 223.069 289.944 223.019 289.446 221.719 C 288.555 219.398 286.430 218.946 286.272 221.043 "/></g>
<g fill="#56387AFE" stroke="#56387AFE">
<path d="M 387.244 401.760 C 386.553 401.986 386.311 402.694 386.707 403.334 C 387.102 403.974 387.478 405.173 387.542 405.999 C 387.606 406.827 387.735 406.913 387.829 406.191 C 387.929 405.424 388.518 405.193 389.250 405.633 C 390.204 406.206 390.196 406.008 389.215 404.797 C 388.508 403.925 388.058 402.792 388.215 402.280 C 388.372 401.769 387.935 401.535 387.244 401.760 "/></g>
<g fill="#324892FE" stroke="#324892FE">
<path d="M 253.122 439.951 C 252.364 440.405 252.053 441.277 252.431 441.888 C 252.809 442.500 252.551 443.000 251.859 443.000 C 250.880 443.000 250.867 443.267 251.800 444.200 C 252.733 445.133 253.028 445.133 253.125 444.200 C 253.265 442.858 253.463 442.049 254.079 440.312 C 254.353 439.539 254.019 439.413 253.122 439.951 "/></g>
<g fill="#324892FE" stroke="#324892FE">
<path d="M 408.515 246.895 C 408.603 247.778 409.253 248.631 409.960 248.791 C 410.753 248.970 411.019 248.491 410.654 247.541 C 410.329 246.693 410.611 245.943 411.281 245.872 C 411.952 245.802 411.568 245.642 410.428 245.517 C 409.047 245.366 408.409 245.825 408.515 246.895 "/></g>
<g fill="#56387AFE" stroke="#56387AFE">
<path d="M 326.000 492.103 C 326.000 492.675 326.647 493.790 327.439 494.581 C 328.690 495.833 328.858 495.762 328.728 494.036 C 328.576 492.021 326.000 490.195 326.000 492.103 "/></g>
<g fill="#56387AFE" stroke="#56387AFE">
<path d="M 342.553 477.915 C 341.624 479.418 344.374 479.769 345.813 478.330 C 346.920 477.223 346.805 477.000 345.130 477.000 C 344.024 477.000 342.864 477.412 342.553 477.915 "/></g>
<g fill="#4C50BCFE" stroke="#4C50BCFE">
<path d="M 277.667 239.667 C 276.397 240.936 277.007 241.934 278.664 241.299 C 279.872 240.835 280.104 241.023 279.510 241.985 C 278.976 242.847 279.078 243.070 279.802 242.622 C 280.413 242.245 280.659 241.275 280.349 240.468 C 279.745 238.893 278.740 238.593 277.667 239.667 "/></g>
</svg>
