<?xml version="1.0" encoding="utf-8"?>
<!DOCTYPE svg PUBLIC "-//W3C//DTD SVG 20010904//EN" "http://www.w3.org/TR/2001/REC-SVG-20010904/DTD/svg10.dtd">
<svg version="1.0" xmlns="http://www.w3.org/2000/svg" width="602pt" height="400pt" viewBox="0 0 602 400" style="" preserveAspectRatio="xMidYMid meet">
<g fill="#2696CEFE" stroke="#2696CEFE">
<path d="M 259.500 24.641 C 257.850 24.817 252.450 25.083 247.500 25.231 C 240.339 25.445 238.480 25.807 238.402 27.000 C 238.349 27.825 238.236 28.163 238.152 27.750 C 238.069 27.338 237.073 27.000 235.941 27.000 C 234.809 27.000 234.160 26.550 234.500 26.000 C 234.840 25.450 234.641 25.000 234.059 25.000 C 233.477 25.000 232.983 25.113 232.962 25.250 C 231.854 32.588 231.881 33.000 233.477 33.000 C 234.380 33.000 234.851 33.432 234.525 33.959 C 234.163 34.546 217.527 34.939 191.716 34.971 C 144.182 35.031 116.574 36.626 95.405 40.535 C 88.066 41.891 81.522 43.000 80.864 43.000 C 80.205 43.000 79.970 43.303 80.340 43.673 C 80.710 44.044 79.773 44.485 78.257 44.654 C 73.309 45.205 73.000 45.319 73.000 46.583 C 73.000 47.271 73.563 48.060 74.250 48.338 C 75.101 48.681 75.022 48.862 74.000 48.906 C 73.175 48.941 71.825 48.533 71.000 48.000 C 69.765 47.202 69.750 47.028 70.917 47.015 C 71.696 47.007 72.091 46.758 71.796 46.463 C 71.049 45.716 66.000 48.118 66.000 49.220 C 66.000 49.714 65.438 49.800 64.750 49.412 C 63.750 48.848 63.750 48.976 64.750 50.053 C 66.685 52.138 66.232 53.741 63.750 53.590 C 61.649 53.463 61.623 53.383 63.359 52.376 C 64.902 51.482 64.965 51.200 63.728 50.726 C 62.908 50.411 60.525 51.318 58.431 52.741 C 55.714 54.587 55.109 55.399 56.317 55.576 C 57.248 55.713 57.760 55.421 57.455 54.927 C 57.037 54.251 62.596 54.682 63.683 55.410 C 63.887 55.547 64.174 70.696 64.068 75.809 C 64.028 77.746 63.585 78.862 63.000 78.500 C 62.446 78.158 61.928 72.887 61.838 66.691 L 61.677 55.500 60.969 63.000 C 60.580 67.125 60.203 74.475 60.131 79.333 C 60.033 85.910 59.681 88.061 58.750 87.753 C 57.811 87.443 57.500 89.602 57.500 96.420 C 57.500 104.659 57.412 105.083 56.546 101.000 C 55.611 96.589 55.579 96.559 54.914 99.500 C 53.760 104.610 53.917 107.000 55.406 107.000 C 56.547 107.000 56.760 109.120 56.535 118.250 C 56.360 125.386 56.522 127.855 56.979 125.000 C 57.375 122.525 57.767 121.539 57.850 122.809 C 57.939 124.180 58.438 124.848 59.077 124.452 C 59.803 124.004 60.102 125.535 59.992 129.143 C 59.903 132.089 59.875 134.275 59.930 134.000 C 59.985 133.725 60.443 134.152 60.947 134.949 C 61.630 136.027 61.322 136.481 59.743 136.722 C 56.831 137.166 56.199 138.000 58.774 138.000 C 59.934 138.000 61.152 138.436 61.481 138.970 C 62.370 140.408 75.853 144.209 77.173 143.393 C 77.870 142.962 78.033 143.137 77.595 143.845 C 77.203 144.480 77.290 145.000 77.789 145.000 C 78.288 145.000 82.927 145.895 88.098 146.989 C 107.286 151.048 125.144 152.243 158.000 151.664 C 174.775 151.369 191.875 150.687 196.000 150.149 C 211.362 148.146 217.303 147.930 216.067 149.419 C 215.445 150.168 214.726 152.518 214.469 154.641 C 214.152 157.258 214.301 158.033 214.935 157.048 C 215.448 156.249 215.665 155.268 215.418 154.867 C 215.170 154.466 215.397 153.873 215.921 153.549 C 216.470 153.210 216.681 154.030 216.418 155.480 C 216.050 157.507 216.365 158.000 218.024 158.000 C 219.159 158.000 220.015 157.438 219.925 156.750 C 219.451 153.094 220.142 148.000 221.114 148.000 C 221.871 148.000 222.005 149.479 221.533 152.625 L 220.840 157.250 226.170 156.650 C 229.101 156.319 238.700 155.575 247.500 154.996 C 256.300 154.417 265.300 153.754 267.500 153.522 C 269.700 153.291 274.256 153.079 277.625 153.051 C 283.427 153.003 283.760 152.868 283.938 150.500 C 284.525 142.665 283.961 143.296 290.500 143.149 C 293.800 143.075 299.200 142.752 302.500 142.430 C 308.152 141.880 346.212 143.389 356.000 144.551 C 386.226 148.140 413.832 148.863 428.937 146.462 C 443.301 144.178 460.000 138.278 460.000 135.487 C 460.000 134.669 460.477 134.000 461.059 134.000 C 461.641 134.000 461.843 134.445 461.507 134.989 C 461.157 135.555 461.557 135.724 462.442 135.384 C 463.293 135.057 463.697 134.318 463.340 133.741 C 462.934 133.084 463.180 132.993 463.997 133.498 C 464.820 134.007 465.803 133.623 466.652 132.462 C 467.393 131.447 468.008 131.041 468.018 131.559 C 468.028 132.076 468.253 127.550 468.517 121.500 C 468.781 115.450 469.444 104.875 469.990 98.000 C 470.896 86.599 471.834 69.729 471.953 62.691 C 471.979 61.146 472.385 60.120 472.856 60.411 C 473.326 60.702 473.486 59.761 473.211 58.321 C 472.819 56.273 473.014 55.886 474.105 56.543 C 475.168 57.184 475.143 56.964 474.000 55.618 C 473.175 54.646 472.613 54.335 472.750 54.926 C 472.888 55.517 472.045 56.000 470.878 56.000 C 469.183 56.000 468.987 55.721 469.904 54.615 C 470.815 53.517 470.443 52.844 468.108 51.365 C 466.488 50.339 465.171 49.725 465.183 50.000 C 465.194 50.275 463.695 50.319 461.852 50.098 C 458.788 49.730 458.710 49.642 460.940 49.067 C 463.072 48.518 462.502 48.046 456.440 45.341 C 452.623 43.637 445.668 41.286 440.984 40.116 C 423.583 35.768 380.995 33.036 330.250 33.013 L 301.000 33.000 301.000 28.500 L 301.000 24.000 281.750 24.160 C 271.163 24.248 261.150 24.464 259.500 24.641 M 66.883 125.000 C 66.040 125.000 65.890 123.107 66.348 118.250 C 66.699 114.538 67.088 108.125 67.213 104.000 C 67.338 99.875 67.579 102.913 67.748 110.750 C 67.972 121.153 67.738 125.000 66.883 125.000 M 65.997 88.000 C 66.472 88.000 67.056 86.988 67.294 85.750 C 67.533 84.513 67.789 85.638 67.864 88.250 C 67.939 90.863 67.550 93.000 67.000 93.000 C 66.450 93.000 66.000 92.100 66.000 91.000 C 66.000 89.900 65.550 89.000 65.000 89.000 C 64.450 89.000 64.067 87.538 64.150 85.750 C 64.289 82.725 64.329 82.690 64.716 85.250 C 64.945 86.763 65.522 88.000 65.997 88.000 M 72.558 51.183 C 72.902 52.265 72.917 53.417 72.591 53.742 C 72.266 54.067 72.000 53.583 72.000 52.667 C 72.000 51.684 71.204 51.000 70.059 51.000 C 68.069 51.000 66.637 49.696 67.585 48.748 C 68.665 47.669 71.954 49.279 72.558 51.183 M 466.512 130.980 C 466.226 131.443 465.206 131.671 464.246 131.487 C 463.286 131.304 462.050 131.074 461.500 130.977 C 460.950 130.880 461.625 130.466 463.000 130.058 C 465.738 129.244 467.327 129.662 466.512 130.980 M 467.000 123.000 C 467.000 124.100 466.550 125.000 466.000 125.000 C 465.450 125.000 465.000 124.100 465.000 123.000 C 465.000 121.900 465.450 121.000 466.000 121.000 C 466.550 121.000 467.000 121.900 467.000 123.000 "/></g>
<g fill="#2696CEFE" stroke="#2696CEFE">
<path d="M 255.860 175.473 C 255.600 175.734 245.870 175.989 234.239 176.040 C 214.203 176.129 213.060 176.236 212.474 178.081 C 212.134 179.153 211.467 179.789 210.992 179.495 C 210.508 179.196 210.509 180.289 210.994 181.981 C 211.471 183.641 211.779 185.026 211.680 185.057 C 211.581 185.089 197.812 185.294 181.081 185.512 C 140.779 186.038 118.458 187.765 96.000 192.095 C 85.076 194.201 77.272 196.378 73.000 198.509 C 71.625 199.195 69.263 200.337 67.750 201.047 C 66.238 201.757 65.000 202.887 65.000 203.558 C 65.000 204.229 64.213 204.715 63.250 204.639 C 62.174 204.553 61.497 205.203 61.492 206.326 C 61.488 207.344 61.091 207.786 60.595 207.326 C 60.084 206.852 59.940 207.457 60.258 208.747 C 60.640 210.300 60.454 210.763 59.656 210.247 C 59.020 209.836 58.500 208.922 58.500 208.215 C 58.500 207.509 56.040 209.421 53.034 212.465 C 49.459 216.085 48.142 218.000 49.225 218.000 C 51.420 218.000 52.431 219.776 51.129 221.345 C 50.097 222.588 48.130 244.183 47.291 263.484 C 46.839 273.883 45.997 276.297 43.177 275.271 C 41.720 274.741 41.743 274.938 43.354 276.774 C 45.757 279.513 48.906 277.958 48.220 274.371 C 47.973 273.077 48.116 269.876 48.538 267.259 L 49.307 262.500 50.130 266.000 C 50.582 267.925 50.881 271.097 50.793 273.048 C 50.705 275.000 51.011 277.208 51.473 277.956 C 52.111 278.989 51.796 279.180 50.157 278.751 C 47.374 278.024 46.544 279.386 48.703 281.137 C 49.859 282.074 50.149 282.110 49.633 281.250 C 49.220 280.563 49.359 280.000 49.941 280.000 C 50.523 280.000 51.000 280.699 51.000 281.553 C 51.000 283.450 63.438 289.483 66.780 289.206 C 68.061 289.100 68.848 289.437 68.528 289.955 C 67.784 291.159 80.612 295.204 93.500 297.829 C 114.562 302.117 131.273 303.294 163.276 302.742 C 191.715 302.251 193.097 302.312 194.061 304.114 C 194.748 305.397 194.740 306.000 194.035 306.000 C 193.466 306.000 193.000 306.675 193.000 307.500 C 193.000 310.528 195.874 308.993 196.277 305.750 C 196.618 302.999 196.717 303.190 196.919 307.000 C 197.050 309.475 197.365 310.999 197.617 310.386 C 197.885 309.736 199.626 309.444 201.788 309.685 C 203.830 309.912 210.000 309.621 215.500 309.038 C 221.000 308.454 232.363 307.445 240.750 306.794 C 249.138 306.144 256.000 305.291 256.000 304.899 C 256.000 304.508 256.804 304.397 257.786 304.654 C 259.152 305.012 260.092 303.931 261.782 300.061 L 263.992 295.000 270.246 294.923 C 273.686 294.881 277.400 294.617 278.500 294.337 C 282.971 293.197 345.871 293.587 357.500 294.827 C 407.220 300.128 425.621 300.153 446.284 294.950 C 450.115 293.985 450.700 293.507 450.314 291.661 C 449.911 289.734 449.984 289.690 450.981 291.250 C 451.596 292.213 452.554 293.000 453.109 293.000 C 453.664 293.000 453.843 292.555 453.507 292.011 C 453.162 291.453 453.545 291.272 454.387 291.595 C 455.207 291.910 456.693 291.710 457.689 291.151 C 459.399 290.191 459.402 290.097 457.750 289.460 C 456.788 289.089 456.000 288.358 456.000 287.834 C 456.000 287.310 456.419 287.141 456.932 287.458 C 457.449 287.778 457.831 286.357 457.790 284.267 C 457.750 282.195 458.431 271.050 459.303 259.500 C 460.175 247.950 461.417 229.950 462.064 219.500 C 462.710 209.050 463.627 199.757 464.101 198.850 C 464.703 197.698 464.491 197.019 463.400 196.600 C 461.209 195.759 460.788 195.848 461.500 197.000 C 461.840 197.550 461.416 198.068 460.559 198.150 C 456.862 198.506 456.591 198.462 458.250 197.781 C 460.410 196.894 460.603 194.555 458.448 195.382 C 457.558 195.723 457.157 195.555 457.507 194.989 C 458.764 192.955 456.051 194.090 454.557 196.223 C 453.277 198.049 453.000 198.138 453.000 196.723 C 453.000 195.775 453.450 195.000 454.000 195.000 C 454.550 195.000 455.000 194.498 455.000 193.883 C 455.000 193.259 454.118 192.997 452.999 193.290 C 451.898 193.578 451.227 193.442 451.507 192.988 C 452.188 191.887 446.371 190.653 444.870 191.580 C 444.167 192.015 443.956 191.880 444.348 191.245 C 445.537 189.323 424.378 186.813 391.500 184.976 C 381.050 184.393 351.575 183.992 326.000 184.085 L 279.500 184.256 279.643 179.628 L 279.785 175.000 268.059 175.000 C 261.610 175.000 256.120 175.213 255.860 175.473 M 58.901 261.691 C 58.955 265.096 58.550 268.160 58.000 268.500 C 57.351 268.901 57.049 264.795 57.141 256.809 C 57.257 246.641 57.414 245.457 58.042 250.000 C 58.460 253.025 58.847 258.286 58.901 261.691 M 57.000 211.820 C 54.983 212.734 54.648 214.862 56.215 216.797 C 57.196 218.008 57.204 218.206 56.250 217.633 C 55.380 217.110 55.000 217.660 55.000 219.441 C 55.000 220.848 54.499 222.000 53.887 222.000 C 53.212 222.000 52.951 220.788 53.224 218.926 C 53.613 216.278 53.407 215.922 51.739 216.358 C 50.179 216.766 50.356 216.300 52.651 213.960 C 54.218 212.363 56.175 211.075 57.000 211.098 C 58.333 211.136 58.333 211.216 57.000 211.820 M 59.000 233.000 C 59.000 234.100 58.550 235.000 58.000 235.000 C 57.450 235.000 57.000 234.100 57.000 233.000 C 57.000 231.900 57.450 231.000 58.000 231.000 C 58.550 231.000 59.000 231.900 59.000 233.000 M 453.394 230.829 C 452.580 233.607 452.521 233.184 452.966 227.750 C 453.131 225.730 453.411 225.192 453.705 226.329 C 453.964 227.335 453.825 229.360 453.394 230.829 M 56.000 229.226 C 56.000 233.003 55.501 232.622 54.659 228.200 C 54.266 226.139 54.400 225.129 55.015 225.509 C 55.557 225.844 56.000 227.516 56.000 229.226 M 277.351 184.235 C 278.089 184.707 277.874 184.975 276.750 184.985 C 275.412 184.996 275.032 184.236 275.136 181.750 C 275.251 178.998 275.344 178.883 275.737 181.000 C 275.993 182.375 276.719 183.831 277.351 184.235 "/></g>
<g fill="#B4B4B4FE" stroke="#B4B4B4FE">
<path d="M 493.456 59.750 C 495.629 62.088 497.202 64.053 496.953 64.118 C 496.704 64.184 496.776 64.204 497.113 64.164 C 498.312 64.021 527.693 94.581 530.921 99.328 C 547.637 123.912 540.891 152.886 513.817 172.787 C 503.257 180.549 483.027 190.000 476.971 190.000 C 475.887 190.000 475.000 190.450 475.000 191.000 C 475.000 191.550 475.675 192.000 476.500 192.000 C 477.325 192.000 478.000 192.374 478.000 192.831 C 478.000 193.288 479.238 194.301 480.750 195.081 C 486.182 197.884 502.500 213.810 502.500 216.309 C 502.500 216.781 502.746 216.920 503.048 216.619 C 504.151 215.516 533.914 246.527 537.485 252.500 C 551.807 276.455 545.738 302.716 521.557 321.427 C 492.583 343.846 465.335 348.517 403.000 341.750 C 377.879 339.023 323.784 338.817 295.000 341.340 C 284.825 342.231 272.900 343.232 268.500 343.562 C 264.100 343.893 254.650 344.799 247.500 345.575 C 222.516 348.285 187.672 349.393 166.188 348.158 C 132.389 346.217 109.344 341.090 88.000 330.766 C 80.322 327.052 77.807 325.003 62.000 309.585 C 52.375 300.197 46.302 294.537 48.505 297.008 C 50.708 299.479 53.589 303.650 54.908 306.277 C 58.279 312.990 66.954 322.753 87.623 343.092 C 106.150 361.323 110.981 364.870 125.145 370.646 C 149.862 380.726 177.676 384.975 219.039 384.990 C 242.926 384.999 255.965 384.242 295.000 380.579 C 333.344 376.981 342.886 376.528 380.000 376.549 C 412.769 376.567 421.552 376.899 439.000 378.780 C 463.502 381.421 490.021 381.718 503.672 379.504 C 537.397 374.035 566.892 354.450 577.458 330.512 C 585.151 313.081 582.399 292.705 570.120 276.177 C 567.392 272.504 554.821 259.255 542.184 246.733 L 519.207 223.967 524.354 221.763 C 567.730 203.193 586.689 168.989 571.592 136.543 C 567.095 126.878 562.733 121.673 539.288 98.000 C 520.238 78.764 513.310 72.794 503.534 67.186 C 501.315 65.914 497.252 62.764 494.503 60.186 C 489.653 55.637 489.622 55.624 493.456 59.750 "/></g>
<g fill="#022C3CFE" stroke="#022C3CFE">
<path d="M 503.927 219.028 C 511.815 233.645 511.924 251.068 504.217 265.405 C 498.043 276.892 480.399 291.864 464.589 299.032 C 455.830 303.004 442.360 306.558 430.331 308.072 C 418.920 309.509 392.303 308.828 371.803 306.576 C 343.749 303.494 319.165 302.683 291.000 303.910 C 276.425 304.544 260.000 305.476 254.500 305.980 C 249.000 306.485 241.350 307.160 237.500 307.481 C 233.650 307.802 226.000 308.494 220.500 309.018 C 215.000 309.542 203.975 310.461 196.000 311.059 C 176.660 312.512 173.000 312.971 173.000 313.945 C 173.000 314.397 174.111 314.979 175.470 315.239 C 176.828 315.499 177.736 315.382 177.488 314.980 C 176.869 313.979 185.189 312.726 185.917 313.711 C 186.238 314.145 187.625 314.621 189.000 314.769 C 190.375 314.917 191.950 315.608 192.500 316.305 C 193.050 317.002 194.223 317.423 195.107 317.241 C 195.991 317.058 200.266 317.411 204.607 318.026 C 211.991 319.071 214.520 319.401 219.500 319.971 C 221.248 320.171 221.185 320.311 219.000 321.085 C 217.155 321.739 217.858 321.859 221.685 321.541 C 224.537 321.304 227.012 321.513 227.185 322.007 C 227.614 323.227 247.277 326.669 255.357 326.938 C 256.585 326.979 257.019 327.508 256.638 328.500 C 256.322 329.325 256.499 330.000 257.031 330.000 C 257.564 330.000 258.000 329.550 258.000 329.000 C 258.000 328.450 258.450 328.000 259.000 328.000 C 259.550 328.000 259.888 328.563 259.750 329.250 C 259.586 330.071 261.046 330.597 264.000 330.782 C 266.475 330.937 269.175 331.346 270.000 331.691 C 270.825 332.035 271.838 332.246 272.250 332.159 C 272.663 332.071 273.000 332.337 273.001 332.750 C 273.001 333.162 277.039 333.594 281.974 333.709 C 288.345 333.858 291.676 334.397 293.465 335.569 C 294.851 336.477 296.686 336.951 297.544 336.621 C 298.402 336.292 298.845 336.441 298.529 336.953 C 298.213 337.464 299.877 338.022 302.227 338.191 C 305.213 338.407 306.505 338.952 306.515 340.000 C 306.527 341.100 306.738 341.173 307.309 340.275 C 307.737 339.601 309.393 339.201 310.990 339.387 C 312.935 339.614 314.128 339.194 314.609 338.113 C 315.204 336.773 315.340 336.754 315.413 338.000 C 315.488 339.300 320.025 339.512 349.500 339.588 C 376.684 339.658 387.409 340.096 403.000 341.771 C 449.234 346.740 473.383 345.395 495.745 336.607 C 514.893 329.081 532.645 314.417 539.957 300.084 C 547.651 285.003 546.605 267.495 537.070 251.762 C 535.132 248.565 526.607 239.102 517.303 229.820 C 501.804 214.358 501.100 213.791 503.927 219.028 "/></g>
<g fill="#000000FE" stroke="#000000FE">
<path d="M 53.419 155.120 C 69.624 171.869 73.682 175.303 82.517 179.742 L 88.500 182.748 96.500 181.408 C 113.161 178.617 118.080 178.063 139.000 176.615 C 161.372 175.067 303.008 173.248 357.000 173.815 C 381.457 174.072 417.670 175.506 422.662 176.416 C 423.673 176.600 427.650 177.056 431.500 177.430 C 443.455 178.589 464.926 184.734 470.387 188.558 C 471.519 189.351 473.691 190.000 475.214 190.000 C 478.266 190.000 490.837 185.887 496.303 183.100 L 499.786 181.325 496.143 179.978 C 494.139 179.238 490.925 178.576 489.000 178.507 C 487.075 178.438 484.319 177.800 482.876 177.088 C 480.912 176.119 479.735 176.071 478.192 176.897 C 475.680 178.242 473.675 178.335 474.456 177.072 C 474.771 176.562 474.123 175.856 473.015 175.505 C 471.907 175.153 471.000 174.497 471.000 174.046 C 471.000 172.892 465.029 172.145 464.367 173.215 C 464.059 173.713 463.316 173.679 462.661 173.137 C 462.022 172.609 460.375 172.142 459.000 172.100 C 457.625 172.058 453.913 171.956 450.750 171.873 C 447.588 171.791 445.000 171.336 445.000 170.862 C 445.000 170.388 442.498 170.000 439.441 170.000 C 436.384 170.000 434.128 169.601 434.430 169.114 C 434.731 168.626 433.970 167.899 432.739 167.498 C 429.251 166.362 428.554 166.358 427.765 167.467 C 427.285 168.142 427.025 168.087 427.015 167.307 C 427.007 166.646 426.087 166.291 424.950 166.510 C 423.777 166.736 422.660 166.277 422.338 165.438 C 421.935 164.387 420.375 164.021 416.842 164.146 C 412.812 164.288 412.009 164.612 412.457 165.910 C 412.818 166.957 412.484 166.826 411.479 165.527 C 410.358 164.077 409.002 163.636 406.364 163.863 C 404.201 164.050 403.016 163.783 403.382 163.191 C 403.716 162.651 403.429 162.004 402.744 161.752 C 400.962 161.097 398.881 161.999 399.578 163.125 C 400.410 164.473 394.684 162.966 393.765 161.596 C 393.268 160.854 393.026 160.923 393.015 161.809 C 393.006 162.606 392.511 162.812 391.750 162.335 C 391.063 161.905 390.050 161.497 389.500 161.429 C 388.518 161.307 389.022 160.995 391.000 160.500 C 392.215 160.196 392.797 159.716 391.750 159.882 C 391.338 159.947 391.000 159.532 391.000 158.961 C 391.000 158.390 389.999 158.855 388.775 159.995 C 387.025 161.625 386.438 161.771 386.025 160.677 C 385.736 159.912 384.650 159.416 383.611 159.575 C 382.571 159.734 381.039 159.182 380.206 158.348 C 379.129 157.272 377.142 156.929 373.344 157.166 C 370.403 157.350 367.998 157.244 367.999 156.932 C 367.999 156.619 366.763 156.292 365.250 156.205 C 363.738 156.118 359.125 155.854 355.000 155.619 C 350.875 155.384 345.250 154.734 342.500 154.175 C 335.739 152.800 288.736 152.689 272.000 154.009 C 264.575 154.594 249.725 155.745 239.000 156.566 C 228.275 157.387 215.225 158.478 210.000 158.990 C 159.329 163.956 132.933 164.066 99.500 159.451 C 78.346 156.532 59.416 151.014 46.115 143.892 L 38.730 139.937 53.419 155.120 "/></g>
<g fill="#000000FE" stroke="#000000FE">
<path d="M 46.000 292.930 C 46.000 293.315 53.313 300.853 62.250 309.683 C 79.620 326.842 83.152 329.257 100.843 336.069 C 127.364 346.281 163.820 350.315 209.985 348.143 C 223.468 347.509 235.655 346.773 237.068 346.509 C 241.042 345.763 271.667 342.961 290.000 341.666 C 299.909 340.966 306.407 340.101 306.268 339.500 C 306.140 338.950 304.217 338.361 301.995 338.191 C 299.773 338.022 298.213 337.464 298.529 336.953 C 298.845 336.441 298.402 336.292 297.544 336.621 C 296.686 336.951 294.851 336.477 293.465 335.569 C 291.676 334.397 288.345 333.858 281.974 333.709 C 277.039 333.594 273.001 333.163 273.001 332.750 C 273.000 332.337 272.663 332.071 272.250 332.159 C 271.838 332.246 270.825 332.035 270.000 331.691 C 269.175 331.346 266.475 330.937 264.000 330.782 C 261.046 330.597 259.586 330.071 259.750 329.250 C 259.888 328.563 259.550 328.000 259.000 328.000 C 258.450 328.000 258.000 328.450 258.000 329.000 C 258.000 329.550 257.564 330.000 257.031 330.000 C 256.499 330.000 256.322 329.325 256.638 328.500 C 257.019 327.508 256.585 326.979 255.357 326.938 C 247.277 326.669 227.614 323.227 227.185 322.007 C 227.012 321.513 224.537 321.304 221.685 321.541 C 217.858 321.859 217.155 321.739 219.000 321.085 C 221.185 320.311 221.248 320.171 219.500 319.971 C 214.520 319.401 211.991 319.071 204.607 318.026 C 200.266 317.411 195.991 317.058 195.107 317.241 C 194.223 317.423 193.050 317.002 192.500 316.305 C 191.950 315.608 190.375 314.917 189.000 314.769 C 187.625 314.621 186.238 314.145 185.917 313.711 C 185.189 312.726 176.869 313.979 177.488 314.980 C 177.736 315.382 176.828 315.499 175.470 315.239 C 174.111 314.979 173.000 314.482 173.000 314.133 C 172.999 313.785 162.312 313.437 149.250 313.360 C 125.485 313.219 107.954 311.706 92.000 308.420 C 83.067 306.579 66.910 302.060 65.500 301.007 C 64.950 300.597 62.702 299.681 60.504 298.971 C 58.306 298.262 54.143 296.456 51.254 294.957 C 48.364 293.457 46.000 292.546 46.000 292.930 M 293.000 337.283 C 293.000 337.861 292.716 338.049 292.369 337.702 C 292.021 337.355 290.937 337.499 289.959 338.022 C 288.542 338.780 288.249 338.621 288.514 337.237 C 288.697 336.282 288.881 335.430 288.923 335.344 C 289.249 334.679 293.000 336.464 293.000 337.283 "/></g>
<g fill="#022C3CFE" stroke="#022C3CFE">
<path d="M 497.185 65.500 C 514.334 94.127 502.527 124.817 466.817 144.435 C 450.125 153.605 435.983 156.920 410.250 157.696 C 399.663 158.016 391.000 158.665 391.000 159.139 C 391.000 159.612 391.338 159.947 391.750 159.882 C 392.797 159.716 392.215 160.196 391.000 160.500 C 389.022 160.995 388.518 161.307 389.500 161.429 C 390.050 161.497 391.063 161.905 391.750 162.335 C 392.511 162.812 393.006 162.606 393.015 161.809 C 393.026 160.923 393.268 160.854 393.765 161.596 C 394.672 162.949 400.412 164.475 399.590 163.145 C 398.903 162.034 400.972 161.111 402.756 161.733 C 403.447 161.974 403.734 162.621 403.394 163.172 C 403.013 163.788 404.155 164.054 406.364 163.863 C 409.002 163.636 410.358 164.077 411.479 165.527 C 412.484 166.826 412.818 166.957 412.457 165.910 C 412.009 164.612 412.812 164.288 416.842 164.146 C 420.375 164.021 421.935 164.387 422.338 165.438 C 422.660 166.277 423.777 166.736 424.950 166.510 C 426.087 166.291 427.007 166.646 427.015 167.307 C 427.025 168.087 427.285 168.142 427.765 167.467 C 428.554 166.358 429.251 166.362 432.739 167.498 C 433.970 167.899 434.731 168.626 434.430 169.114 C 434.128 169.601 436.384 170.000 439.441 170.000 C 442.498 170.000 445.000 170.388 445.000 170.862 C 445.000 171.336 447.588 171.791 450.750 171.873 C 453.913 171.956 457.625 172.058 459.000 172.100 C 460.375 172.142 462.022 172.609 462.661 173.137 C 463.316 173.679 464.059 173.713 464.367 173.215 C 465.029 172.145 471.000 172.892 471.000 174.046 C 471.000 174.497 471.907 175.153 473.015 175.505 C 474.123 175.856 474.771 176.562 474.456 177.072 C 473.684 178.320 475.372 178.243 478.326 176.897 C 480.163 176.060 481.320 176.113 483.124 177.116 C 484.431 177.843 487.304 178.490 489.510 178.555 C 491.715 178.619 494.498 179.196 495.694 179.836 C 499.327 181.781 501.254 181.213 509.439 175.785 C 541.315 154.646 549.079 123.459 529.052 97.000 C 522.404 88.217 493.936 60.076 497.185 65.500 "/></g>
<g fill="#18628EFE" stroke="#18628EFE">
<path d="M 285.303 174.735 L 280.105 175.101 279.803 179.683 L 279.500 184.264 326.000 184.090 C 389.792 183.850 430.559 186.329 448.545 191.541 C 472.292 198.423 488.915 210.856 496.713 227.570 C 499.125 232.739 499.479 234.718 499.480 243.000 C 499.480 252.055 499.305 252.828 495.745 259.506 C 489.688 270.863 479.016 280.435 463.951 288.020 C 454.395 292.831 445.180 295.608 432.500 297.498 C 416.320 299.909 403.179 299.456 357.500 294.912 C 337.482 292.921 270.181 293.458 264.456 295.655 C 262.928 296.241 261.427 302.265 262.412 303.858 C 262.796 304.479 268.122 304.620 276.761 304.239 C 307.296 302.890 345.463 303.658 367.500 306.064 C 397.068 309.292 427.175 309.321 442.000 306.134 C 461.401 301.964 479.247 292.742 492.297 280.143 C 522.771 250.723 512.975 210.677 470.000 188.994 C 453.761 180.801 437.536 177.741 398.586 175.529 C 374.235 174.146 300.987 173.633 285.303 174.735 "/></g>
<g fill="#18628EFE" stroke="#18628EFE">
<path d="M 320.943 23.391 C 320.643 23.690 316.034 24.000 310.699 24.080 L 301.000 24.225 301.000 28.612 L 301.000 33.000 330.250 33.013 C 380.859 33.036 423.462 35.760 440.984 40.094 C 463.907 45.764 483.249 59.576 491.266 76.000 C 494.105 81.816 494.442 83.452 494.469 91.548 C 494.498 99.993 494.254 101.096 490.809 108.068 C 481.447 127.019 457.288 141.968 428.673 146.517 C 413.920 148.862 385.926 148.104 356.000 144.551 C 346.212 143.389 308.152 141.880 302.500 142.430 C 299.200 142.752 293.800 143.077 290.500 143.153 L 284.500 143.292 284.227 148.025 L 283.954 152.759 318.727 153.278 C 343.820 153.652 357.119 154.288 366.500 155.560 C 375.651 156.801 386.605 157.349 403.500 157.411 C 425.185 157.491 428.465 157.278 437.500 155.196 C 458.294 150.406 474.307 141.819 488.088 128.069 C 497.922 118.257 502.240 110.467 504.209 98.985 C 507.432 80.194 497.575 60.118 478.390 46.395 C 459.042 32.555 438.756 27.209 397.500 25.078 C 373.069 23.816 321.650 22.683 320.943 23.391 "/></g>
<g fill="#4AB8F0FE" stroke="#4AB8F0FE">
<path d="M 463.633 199.750 C 463.356 200.713 462.625 209.825 462.006 220.000 C 461.388 230.175 460.170 247.950 459.299 259.500 C 458.429 271.050 457.750 282.195 457.790 284.267 C 457.831 286.357 457.449 287.778 456.932 287.458 C 456.419 287.141 456.000 287.310 456.000 287.834 C 456.000 289.611 459.153 290.006 461.304 288.500 C 462.481 287.675 463.232 286.948 462.973 286.885 C 462.713 286.822 463.207 286.836 464.072 286.917 C 464.936 286.999 469.208 284.738 473.565 281.894 C 495.683 267.455 504.094 249.042 497.271 230.000 C 495.074 223.867 487.942 213.917 482.830 209.851 C 478.018 206.024 465.841 198.017 464.817 198.007 C 464.442 198.003 463.909 198.788 463.633 199.750 "/></g>
<g fill="#72CCE6FE" stroke="#72CCE6FE">
<path d="M 107.000 28.721 C 105.625 28.968 104.097 29.557 103.604 30.031 C 103.111 30.504 101.510 30.652 100.044 30.359 C 97.126 29.775 79.872 33.129 70.728 36.057 C 44.162 44.565 22.035 71.095 19.483 97.500 C 17.480 118.220 27.457 134.450 48.330 144.425 C 53.374 146.835 59.975 149.561 63.000 150.482 C 75.351 154.243 85.435 156.899 85.836 156.497 C 86.071 156.262 87.057 156.495 88.026 157.014 C 89.281 157.686 90.150 157.525 91.036 156.456 C 92.084 155.193 91.982 155.051 90.391 155.561 C 88.848 156.056 88.934 155.784 90.861 154.084 C 92.439 152.691 92.743 152.000 91.777 152.000 C 90.983 152.000 90.333 151.325 90.333 150.500 C 90.333 148.672 91.185 148.588 92.859 150.250 C 93.868 151.252 93.995 151.176 93.498 149.868 C 93.127 148.894 91.189 147.971 88.688 147.579 C 84.179 146.871 82.941 146.529 70.000 142.414 C 44.198 134.209 32.472 124.336 29.092 107.970 C 27.720 101.331 29.570 89.682 33.186 82.179 C 41.301 65.340 56.831 50.768 72.235 45.538 C 79.443 43.091 101.916 38.413 108.049 38.083 C 109.222 38.020 109.499 37.146 109.188 34.486 C 108.963 32.554 109.333 30.304 110.011 29.486 C 110.690 28.669 110.852 28.061 110.372 28.136 C 109.893 28.211 108.375 28.474 107.000 28.721 "/></g>
<g fill="#18628EFE" stroke="#18628EFE">
<path d="M 53.477 57.280 C 51.554 58.864 50.237 60.575 50.550 61.080 C 50.862 61.586 50.528 62.000 49.806 62.000 C 49.084 62.000 47.249 63.318 45.728 64.930 C 43.665 67.116 43.285 68.063 44.232 68.664 C 45.128 69.232 44.939 69.473 43.586 69.484 C 42.533 69.493 41.463 70.125 41.206 70.889 C 40.896 71.816 41.168 72.014 42.025 71.485 C 42.849 70.975 43.063 71.089 42.622 71.802 C 42.245 72.413 41.366 72.694 40.669 72.426 C 39.092 71.821 34.608 79.536 35.374 81.533 C 35.679 82.327 35.421 82.869 34.802 82.738 C 33.266 82.413 29.013 96.463 29.006 101.884 C 28.999 107.040 30.932 114.160 32.137 113.415 C 32.599 113.130 32.704 113.607 32.371 114.475 C 31.249 117.398 42.268 130.183 46.298 130.635 C 46.959 130.709 47.275 130.823 47.000 130.888 C 46.725 130.954 47.850 131.831 49.500 132.837 C 51.150 133.843 53.125 134.458 53.889 134.204 C 54.732 133.923 55.004 134.185 54.580 134.870 C 53.816 136.107 54.014 136.183 58.695 136.447 C 61.340 136.596 61.733 136.357 60.976 135.063 C 60.472 134.204 60.009 133.725 59.945 134.000 C 59.882 134.275 59.903 132.089 59.992 129.143 C 60.102 125.535 59.803 124.004 59.077 124.452 C 58.438 124.848 57.939 124.180 57.850 122.809 C 57.767 121.539 57.375 122.525 56.979 125.000 C 56.522 127.855 56.360 125.386 56.535 118.250 C 56.760 109.120 56.547 107.000 55.406 107.000 C 53.917 107.000 53.760 104.610 54.914 99.500 C 55.579 96.559 55.611 96.589 56.546 101.000 C 57.412 105.083 57.500 104.659 57.500 96.420 C 57.500 89.602 57.811 87.443 58.750 87.753 C 59.681 88.061 60.033 85.910 60.131 79.333 C 60.203 74.475 60.580 67.125 60.969 63.000 L 61.677 55.500 61.838 66.691 C 61.928 72.887 62.446 78.158 63.000 78.500 C 63.645 78.899 64.000 74.880 64.000 67.168 L 64.000 55.219 60.486 54.809 C 57.723 54.486 56.226 55.013 53.477 57.280 "/></g>
<g fill="#72CCE6FE" stroke="#72CCE6FE">
<path d="M 77.000 186.335 C 54.426 194.431 37.366 210.278 28.942 230.977 C 20.684 251.271 23.408 270.425 36.399 283.404 C 39.204 286.207 42.400 289.071 43.500 289.769 C 48.934 293.216 66.407 301.058 67.619 300.593 C 68.378 300.301 69.000 300.459 69.000 300.943 C 69.000 301.935 71.573 301.760 72.638 300.696 C 73.020 300.313 72.625 300.000 71.760 300.000 C 70.665 300.000 70.351 299.375 70.725 297.943 C 71.081 296.582 71.810 296.076 72.881 296.445 C 73.772 296.753 73.380 296.057 72.012 294.899 L 69.523 292.794 72.012 293.095 C 74.111 293.350 74.188 293.278 72.500 292.636 C 61.622 288.496 58.819 287.284 54.340 284.788 C 46.822 280.596 40.842 274.950 37.466 268.855 C 34.672 263.810 34.502 262.863 34.542 252.500 C 34.578 242.967 34.929 240.682 37.173 235.370 C 42.391 223.016 53.130 210.091 64.378 202.625 C 69.665 199.115 81.764 194.014 84.869 193.985 C 85.766 193.976 87.175 193.526 88.000 192.985 C 89.333 192.109 89.333 191.891 88.000 191.015 C 86.707 190.167 86.735 190.029 88.200 190.015 C 89.135 190.007 90.359 190.788 90.920 191.750 C 91.481 192.713 91.953 192.963 91.970 192.307 C 91.986 191.650 91.154 190.521 90.119 189.796 C 89.085 189.072 88.068 187.584 87.859 186.490 C 87.324 183.687 84.497 183.646 77.000 186.335 "/></g>
<g fill="#4AB8F0FE" stroke="#4AB8F0FE">
<path d="M 467.501 53.998 C 467.115 54.622 467.070 55.403 467.400 55.733 C 467.730 56.063 468.000 55.808 468.000 55.167 C 468.000 54.525 468.477 54.000 469.059 54.000 C 469.641 54.000 469.840 54.450 469.500 55.000 C 469.160 55.550 469.756 56.000 470.824 56.000 C 472.096 56.000 472.930 56.853 473.239 58.470 C 473.499 59.828 473.326 60.702 472.856 60.411 C 472.385 60.120 471.973 61.371 471.940 63.191 C 471.797 71.030 469.980 101.048 468.501 120.000 C 468.265 123.025 468.056 126.793 468.036 128.372 C 468.009 130.515 467.682 131.000 466.750 130.281 C 466.063 129.751 464.375 129.651 463.000 130.059 C 460.369 130.839 460.709 131.040 465.353 131.450 C 467.190 131.612 468.972 130.938 470.353 129.556 C 471.534 128.375 472.772 127.430 473.105 127.455 C 473.438 127.480 475.818 125.700 478.393 123.500 C 484.405 118.364 491.524 107.776 493.057 101.689 C 494.928 94.259 493.853 82.354 490.750 76.126 C 487.443 69.490 480.746 61.283 475.265 57.152 C 470.013 53.193 468.403 52.539 467.501 53.998 "/></g>
<g fill="#4AB8F0FE" stroke="#4AB8F0FE">
<path d="M 147.917 25.370 C 147.688 25.573 142.775 26.009 137.000 26.337 C 119.805 27.314 111.575 28.213 110.250 29.259 C 108.834 30.375 108.543 36.600 109.868 37.418 C 110.346 37.714 119.073 37.303 129.263 36.505 C 139.453 35.708 155.150 34.988 164.145 34.906 C 173.140 34.824 179.887 34.532 179.137 34.257 C 178.308 33.954 178.170 33.511 178.784 33.129 C 179.802 32.495 180.328 29.977 180.115 26.750 C 180.011 25.162 178.535 25.000 164.167 25.000 C 155.458 25.000 148.146 25.166 147.917 25.370 "/></g>
<g fill="#4AB8F0FE" stroke="#4AB8F0FE">
<path d="M 93.452 149.750 C 93.986 151.153 93.869 151.252 92.859 150.250 C 91.185 148.588 90.333 148.672 90.333 150.500 C 90.333 151.325 90.983 152.000 91.777 152.000 C 92.743 152.000 92.439 152.691 90.861 154.084 C 88.934 155.784 88.848 156.056 90.391 155.561 C 91.992 155.047 92.089 155.188 91.019 156.477 C 89.991 157.715 90.012 157.997 91.128 157.985 C 91.882 157.976 93.163 157.550 93.974 157.037 C 94.932 156.431 95.691 156.499 96.144 157.232 C 96.984 158.592 96.966 158.589 114.500 160.483 C 122.200 161.315 135.769 161.997 144.653 161.998 L 160.807 162.000 161.153 156.999 L 161.500 151.999 143.500 151.988 C 133.600 151.982 119.447 151.336 112.048 150.554 C 104.650 149.771 98.269 149.334 97.868 149.582 C 97.466 149.830 96.856 149.575 96.510 149.016 C 95.381 147.190 92.721 147.828 93.452 149.750 "/></g>
<g fill="#4AB8F0FE" stroke="#4AB8F0FE">
<path d="M 72.088 294.961 C 73.435 296.102 73.785 296.757 72.881 296.445 C 71.810 296.076 71.081 296.582 70.725 297.943 C 70.375 299.282 70.667 300.000 71.562 300.000 C 72.374 300.000 72.701 300.615 72.362 301.500 C 71.667 303.310 73.556 303.514 74.676 301.750 C 75.271 300.813 75.473 300.875 75.485 301.999 C 75.493 302.823 76.175 303.542 77.000 303.596 C 77.825 303.651 78.275 303.802 78.000 303.932 C 77.725 304.062 82.000 305.226 87.500 306.520 C 98.821 309.183 127.775 312.495 132.126 311.625 C 133.719 311.306 135.000 311.485 135.000 312.025 C 135.000 312.561 135.927 313.000 137.059 313.000 C 138.191 313.000 138.864 312.590 138.554 312.088 C 138.244 311.586 138.677 311.276 139.517 311.400 C 140.356 311.523 140.733 311.933 140.355 312.312 C 139.976 312.690 140.642 313.000 141.833 313.000 C 143.025 313.000 144.000 312.523 144.000 311.941 C 144.000 311.359 143.550 311.160 143.000 311.500 C 142.450 311.840 142.000 311.448 142.000 310.629 C 142.000 309.450 141.376 309.319 139.000 310.000 C 137.200 310.516 136.000 310.488 136.000 309.930 C 136.000 309.419 136.900 309.000 138.000 309.000 C 139.100 309.000 140.034 308.438 140.077 307.750 C 140.119 307.063 140.304 305.713 140.488 304.750 C 140.672 303.788 140.413 303.000 139.912 303.000 C 139.410 303.000 139.000 303.352 139.000 303.783 C 139.000 304.214 137.872 304.517 136.493 304.456 C 135.115 304.396 134.235 304.098 134.538 303.795 C 134.842 303.492 131.582 302.930 127.295 302.547 C 113.017 301.272 97.613 298.896 87.000 296.331 C 81.225 294.936 74.965 293.597 73.088 293.355 L 69.676 292.917 72.088 294.961 "/></g>
<g fill="#4AB8F0FE" stroke="#4AB8F0FE">
<path d="M 139.000 177.084 C 134.325 177.535 125.180 178.405 118.678 179.019 C 104.889 180.320 94.590 182.312 92.194 184.141 C 91.262 184.852 90.847 185.027 91.272 184.529 C 91.696 184.031 91.390 183.528 90.591 183.410 C 89.625 183.269 89.346 183.751 89.756 184.849 C 90.283 186.256 90.136 186.306 88.766 185.193 C 87.365 184.054 87.230 184.163 87.721 186.039 C 88.030 187.224 89.301 189.211 90.545 190.454 L 92.807 192.716 102.154 190.942 C 107.294 189.966 117.350 188.669 124.500 188.060 C 131.650 187.451 140.650 186.674 144.500 186.332 C 148.350 185.991 153.038 185.664 154.917 185.606 C 157.039 185.540 158.490 184.931 158.744 184.000 C 159.107 182.667 159.031 182.667 158.058 184.000 C 157.026 185.416 157.080 183.887 158.280 177.683 C 158.604 176.010 154.153 175.633 152.253 177.173 C 151.071 178.131 150.825 178.152 151.367 177.250 C 152.212 175.843 151.929 175.839 139.000 177.084 "/></g>
<g fill="#18628EFE" stroke="#18628EFE">
<path d="M 46.298 220.811 C 43.776 224.222 38.127 235.273 37.650 237.727 C 37.461 238.702 36.854 240.625 36.301 242.000 C 34.942 245.383 34.591 257.371 35.875 256.577 C 36.418 256.242 37.187 256.494 37.585 257.138 C 38.009 257.824 37.878 258.042 37.268 257.666 C 35.764 256.736 35.206 259.969 36.212 263.790 C 36.768 265.902 37.958 267.414 39.539 268.015 C 41.991 268.947 42.955 271.000 40.941 271.000 C 40.359 271.000 40.160 270.550 40.500 270.000 C 40.840 269.450 40.641 269.000 40.059 269.000 C 39.477 269.000 39.000 269.391 39.000 269.869 C 39.000 271.151 50.158 282.175 50.803 281.530 C 51.106 281.227 50.487 280.308 49.427 279.487 C 48.051 278.422 47.962 278.155 49.118 278.554 C 50.455 279.016 50.751 278.278 50.819 274.306 C 50.865 271.663 50.543 267.925 50.104 266.000 L 49.307 262.500 48.538 267.259 C 48.116 269.876 47.990 273.165 48.258 274.567 C 48.628 276.502 48.395 276.982 47.291 276.558 C 46.491 276.251 45.593 276.000 45.296 276.000 C 44.998 276.000 45.228 275.430 45.806 274.734 C 46.384 274.037 47.052 268.975 47.291 263.484 C 48.130 244.183 50.097 222.588 51.129 221.345 C 52.327 219.901 51.475 218.000 49.629 218.000 C 48.940 218.000 47.441 219.265 46.298 220.811 "/></g>
<g fill="#72CCE6FE" stroke="#72CCE6FE">
<path d="M 180.200 28.629 C 180.200 30.625 179.667 32.588 179.016 32.990 C 178.185 33.504 178.349 33.920 179.566 34.387 C 182.283 35.430 233.875 35.010 234.537 33.941 C 234.856 33.423 234.376 33.000 233.470 33.000 C 232.121 33.000 231.924 32.275 232.382 29.000 L 232.941 25.000 206.571 25.000 L 180.200 25.000 180.200 28.629 "/></g>
<g fill="#72CCE6FE" stroke="#72CCE6FE">
<path d="M 160.000 302.967 C 145.449 303.365 140.468 303.817 140.375 304.750 C 140.306 305.438 140.194 306.675 140.125 307.500 C 140.056 308.325 139.100 309.000 138.000 309.000 C 136.900 309.000 136.000 309.419 136.000 309.930 C 136.000 310.488 137.200 310.516 139.000 310.000 C 141.376 309.319 142.000 309.450 142.000 310.629 C 142.000 311.448 142.450 311.840 143.000 311.500 C 143.550 311.160 144.000 311.429 144.000 312.097 C 144.000 313.037 148.367 313.131 163.250 312.510 C 173.838 312.068 184.413 311.752 186.750 311.807 C 189.088 311.862 191.000 311.471 191.000 310.939 C 191.000 310.407 192.350 310.209 194.000 310.500 C 196.965 311.022 196.998 310.979 196.840 306.764 C 196.702 303.081 196.625 302.943 196.277 305.750 C 195.874 308.993 193.000 310.528 193.000 307.500 C 193.000 306.675 193.466 306.000 194.035 306.000 C 194.737 306.000 194.726 305.356 194.000 304.000 C 193.073 302.267 192.033 302.029 186.215 302.217 C 182.522 302.337 170.725 302.674 160.000 302.967 "/></g>
<g fill="#72CCE6FE" stroke="#72CCE6FE">
<path d="M 206.000 149.017 C 201.875 149.410 191.300 150.273 182.500 150.934 C 173.700 151.595 165.713 152.559 164.750 153.076 C 163.589 153.700 163.000 153.658 163.000 152.949 C 163.000 152.362 162.550 152.160 162.000 152.500 C 161.450 152.840 161.000 155.107 161.000 157.537 L 161.000 161.957 165.500 161.761 C 167.975 161.653 170.007 161.100 170.015 160.533 C 170.026 159.840 170.273 159.847 170.765 160.553 C 171.275 161.284 177.895 161.061 192.395 159.825 C 203.887 158.845 213.476 157.857 213.704 157.629 C 213.932 157.401 214.301 155.769 214.525 154.001 C 214.749 152.233 215.452 150.160 216.088 149.393 C 217.383 147.833 218.126 147.861 206.000 149.017 "/></g>
<g fill="#72CCE6FE" stroke="#72CCE6FE">
<path d="M 158.193 177.750 C 158.065 178.713 157.856 180.850 157.730 182.500 L 157.500 185.500 184.000 185.505 C 198.575 185.507 210.804 185.388 211.176 185.241 C 211.548 185.094 211.465 183.620 210.991 181.967 C 210.516 180.314 210.502 179.193 210.959 179.475 C 211.653 179.903 213.000 177.885 213.000 176.418 C 213.000 176.188 201.723 176.000 187.941 176.000 C 173.445 176.000 163.115 176.377 163.435 176.895 C 163.740 177.388 163.279 178.063 162.412 178.395 C 160.269 179.218 160.000 179.167 160.000 177.941 C 160.000 177.359 160.520 177.203 161.155 177.595 C 161.870 178.038 162.038 177.870 161.595 177.155 C 160.517 175.410 158.456 175.771 158.193 177.750 "/></g>
<g fill="#B4B4B4FE" stroke="#B4B4B4FE">
<path d="M 39.624 142.038 C 43.622 146.225 48.230 152.352 50.124 156.000 C 52.492 160.561 56.930 166.013 65.000 174.279 L 76.500 186.058 82.250 184.822 C 85.413 184.143 87.998 183.343 87.996 183.044 C 87.993 182.745 84.506 180.724 80.246 178.553 C 73.552 175.142 70.295 172.378 56.259 158.193 C 47.326 149.166 40.308 141.310 40.663 140.736 C 41.026 140.149 40.830 139.987 40.216 140.367 C 39.615 140.738 38.758 140.470 38.311 139.771 C 37.865 139.072 36.375 137.617 35.000 136.538 C 33.625 135.459 35.706 137.934 39.624 142.038 "/></g>
<g fill="#18628EFE" stroke="#18628EFE">
<path d="M 57.141 256.809 C 57.049 264.795 57.351 268.901 58.000 268.500 C 59.143 267.794 59.165 258.123 58.042 250.000 C 57.414 245.457 57.257 246.641 57.141 256.809 "/></g>
<g fill="#18628EFE" stroke="#18628EFE">
<path d="M 67.213 104.000 C 67.088 108.125 66.699 114.538 66.348 118.250 C 65.890 123.107 66.040 125.000 66.883 125.000 C 67.738 125.000 67.972 121.153 67.748 110.750 C 67.579 102.913 67.338 99.875 67.213 104.000 "/></g>
<g fill="#022C3CFE" stroke="#022C3CFE">
<path d="M 380.372 158.515 C 381.114 159.257 382.571 159.734 383.611 159.575 C 384.650 159.416 385.725 159.863 386.000 160.568 C 386.396 161.583 386.917 161.545 388.495 160.386 C 391.177 158.417 389.173 157.167 383.338 157.167 C 379.718 157.167 379.241 157.384 380.372 158.515 "/></g>
<g fill="#18628EFE" stroke="#18628EFE">
<path d="M 52.500 214.245 C 50.850 215.999 50.288 216.831 51.250 216.095 C 53.126 214.659 53.312 214.988 53.031 219.250 C 52.931 220.763 53.333 222.000 53.925 222.000 C 54.516 222.000 55.000 220.848 55.000 219.441 C 55.000 217.660 55.380 217.110 56.250 217.633 C 57.204 218.206 57.196 218.008 56.215 216.797 C 54.648 214.862 54.983 212.734 57.000 211.820 C 58.333 211.216 58.333 211.136 57.000 211.098 C 56.175 211.075 54.150 212.491 52.500 214.245 "/></g>
<g fill="#72CCE6FE" stroke="#72CCE6FE">
<path d="M 219.821 152.075 C 219.356 156.953 220.498 158.261 221.378 153.859 C 222.232 149.589 222.158 148.000 221.105 148.000 C 220.613 148.000 220.035 149.834 219.821 152.075 "/></g>
<g fill="#2696CEFE" stroke="#2696CEFE">
<path d="M 34.079 252.750 C 34.036 256.188 34.384 259.000 34.853 259.000 C 35.322 259.000 35.512 256.638 35.274 253.750 C 34.639 246.042 34.169 245.649 34.079 252.750 "/></g>
<g fill="#2696CEFE" stroke="#2696CEFE">
<path d="M 48.081 61.777 C 45.772 64.375 44.890 65.488 46.122 64.250 C 47.353 63.013 48.981 62.000 49.739 62.000 C 50.498 62.000 50.871 61.601 50.570 61.113 C 49.951 60.112 52.982 57.247 53.904 57.964 C 54.232 58.218 54.000 58.118 53.389 57.741 C 52.760 57.351 50.460 59.100 48.081 61.777 "/></g>
<g fill="#18628EFE" stroke="#18628EFE">
<path d="M 66.750 86.875 C 65.730 91.463 65.807 93.000 67.055 93.000 C 67.689 93.000 67.988 91.107 67.805 88.250 C 67.506 83.593 67.485 83.566 66.750 86.875 "/></g>
<g fill="#022C3CFE" stroke="#022C3CFE">
<path d="M 348.331 155.222 C 351.059 155.945 352.485 155.915 353.281 155.119 C 354.106 154.294 353.100 154.027 349.450 154.103 L 344.500 154.207 348.331 155.222 "/></g>
<g fill="#18628EFE" stroke="#18628EFE">
<path d="M 68.000 49.187 C 68.000 49.737 68.900 50.423 70.000 50.710 C 71.100 50.998 72.000 51.931 72.000 52.783 C 72.000 53.636 72.266 54.067 72.591 53.742 C 73.708 52.625 71.933 49.216 69.967 48.702 C 68.885 48.419 68.000 48.637 68.000 49.187 "/></g>
<g fill="#2696CEFE" stroke="#2696CEFE">
<path d="M 34.823 121.609 C 35.985 123.319 37.984 125.569 39.265 126.609 C 40.547 127.649 39.596 126.250 37.153 123.500 C 34.710 120.750 33.662 119.899 34.823 121.609 "/></g>
<g fill="#022C3CFE" stroke="#022C3CFE">
<path d="M 288.923 335.344 C 288.881 335.430 288.697 336.282 288.514 337.237 C 288.249 338.621 288.542 338.780 289.959 338.022 C 290.937 337.499 292.021 337.355 292.369 337.702 C 292.716 338.049 293.000 337.861 293.000 337.283 C 293.000 336.464 289.249 334.679 288.923 335.344 "/></g>
<g fill="#2696CEFE" stroke="#2696CEFE">
<path d="M 37.708 234.875 C 36.723 237.281 36.115 239.449 36.358 239.692 C 36.602 239.935 37.401 238.416 38.134 236.317 C 40.080 230.747 39.794 229.781 37.708 234.875 "/></g>
<g fill="#2696CEFE" stroke="#2696CEFE">
<path d="M 43.896 130.374 C 44.520 131.126 46.627 132.362 48.579 133.121 C 51.511 134.260 51.313 134.022 47.445 131.754 C 44.869 130.243 43.272 129.622 43.896 130.374 "/></g>
<g fill="#72CCE6FE" stroke="#72CCE6FE">
<path d="M 234.416 26.135 C 234.122 26.611 234.809 27.000 235.941 27.000 C 237.073 27.000 238.069 27.338 238.152 27.750 C 238.236 28.163 238.350 27.825 238.405 27.000 C 238.513 25.392 235.305 24.697 234.416 26.135 "/></g>
<g fill="#4AB8F0FE" stroke="#4AB8F0FE">
<path d="M 88.000 191.015 C 89.333 191.891 89.333 192.109 88.000 192.985 C 87.175 193.526 86.950 193.969 87.500 193.969 C 88.050 193.969 89.120 193.577 89.878 193.096 C 91.585 192.016 90.478 189.995 88.191 190.015 C 86.732 190.029 86.706 190.166 88.000 191.015 "/></g>
<g fill="#18628EFE" stroke="#18628EFE">
<path d="M 57.000 233.000 C 57.000 234.100 57.450 235.000 58.000 235.000 C 58.550 235.000 59.000 234.100 59.000 233.000 C 59.000 231.900 58.550 231.000 58.000 231.000 C 57.450 231.000 57.000 231.900 57.000 233.000 "/></g>
<g fill="#18628EFE" stroke="#18628EFE">
<path d="M 64.000 50.021 C 62.736 50.820 62.727 50.972 63.941 50.985 C 64.974 50.996 64.833 51.415 63.441 52.468 C 62.374 53.276 62.007 53.951 62.628 53.968 C 64.001 54.007 65.645 51.944 65.561 50.286 C 65.519 49.455 65.028 49.372 64.000 50.021 "/></g>
<g fill="#4AB8F0FE" stroke="#4AB8F0FE">
<path d="M 452.966 227.750 C 452.521 233.184 452.580 233.607 453.394 230.829 C 453.825 229.360 453.964 227.335 453.705 226.329 C 453.411 225.192 453.131 225.730 452.966 227.750 "/></g>
<g fill="#4AB8F0FE" stroke="#4AB8F0FE">
<path d="M 160.459 177.067 C 159.542 178.550 160.404 179.166 162.351 178.419 C 163.252 178.073 163.740 177.388 163.435 176.895 C 162.687 175.684 161.263 175.766 160.459 177.067 "/></g>
<g fill="#4AB8F0FE" stroke="#4AB8F0FE">
<path d="M 465.000 123.000 C 465.000 124.100 465.450 125.000 466.000 125.000 C 466.550 125.000 467.000 124.100 467.000 123.000 C 467.000 121.900 466.550 121.000 466.000 121.000 C 465.450 121.000 465.000 121.900 465.000 123.000 "/></g>
<g fill="#2696CEFE" stroke="#2696CEFE">
<path d="M 40.648 268.783 C 40.832 269.076 40.531 269.860 39.979 270.525 C 39.278 271.370 39.507 272.151 40.738 273.117 C 42.315 274.355 42.364 274.327 41.208 272.847 C 40.153 271.497 40.153 271.108 41.208 270.722 C 42.135 270.383 42.191 269.968 41.406 269.250 C 40.805 268.700 40.463 268.490 40.648 268.783 "/></g>
<g fill="#B4B4B4FE" stroke="#B4B4B4FE">
<path d="M 64.102 85.750 C 64.046 87.538 64.393 89.000 64.874 89.000 C 65.354 89.000 65.400 87.538 64.976 85.750 L 64.205 82.500 64.102 85.750 "/></g>
<g fill="#022C3CFE" stroke="#022C3CFE">
<path d="M 368.000 156.874 C 368.000 157.354 369.463 157.400 371.250 156.976 L 374.500 156.205 371.250 156.102 C 369.463 156.046 368.000 156.393 368.000 156.874 "/></g>
<g fill="#022C3CFE" stroke="#022C3CFE">
<path d="M 361.245 155.998 C 362.814 156.470 364.232 156.433 364.554 155.912 C 364.864 155.411 363.629 155.039 361.809 155.086 L 358.500 155.172 361.245 155.998 "/></g>
<g fill="#72CCE6FE" stroke="#72CCE6FE">
<path d="M 88.000 184.095 C 88.000 184.528 88.450 185.160 89.000 185.500 C 89.550 185.840 90.000 185.641 90.000 185.059 C 90.000 184.477 90.338 184.053 90.750 184.118 C 91.163 184.184 91.950 184.139 92.500 184.019 C 93.050 183.900 92.263 183.691 90.750 183.555 C 89.238 183.420 88.000 183.663 88.000 184.095 "/></g>
</svg>
