<?xml version="1.0" encoding="utf-8"?>
<!DOCTYPE svg PUBLIC "-//W3C//DTD SVG 20010904//EN" "http://www.w3.org/TR/2001/REC-SVG-20010904/DTD/svg10.dtd">
<svg version="1.0" xmlns="http://www.w3.org/2000/svg" width="602pt" height="542pt" viewBox="0 0 602 542" style="" preserveAspectRatio="xMidYMid meet">
<g fill="#A80060FE" stroke="#A80060FE">
<path d="M 408.955 38.031 C 400.737 39.180 386.350 43.309 378.500 46.771 C 357.998 55.815 305.400 90.796 268.066 120.217 C 263.978 123.440 260.102 125.946 259.454 125.788 C 258.806 125.630 250.901 118.479 241.888 109.898 C 232.875 101.317 223.700 92.724 221.500 90.803 C 217.281 87.119 213.405 85.519 213.228 87.387 C 212.921 90.643 210.998 96.383 210.011 96.993 C 209.388 97.378 208.562 99.900 208.177 102.597 C 207.696 105.956 207.007 107.500 205.988 107.500 C 204.185 107.500 203.363 112.763 204.922 114.322 C 205.515 114.915 205.993 116.098 205.985 116.950 C 205.974 118.043 205.745 118.147 205.208 117.303 C 204.247 115.790 202.504 116.892 201.734 119.500 C 198.888 129.144 196.036 135.486 194.601 135.361 C 192.628 135.190 192.614 135.736 194.501 139.354 C 195.966 142.164 195.758 144.000 193.972 144.000 C 193.472 144.000 193.322 143.325 193.638 142.500 C 194.012 141.526 193.613 141.000 192.500 141.000 C 191.387 141.000 190.988 141.526 191.362 142.500 C 191.678 143.325 191.389 144.007 190.719 144.015 C 189.836 144.026 189.864 144.261 190.817 144.866 C 191.870 145.533 191.719 146.439 190.067 149.381 C 188.930 151.405 188.000 153.728 188.000 154.544 C 188.000 155.360 187.603 156.809 187.117 157.764 C 183.914 164.059 183.695 164.927 184.928 166.414 C 185.853 167.528 185.879 168.342 185.031 169.698 C 184.020 171.315 183.965 171.278 184.493 169.333 C 184.984 167.528 184.741 167.255 183.041 167.700 C 181.494 168.104 181.000 169.052 181.000 171.617 C 181.000 173.477 180.600 175.000 180.111 175.000 C 179.623 175.000 178.927 176.575 178.566 178.500 C 178.205 180.425 177.576 182.000 177.167 182.000 C 176.759 182.000 176.350 183.005 176.257 184.232 C 176.165 185.460 175.654 187.373 175.122 188.482 C 174.590 189.592 173.367 192.683 172.404 195.350 C 171.440 198.018 169.904 200.667 168.991 201.238 C 167.286 202.302 167.389 207.000 169.117 207.000 C 169.602 207.000 170.000 207.480 170.000 208.067 C 170.000 208.680 169.147 208.864 168.000 208.500 C 166.363 207.980 166.000 208.320 166.000 210.374 C 166.000 211.753 165.543 213.165 164.984 213.510 C 164.425 213.856 164.226 214.557 164.543 215.069 C 164.859 215.581 164.716 216.000 164.226 216.000 C 163.735 216.000 163.333 216.666 163.333 217.480 C 163.333 220.548 160.627 227.000 159.340 227.000 C 157.735 227.000 157.491 232.567 159.053 233.533 C 159.632 233.890 159.892 234.705 159.632 235.342 C 159.274 236.216 159.139 236.217 159.079 235.344 C 159.034 234.690 158.130 234.415 157.000 234.710 C 155.652 235.063 154.988 236.092 154.965 237.867 C 154.945 239.315 154.286 241.625 153.500 243.000 C 152.714 244.375 152.055 246.513 152.035 247.750 C 152.016 248.988 151.550 250.000 151.000 250.000 C 150.450 250.000 150.000 250.952 150.000 252.117 C 150.000 253.741 149.535 254.112 148.000 253.710 C 145.607 253.084 145.615 253.034 147.494 256.636 C 149.471 260.428 149.390 262.153 147.250 261.794 C 146.069 261.595 145.500 262.150 145.500 263.500 C 145.500 264.600 145.275 265.725 145.000 266.000 C 143.792 267.208 141.000 272.935 141.000 274.205 C 141.000 276.470 138.580 281.009 137.551 280.675 C 137.029 280.506 136.719 281.984 136.861 283.960 C 137.177 288.327 135.541 293.000 133.696 293.000 C 132.325 293.000 130.000 300.909 130.000 305.576 C 130.000 306.909 129.490 307.887 128.866 307.750 C 128.242 307.612 127.191 309.821 126.530 312.657 C 125.869 315.494 124.579 318.564 123.664 319.479 C 121.745 321.398 121.506 324.106 123.113 325.713 C 124.540 327.140 123.402 329.000 121.101 329.000 C 119.893 329.000 118.868 330.367 117.914 333.250 C 117.140 335.588 116.627 337.865 116.774 338.311 C 117.033 339.098 114.084 344.990 112.927 346.000 C 111.202 347.505 111.102 350.355 112.733 351.560 C 114.149 352.606 114.252 353.117 113.250 354.133 C 112.244 355.153 112.000 355.053 112.000 353.617 C 112.000 350.509 109.531 352.516 108.949 356.097 C 108.642 357.984 107.658 360.872 106.762 362.514 C 105.865 364.156 104.881 366.625 104.575 368.000 C 104.268 369.375 103.564 371.175 103.009 372.000 C 102.112 373.333 101.882 373.333 100.934 372.000 C 100.112 370.843 100.024 371.071 100.547 373.000 C 100.920 374.375 101.624 375.928 102.112 376.450 C 103.565 378.004 103.130 379.000 101.000 379.000 C 99.662 379.000 99.000 379.667 99.000 381.014 C 99.000 382.121 98.550 383.921 98.000 385.014 C 97.450 386.106 96.550 387.894 96.000 388.986 C 95.450 390.079 95.000 391.697 95.000 392.582 C 95.000 393.467 94.160 395.386 93.134 396.846 C 92.108 398.306 90.965 401.575 90.594 404.110 C 90.223 406.646 88.812 410.221 87.460 412.055 C 86.107 413.888 85.000 416.400 85.000 417.635 C 85.000 418.871 84.550 420.160 84.000 420.500 C 83.450 420.840 83.000 421.954 83.000 422.976 C 83.000 423.997 82.556 424.983 82.014 425.167 C 80.491 425.681 79.457 435.000 80.923 435.000 C 81.613 435.000 81.801 434.472 81.367 433.750 C 80.888 432.953 81.251 433.015 82.366 433.921 C 83.848 435.124 85.372 435.148 92.308 434.082 C 116.786 430.320 140.638 421.125 166.500 405.482 C 191.046 390.635 211.734 374.358 247.101 342.069 L 253.703 336.042 260.601 343.293 C 271.536 354.785 275.908 359.727 285.998 372.000 C 310.237 401.483 320.762 412.370 336.437 424.171 C 339.964 426.827 343.311 429.000 343.875 429.000 C 344.439 429.000 345.260 429.643 345.700 430.429 C 346.140 431.215 346.950 432.002 347.500 432.179 C 348.050 432.356 348.369 432.893 348.209 433.373 C 348.049 433.853 348.597 433.985 349.427 433.666 C 351.536 432.857 352.288 434.516 350.489 436.009 C 348.743 437.458 348.465 439.449 350.155 438.405 C 350.886 437.952 351.037 438.131 350.565 438.894 C 350.021 439.774 349.467 439.803 348.500 439.000 C 347.140 437.871 345.777 439.047 345.374 441.697 C 345.055 443.799 360.022 449.388 374.500 452.571 C 383.178 454.480 413.537 453.865 421.420 451.622 C 444.032 445.186 461.794 430.601 471.498 410.500 C 478.032 396.963 480.351 386.389 480.432 369.750 C 480.475 361.057 480.868 356.123 481.500 356.333 C 482.050 356.517 482.507 357.304 482.515 358.083 C 482.527 359.166 482.718 359.206 483.324 358.250 C 483.761 357.563 485.104 357.036 486.309 357.079 C 487.514 357.122 487.938 357.385 487.250 357.662 C 485.057 358.547 485.909 359.834 488.500 359.549 C 489.875 359.399 491.000 359.663 491.000 360.138 C 491.000 360.612 492.425 361.000 494.167 361.000 C 495.908 361.000 496.996 361.338 496.583 361.750 C 496.171 362.163 495.421 362.500 494.917 362.500 C 494.413 362.500 494.005 362.950 494.012 363.500 C 494.018 364.050 495.143 364.475 496.512 364.444 C 497.880 364.414 499.000 364.826 499.000 365.361 C 499.000 365.896 499.284 366.049 499.631 365.702 C 499.979 365.355 501.204 365.730 502.354 366.535 C 503.504 367.341 504.120 368.056 503.723 368.125 C 503.325 368.194 503.885 368.306 504.968 368.375 C 506.050 368.444 507.834 369.270 508.933 370.211 C 519.026 378.852 497.550 341.616 485.480 329.546 C 483.728 327.794 479.190 324.861 475.397 323.027 C 468.956 319.914 468.143 319.136 463.097 311.258 C 460.126 306.618 456.751 302.475 455.597 302.051 C 454.123 301.509 453.581 301.658 453.774 302.553 C 453.949 303.366 453.344 303.641 452.100 303.316 C 450.581 302.919 450.080 303.386 449.826 305.434 C 449.541 307.729 448.000 309.262 448.000 307.250 C 448.000 306.838 447.438 306.498 446.750 306.496 C 446.063 306.494 445.483 305.594 445.463 304.496 C 445.442 303.398 444.953 302.500 444.375 302.500 C 443.797 302.500 436.866 295.300 428.972 286.500 C 421.078 277.700 406.122 261.997 395.737 251.604 C 381.894 237.752 377.207 232.476 378.177 231.837 C 378.905 231.358 388.275 225.720 399.000 219.308 C 448.196 189.896 463.000 178.042 477.014 156.839 C 487.778 140.556 492.973 124.427 493.734 104.938 C 494.288 90.753 492.556 82.006 487.021 71.042 C 481.378 59.863 469.024 48.978 455.500 43.270 C 443.747 38.309 423.371 36.016 408.955 38.031 "/></g>
<g fill="#B8009EFE" stroke="#B8009EFE">
<path d="M 103.500 26.590 C 77.858 30.197 58.452 39.421 43.372 55.172 C 36.792 62.045 32.197 70.076 29.462 79.482 C 28.156 83.973 27.870 87.732 28.247 95.429 C 29.359 118.101 43.610 147.534 67.501 176.500 C 75.737 186.485 100.684 211.490 110.902 220.001 C 124.973 231.722 124.861 231.606 123.124 232.693 C 119.774 234.789 94.108 255.699 84.000 264.567 C 62.454 283.470 38.179 310.352 31.686 322.500 C 25.017 334.977 22.437 348.474 23.313 366.291 C 24.850 397.517 38.747 421.922 60.461 431.525 C 63.687 432.952 68.053 434.188 70.163 434.272 C 72.273 434.356 74.000 434.779 74.000 435.212 C 74.000 435.646 77.038 435.948 80.750 435.884 C 84.463 435.820 86.600 435.547 85.500 435.276 C 84.400 435.006 82.851 434.271 82.058 433.642 C 80.948 432.763 80.789 432.788 81.367 433.750 C 81.801 434.472 81.613 435.000 80.923 435.000 C 79.457 435.000 80.491 425.681 82.014 425.167 C 82.556 424.983 83.000 423.997 83.000 422.976 C 83.000 421.954 83.450 420.840 84.000 420.500 C 84.550 420.160 85.000 418.871 85.000 417.635 C 85.000 416.400 86.107 413.888 87.460 412.055 C 88.812 410.221 90.223 406.646 90.594 404.110 C 90.965 401.575 92.108 398.306 93.134 396.846 C 94.160 395.386 95.000 393.467 95.000 392.582 C 95.000 391.697 95.450 390.079 96.000 388.986 C 96.550 387.894 97.450 386.106 98.000 385.014 C 98.550 383.921 99.000 382.121 99.000 381.014 C 99.000 379.667 99.662 379.000 101.000 379.000 C 103.130 379.000 103.565 378.004 102.112 376.450 C 101.624 375.928 100.920 374.375 100.547 373.000 C 100.024 371.071 100.112 370.843 100.934 372.000 C 101.882 373.333 102.112 373.333 103.009 372.000 C 103.564 371.175 104.268 369.375 104.575 368.000 C 104.881 366.625 105.865 364.156 106.762 362.514 C 107.658 360.872 108.642 357.984 108.949 356.097 C 109.531 352.516 112.000 350.509 112.000 353.617 C 112.000 355.053 112.244 355.153 113.250 354.133 C 114.252 353.117 114.149 352.606 112.733 351.560 C 111.102 350.355 111.202 347.505 112.927 346.000 C 114.084 344.990 117.033 339.098 116.774 338.311 C 116.627 337.865 117.140 335.588 117.914 333.250 C 118.868 330.367 119.893 329.000 121.101 329.000 C 123.402 329.000 124.540 327.140 123.113 325.713 C 121.506 324.106 121.745 321.398 123.664 319.479 C 124.579 318.564 125.869 315.494 126.530 312.657 C 127.191 309.821 128.242 307.613 128.866 307.750 C 129.490 307.888 130.000 306.909 130.000 305.576 C 130.000 300.909 132.325 293.000 133.696 293.000 C 135.541 293.000 137.177 288.327 136.861 283.960 C 136.719 281.984 137.029 280.506 137.551 280.675 C 138.580 281.009 141.000 276.470 141.000 274.205 C 141.000 272.935 143.792 267.208 145.000 266.000 C 145.275 265.725 145.500 264.600 145.500 263.500 C 145.500 262.150 146.069 261.595 147.250 261.794 C 149.390 262.153 149.471 260.428 147.494 256.636 C 145.615 253.034 145.607 253.084 148.000 253.710 C 149.535 254.112 150.000 253.741 150.000 252.117 C 150.000 250.952 150.450 250.000 151.000 250.000 C 151.550 250.000 152.016 248.988 152.035 247.750 C 152.055 246.513 152.714 244.375 153.500 243.000 C 154.286 241.625 154.945 239.315 154.965 237.867 C 155.002 235.112 158.464 233.140 159.373 235.356 C 159.712 236.182 159.864 236.169 159.921 235.309 C 159.964 234.654 159.550 233.840 159.000 233.500 C 157.476 232.558 157.767 227.000 159.340 227.000 C 160.627 227.000 163.333 220.548 163.333 217.480 C 163.333 216.666 163.735 216.000 164.226 216.000 C 164.716 216.000 164.859 215.581 164.543 215.069 C 164.226 214.557 164.425 213.856 164.984 213.510 C 165.543 213.165 166.000 211.753 166.000 210.374 C 166.000 208.320 166.363 207.980 168.000 208.500 C 169.147 208.864 170.000 208.680 170.000 208.067 C 170.000 207.480 169.602 207.000 169.117 207.000 C 167.389 207.000 167.286 202.302 168.991 201.238 C 169.904 200.667 171.440 198.018 172.404 195.350 C 173.367 192.683 174.590 189.592 175.122 188.482 C 175.654 187.373 176.165 185.460 176.257 184.232 C 176.350 183.005 176.759 182.000 177.167 182.000 C 177.576 182.000 178.205 180.425 178.566 178.500 C 178.927 176.575 179.623 175.000 180.111 175.000 C 180.600 175.000 181.000 173.477 181.000 171.617 C 181.000 169.052 181.494 168.104 183.041 167.700 C 184.741 167.255 184.984 167.528 184.493 169.333 C 183.965 171.278 184.020 171.315 185.031 169.698 C 185.879 168.342 185.853 167.528 184.928 166.414 C 183.695 164.927 183.914 164.059 187.117 157.764 C 187.603 156.809 188.000 155.360 188.000 154.544 C 188.000 153.728 188.930 151.405 190.067 149.381 C 191.719 146.439 191.870 145.533 190.817 144.866 C 189.864 144.261 189.836 144.026 190.719 144.015 C 191.389 144.007 191.678 143.325 191.362 142.500 C 190.988 141.526 191.387 141.000 192.500 141.000 C 193.613 141.000 194.012 141.526 193.638 142.500 C 193.322 143.325 193.472 144.000 193.972 144.000 C 195.483 144.000 196.236 141.992 195.208 140.706 C 194.678 140.043 193.949 138.535 193.588 137.355 C 193.095 135.744 193.339 135.247 194.567 135.355 C 196.041 135.486 198.852 129.267 201.734 119.500 C 202.504 116.892 204.247 115.790 205.208 117.303 C 205.745 118.147 205.974 118.043 205.985 116.950 C 205.993 116.098 205.515 114.915 204.922 114.322 C 203.363 112.763 204.185 107.500 205.988 107.500 C 207.007 107.500 207.696 105.956 208.177 102.597 C 208.562 99.900 209.388 97.378 210.011 96.993 C 210.998 96.383 212.921 90.643 213.228 87.387 C 213.286 86.775 214.271 86.500 215.417 86.776 C 217.132 87.189 216.898 86.641 214.086 83.672 C 210.962 80.373 210.563 80.212 209.386 81.783 C 208.217 83.344 208.148 83.308 208.628 81.395 C 209.027 79.811 208.107 78.391 204.906 75.651 C 202.568 73.650 200.395 72.272 200.077 72.589 C 199.760 72.907 199.500 72.764 199.500 72.272 C 199.500 70.599 185.694 59.767 171.500 50.304 C 153.877 38.555 138.174 30.406 128.769 28.127 C 123.548 26.862 108.203 25.929 103.500 26.590 "/></g>
<g fill="#B4B4B4FE" stroke="#B4B4B4FE">
<path d="M 513.889 78.543 C 531.535 96.684 537.481 105.075 541.600 117.649 C 544.342 126.018 544.493 127.371 544.376 142.500 C 544.261 157.290 544.012 159.332 541.080 169.500 C 534.574 192.059 523.059 210.700 505.599 226.941 C 502.904 229.449 500.204 231.966 499.599 232.535 C 493.593 238.187 474.873 250.748 453.368 263.555 C 443.541 269.407 435.321 274.368 435.102 274.579 C 434.884 274.789 442.084 282.524 451.102 291.766 C 468.877 309.981 488.337 331.921 496.676 343.146 C 506.337 356.152 514.633 374.817 518.168 391.500 C 518.867 394.800 519.450 403.800 519.462 411.500 C 519.490 428.372 517.160 438.775 510.394 452.000 C 498.522 475.202 479.674 488.666 452.383 493.440 C 441.238 495.389 431.945 495.412 419.913 493.519 C 399.194 490.260 387.711 485.693 370.000 473.669 C 362.015 468.248 312.138 419.643 298.250 403.750 C 294.045 398.938 290.356 395.002 290.052 395.005 C 289.748 395.007 288.150 396.253 286.500 397.772 C 261.743 420.572 231.559 443.842 210.803 456.128 C 204.226 460.022 182.918 470.970 177.428 473.277 C 169.360 476.667 156.291 480.880 145.500 483.569 C 136.201 485.887 132.336 486.317 120.500 486.349 C 107.558 486.385 105.972 486.181 99.511 483.649 C 87.443 478.919 84.057 476.281 61.603 454.116 C 49.559 442.227 42.387 435.425 45.665 439.000 C 48.943 442.575 53.593 448.875 55.999 453.000 C 59.420 458.864 65.614 465.843 84.402 485.000 C 111.553 512.684 114.841 515.625 123.975 520.398 C 140.804 529.191 158.848 530.083 185.245 523.425 C 225.894 513.174 267.828 488.098 316.872 444.714 L 324.243 438.193 336.802 451.346 C 363.022 478.808 389.807 504.923 397.810 510.829 C 421.141 528.045 443.429 535.450 471.500 535.315 C 484.318 535.253 487.947 534.862 496.445 532.629 C 550.707 518.373 575.285 460.815 552.050 402.415 C 544.036 382.272 531.477 365.775 493.669 325.724 C 485.997 317.597 479.895 310.775 480.110 310.564 C 480.324 310.353 488.069 305.619 497.321 300.044 C 538.468 275.248 558.094 257.059 571.819 231.000 C 577.300 220.594 582.460 205.563 584.447 194.222 C 585.584 187.730 585.547 186.842 584.111 186.002 C 582.697 185.176 582.730 185.057 584.385 185.030 C 586.158 185.002 586.237 184.271 585.720 172.750 C 584.950 155.582 580.468 141.721 571.839 129.815 C 567.006 123.146 521.491 77.164 514.913 72.305 C 511.890 70.072 506.961 67.002 503.959 65.483 C 498.588 62.766 498.748 62.976 513.889 78.543 "/></g>
<g fill="#560830FE" stroke="#560830FE">
<path d="M 478.600 391.734 C 478.270 392.063 478.000 393.081 478.000 393.994 C 478.000 397.022 471.446 412.405 467.586 418.436 C 459.766 430.655 447.033 441.561 433.718 447.444 C 422.464 452.416 411.617 454.399 396.000 454.340 C 375.832 454.264 362.556 451.240 345.927 442.937 C 338.275 439.116 327.121 431.932 321.370 427.119 C 319.648 425.679 328.198 434.404 340.370 446.508 C 362.423 468.440 370.610 475.133 384.000 482.183 C 404.741 493.103 430.276 497.307 452.383 493.440 C 463.253 491.538 468.458 489.862 477.409 485.380 C 502.147 472.991 517.240 448.341 519.585 416.500 C 519.869 412.645 519.726 410.042 519.268 410.707 C 518.623 411.641 517.538 411.594 514.468 410.501 C 512.285 409.724 511.288 409.068 512.250 409.044 C 515.500 408.962 514.029 407.267 510.250 406.739 C 508.188 406.450 505.845 406.053 505.045 405.857 C 504.245 405.661 503.564 406.175 503.530 407.000 C 503.487 408.056 503.247 408.151 502.718 407.319 C 502.305 406.670 502.385 405.880 502.895 405.565 C 503.405 405.250 503.671 404.206 503.487 403.246 C 503.304 402.286 503.119 401.806 503.077 402.180 C 503.034 402.554 501.538 402.412 499.750 401.865 C 497.963 401.317 495.927 400.758 495.226 400.622 C 494.525 400.487 493.241 399.361 492.372 398.121 C 491.503 396.880 490.214 396.088 489.506 396.359 C 488.798 396.631 487.383 396.095 486.360 395.169 C 483.956 392.993 479.371 390.963 478.600 391.734 "/></g>
<g fill="#000000FE" stroke="#000000FE">
<path d="M 158.500 423.693 C 129.596 438.742 102.073 446.938 80.299 446.982 C 69.349 447.004 62.214 445.325 51.722 440.257 L 43.944 436.500 63.722 456.079 C 84.258 476.409 88.477 479.584 101.000 484.129 C 106.697 486.196 109.168 486.476 121.000 486.390 C 131.994 486.310 136.449 485.806 145.000 483.674 C 154.840 481.220 170.997 476.148 175.500 474.100 C 198.741 463.529 222.628 449.825 221.367 447.785 C 221.100 447.353 221.391 447.000 222.012 447.000 C 222.689 447.000 222.540 446.397 221.643 445.500 C 219.876 443.733 218.900 443.565 219.250 445.088 C 219.388 445.686 218.150 445.096 216.500 443.777 C 214.850 442.457 210.350 439.830 206.500 437.939 C 202.650 436.047 199.275 434.248 199.000 433.941 C 197.751 432.544 189.082 428.281 189.279 429.161 C 189.400 429.704 188.882 429.440 188.128 428.574 C 187.373 427.708 186.135 427.000 185.378 427.000 C 184.620 427.000 184.000 426.550 184.000 426.000 C 184.000 425.450 183.386 425.000 182.635 425.000 C 181.884 425.000 180.100 424.080 178.670 422.955 C 177.240 421.831 175.830 420.931 175.535 420.955 C 175.241 420.980 175.113 420.705 175.250 420.345 C 175.388 419.985 174.645 419.565 173.600 419.412 C 172.555 419.258 171.430 418.753 171.100 418.289 C 170.770 417.825 165.100 420.257 158.500 423.693 "/></g>
<g fill="#D836D2FE" stroke="#D836D2FE">
<path d="M 26.986 76.030 C 25.748 76.813 25.810 76.972 27.357 76.985 C 28.738 76.996 29.025 77.449 28.476 78.750 C 28.070 79.713 27.519 82.750 27.251 85.500 C 26.983 88.250 26.418 90.725 25.995 91.000 C 25.572 91.275 24.348 93.075 23.274 95.000 C 22.167 96.984 20.538 98.502 19.513 98.505 C 17.780 98.510 17.779 98.573 19.486 100.005 C 21.170 101.417 21.150 101.483 19.134 101.187 C 16.550 100.808 16.265 103.145 18.654 105.128 C 19.563 105.882 20.463 106.388 20.654 106.250 C 20.844 106.113 20.663 106.053 20.250 106.118 C 19.838 106.184 19.163 106.184 18.750 106.118 C 17.624 105.941 17.847 108.788 19.016 109.510 C 19.575 109.856 19.762 110.577 19.430 111.113 C 19.099 111.649 19.372 112.743 20.036 113.544 C 20.701 114.345 21.009 115.000 20.720 115.000 C 19.415 115.000 27.093 135.368 31.275 143.000 C 40.939 160.634 50.678 174.741 62.342 188.000 C 70.453 197.220 86.816 213.617 96.500 222.230 C 102.000 227.122 106.405 231.343 106.289 231.611 C 106.174 231.879 102.349 235.086 97.789 238.739 C 70.155 260.879 45.283 285.257 30.925 304.275 C 23.221 314.480 20.487 319.258 17.582 327.601 C 13.147 340.336 12.498 344.778 12.553 362.000 C 12.597 375.605 12.991 379.991 14.797 387.000 C 17.019 395.619 20.820 405.635 24.285 412.000 C 30.017 422.530 41.151 433.914 50.765 439.076 C 55.606 441.676 56.832 442.149 65.000 444.575 C 75.785 447.779 101.756 445.526 115.000 440.238 C 117.579 439.208 118.394 439.000 119.847 439.000 C 121.177 439.000 125.000 435.389 125.000 434.133 C 125.000 433.510 125.436 433.000 125.969 433.000 C 126.501 433.000 126.678 433.675 126.362 434.500 C 125.945 435.585 126.473 436.000 128.271 436.000 C 129.637 436.000 131.315 435.325 132.000 434.500 C 132.685 433.675 132.939 433.000 132.566 433.000 C 132.192 433.000 132.587 432.000 133.443 430.777 C 134.299 429.555 135.007 428.993 135.015 429.527 C 135.024 430.062 135.463 429.825 135.992 429.000 C 136.522 428.175 136.691 426.656 136.370 425.625 C 136.022 424.508 136.189 423.999 136.783 424.366 C 137.332 424.705 138.563 423.790 139.517 422.333 L 141.254 419.683 137.877 422.088 C 136.020 423.410 134.388 424.381 134.250 424.246 C 134.113 424.111 133.775 424.056 133.500 424.125 C 133.225 424.194 133.563 424.313 134.250 424.390 C 135.192 424.496 135.209 424.716 134.319 425.282 C 133.670 425.695 132.856 425.575 132.510 425.016 C 131.584 423.517 129.978 423.780 130.574 425.333 C 130.952 426.317 130.289 426.549 128.043 426.220 C 126.129 425.939 125.000 426.208 125.000 426.946 C 125.000 427.590 124.632 427.891 124.183 427.613 C 123.733 427.335 121.371 427.810 118.933 428.669 C 103.674 434.041 82.561 436.957 72.258 435.115 C 44.158 430.094 25.137 403.346 23.313 366.291 C 22.437 348.474 25.017 334.977 31.686 322.500 C 38.179 310.352 62.454 283.470 84.000 264.567 C 94.108 255.699 119.774 234.789 123.124 232.693 C 124.861 231.606 124.973 231.722 110.902 220.001 C 100.684 211.490 75.737 186.485 67.501 176.500 C 50.411 155.779 39.389 136.889 32.443 116.412 C 29.462 107.626 28.646 103.552 28.252 95.500 C 27.972 89.769 28.225 83.833 28.844 81.594 C 30.089 77.095 29.254 74.596 26.986 76.030 "/></g>
<g fill="#D836D2FE" stroke="#D836D2FE">
<path d="M 98.000 16.294 C 94.975 16.862 92.169 17.815 91.765 18.413 C 91.247 19.180 91.026 19.163 91.015 18.356 C 90.995 16.818 82.550 19.266 82.375 20.860 C 82.306 21.487 82.140 22.113 82.007 22.250 C 81.873 22.388 81.816 22.163 81.882 21.750 C 81.947 21.338 81.213 21.032 80.250 21.070 C 78.238 21.151 73.993 22.820 75.500 22.938 C 76.768 23.037 79.127 28.000 77.906 28.000 C 77.408 28.000 77.000 27.534 77.000 26.965 C 77.000 26.263 76.356 26.274 75.000 27.000 C 73.900 27.589 73.000 28.531 73.000 29.094 C 73.000 29.657 73.520 29.797 74.155 29.405 C 74.873 28.961 75.037 29.130 74.591 29.853 C 74.195 30.493 72.767 30.815 71.416 30.570 C 69.696 30.259 69.182 30.481 69.702 31.313 C 71.042 33.457 70.896 35.174 69.423 34.609 C 68.596 34.292 68.000 34.669 68.000 35.510 C 68.000 36.686 68.463 36.746 70.469 35.832 C 71.826 35.214 72.729 34.370 72.474 33.959 C 72.220 33.547 72.707 32.943 73.558 32.616 C 74.443 32.276 74.843 32.445 74.493 33.011 C 73.698 34.298 73.409 34.356 81.500 31.613 C 92.633 27.839 99.723 26.656 111.500 26.606 C 127.540 26.539 136.653 29.341 155.078 40.008 C 181.388 55.238 204.858 74.016 244.319 111.407 C 253.066 119.696 260.442 125.949 260.819 125.395 C 262.537 122.872 307.729 89.982 327.500 76.866 C 361.823 54.097 373.358 47.532 387.021 42.993 C 400.005 38.679 409.294 37.002 420.203 37.001 C 429.467 37.000 435.000 35.778 435.000 33.732 C 435.000 33.212 435.644 33.033 436.431 33.335 C 437.431 33.719 437.750 33.300 437.490 31.946 C 437.264 30.777 437.887 29.596 439.058 28.969 C 440.854 28.008 441.417 28.358 441.118 30.250 C 441.053 30.663 441.450 31.000 442.000 31.000 C 443.206 31.000 443.260 29.958 442.144 28.198 C 441.562 27.282 437.341 26.739 427.879 26.364 C 401.330 25.313 380.467 31.340 352.000 48.282 C 332.945 59.622 302.934 80.014 277.753 98.731 L 261.006 111.180 254.594 105.340 C 251.067 102.128 242.617 94.325 235.815 88.000 C 215.077 68.716 192.629 50.704 174.500 38.801 C 164.791 32.426 146.216 22.270 139.826 19.842 C 128.284 15.456 110.506 13.948 98.000 16.294 "/></g>
<g fill="#560830FE" stroke="#560830FE">
<path d="M 248.437 356.111 C 239.619 365.451 201.805 396.218 187.744 405.494 L 181.987 409.292 188.244 412.340 C 191.685 414.017 194.725 415.420 195.000 415.459 C 195.275 415.499 196.063 415.888 196.750 416.324 C 197.438 416.761 198.000 416.849 198.000 416.520 C 198.000 416.191 198.985 416.840 200.189 417.961 C 201.392 419.082 202.859 420.000 203.448 420.000 C 204.037 420.000 205.058 420.863 205.716 421.918 C 206.530 423.221 207.649 423.674 209.207 423.331 C 210.893 422.960 211.134 423.085 210.119 423.803 C 209.093 424.529 209.799 424.959 212.869 425.478 C 215.141 425.862 217.000 426.553 217.000 427.015 C 217.000 428.030 222.747 431.000 224.713 431.000 C 225.486 431.000 225.840 431.450 225.500 432.000 C 225.160 432.550 225.782 433.000 226.882 433.000 C 227.982 433.000 229.171 433.468 229.525 434.041 C 229.879 434.613 231.143 434.809 232.334 434.475 C 234.048 433.995 234.187 434.088 233.000 434.919 C 231.815 435.749 231.788 435.973 232.872 435.985 C 234.036 435.998 234.036 436.258 232.872 437.692 C 232.091 438.656 232.008 439.079 232.681 438.676 C 233.330 438.286 234.142 438.421 234.485 438.975 C 235.433 440.509 253.528 426.820 271.464 411.000 C 274.270 408.525 279.569 403.867 283.240 400.648 L 289.913 394.797 277.520 380.024 C 262.018 361.545 254.132 353.000 252.579 353.000 C 251.917 353.000 250.052 354.400 248.437 356.111 "/></g>
<g fill="#A80060FE" stroke="#A80060FE">
<path d="M 494.892 61.396 C 497.908 66.246 502.205 76.781 503.472 82.431 C 508.803 106.208 502.455 137.554 487.561 161.000 C 484.941 165.125 483.786 167.544 484.996 166.375 C 487.062 164.378 487.384 164.342 490.347 165.783 C 492.081 166.626 494.625 168.066 496.000 168.983 C 497.375 169.901 500.075 171.273 502.000 172.033 C 503.925 172.793 506.099 174.001 506.831 174.717 C 507.562 175.433 508.575 175.763 509.081 175.450 C 509.586 175.138 510.000 175.315 510.000 175.844 C 510.000 176.813 523.327 184.000 525.123 184.000 C 525.653 184.000 527.305 185.129 528.794 186.509 C 530.334 187.938 531.511 188.476 531.526 187.759 C 531.540 187.067 532.089 187.400 532.746 188.500 C 533.411 189.614 534.008 189.946 534.095 189.250 C 534.362 187.101 534.540 186.556 535.652 184.500 C 537.113 181.797 540.436 171.933 542.560 164.000 C 544.811 155.586 545.120 132.144 543.093 123.500 C 541.405 116.301 536.332 104.797 532.195 98.784 C 530.543 96.382 520.788 85.885 510.519 75.458 C 496.591 61.316 492.622 57.744 494.892 61.396 "/></g>
<g fill="#560830FE" stroke="#560830FE">
<path d="M 475.000 178.310 C 468.009 185.982 457.345 195.101 445.923 203.173 C 440.704 206.861 437.810 209.450 438.985 209.380 C 440.093 209.314 441.000 209.652 441.000 210.130 C 441.000 210.609 441.589 211.000 442.309 211.000 C 443.029 211.000 446.066 212.474 449.059 214.277 C 455.669 218.257 455.021 217.931 457.750 218.645 C 458.988 218.968 460.000 219.911 460.000 220.739 C 460.000 221.974 460.274 222.018 461.523 220.981 C 462.797 219.923 462.942 219.987 462.412 221.370 C 461.961 222.543 462.198 222.861 463.228 222.466 C 464.027 222.160 465.257 222.604 465.962 223.454 C 466.668 224.305 467.752 224.993 468.372 224.985 C 468.993 224.976 468.825 224.533 468.000 224.000 C 466.951 223.322 466.885 223.026 467.781 223.015 C 468.486 223.007 469.310 223.644 469.612 224.430 C 469.913 225.217 471.362 226.356 472.830 226.961 C 475.978 228.259 478.413 229.690 482.634 232.720 C 484.334 233.942 486.012 234.654 486.363 234.304 C 486.713 233.953 487.000 234.192 487.000 234.833 C 487.000 235.475 488.173 236.000 489.607 236.000 C 491.608 236.000 492.068 236.380 491.587 237.634 C 489.927 241.961 509.928 223.622 518.454 213.000 C 526.307 203.217 529.206 198.226 528.440 195.810 C 527.970 194.330 527.560 194.094 527.009 194.986 C 526.427 195.926 525.737 195.737 524.220 194.220 C 523.111 193.111 520.776 191.890 519.031 191.507 C 516.719 190.999 516.020 190.391 516.452 189.264 C 516.967 187.922 516.819 187.902 515.336 189.109 C 513.842 190.324 513.703 190.293 514.238 188.863 C 514.703 187.620 514.388 187.347 512.925 187.730 C 511.866 188.007 511.000 187.731 511.000 187.117 C 511.000 186.502 510.025 186.000 508.833 186.000 C 507.642 186.000 506.980 185.687 507.362 185.304 C 507.745 184.922 506.808 184.442 505.281 184.237 C 503.754 184.033 502.176 183.280 501.776 182.564 C 501.375 181.848 499.687 180.699 498.024 180.010 C 496.361 179.321 495.000 178.362 495.000 177.879 C 495.000 177.395 494.663 177.085 494.250 177.189 C 493.838 177.293 491.448 176.384 488.940 175.168 C 481.520 171.572 481.041 171.680 475.000 178.310 "/></g>
<g fill="#000000FE" stroke="#000000FE">
<path d="M 422.363 219.030 C 407.569 227.349 397.411 233.240 396.738 233.888 C 395.413 235.167 413.112 251.977 420.048 256.028 C 423.678 258.148 427.288 260.022 428.070 260.191 C 428.853 260.361 430.043 261.175 430.715 262.000 C 431.387 262.825 431.951 263.132 431.968 262.682 C 431.986 262.232 433.269 262.767 434.820 263.872 C 436.371 264.976 438.273 266.020 439.046 266.190 C 439.820 266.361 441.052 267.057 441.785 267.737 C 443.357 269.197 448.683 266.757 461.500 258.704 C 477.287 248.786 481.787 245.510 480.636 244.773 C 480.011 244.373 478.656 244.309 477.625 244.630 C 476.274 245.051 475.970 244.857 476.539 243.937 C 477.105 243.021 476.843 242.846 475.612 243.319 C 474.668 243.681 474.142 243.579 474.442 243.093 C 474.743 242.607 474.288 241.941 473.431 241.612 C 472.560 241.278 472.190 240.502 472.591 239.853 C 473.020 239.159 472.874 238.960 472.229 239.358 C 471.032 240.099 466.255 238.245 464.134 236.217 C 463.383 235.499 462.267 235.078 461.656 235.281 C 460.614 235.629 459.798 235.154 456.669 232.382 C 455.975 231.767 454.409 230.947 453.189 230.560 C 451.949 230.166 451.266 229.379 451.640 228.773 C 452.038 228.130 451.843 227.979 451.160 228.401 C 450.528 228.792 446.223 227.097 441.593 224.635 C 436.963 222.172 432.911 220.422 432.588 220.746 C 432.265 221.069 431.996 220.696 431.992 219.917 C 431.988 219.138 430.914 218.004 429.606 217.398 C 427.620 216.477 426.423 216.747 422.363 219.030 "/></g>
<g fill="#BA28A4FE" stroke="#BA28A4FE">
<path d="M 245.447 343.777 C 227.409 360.972 212.397 373.788 196.500 385.563 C 192.100 388.823 188.275 391.766 188.000 392.104 C 187.068 393.251 162.539 408.660 156.000 412.206 C 144.895 418.229 140.537 420.408 139.501 420.455 C 138.952 420.480 138.502 421.175 138.501 422.000 C 138.500 423.396 137.676 424.169 136.500 423.875 C 136.225 423.806 136.563 423.687 137.250 423.610 C 138.185 423.505 138.157 423.252 137.138 422.607 C 136.295 422.072 135.491 422.206 135.026 422.957 C 134.614 423.625 133.989 424.132 133.638 424.085 C 133.287 424.038 133.000 424.225 133.000 424.500 C 133.000 424.775 133.000 425.280 133.000 425.622 C 133.000 425.965 133.622 425.728 134.383 425.097 C 135.450 424.212 135.900 424.298 136.352 425.474 C 137.061 427.323 136.101 430.181 135.000 429.500 C 134.242 429.032 132.987 431.114 132.437 433.750 C 132.105 435.347 131.973 435.367 137.667 432.940 C 150.634 427.411 168.379 417.733 181.500 409.033 C 202.565 395.064 217.817 382.961 247.880 356.357 L 253.259 351.596 260.880 359.784 C 265.071 364.288 269.509 369.216 270.743 370.736 C 279.254 381.224 283.437 384.368 285.214 381.608 C 285.606 380.999 286.393 380.444 286.964 380.375 C 287.534 380.306 288.168 380.194 288.374 380.125 C 289.161 379.862 287.455 373.904 286.623 374.012 C 286.141 374.075 285.242 373.136 284.624 371.925 C 284.006 370.715 283.055 369.783 282.511 369.854 C 281.966 369.925 281.516 369.380 281.511 368.644 C 281.494 366.564 274.890 358.950 273.727 359.669 C 273.127 360.039 272.992 359.823 273.405 359.155 C 273.797 358.520 273.674 358.000 273.132 358.000 C 272.590 358.000 272.001 357.392 271.823 356.648 C 271.370 354.753 254.831 336.994 253.550 337.027 C 252.972 337.042 249.326 340.079 245.447 343.777 "/></g>
<g fill="#B8009EFE" stroke="#B8009EFE">
<path d="M 494.071 101.700 C 493.981 107.640 493.489 114.300 492.978 116.500 C 491.716 121.928 491.775 123.232 493.250 122.485 C 493.938 122.137 493.776 122.451 492.892 123.182 C 492.007 123.914 490.503 127.210 489.548 130.507 C 483.904 150.005 469.986 169.871 451.572 184.715 C 447.132 188.294 443.111 192.184 442.636 193.361 C 442.112 194.658 441.590 195.016 441.310 194.271 C 441.008 193.469 438.183 194.829 433.174 198.190 C 425.004 203.672 423.787 204.847 424.720 206.357 C 425.044 206.881 424.782 206.983 424.138 206.585 C 423.494 206.187 423.233 205.431 423.558 204.906 C 423.883 204.380 421.978 205.326 419.325 207.009 C 416.671 208.692 414.500 210.382 414.500 210.765 C 414.500 211.148 414.050 211.514 413.500 211.579 C 412.950 211.643 411.862 211.764 411.083 211.848 C 409.459 212.022 410.569 213.496 412.333 213.507 C 412.975 213.511 412.387 214.299 411.027 215.257 C 409.668 216.216 408.993 217.003 409.527 217.007 C 410.062 217.010 409.219 217.858 407.652 218.891 C 405.897 220.048 405.294 220.931 406.079 221.193 C 406.927 221.476 407.049 222.100 406.442 223.059 C 405.735 224.177 405.527 224.201 405.515 223.167 C 405.507 222.433 405.163 222.171 404.750 222.583 C 404.338 222.996 403.982 222.696 403.960 221.917 C 403.938 221.137 403.249 221.738 402.428 223.250 C 401.468 225.020 401.329 226.000 402.039 226.000 C 403.680 226.000 400.711 228.694 398.429 229.276 C 397.175 229.596 397.595 229.809 399.628 229.884 C 401.348 229.948 403.315 229.325 404.000 228.500 C 404.685 227.675 405.865 227.000 406.622 227.000 C 407.380 227.000 408.000 226.523 408.000 225.941 C 408.000 225.359 408.450 225.160 409.000 225.500 C 409.550 225.840 410.000 225.566 410.000 224.892 C 410.000 224.218 410.287 223.953 410.637 224.304 C 410.988 224.654 412.593 223.942 414.204 222.720 C 415.816 221.499 416.395 220.725 415.493 221.000 C 414.234 221.383 414.160 221.275 415.174 220.537 C 415.902 220.008 417.173 219.558 417.999 219.537 C 419.949 219.489 428.919 214.605 427.167 214.545 C 426.433 214.520 426.140 214.194 426.514 213.819 C 426.889 213.444 427.714 213.310 428.348 213.521 C 429.907 214.039 449.500 200.671 449.500 199.089 C 449.500 198.399 449.827 198.160 450.226 198.559 C 451.172 199.505 454.144 197.042 453.437 195.898 C 453.140 195.417 453.573 195.283 454.400 195.600 C 456.943 196.576 479.818 173.041 486.571 162.500 C 496.631 146.800 503.519 127.336 504.612 111.522 C 504.915 107.134 505.369 103.212 505.621 102.805 C 506.450 101.463 504.768 92.026 503.806 92.620 C 503.287 92.940 503.130 93.895 503.455 94.743 C 503.967 96.078 503.818 96.098 502.331 94.891 C 501.195 93.969 500.869 93.922 501.367 94.750 C 501.780 95.438 501.641 96.000 501.059 96.000 C 500.477 96.000 500.000 96.675 500.000 97.500 C 500.000 98.325 499.550 99.000 499.000 99.000 C 498.450 99.000 498.000 99.620 498.000 100.378 C 498.000 101.135 497.361 102.285 496.581 102.933 C 495.381 103.929 495.173 103.173 495.232 98.040 C 495.271 94.701 495.062 91.729 494.768 91.435 C 494.474 91.141 494.160 95.760 494.071 101.700 "/></g>
<g fill="#7C0E52FE" stroke="#7C0E52FE">
<path d="M 480.400 369.750 C 480.345 377.313 479.834 385.395 479.265 387.712 C 478.696 390.028 478.516 391.851 478.865 391.764 C 480.178 391.433 484.417 393.311 486.283 395.049 C 487.348 396.041 488.798 396.631 489.506 396.359 C 490.214 396.088 491.503 396.880 492.372 398.121 C 493.241 399.361 494.525 400.487 495.226 400.622 C 495.927 400.758 497.963 401.317 499.750 401.865 C 501.538 402.412 503.034 402.554 503.077 402.180 C 503.119 401.806 503.304 402.286 503.487 403.246 C 503.671 404.206 503.405 405.250 502.895 405.565 C 502.385 405.880 502.305 406.670 502.718 407.319 C 503.247 408.151 503.487 408.056 503.530 407.000 C 503.564 406.175 504.245 405.661 505.045 405.857 C 505.845 406.053 508.188 406.450 510.250 406.739 C 514.029 407.267 515.500 408.962 512.250 409.044 C 511.288 409.068 512.285 409.724 514.468 410.501 C 517.538 411.594 518.623 411.641 519.267 410.707 C 520.988 408.210 517.303 383.472 514.727 380.226 C 514.170 379.525 514.000 378.666 514.349 378.318 C 514.697 377.969 514.431 377.019 513.756 376.206 C 513.082 375.394 512.523 374.120 512.515 373.376 C 512.507 372.631 512.050 371.917 511.500 371.787 C 510.950 371.658 509.698 370.866 508.718 370.026 C 507.737 369.187 506.050 368.444 504.968 368.375 C 503.885 368.306 503.325 368.194 503.723 368.125 C 504.120 368.056 503.504 367.341 502.354 366.535 C 501.204 365.730 499.979 365.355 499.631 365.702 C 499.284 366.049 499.000 365.896 499.000 365.361 C 499.000 364.826 497.988 364.414 496.750 364.444 C 495.513 364.475 494.388 364.050 494.250 363.500 C 494.113 362.950 494.413 362.500 494.917 362.500 C 495.421 362.500 496.171 362.163 496.583 361.750 C 496.996 361.338 495.908 361.000 494.167 361.000 C 492.425 361.000 491.000 360.612 491.000 360.138 C 491.000 359.663 489.875 359.399 488.500 359.549 C 485.909 359.834 485.057 358.547 487.250 357.662 C 487.938 357.385 487.514 357.122 486.309 357.079 C 485.104 357.036 483.761 357.563 483.324 358.250 C 482.718 359.206 482.527 359.166 482.515 358.083 C 482.507 357.304 482.050 356.517 481.500 356.333 C 480.869 356.123 480.463 361.071 480.400 369.750 "/></g>
<g fill="#BA28A4FE" stroke="#BA28A4FE">
<path d="M 438.789 29.098 C 437.829 29.635 437.285 30.886 437.508 32.043 C 437.721 33.149 437.466 33.788 436.940 33.463 C 436.415 33.138 435.281 33.576 434.421 34.436 C 432.266 36.591 430.409 36.441 432.128 34.250 C 433.379 32.655 433.341 32.625 431.708 33.908 C 429.243 35.843 430.851 37.146 436.156 37.512 C 438.545 37.676 441.175 38.030 442.000 38.298 C 465.784 46.014 475.920 52.835 485.434 67.526 C 488.667 72.518 493.000 82.796 493.000 85.472 C 493.000 86.241 493.500 88.137 494.112 89.685 C 494.723 91.233 495.210 95.112 495.193 98.305 C 495.167 103.207 495.383 103.927 496.581 102.933 C 497.361 102.285 498.000 101.135 498.000 100.378 C 498.000 99.620 498.450 99.000 499.000 99.000 C 499.550 99.000 500.000 98.325 500.000 97.500 C 500.000 96.675 500.450 95.944 501.000 95.875 C 501.550 95.806 502.488 95.694 503.083 95.625 C 503.679 95.556 503.840 95.173 503.441 94.774 C 503.042 94.375 503.228 93.431 503.854 92.676 C 504.736 91.614 504.518 90.874 502.891 89.402 C 501.736 88.356 501.250 87.500 501.812 87.500 C 503.575 87.500 504.207 86.227 503.519 84.061 C 503.154 82.911 502.426 82.237 501.900 82.562 C 501.328 82.916 501.171 81.868 501.509 79.948 C 502.344 75.209 494.775 60.262 487.458 52.199 C 478.678 42.524 462.791 32.793 451.252 30.022 C 448.638 29.394 445.481 28.629 444.236 28.321 C 442.446 27.879 442.101 28.101 442.593 29.381 C 442.946 30.303 442.712 31.000 442.048 31.000 C 441.407 31.000 441.141 30.581 441.457 30.069 C 442.333 28.652 440.668 28.046 438.789 29.098 "/></g>
<g fill="#B8009EFE" stroke="#B8009EFE">
<path d="M 394.744 237.856 C 395.652 239.310 396.555 240.712 396.752 240.971 C 396.948 241.230 397.527 240.780 398.039 239.971 C 398.853 238.684 398.969 238.687 398.969 240.000 C 398.969 240.825 398.557 242.152 398.053 242.948 C 397.318 244.110 396.900 243.874 395.933 241.753 C 395.271 240.299 394.051 238.850 393.223 238.532 C 391.995 238.061 391.944 238.227 392.945 239.433 C 393.653 240.287 393.825 241.460 393.351 242.206 C 392.712 243.213 392.500 243.223 392.390 242.250 C 392.313 241.563 392.194 240.775 392.125 240.500 C 392.056 240.225 391.100 240.900 390.000 242.000 C 388.377 243.623 388.294 244.000 389.559 244.000 C 390.416 244.000 390.877 244.390 390.583 244.866 C 389.871 246.018 393.804 249.529 394.749 248.585 C 395.154 248.180 395.488 248.496 395.492 249.288 C 395.497 250.079 401.625 257.201 409.111 265.113 C 416.596 273.026 427.345 284.675 432.997 291.000 C 438.649 297.325 443.758 302.500 444.350 302.500 C 444.941 302.500 445.442 303.398 445.463 304.496 C 445.483 305.594 446.063 306.494 446.750 306.496 C 447.438 306.498 448.000 306.838 448.000 307.250 C 448.000 307.663 448.338 308.113 448.750 308.250 C 449.163 308.388 449.647 307.219 449.826 305.653 C 450.088 303.361 450.542 302.908 452.155 303.330 C 453.572 303.701 454.004 303.452 453.630 302.478 C 453.262 301.519 453.617 301.295 454.801 301.738 C 456.280 302.292 456.323 302.157 455.137 300.698 C 454.387 299.776 453.305 299.312 452.732 299.666 C 452.160 300.019 451.979 299.842 452.332 299.272 C 453.139 297.966 449.159 292.783 447.931 293.542 C 447.432 293.851 447.236 293.518 447.496 292.802 C 448.319 290.536 398.701 236.678 394.866 235.675 C 393.195 235.238 393.188 235.365 394.744 237.856 "/></g>
<g fill="#F042F6FE" stroke="#F042F6FE">
<path d="M 72.750 22.758 C 71.788 22.972 70.944 23.564 70.875 24.073 C 70.806 24.583 70.687 25.563 70.610 26.250 C 70.497 27.250 70.311 27.250 69.676 26.250 C 69.239 25.563 69.134 24.933 69.441 24.850 C 69.748 24.768 69.550 24.655 69.000 24.600 C 68.450 24.545 68.113 24.911 68.250 25.413 C 68.388 25.915 67.321 26.377 65.881 26.440 C 62.979 26.567 53.456 32.095 45.000 38.561 C 29.708 50.255 18.696 68.316 17.295 84.000 C 16.831 89.206 16.957 89.592 19.652 91.223 C 21.218 92.171 21.964 92.959 21.309 92.973 C 20.654 92.988 19.840 92.550 19.500 92.000 C 18.212 89.916 17.491 91.164 17.228 95.934 C 16.986 100.323 17.194 100.902 19.112 101.183 C 21.148 101.482 21.168 101.416 19.486 100.005 C 17.779 98.573 17.780 98.510 19.513 98.505 C 20.538 98.502 22.167 96.984 23.274 95.000 C 24.348 93.075 25.583 91.275 26.019 90.999 C 26.454 90.724 26.932 88.474 27.080 85.999 C 27.228 83.525 27.984 80.210 28.760 78.633 C 29.537 77.056 29.950 74.918 29.679 73.882 C 29.408 72.845 29.595 72.250 30.095 72.559 C 30.872 73.039 33.429 68.220 32.985 67.112 C 32.899 66.898 33.306 66.429 33.889 66.068 C 34.472 65.708 35.102 64.412 35.289 63.188 C 35.476 61.964 35.901 61.235 36.234 61.568 C 36.568 61.901 37.604 61.007 38.538 59.582 C 39.967 57.402 40.027 56.713 38.917 55.245 C 37.794 53.761 37.806 53.687 38.998 54.750 C 40.935 56.477 42.335 56.316 41.618 54.448 C 41.291 53.594 41.430 53.148 41.927 53.455 C 42.425 53.763 44.107 52.765 45.666 51.237 C 48.838 48.129 57.076 42.227 61.216 40.096 C 62.710 39.328 63.696 38.316 63.407 37.849 C 63.118 37.382 64.034 37.000 65.441 37.000 C 67.025 37.000 68.000 36.440 68.000 35.531 C 68.000 34.672 68.590 34.289 69.423 34.609 C 70.896 35.174 71.042 33.457 69.702 31.313 C 69.182 30.481 69.696 30.259 71.416 30.570 C 72.767 30.815 74.195 30.493 74.591 29.853 C 75.037 29.130 74.873 28.961 74.155 29.405 C 73.520 29.797 73.000 29.657 73.000 29.094 C 73.000 28.531 73.900 27.589 75.000 27.000 C 76.356 26.274 77.000 26.263 77.000 26.965 C 77.000 27.534 77.408 28.000 77.906 28.000 C 79.050 28.000 76.849 23.152 75.500 22.702 C 74.950 22.519 73.713 22.544 72.750 22.758 "/></g>
<g fill="#B8009EFE" stroke="#B8009EFE">
<path d="M 288.158 377.495 C 288.381 379.446 288.051 380.492 287.214 380.495 C 286.506 380.498 285.606 380.999 285.214 381.608 C 284.213 383.163 280.801 382.448 279.277 380.365 C 278.575 379.404 278.000 379.135 278.000 379.766 C 278.000 380.398 279.575 382.171 281.500 383.707 C 283.425 385.243 284.514 386.500 283.920 386.500 C 283.326 386.500 284.022 387.528 285.467 388.784 C 287.158 390.255 288.616 390.789 289.559 390.284 C 290.711 389.667 290.685 389.874 289.440 391.250 C 287.997 392.846 288.252 393.434 290.250 393.118 C 290.663 393.053 291.000 393.415 291.000 393.923 C 291.000 395.672 296.184 401.004 297.246 400.348 C 297.921 399.931 298.010 400.175 297.490 401.015 C 296.883 401.998 297.138 402.161 298.477 401.647 C 299.895 401.103 300.047 401.238 299.186 402.276 C 296.824 405.121 327.197 432.656 339.808 439.102 C 342.389 440.421 344.838 441.455 345.250 441.400 C 345.663 441.345 345.720 441.233 345.378 441.150 C 345.035 441.068 345.320 440.319 346.010 439.488 C 346.919 438.393 347.618 438.268 348.544 439.036 C 349.455 439.793 350.035 439.752 350.565 438.894 C 351.037 438.131 350.886 437.952 350.155 438.405 C 348.465 439.449 348.743 437.458 350.489 436.009 C 352.288 434.516 351.536 432.857 349.427 433.666 C 348.597 433.985 348.049 433.785 348.209 433.223 C 348.369 432.660 348.131 432.268 347.680 432.350 C 347.228 432.433 346.419 431.713 345.880 430.750 C 345.341 429.788 344.439 429.000 343.876 429.000 C 339.995 429.000 312.403 403.937 301.158 390.198 C 298.321 386.732 296.000 384.370 296.000 384.948 C 296.000 385.527 295.520 386.000 294.933 386.000 C 294.346 386.000 294.097 385.213 294.381 384.250 C 294.704 383.156 293.569 381.000 291.356 378.500 L 287.815 374.500 288.158 377.495 "/></g>
<g fill="#300418FE" stroke="#300418FE">
<path d="M 176.281 413.244 C 171.462 416.251 169.589 418.824 172.000 419.125 C 172.550 419.194 173.450 419.306 174.000 419.375 C 174.550 419.444 175.000 419.838 175.000 420.250 C 175.000 420.663 175.241 420.980 175.535 420.955 C 175.830 420.931 177.240 421.831 178.670 422.955 C 180.100 424.080 181.884 425.000 182.635 425.000 C 183.386 425.000 184.000 425.450 184.000 426.000 C 184.000 426.550 184.620 427.000 185.378 427.000 C 186.135 427.000 187.373 427.708 188.128 428.574 C 188.882 429.440 189.400 429.704 189.279 429.161 C 189.082 428.281 197.751 432.544 199.000 433.941 C 199.275 434.248 202.650 436.047 206.500 437.939 C 210.350 439.830 214.850 442.457 216.500 443.777 C 218.150 445.096 219.388 445.686 219.250 445.088 C 218.905 443.588 219.869 443.726 221.563 445.420 C 222.652 446.509 222.694 446.956 221.741 447.341 C 220.907 447.678 220.991 447.863 222.000 447.906 C 224.086 447.995 237.765 437.755 236.239 437.246 C 235.558 437.019 235.000 437.281 235.000 437.828 C 235.000 438.375 234.328 438.724 233.508 438.604 C 232.352 438.434 232.284 438.116 233.208 437.192 C 234.131 436.269 234.073 435.997 232.950 435.985 C 231.714 435.972 231.722 435.814 233.000 434.919 C 234.187 434.088 234.048 433.995 232.334 434.475 C 231.143 434.809 229.879 434.613 229.525 434.041 C 229.171 433.468 227.982 433.000 226.882 433.000 C 225.782 433.000 225.160 432.550 225.500 432.000 C 225.840 431.450 225.486 431.000 224.713 431.000 C 222.747 431.000 217.000 428.030 217.000 427.015 C 217.000 426.553 215.141 425.862 212.869 425.478 C 209.799 424.959 209.093 424.529 210.119 423.803 C 211.134 423.085 210.893 422.960 209.207 423.331 C 207.649 423.674 206.530 423.221 205.716 421.918 C 205.058 420.863 204.037 420.000 203.448 420.000 C 202.859 420.000 201.392 419.082 200.189 417.961 C 198.985 416.840 198.000 416.220 198.000 416.583 C 198.000 416.947 197.256 416.627 196.346 415.872 C 195.437 415.118 194.649 414.638 194.596 414.807 C 194.543 414.976 192.925 414.431 191.000 413.596 C 189.075 412.761 187.950 412.026 188.500 411.963 C 189.050 411.899 188.825 411.664 188.000 411.441 C 182.432 409.936 181.305 410.109 176.281 413.244 "/></g>
<g fill="#300418FE" stroke="#300418FE">
<path d="M 433.183 212.292 C 430.607 213.919 428.225 215.682 427.888 216.210 C 427.552 216.739 426.989 217.132 426.638 217.085 C 426.287 217.038 426.225 217.056 426.500 217.125 C 426.775 217.194 427.450 217.363 428.000 217.500 C 428.550 217.638 429.675 217.806 430.500 217.875 C 431.325 217.944 432.000 218.750 432.000 219.667 C 432.000 220.583 432.265 221.069 432.588 220.746 C 432.911 220.422 436.963 222.172 441.593 224.635 C 446.223 227.097 450.528 228.792 451.160 228.401 C 451.843 227.979 452.038 228.130 451.640 228.773 C 451.266 229.379 451.949 230.166 453.189 230.560 C 454.409 230.947 455.975 231.767 456.669 232.382 C 459.798 235.154 460.614 235.629 461.656 235.281 C 462.267 235.078 463.383 235.499 464.134 236.217 C 466.255 238.245 471.032 240.099 472.229 239.358 C 472.874 238.960 473.020 239.159 472.591 239.853 C 472.190 240.502 472.560 241.278 473.431 241.612 C 474.288 241.941 474.743 242.607 474.442 243.093 C 474.142 243.579 474.707 243.686 475.698 243.329 C 476.706 242.967 477.148 243.067 476.701 243.557 C 476.259 244.040 477.488 244.534 479.447 244.659 C 482.117 244.830 484.026 244.096 487.168 241.693 C 492.317 237.755 493.061 236.000 489.583 236.000 C 488.163 236.000 487.000 235.475 487.000 234.833 C 487.000 234.192 486.713 233.953 486.363 234.304 C 486.012 234.654 484.334 233.942 482.634 232.720 C 478.413 229.690 475.978 228.259 472.830 226.961 C 471.362 226.356 469.913 225.217 469.612 224.430 C 469.310 223.644 468.486 223.007 467.781 223.015 C 466.885 223.026 466.951 223.322 468.000 224.000 C 468.825 224.533 468.993 224.976 468.372 224.985 C 467.752 224.993 466.668 224.305 465.962 223.454 C 465.257 222.604 464.027 222.160 463.228 222.466 C 462.198 222.861 461.961 222.543 462.412 221.370 C 462.942 219.987 462.797 219.923 461.523 220.981 C 460.274 222.018 460.000 221.974 460.000 220.739 C 460.000 219.478 458.726 218.680 456.000 218.237 C 455.725 218.192 452.826 216.545 449.559 214.578 C 446.291 212.610 443.029 211.000 442.309 211.000 C 441.589 211.000 441.000 210.625 441.000 210.167 C 441.000 208.514 437.775 209.390 433.183 212.292 "/></g>
<g fill="#7C0E52FE" stroke="#7C0E52FE">
<path d="M 484.082 167.415 C 481.316 170.270 479.741 173.896 481.828 172.606 C 482.283 172.325 485.208 173.364 488.328 174.915 C 491.448 176.466 494.007 177.457 494.015 177.117 C 494.024 176.778 494.361 177.000 494.765 177.610 C 495.169 178.221 496.963 179.470 498.750 180.386 C 500.538 181.302 502.000 182.490 502.000 183.026 C 502.000 183.562 502.873 184.000 503.941 184.000 C 505.009 184.000 506.160 184.450 506.500 185.000 C 506.840 185.550 507.991 186.000 509.059 186.000 C 510.127 186.000 511.000 186.502 511.000 187.117 C 511.000 187.731 511.866 188.007 512.925 187.730 C 514.388 187.347 514.703 187.620 514.238 188.863 C 513.703 190.293 513.842 190.324 515.336 189.109 C 516.819 187.902 516.967 187.922 516.452 189.264 C 516.020 190.391 516.719 190.999 519.031 191.507 C 520.776 191.890 523.142 193.142 524.289 194.289 C 525.722 195.722 526.504 195.987 526.789 195.134 C 527.075 194.274 527.602 194.441 528.507 195.678 C 529.704 197.315 529.955 197.162 531.548 193.822 C 532.651 191.508 532.990 189.511 532.478 188.341 C 532.035 187.328 531.634 187.067 531.586 187.759 C 531.534 188.521 530.501 188.092 528.970 186.673 C 527.579 185.383 525.198 184.015 523.679 183.634 C 522.161 183.253 521.169 182.536 521.475 182.040 C 521.782 181.544 521.506 180.813 520.862 180.415 C 520.088 179.937 519.960 180.127 520.485 180.975 C 520.921 181.682 520.878 182.069 520.389 181.836 C 519.900 181.604 517.363 180.436 514.750 179.242 C 512.138 178.048 510.000 176.579 510.000 175.977 C 510.000 175.375 509.586 175.138 509.081 175.450 C 508.575 175.763 507.562 175.433 506.831 174.717 C 506.099 174.001 503.925 172.793 502.000 172.033 C 500.075 171.273 497.375 169.901 496.000 168.983 C 494.625 168.066 492.074 166.623 490.332 165.776 C 487.233 164.268 487.098 164.304 484.082 167.415 "/></g>
<g fill="#BA28A4FE" stroke="#BA28A4FE">
<path d="M 406.745 215.146 C 405.230 216.262 404.214 217.538 404.489 217.982 C 404.764 218.427 404.293 219.057 403.442 219.384 C 402.557 219.724 402.157 219.555 402.507 218.989 C 403.480 217.415 401.374 217.845 400.000 219.500 C 399.315 220.325 398.135 221.000 397.378 221.000 C 396.620 221.000 396.000 221.450 396.000 222.000 C 396.000 222.550 395.663 222.904 395.250 222.788 C 393.728 222.356 389.966 225.136 390.627 226.205 C 391.018 226.838 390.855 227.028 390.245 226.651 C 388.910 225.826 385.840 226.932 386.500 228.000 C 386.769 228.435 386.293 229.057 385.442 229.384 C 384.493 229.748 384.151 229.564 384.557 228.908 C 384.920 228.320 383.599 228.888 381.621 230.170 C 377.822 232.631 377.333 233.469 379.067 234.541 C 379.653 234.904 380.716 234.403 381.428 233.429 C 382.871 231.456 386.000 230.612 386.000 232.195 C 386.000 232.756 385.332 232.958 384.515 232.644 C 383.634 232.306 382.589 232.899 381.946 234.101 C 380.704 236.422 381.927 238.525 385.105 239.533 C 386.163 239.869 386.769 240.565 386.451 241.079 C 385.283 242.969 389.276 243.343 390.645 241.471 C 391.973 239.655 392.106 239.714 392.390 242.250 C 392.500 243.223 392.712 243.213 393.351 242.206 C 393.825 241.460 393.653 240.287 392.945 239.433 C 391.944 238.227 391.995 238.061 393.223 238.532 C 394.051 238.850 395.271 240.299 395.933 241.753 C 396.900 243.874 397.318 244.110 398.053 242.948 C 398.557 242.152 398.969 240.825 398.969 240.000 C 398.969 238.687 398.853 238.684 398.039 239.971 C 397.527 240.780 396.948 241.230 396.752 240.971 C 394.893 238.518 393.025 234.897 393.896 235.436 C 394.521 235.822 395.000 235.441 395.000 234.559 C 395.000 233.702 395.477 233.000 396.059 233.000 C 396.641 233.000 396.797 232.480 396.405 231.845 C 395.964 231.133 396.130 230.962 396.838 231.400 C 397.468 231.789 398.775 231.648 399.742 231.085 C 401.290 230.183 401.202 230.043 399.000 229.914 C 396.999 229.797 396.885 229.670 398.429 229.276 C 400.711 228.694 403.680 226.000 402.039 226.000 C 401.329 226.000 401.468 225.020 402.428 223.250 C 403.249 221.738 403.938 221.138 403.960 221.917 C 403.982 222.696 404.338 222.996 404.750 222.583 C 405.163 222.171 405.507 222.433 405.515 223.167 C 405.527 224.201 405.735 224.177 406.442 223.059 C 407.049 222.100 406.927 221.476 406.079 221.193 C 405.294 220.931 405.897 220.048 407.652 218.891 C 409.219 217.858 410.062 217.010 409.527 217.007 C 408.993 217.003 409.625 216.251 410.932 215.335 C 413.102 213.815 413.143 213.646 411.405 213.394 C 410.357 213.242 408.260 214.030 406.745 215.146 "/></g>
<g fill="#560830FE" stroke="#560830FE">
<path d="M 428.517 269.129 C 437.780 278.936 452.796 296.270 457.150 302.182 C 463.645 310.998 467.406 314.980 469.250 314.990 C 470.213 314.996 471.004 315.338 471.008 315.750 C 471.012 316.163 472.167 317.034 473.574 317.687 C 475.402 318.536 474.188 316.679 469.322 311.187 C 465.576 306.959 461.384 302.343 460.006 300.930 C 458.628 299.516 452.340 293.112 446.034 286.698 C 435.527 276.011 434.720 274.926 436.375 273.715 C 437.862 272.628 437.943 272.198 436.837 271.280 C 436.098 270.666 434.837 270.015 434.036 269.832 C 433.234 269.649 432.111 269.156 431.539 268.736 C 430.968 268.316 428.700 266.799 426.500 265.365 C 422.740 262.914 422.862 263.140 428.517 269.129 "/></g>
<g fill="#B4B4B4FE" stroke="#B4B4B4FE">
<path d="M 77.496 207.500 C 84.202 216.716 94.644 229.431 98.302 232.836 C 100.442 234.828 101.137 234.997 103.027 233.985 C 105.186 232.830 105.077 232.630 98.872 226.296 C 93.221 220.528 74.198 201.736 72.372 200.118 C 71.988 199.778 74.294 203.100 77.496 207.500 "/></g>
<g fill="#300418FE" stroke="#300418FE">
<path d="M 415.000 253.626 C 415.000 255.025 426.489 265.960 429.093 267.038 C 430.692 267.701 432.000 268.638 432.000 269.121 C 432.000 269.605 432.338 269.947 432.750 269.882 C 434.639 269.583 436.070 270.078 435.585 270.862 C 435.292 271.336 436.053 271.619 437.276 271.490 C 440.080 271.194 440.206 271.156 441.912 270.075 C 443.126 269.307 443.122 268.993 441.888 267.841 C 441.099 267.103 439.820 266.361 439.046 266.190 C 438.273 266.020 436.371 264.976 434.820 263.872 C 433.269 262.767 431.986 262.232 431.968 262.682 C 431.951 263.132 431.387 262.825 430.715 262.000 C 430.043 261.175 428.847 260.359 428.057 260.187 C 427.267 260.015 424.006 258.341 420.810 256.468 C 417.615 254.595 415.000 253.316 415.000 253.626 "/></g>
<g fill="#B4B4B4FE" stroke="#B4B4B4FE">
<path d="M 232.500 84.071 C 236.900 88.152 244.984 95.844 250.465 101.165 C 259.169 109.617 260.680 110.706 262.416 109.778 C 264.715 108.547 265.145 108.970 244.500 92.161 C 227.607 78.406 223.155 75.405 232.500 84.071 "/></g>
<g fill="#7C0E52FE" stroke="#7C0E52FE">
<path d="M 463.510 311.765 C 464.065 312.169 465.399 314.177 466.475 316.228 C 467.764 318.684 469.658 320.446 472.032 321.396 C 474.012 322.188 477.527 323.886 479.842 325.168 L 484.051 327.500 479.091 322.250 C 476.362 319.363 473.426 317.000 472.565 317.000 C 471.704 317.000 471.000 316.550 471.000 316.000 C 471.000 315.450 470.116 315.000 469.035 315.000 C 467.955 315.000 466.589 314.100 466.000 313.000 C 465.411 311.900 464.383 311.007 463.715 311.015 C 462.947 311.025 462.872 311.301 463.510 311.765 "/></g>
<g fill="#D836D2FE" stroke="#D836D2FE">
<path d="M 51.500 46.382 C 49.850 47.520 47.225 49.703 45.666 51.233 C 44.107 52.762 42.425 53.763 41.927 53.455 C 41.430 53.148 41.291 53.594 41.618 54.448 C 42.335 56.316 40.935 56.477 38.998 54.750 C 37.818 53.697 37.792 53.760 38.833 55.145 C 39.514 56.049 39.942 57.234 39.785 57.778 C 39.628 58.322 42.875 55.515 47.000 51.540 C 51.125 47.566 53.150 45.245 51.500 46.382 "/></g>
<g fill="#DCDCDCFE" stroke="#DCDCDCFE">
<path d="M 543.500 99.500 L 554.000 110.000 543.500 99.500 L 533.000 89.000 543.500 99.500 "/></g>
<g fill="#DCDCDCFE" stroke="#DCDCDCFE">
<path d="M 92.000 493.000 L 102.000 503.000 92.000 493.000 L 82.000 483.000 92.000 493.000 "/></g>
<g fill="#BA28A4FE" stroke="#BA28A4FE">
<path d="M 125.000 434.133 C 125.000 434.756 124.031 436.106 122.847 437.133 C 120.355 439.294 121.112 439.382 126.000 437.500 C 128.082 436.698 128.748 436.121 127.643 436.076 C 126.417 436.026 125.982 435.490 126.362 434.500 C 126.678 433.675 126.501 433.000 125.969 433.000 C 125.436 433.000 125.000 433.510 125.000 434.133 "/></g>
<g fill="#B8009EFE" stroke="#B8009EFE">
<path d="M 381.664 233.167 C 381.034 234.175 380.151 235.000 379.700 235.000 C 379.250 235.000 379.203 234.480 379.595 233.845 C 380.038 233.130 379.870 232.962 379.155 233.405 C 378.520 233.797 378.000 233.566 378.000 232.892 C 378.000 232.218 377.703 231.964 377.339 232.327 C 376.976 232.690 377.515 233.912 378.537 235.041 L 380.395 237.094 381.710 234.583 C 382.537 233.006 383.579 232.285 384.513 232.643 C 385.331 232.957 386.000 232.791 386.000 232.274 C 386.000 230.619 382.850 231.268 381.664 233.167 "/></g>
<g fill="#B8009EFE" stroke="#B8009EFE">
<path d="M 252.000 119.000 L 259.000 126.000 252.000 119.000 L 245.000 112.000 252.000 119.000 "/></g>
<g fill="#A80060FE" stroke="#A80060FE">
<path d="M 412.500 252.500 L 418.000 258.000 412.500 252.500 L 407.000 247.000 412.500 252.500 "/></g>
<g fill="#A80060FE" stroke="#A80060FE">
<path d="M 471.500 181.457 L 466.500 186.554 471.500 181.457 L 476.500 176.361 471.500 181.457 "/></g>
<g fill="#B8009EFE" stroke="#B8009EFE">
<path d="M 233.000 101.000 L 238.000 106.000 233.000 101.000 L 228.000 96.000 233.000 101.000 "/></g>
<g fill="#560830FE" stroke="#560830FE">
<path d="M 403.000 242.000 L 408.000 247.000 403.000 242.000 L 398.000 237.000 403.000 242.000 "/></g>
<g fill="#560830FE" stroke="#560830FE">
<path d="M 102.000 229.500 C 103.292 230.875 104.799 232.000 105.349 232.000 C 105.899 232.000 105.292 230.875 104.000 229.500 C 102.708 228.125 101.201 227.000 100.651 227.000 C 100.101 227.000 100.708 228.125 102.000 229.500 "/></g>
<g fill="#BA28A4FE" stroke="#BA28A4FE">
<path d="M 307.000 413.000 L 312.000 418.000 307.000 413.000 L 302.000 408.000 307.000 413.000 "/></g>
<g fill="#B8009EFE" stroke="#B8009EFE">
<path d="M 396.781 225.337 C 398.036 226.034 398.749 226.918 398.365 227.302 C 397.981 227.686 398.192 228.000 398.833 228.000 C 400.573 228.000 400.243 225.307 398.418 224.607 C 395.591 223.522 394.438 224.037 396.781 225.337 "/></g>
<g fill="#ECAAEAFE" stroke="#ECAAEAFE">
<path d="M 74.500 201.500 L 79.000 206.000 74.500 201.500 L 70.000 197.000 74.500 201.500 "/></g>
</svg>
